G04 ================== begin FILE IDENTIFICATION RECORD ==================*
G04 Layout Name:  C:/Users/Liber/Desktop/SmartRing-V1.02/PCB/SmartRing.brd*
G04 Film Name:    BOTTOM*
G04 File Format:  Gerber RS274X*
G04 File Origin:  Cadence Allegro 16.3-p003*
G04 Origin Date:  Sun Feb 09 19:54:53 2014*
G04 *
G04 Layer:  ETCH/BOTTOM*
G04 Layer:  PIN/BOTTOM*
G04 Layer:  VIA CLASS/BOTTOM*
G04 *
G04 Offset:    (0.000 0.000)*
G04 Mirror:    No*
G04 Mode:      Positive*
G04 Rotation:  0*
G04 FullContactRelief:  No*
G04 UndefLineWidth:     6.000*
G04 ================== end FILE IDENTIFICATION RECORD ====================*
%FSLAX55Y55*MOIN*%
%IR0*IPPOS*OFA0.00000B0.00000*MIA0B0*SFA1.00000B1.00000*%
%ADD22R,.017717X.068898*%
%AMMACRO30*
21,1,.025197,.022441,0.0,0.0,135.*%
%ADD30MACRO30*%
%AMMACRO29*
21,1,.025197,.024409,0.0,0.0,135.*%
%ADD29MACRO29*%
%ADD10C,.024*%
%ADD28C,.05315*%
%ADD12C,.043307*%
%ADD25R,.014173X.024803*%
%ADD27R,.05315X.05315*%
%ADD26R,.03937X.011811*%
%ADD14R,.022441X.025197*%
%ADD17R,.025197X.022441*%
%ADD11R,.031496X.037402*%
%ADD16R,.037402X.017717*%
%ADD23C,.062992*%
%ADD15R,.024409X.025197*%
%ADD18R,.025197X.024409*%
%ADD20R,.037402X.082677*%
%ADD24R,.049213X.062992*%
%ADD19R,.062992X.049213*%
%ADD21R,.062992X.062992*%
%ADD13R,.047244X.088583*%
%ADD31C,.007*%
G75*
%LPD*%
G75*
G54D10*
X-136100Y44000D03*
X-135700Y47400D03*
X-132900Y-47300D03*
X-127000Y-47000D03*
X-131550Y-39500D03*
X-130200Y-22900D03*
X-126855Y-27625D03*
X-129900Y-29875D03*
X-127038Y27168D03*
X-131100Y21146D03*
X-126528Y35591D03*
X-114600Y-43100D03*
X-120950Y-47550D03*
X-120938Y-40700D03*
X-115006Y-5006D03*
X-117472Y31328D03*
X-114995Y38740D03*
X-103100Y-38300D03*
X-109200Y14500D03*
X-101600Y37981D03*
X-97600Y-43600D03*
X-96118Y-5082D03*
X-95600Y14400D03*
X-90567Y26518D03*
X-98100Y30100D03*
X-86600Y14400D03*
X-79279Y39300D03*
X-78200Y28768D03*
X-82600Y30350D03*
X-86300Y32300D03*
X-88500Y42350D03*
X-83940D03*
X-88440Y46410D03*
X-72700Y-43600D03*
X-74220Y-38718D03*
X-70287Y-37318D03*
X-72818Y-23088D03*
X-68000Y1300D03*
X-69133Y-5600D03*
X-66100Y6300D03*
X-69559Y26518D03*
X-72585Y44160D03*
X-72232Y48745D03*
X-76235Y39610D03*
X-54450Y-40092D03*
X-59263Y-37318D03*
X-55145Y-30154D03*
X-54845Y-21542D03*
X-55145Y-16030D03*
X-59110Y590D03*
X-63450Y9850D03*
X-59110Y11529D03*
X-57200Y25600D03*
X-61000Y27700D03*
X-64928Y27968D03*
X-58450Y44160D03*
X-61200Y47400D03*
X-47700Y-49900D03*
X-43150Y-37465D03*
X-46700Y-32600D03*
X-51495Y-25654D03*
X-49245Y-27904D03*
X-47900Y-15800D03*
X-44000Y-14000D03*
X-51800Y6300D03*
X-53300Y11400D03*
X-52400Y20440D03*
X-49800Y25800D03*
X-50987Y37300D03*
X-43300Y36200D03*
X-44085Y40614D03*
X-47840Y40395D03*
X-43657Y48232D03*
X-41750Y-48200D03*
X-32736Y-37817D03*
X-40100Y-25600D03*
X-30634Y-11160D03*
X-40900Y-10300D03*
X-41500Y-17400D03*
X-41232Y515D03*
X-30651Y-2490D03*
X-38982Y10254D03*
X-32080Y10260D03*
X-30800Y14200D03*
X-34330Y12611D03*
X-41800Y33000D03*
X-38800Y43000D03*
X-22800Y-33500D03*
X-21350Y-37350D03*
X-27759Y-24973D03*
X-22250Y-29400D03*
X-25509Y-28623D03*
X-26909Y-20500D03*
X-29909Y-21100D03*
X-26909Y-16760D03*
X-22800Y5600D03*
X-19800D03*
X-29500Y23500D03*
X-27800Y27900D03*
X-19800Y28700D03*
X-19700Y42000D03*
X-12700Y-38100D03*
X-15219Y-21657D03*
X-10000Y-28800D03*
X-17800Y900D03*
X-15493Y3865D03*
X-17500Y12800D03*
X-10223Y6477D03*
X-11505Y25460D03*
X-14500Y28000D03*
X-2800Y-35750D03*
X-6500Y-27378D03*
X-2100Y-17762D03*
X-5639Y-17700D03*
X-4000Y-900D03*
X2288Y250D03*
X1707Y11809D03*
X2807Y14809D03*
X2032Y27600D03*
X962Y21200D03*
X-6639Y38300D03*
X100Y38800D03*
X3500Y46300D03*
X8638Y-8436D03*
X7800Y-13800D03*
X12561Y-2180D03*
X14362Y9100D03*
X13612Y17666D03*
X8900Y39300D03*
X14000Y49900D03*
X9989Y43475D03*
X6600Y49800D03*
X22882Y-33500D03*
X21422Y-6919D03*
X26737Y13100D03*
X25950Y28800D03*
X25999Y41225D03*
X36599Y-21850D03*
X34349Y-13059D03*
Y4982D03*
X36599Y13267D03*
X32911Y9100D03*
X31132Y17600D03*
X38849Y21800D03*
X33382Y19910D03*
X36599Y34656D03*
X31181Y34260D03*
X36478Y41225D03*
X40953Y-38750D03*
X43990Y2732D03*
X40600Y14600D03*
X47140Y4900D03*
X48516Y17959D03*
X40600Y45463D03*
X55092Y-35800D03*
X61262Y-32209D03*
X58650Y-29959D03*
X57342Y-23706D03*
X51442Y-21005D03*
Y-27510D03*
X62500Y-22500D03*
X61500Y-11900D03*
X55050Y-5350D03*
X59800Y-1168D03*
X62660Y6604D03*
X57454Y15400D03*
X52689Y5711D03*
X58479Y22700D03*
X59312Y25700D03*
X68700Y-22100D03*
X63600Y-16300D03*
X68353Y-9870D03*
X71000Y-13800D03*
X62750Y2482D03*
X65900Y-3200D03*
X71200Y-600D03*
X66650Y10250D03*
X73100Y15300D03*
X68805Y15400D03*
X68500Y22900D03*
X73446Y19600D03*
X63700Y29000D03*
X72300Y31600D03*
X76442Y-34508D03*
X83392Y-25286D03*
X83860Y-20786D03*
X75753Y-7992D03*
X76700Y-12900D03*
X75000Y-17200D03*
X76314Y3542D03*
X76700Y26800D03*
X91734Y-20786D03*
X88360D03*
X93832Y-23886D03*
X93000Y-10800D03*
X86700Y-10300D03*
X86200Y-5600D03*
X93000Y-300D03*
X88300D03*
X94200Y10700D03*
X91200Y11900D03*
X88800Y5600D03*
X94200Y17868D03*
X93000Y43200D03*
X105900Y-33400D03*
X102140Y-20786D03*
X99150Y-10350D03*
X99200Y-5600D03*
X107800Y5200D03*
X103700Y13400D03*
X98300D03*
X105300Y7500D03*
X108832Y20032D03*
X100450Y26832D03*
X101500Y34800D03*
X108000Y29900D03*
X118100Y-50800D03*
X117650Y-35650D03*
X114655Y-22000D03*
X117968D03*
X118149Y-17500D03*
X115089Y-12760D03*
X112968Y-15010D03*
X111086Y-9585D03*
X116090Y951D03*
X111086Y-6585D03*
X114650Y9812D03*
X110500Y7800D03*
X114650Y25100D03*
X109351Y23968D03*
X127055Y-33200D03*
X122800Y-36900D03*
X127732Y-13600D03*
X121935Y3701D03*
X121000Y-1849D03*
X132232Y7338D03*
X126600Y12600D03*
X132232Y25900D03*
X125532Y20000D03*
X125512Y23800D03*
X129982Y30500D03*
X126400Y34100D03*
X133427Y-23950D03*
X137996Y-21700D03*
X132800Y-17500D03*
X135100Y4100D03*
Y23300D03*
X145000Y6100D03*
X144700Y39500D03*
X164400Y25000D03*
X175300Y-10651D03*
X178592Y11100D03*
X185568Y19808D03*
X181500Y41400D03*
X187300Y41100D03*
X196244Y-10544D03*
G54D20*
X-22342Y11789D03*
X-23916Y23600D03*
X9942Y11789D03*
X11516Y23600D03*
G54D11*
X-125685Y-9637D03*
Y-1763D03*
X-64071Y-9637D03*
Y-1763D03*
G54D21*
X-25000Y45900D03*
X15000Y-26800D03*
X116600Y47100D03*
X148100Y-11800D03*
Y-1700D03*
X173200Y-23000D03*
G54D12*
X-133100Y33500D03*
X-50700Y-21300D03*
X-41700Y14400D03*
X-33300Y48100D03*
X-2700Y-30700D03*
X18300Y18500D03*
X193900Y-13600D03*
G54D30*
X80336Y5636D03*
X186436Y29436D03*
G54D31*
G01X-135700Y47400D02*
X-136300D01*
X-138350Y45350D01*
Y-46050D01*
X-132448Y-51951D01*
X-122169D01*
X-117318Y-47100D01*
X-46800D01*
X-42992Y-50907D01*
X95792D01*
X100900Y-45800D01*
G01X-132900Y-47300D02*
X-136400Y-43800D01*
Y32168D01*
X-136315Y32253D01*
Y41435D01*
X-136100Y41650D01*
Y44000D01*
G01X-117472Y31328D02*
X-134800Y14000D01*
Y-41550D01*
X-129350Y-47000D01*
X-127000D01*
G01X-120938Y-40700D02*
X-122600Y-42362D01*
X-128688D01*
X-131550Y-39500D01*
G01X100900Y-35800D02*
X95392Y-41308D01*
X57819D01*
X55460Y-43667D01*
X-61862D01*
X-64479Y-41050D01*
X-100688D01*
X-101738Y-42100D01*
X-111400D01*
X-115500Y-38000D01*
X-120905D01*
X-126855Y-32050D01*
Y-27625D01*
G01X-130200Y-22900D02*
X-127600D01*
X-110850Y-39650D01*
X-110800D01*
X-109900Y-40550D01*
X-102168D01*
X-101268Y-39650D01*
X-101250D01*
X-98388Y-36788D01*
Y-36033D01*
X-96388Y-34033D01*
Y-16988D01*
X-60622Y18778D01*
X-56412D01*
X-54750Y20440D01*
X-52400D01*
G01X-101600Y37981D02*
X-104504Y35078D01*
X-117478D01*
X-121478Y31078D01*
Y29510D01*
X-129841Y21146D01*
X-131100D01*
G01X-133100Y33500D02*
X-130756Y35844D01*
Y44806D01*
X-133350Y47400D01*
X-135700D01*
G01X-127038Y27168D02*
X-133100Y33231D01*
Y33500D01*
G01X-120950Y-47550D02*
X-116500Y-43100D01*
X-114600D01*
G01X-115006Y-5006D02*
Y13724D01*
X-103997Y24733D01*
X-103467D01*
X-98100Y30100D01*
G01X-103100Y-38300D02*
Y-32054D01*
X-101200Y-30154D01*
G01X-46911Y5300D02*
Y9189D01*
X-45200Y10900D01*
Y20400D01*
X-47900Y23100D01*
X-54520D01*
X-57120Y20500D01*
X-60900D01*
X-77700Y3700D01*
X-98400D01*
X-109200Y14500D01*
G01X-57200Y25600D02*
X-58862Y23938D01*
X-62362D01*
X-75300Y11000D01*
X-92200D01*
X-95600Y14400D01*
G01X-101200Y19254D02*
Y13596D01*
X-94304Y6700D01*
X-77200D01*
X-61800Y22100D01*
X-57518D01*
X-55118Y24500D01*
X-55100D01*
X-54800Y24500D01*
X-51972Y27328D01*
X-51710D01*
X-50400Y28638D01*
Y29200D01*
G01X-54657Y34741D02*
X-57677D01*
X-58200Y35264D01*
Y40557D01*
X-59438Y41795D01*
X-64731D01*
X-64796Y41860D01*
X-80133D01*
X-93593Y28400D01*
X-95318D01*
Y28244D01*
X-93212Y26138D01*
Y19254D01*
X-91200D01*
G01X-55145Y-16030D02*
X-75612D01*
X-84612Y-25030D01*
Y-35218D01*
X-81112Y-38718D01*
X-74220D01*
G01X-81200Y-30154D02*
X-55145D01*
G01X-61000Y27700D02*
X-75962Y12738D01*
X-84938D01*
X-86600Y14400D01*
G01X-81200Y19254D02*
Y26518D01*
G01X-78729Y32600D02*
X-81400D01*
X-82600Y31400D01*
Y30350D01*
G01X-90567Y26518D02*
X-81200D01*
G01D02*
X-69559D01*
G01X-74989Y32600D02*
Y35010D01*
X-79279Y39300D01*
G01X-83940Y42350D02*
X-88500D01*
G01X-88440Y46410D02*
X-68090D01*
X-64850Y49650D01*
X-49939D01*
X-36711Y36422D01*
Y5800D01*
G01X-72700Y-43600D02*
X-70350D01*
X-68483Y-45467D01*
X57447D01*
X58647Y-44267D01*
X69367D01*
X70900Y-45800D01*
G01X-70287Y-37318D02*
X-66637Y-33668D01*
X-54995D01*
X-51495Y-30168D01*
Y-25654D01*
G01X-68000Y1300D02*
X-70600D01*
X-74400Y-2500D01*
Y-7600D01*
X-70300Y-11700D01*
Y-11900D01*
X-69600Y-12600D01*
X-54000D01*
X-50150Y-16450D01*
Y-16732D01*
X-48832Y-18050D01*
X-48550D01*
X-46700Y-19900D01*
Y-32600D01*
G01X55050Y-5350D02*
X53388Y-7012D01*
X38700D01*
X36169Y-4480D01*
X-18629D01*
X-29549Y-15400D01*
X-39100D01*
X-48900Y-5600D01*
X-69133D01*
G01X-68400Y38500D02*
X-74300Y32600D01*
X-74989D01*
G01X-64928Y27968D02*
X-65728Y28768D01*
X-78200D01*
G01X-68400Y38500D02*
X-67823Y37923D01*
X-62366D01*
X-61743Y37300D01*
G01X-68571Y38700D02*
X-68400Y38529D01*
Y38500D01*
G01X-58450Y44160D02*
X-72585D01*
G01X-76235Y39610D02*
X-72311D01*
Y38700D01*
G01X-49245Y-37318D02*
X-59263D01*
G01X-63450Y9850D02*
X-61050D01*
X-40900Y-10300D01*
G01X-66100Y6300D02*
X-66500D01*
X-67200Y7000D01*
Y10100D01*
X-63400Y13900D01*
X-55800D01*
X-53300Y11400D01*
G01X-61743Y34741D02*
X-60759D01*
X-58436Y32418D01*
X-53618D01*
X-50400Y29200D01*
G01X105900Y-33400D02*
Y-46800D01*
X100392Y-52308D01*
X-45292D01*
X-47700Y-49900D01*
G01X-47900Y-15800D02*
X-46238Y-17462D01*
Y-18308D01*
X-44450Y-20097D01*
Y-33532D01*
X-44552Y-33634D01*
Y-36062D01*
X-43150Y-37465D01*
G01X-54450Y-40092D02*
X-52676Y-41867D01*
X37836D01*
X40953Y-38750D01*
G01X-49245Y-27904D02*
Y-37318D01*
G01X-2700Y-30700D02*
X-10450Y-38450D01*
Y-39032D01*
X-11768Y-40350D01*
X-13632D01*
X-13915Y-40067D01*
X-46496D01*
X-49245Y-37318D01*
G01X-44000Y-14000D02*
Y-18567D01*
X-40100Y-22467D01*
Y-25600D01*
G01X-47500Y36911D02*
X-48194D01*
X-50054Y35050D01*
X-51584D01*
X-52434Y34200D01*
X-52975Y34741D01*
X-54657D01*
G01X-47500Y33171D02*
X-44321D01*
X-44150Y33000D01*
X-41800D01*
G01X-49400Y29511D02*
X-49711Y29200D01*
X-50400D01*
G01X-54657Y37300D02*
X-50987D01*
G01X-44085Y40614D02*
X-38485Y35014D01*
Y10751D01*
X-38982Y10254D01*
G01X-54657Y39859D02*
X-51737D01*
X-51201Y40395D01*
X-47840D01*
G01X-41750Y-48200D02*
X-39400D01*
X-38400Y-47200D01*
X29600D01*
X31908Y-49508D01*
X82436D01*
X86144Y-45800D01*
X90900D01*
G01X-32736Y-37817D02*
X-34400Y-36153D01*
Y-24500D01*
X-41500Y-17400D01*
G01X-41232Y515D02*
Y-403D01*
X-30634Y-11000D01*
G01X-38982Y10254D02*
Y2000D01*
X-36711D01*
G01X5700Y31700D02*
X-15300D01*
X-16950Y30050D01*
Y28628D01*
X-16972Y28606D01*
Y27400D01*
X-19500Y24872D01*
Y18373D01*
X-20900Y16973D01*
X-24647D01*
X-25750Y15870D01*
Y12108D01*
X-27200Y10658D01*
Y5499D01*
X-30699Y2000D01*
X-32971D01*
G01X6600Y49800D02*
X4100Y52300D01*
X-37403D01*
X-38966Y50737D01*
Y49167D01*
X-35300Y45502D01*
Y15930D01*
X-34330Y14961D01*
Y12611D01*
G01X-32971Y5800D02*
X-30662D01*
X-29600Y6862D01*
Y9550D01*
X-28600Y10550D01*
Y11238D01*
X-27150Y12688D01*
Y16450D01*
X-25227Y18373D01*
X-21596D01*
X-20900Y19069D01*
Y27251D01*
X-20862Y27289D01*
Y27638D01*
X-19800Y28700D01*
G01X-43171Y5300D02*
Y7610D01*
X-41700Y9081D01*
Y14400D01*
G01X-15000Y45900D02*
X-19600Y50500D01*
X-28200D01*
X-30085Y48615D01*
Y46768D01*
X-33007Y43845D01*
Y39438D01*
X-33150Y39296D01*
Y16550D01*
X-30800Y14200D01*
G01X-38800Y43000D02*
X-40462Y44662D01*
Y45036D01*
X-43657Y48232D01*
G01X-19700Y-33311D02*
X-22611D01*
X-22800Y-33500D01*
G01X-21350Y-37350D02*
X-19582Y-35582D01*
X-18005D01*
X-15711Y-33287D01*
Y-32700D01*
G01X-22250Y-29400D02*
Y-29200D01*
G01X-15219Y-21657D02*
X-24443D01*
X-27759Y-24973D01*
G01X-22250Y-29200D02*
X-22200D01*
X-17489Y-24489D01*
Y-24300D01*
G01X-22250Y-29200D02*
X-21879Y-29571D01*
X-19700D01*
G01X-21229Y-24300D02*
X-23509D01*
X-25509Y-26300D01*
Y-28623D01*
G01X-30634Y-11000D02*
Y-11160D01*
G01X-23989Y-3400D02*
X-24200Y-3611D01*
Y-5148D01*
X-30052Y-11000D01*
X-30634D01*
G01X-21612Y-18100D02*
X-21933Y-18422D01*
X-25247D01*
X-26909Y-16760D01*
G01X-27729Y-3400D02*
Y-2490D01*
X-30651D01*
G01X-24500Y38400D02*
X-31750Y31150D01*
Y18332D01*
X-28550Y15132D01*
Y13268D01*
X-29868Y11950D01*
X-30390D01*
X-32080Y10260D01*
G01X-29500Y23500D02*
Y25850D01*
X-30050Y26400D01*
Y29850D01*
X-26500Y33400D01*
X-5100D01*
X-4400Y34100D01*
Y34300D01*
X100Y38800D01*
G01X-22612Y37100D02*
X-23912Y38400D01*
X-24500D01*
G01D02*
X-25000Y38900D01*
Y45900D01*
G01X-12700Y-38100D02*
X-11345Y-36745D01*
Y-35755D01*
X-11971Y-35129D01*
Y-32700D01*
G01X-10010Y-28800D02*
X-10000D01*
G01X-15219Y-21657D02*
Y-22030D01*
X-17489Y-24300D01*
G01X-10588Y-18100D02*
X-11896Y-19407D01*
X-11907D01*
X-14157Y-21657D01*
X-15219D01*
G01X-13790Y-28800D02*
X-12182Y-27193D01*
Y-27105D01*
X-10793Y-25716D01*
X-8162D01*
X-6500Y-27378D01*
G01X-17229Y900D02*
X-17800D01*
G01X12561Y-2180D02*
Y2511D01*
X11561Y3511D01*
X-10918D01*
X-13489Y939D01*
Y900D01*
G01X-11505Y25460D02*
Y23110D01*
X-10600Y22205D01*
Y17299D01*
X-11505Y16394D01*
Y11799D01*
G01X-17500Y12800D02*
X-14542D01*
X-13541Y11799D01*
X-11505D01*
G01X-10223Y6477D02*
X-12835Y3865D01*
X-15493D01*
G01X-8956Y11809D02*
Y22456D01*
X-9200Y22700D01*
Y24380D01*
X-9255Y24435D01*
Y26392D01*
X-10863Y28000D01*
X-14500D01*
G01X-11588Y37100D02*
X-7839D01*
X-6639Y38300D01*
G01X5700Y31700D02*
Y39000D01*
X3500Y41200D01*
X-16550D01*
X-17350Y42000D01*
X-19700D01*
G01X-2100Y-23012D02*
Y-17762D01*
G01Y-11988D02*
X-5611Y-15499D01*
Y-16511D01*
X-5639Y-16539D01*
Y-17700D01*
G01X-3412Y0D02*
Y-312D01*
X-4000Y-900D01*
G01X7612Y0D02*
X2538D01*
X2288Y250D01*
G01X-1279Y11809D02*
X1707D01*
G01X18300Y18500D02*
X17950Y18850D01*
Y24684D01*
X15134Y27500D01*
X15106D01*
X13822Y28784D01*
X9211D01*
X8596Y28169D01*
Y28139D01*
X6457Y26000D01*
Y13314D01*
X457Y7314D01*
X-7973D01*
Y7409D01*
X-8956Y8391D01*
Y11809D01*
G01X-6397Y17000D02*
Y11809D01*
G01X31181Y34260D02*
Y27671D01*
X29150Y25640D01*
X24136D01*
X20876Y28900D01*
X15685D01*
X14401Y30184D01*
X8632D01*
X3798Y25350D01*
X1930D01*
X-6397Y17023D01*
Y17000D01*
G01X2807Y14809D02*
X616Y17000D01*
X-6397D01*
G01X178592Y11100D02*
Y-25814D01*
X178800Y-26021D01*
Y-35900D01*
X175300Y-39400D01*
X147462D01*
X139008Y-30946D01*
X100108D01*
X94608Y-36446D01*
Y-37408D01*
X92108Y-39908D01*
X51708D01*
X47550Y-35750D01*
X15947D01*
X9697Y-29500D01*
Y-15697D01*
X7800Y-13800D01*
G01X15000Y-26800D02*
Y-12436D01*
X11000Y-8436D01*
X8638D01*
G01X5700Y31700D02*
X23050D01*
X25950Y28800D01*
G01X72300Y31600D02*
Y31800D01*
X70800Y33300D01*
Y39600D01*
X68700Y41700D01*
X54000D01*
X51000Y38700D01*
Y34800D01*
X49100Y32900D01*
X44860D01*
X40661Y37100D01*
X11100D01*
X8900Y39300D01*
G01X40600Y45463D02*
X12537D01*
X12500Y45500D01*
X12420D01*
X11620Y46300D01*
X3500D01*
G01X56600Y47100D02*
X52400Y42900D01*
X39990D01*
X39415Y43475D01*
X9989D01*
G01X46600Y47100D02*
X43900D01*
X42300Y48700D01*
X35300D01*
X33700Y47100D01*
X15982D01*
X15782Y46900D01*
X13000D01*
X11153Y48747D01*
Y51362D01*
X12553Y52762D01*
X15782D01*
X15788Y52768D01*
X112367D01*
X112436Y52700D01*
X120765D01*
X121064Y52400D01*
X186700D01*
X199500Y39600D01*
Y-34300D01*
X185800Y-48000D01*
X137500D01*
X122900Y-33400D01*
X119900D01*
X117650Y-35650D01*
G01X14000Y49900D02*
X16550D01*
X17950Y51300D01*
X82400D01*
X86600Y47100D01*
G01X22882Y-33500D02*
X20800Y-31418D01*
Y-7322D01*
X21422Y-6700D01*
Y-6822D01*
G01D02*
X33000Y-18400D01*
X37740D01*
X49299Y-29959D01*
X58650D01*
G01X21422Y-6822D02*
Y-6919D01*
G01X20039Y9100D02*
X32911D01*
G01X20039Y13100D02*
X26737D01*
G01X17361D02*
Y14690D01*
X18070D01*
Y18270D01*
X18300Y18500D01*
G01X14362Y9100D02*
X17361D01*
G01X24371Y17600D02*
Y17871D01*
X26410Y19910D01*
X33382D01*
G01X61262Y-32209D02*
X46957D01*
X36599Y-21850D01*
G01X57342Y-23706D02*
X46694Y-13059D01*
X34349D01*
G01X66600Y37100D02*
X63560Y34060D01*
X61060D01*
X57100Y30100D01*
Y29996D01*
X45600Y18496D01*
Y15207D01*
X42475Y12082D01*
X41449D01*
X34349Y4982D01*
G01X36599Y13267D02*
Y34656D01*
G01X28111Y17600D02*
X31132D01*
G01X25999Y41225D02*
X36478D01*
G01X46300Y-4029D02*
Y-3257D01*
X43990D01*
X43990Y2732D01*
G01X46300Y-289D02*
X47873D01*
X48505Y343D01*
X48632D01*
X50200Y1911D01*
G01X52285Y10282D02*
X48990D01*
X43990Y5282D01*
Y2732D01*
G01X56600Y37100D02*
X42262Y22762D01*
Y16262D01*
X40600Y14600D01*
G01X52285Y17959D02*
X48516D01*
G01X70900Y-35800D02*
X55092D01*
G01X51442Y-27510D02*
Y-21005D01*
G01X62500Y-22500D02*
X60838Y-20838D01*
Y-14912D01*
X61500Y-14250D01*
Y-11900D01*
G01X88360Y-20786D02*
X86110Y-23036D01*
X81436D01*
X79500Y-21100D01*
X72980D01*
X68442Y-16562D01*
X68362D01*
X65850Y-14050D01*
Y-12529D01*
X64703Y-11382D01*
Y-11270D01*
X63400Y-9968D01*
Y-9751D01*
X56749Y-3100D01*
X56574D01*
X55303Y-1829D01*
G01X52285Y12841D02*
X55303D01*
Y-1829D01*
G01X50200D02*
X55303D01*
G01X50200Y1911D02*
Y3222D01*
X52689Y5711D01*
G01X62915Y10282D02*
X61537D01*
X59704Y8448D01*
Y5528D01*
X62750Y2482D01*
G01X68500Y22900D02*
X66150D01*
X66050Y22800D01*
X65650D01*
X65550Y22700D01*
X58479D01*
G01X73446Y19600D02*
Y21950D01*
X73000Y22396D01*
Y23900D01*
X71200Y25700D01*
X59312D01*
G01X52285Y15400D02*
X57454D01*
G01X63600Y-16300D02*
X65262Y-17962D01*
X67862D01*
X72400Y-22500D01*
X76100D01*
X80900Y-27300D01*
Y-35800D01*
G01X68700Y-22100D02*
X70900Y-24300D01*
X71800D01*
X76442Y-28943D01*
Y-34508D01*
G01X68353Y-9870D02*
Y-7520D01*
X68700Y-7172D01*
Y564D01*
X62660Y6604D01*
G01X114655Y-22000D02*
X112100D01*
X107100Y-17000D01*
X83600D01*
X80900Y-19700D01*
X73560D01*
X69022Y-15162D01*
X68942D01*
X67250Y-13470D01*
Y-11949D01*
X66103Y-10802D01*
Y-10690D01*
X66050Y-10638D01*
Y-10618D01*
X65900Y-10468D01*
Y-3200D01*
G01X71200Y-600D02*
Y-4450D01*
X71000Y-4650D01*
Y-13800D01*
G01X66650Y10250D02*
X62947D01*
X62915Y10282D01*
G01Y12841D02*
X75271D01*
X75737Y13307D01*
G01X68805Y15400D02*
X62915D01*
G01X76700Y26800D02*
X74500Y29000D01*
X63700D01*
G01X66600Y47100D02*
X72200Y41500D01*
Y35426D01*
X74726Y32900D01*
X81300D01*
X85900Y28300D01*
Y17575D01*
X85800Y17475D01*
Y12182D01*
X85900Y12082D01*
Y11762D01*
X107247Y-9585D01*
X111086D01*
G01X173200Y-23000D02*
X177400Y-27200D01*
Y-35100D01*
X174900Y-37600D01*
X159751D01*
X151444Y-29292D01*
X87398D01*
X83392Y-25286D01*
G01X75000Y-17200D02*
X73338Y-15538D01*
Y-5927D01*
X84685Y5420D01*
Y6576D01*
X82981Y8281D01*
G01X73446Y19600D02*
X75796D01*
X75827Y19631D01*
X80400D01*
X84400Y15631D01*
Y11602D01*
X84500Y11502D01*
Y11182D01*
X86185Y9497D01*
Y2440D01*
X75753Y-7992D01*
G01X73100Y15300D02*
X73744D01*
X75737Y13307D01*
G01X80336Y5636D02*
X79888D01*
Y9155D01*
X75737Y13307D01*
G01X76600Y47100D02*
X81200Y42500D01*
X87139D01*
X90800Y38840D01*
Y35360D01*
X87800Y32361D01*
Y11900D01*
X89132Y10568D01*
X89150D01*
X90468Y9250D01*
Y9232D01*
X106285Y-6585D01*
X111086D01*
G01X129982Y30500D02*
Y-14750D01*
X120482Y-24250D01*
X111255D01*
X105541Y-18536D01*
X93984D01*
X91734Y-20786D01*
G01X173200Y-33000D02*
X168092Y-27893D01*
X92860D01*
X88360Y-23393D01*
Y-20786D01*
G01X185568Y19808D02*
X180700D01*
X163700Y2808D01*
Y-14700D01*
X152200Y-26200D01*
X96145D01*
X93832Y-23886D01*
G01X98300Y13400D02*
X97100D01*
X96062Y12362D01*
X95862D01*
X94200Y10700D01*
G01X91200Y11900D02*
X92862Y13562D01*
X94772D01*
X96900Y15689D01*
Y23282D01*
X100450Y26832D01*
G01X86600Y47100D02*
X89640Y44060D01*
Y42080D01*
X92200Y39520D01*
Y35482D01*
X94081Y33600D01*
X94100D01*
X96500Y31200D01*
X100900D01*
X103632Y28468D01*
Y18032D01*
X100550Y14950D01*
Y12230D01*
X103200Y9580D01*
Y8936D01*
X102950Y8686D01*
Y6822D01*
X103200Y6572D01*
Y5951D01*
X108200Y951D01*
X116090D01*
G01X96600Y37100D02*
X93000Y40700D01*
Y43200D01*
G01X103700Y13400D02*
X106050D01*
X108832Y16182D01*
Y20032D01*
G01X108000Y29900D02*
X106338Y31562D01*
X104738D01*
X101500Y34800D01*
G01X96600Y47100D02*
X101600Y42100D01*
X109000D01*
X111600Y44700D01*
Y49884D01*
X113015Y51300D01*
X120185D01*
X120484Y51000D01*
X120499D01*
X123262Y48237D01*
Y22868D01*
X123282Y22848D01*
Y19068D01*
X124185Y18165D01*
Y1336D01*
X121000Y-1849D01*
G01X122800Y-36900D02*
X118100Y-41600D01*
Y-50800D01*
G01X121001Y-9700D02*
Y-14648D01*
X118149Y-17500D01*
G01X118829Y-9700D02*
X121001D01*
G01X115089D02*
Y-12760D01*
G01X107800Y5200D02*
X110150D01*
X110500Y5550D01*
X111432D01*
X111493Y5611D01*
X114840D01*
X118340Y2111D01*
Y-3004D01*
X121001Y-5666D01*
Y-9700D01*
G01X114650Y9812D02*
Y25100D01*
G01X110500Y7800D02*
Y10150D01*
X111601Y11251D01*
Y42101D01*
X116600Y47100D01*
G01X192300Y26100D02*
X187933Y21733D01*
Y-34700D01*
X181433Y-41200D01*
X141719D01*
X133720Y-33200D01*
X127055D01*
G01X158100Y-1700D02*
X137300Y19100D01*
Y22318D01*
X137350Y22368D01*
Y24232D01*
X137300Y24282D01*
Y27500D01*
X130700Y34100D01*
X126400D01*
G01X133427Y-23950D02*
X152300D01*
X162300Y-13950D01*
Y6100D01*
X182300Y26100D01*
G01X148100Y-11800D02*
X138200Y-21700D01*
X137996D01*
G01X132800Y-17500D02*
X135746Y-14554D01*
Y-3154D01*
X145000Y6100D01*
G01X132232Y25900D02*
Y7338D01*
G01X135100Y23300D02*
Y4100D01*
G01X157389Y25000D02*
Y22590D01*
X155699Y20900D01*
X149879D01*
X147889Y22890D01*
Y25300D01*
G01D02*
Y29100D01*
G01X151629Y25300D02*
Y29100D01*
G01X144700Y39500D02*
X146200D01*
X147889Y37811D01*
Y36700D01*
G01Y32900D02*
Y29100D01*
G01Y36700D02*
Y32900D01*
G01X151629Y36700D02*
Y39110D01*
X153419Y40900D01*
X159139D01*
X161029Y39010D01*
Y36600D01*
G01X151629Y32900D02*
Y36700D01*
G01Y32900D02*
Y29100D01*
G01X157289Y28900D02*
Y25100D01*
X157389Y25000D01*
G01X161029Y28900D02*
Y25100D01*
X161129Y25000D01*
G01D02*
X164400D01*
G01X157289Y32700D02*
Y36600D01*
G01Y28900D02*
Y32700D01*
G01X161029D02*
Y28900D01*
G01Y36600D02*
Y32700D01*
G01X186436Y29436D02*
X186533D01*
Y26600D01*
X186033Y26100D01*
X182300D01*
G01Y36100D02*
Y40600D01*
X181500Y41400D01*
G01X191000Y34300D02*
X189081Y32381D01*
Y32081D01*
G01X192300Y36100D02*
X187300Y41100D01*
G01X191000Y34300D02*
Y34800D01*
X192300Y36100D01*
G54D13*
X-101200Y-30154D03*
Y19254D03*
X-91200Y-30154D03*
Y19254D03*
X-81200Y-30154D03*
Y19254D03*
G54D22*
X-11505Y11799D03*
X-8956Y11809D03*
X-6397D03*
X-3838D03*
X-1279D03*
G54D23*
X-15000Y45900D03*
X-5000D03*
X25000Y-26800D03*
X35000D03*
X46600Y37100D03*
Y47100D03*
X56600Y37100D03*
Y47100D03*
X66600Y37100D03*
Y47100D03*
X76600Y37100D03*
X86600D03*
X76600Y47100D03*
X86600D03*
X96600Y37100D03*
Y47100D03*
X106600Y37100D03*
Y47100D03*
X116600Y37100D03*
X168100Y-11800D03*
X158100D03*
X168100Y-1700D03*
X158100D03*
X173200Y-33000D03*
X183200D03*
Y-23000D03*
X193200Y-33000D03*
Y-23000D03*
G54D14*
X-78729Y32600D03*
X-68571Y38700D03*
X-43171Y5300D03*
X-32971Y2000D03*
Y5800D03*
X-21229Y-24300D03*
X-27729Y-3400D03*
X-11971Y-32700D03*
X-13790Y-28800D03*
X-10010D03*
X-17229Y900D03*
X24371Y17600D03*
X118829Y-9700D03*
X151629Y25300D03*
Y36700D03*
Y32900D03*
Y29100D03*
X161129Y25000D03*
X161029Y28900D03*
Y32700D03*
Y36600D03*
G54D24*
X-2100Y-23012D03*
Y-11988D03*
G54D15*
X-74989Y32600D03*
X-72311Y38700D03*
X-46911Y5300D03*
X-36711Y2000D03*
Y5800D03*
X-23989Y-3400D03*
X-15711Y-32700D03*
X-17489Y-24300D03*
X-13489Y900D03*
X28111Y17600D03*
X115089Y-9700D03*
X147889Y25300D03*
Y36700D03*
Y32900D03*
Y29100D03*
X157389Y25000D03*
X157289Y28900D03*
Y32700D03*
Y36600D03*
G54D16*
X-61743Y37300D03*
Y34741D03*
X-54657D03*
Y37300D03*
X-61743Y39859D03*
X-54657D03*
G54D25*
X17361Y13100D03*
X20039D03*
X17361Y9100D03*
X20039D03*
G54D17*
X-49400Y25771D03*
X-47500Y33171D03*
X-19700Y-29571D03*
X46300Y-4029D03*
X50200Y-1829D03*
G54D26*
X52285Y12841D03*
Y10282D03*
Y20518D03*
Y17959D03*
Y15400D03*
X62915Y10282D03*
Y12841D03*
Y15400D03*
Y17959D03*
Y20518D03*
G54D18*
X-49400Y29511D03*
X-47500Y36911D03*
X-19700Y-33311D03*
X46300Y-289D03*
X50200Y1911D03*
G54D27*
X70900Y-45800D03*
X182300Y36100D03*
G54D19*
X-21612Y-18100D03*
X-22612Y37100D03*
X-10588Y-18100D03*
X-11588Y37100D03*
X-3412Y0D03*
X7612D03*
G54D28*
X70900Y-35800D03*
X80900Y-45800D03*
Y-35800D03*
X90900Y-45800D03*
Y-35800D03*
X100900Y-45800D03*
Y-35800D03*
X110900Y-45800D03*
Y-35800D03*
X182300Y-3900D03*
Y6100D03*
Y16100D03*
Y26100D03*
X192300Y-3900D03*
Y6100D03*
Y16100D03*
Y26100D03*
Y36100D03*
G54D29*
X82981Y8281D03*
X189081Y32081D03*
M02*
