G04 ================== begin FILE IDENTIFICATION RECORD ==================*
G04 Layout Name:  C:/Users/Liber/Desktop/SmartRing-V1.02/PCB/SmartRing.brd*
G04 Film Name:    GND*
G04 File Format:  Gerber RS274X*
G04 File Origin:  Cadence Allegro 16.3-p003*
G04 Origin Date:  Mon Feb 10 17:13:57 2014*
G04 *
G04 Layer:  ETCH/GND*
G04 Layer:  PIN/GND*
G04 Layer:  VIA CLASS/GND*
G04 *
G04 Offset:    (0.000 0.000)*
G04 Mirror:    No*
G04 Mode:      Positive*
G04 Rotation:  0*
G04 FullContactRelief:  No*
G04 UndefLineWidth:     6.000*
G04 ================== end FILE IDENTIFICATION RECORD ====================*
%FSLAX55Y55*MOIN*%
%IR0*IPPOS*OFA0.00000B0.00000*MIA0B0*SFA1.00000B1.00000*%
%ADD10C,.024*%
%ADD13C,.05315*%
%ADD11C,.043307*%
%ADD12C,.062992*%
%ADD14C,.007*%
%ADD17C,.038004*%
%ADD20C,.057312*%
%ADD15C,.067154*%
%ADD18C,.069154*%
%ADD19C,.076996*%
%ADD16C,.078996*%
G75*
%LPD*%
G75*
G36*
G01X-137795Y-52918D02*
G02X-139532Y-51181I0J1737D01*
G01Y51181D01*
G02X-137795Y52918I1737J0D01*
G01X200787D01*
G02X202524Y51181I0J-1737D01*
G01Y-51181D01*
G02X200787Y-52918I-1737J0D01*
G01X119629D01*
G02X119363Y-52219I0J400D01*
G03X116837I-1263J1419D01*
G02X116571Y-52918I-266J-299D01*
G01X-137795D01*
G37*
%LPC*%
G75*
G36*
G01X-72328Y-38892D02*
G02X-72863Y-37388I-1892J174D01*
G03X-72179Y-37145I286J280D01*
G02X-71644Y-38648I1892J-174D01*
G03X-72328Y-38892I-286J-280D01*
G37*
G36*
G01X108459Y-33352D02*
G02X107462Y-35427I2441J-2449D01*
G03X106862Y-35038I-398J43D01*
G02X104848Y-34982I-962J1639D01*
G03X104230Y-35367I-221J-333D01*
G02X103320Y-33473I-3330J-433D01*
G03X104007Y-33231I288J277D01*
G02X107780Y-33126I1893J-169D01*
G03X108459Y-33352I396J58D01*
G37*
G36*
G01X-1820Y-34122D02*
G02X-3715Y-34085I-980J-1628D01*
G03X-3760Y-33362I-193J351D01*
G02X-5384Y-29696I1060J2662D01*
G03X-5887Y-29177I-375J140D01*
G02X-7538Y-28970I-613J1799D01*
G03X-8146Y-29217I-218J-335D01*
G02X-8962Y-27208I-1854J417D01*
G03X-8354Y-26961I218J335D01*
G02X-4636Y-27745I1854J-417D01*
G03X-4054Y-28175I392J-77D01*
G02X-1747Y-33402I1354J-2525D01*
G03X-1820Y-34122I133J-377D01*
G37*
G36*
G01X63555Y4203D02*
G02X61870Y4166I-805J-1721D01*
G03X61854Y4883I-185J355D01*
G02X63540Y4919I805J1721D01*
G03X63555Y4203I185J-355D01*
G37*
G36*
G01X-39002Y12154D02*
G02X-40716Y11030I20J-1900D01*
G03X-41157Y11586I-365J163D01*
G02X-39336Y12780I-543J2814D01*
G03X-39002Y12154I330J-226D01*
G37*
G36*
G01X-30766Y11632D02*
G02X-33980Y10302I-1314J-1372D01*
G03X-34371Y10711I-400J9D01*
G02X-33294Y14203I41J1900D01*
G03X-32680Y14479I218J335D01*
G02X-30543Y12317I1880J-279D01*
G03X-30766Y11632I54J-396D01*
G37*
G36*
G01X134605Y25134D02*
G02X133226Y23613I496J-1834D01*
G03X132727Y24066I-395J66D01*
G02X134106Y25587I-496J1834D01*
G03X134605Y25134I395J-66D01*
G37*
G36*
G01X-12102Y27264D02*
G02X-13382Y25754I597J-1804D01*
G03X-13903Y26196I-395J62D01*
G02X-12623Y27706I-597J1804D01*
G03X-12102Y27264I395J-62D01*
G37*
G36*
G01X-62555Y28792D02*
G02X-62689Y26830I1555J-1092D01*
G03X-63372Y26876I-356J-183D01*
G02X-63238Y28838I-1555J1092D01*
G03X-62555Y28792I356J183D01*
G37*
G36*
G01X-17832Y42346D02*
G02X-19015Y43772I-1868J-346D01*
G03X-18506Y44311I144J373D01*
G02X-17209Y42747I3506J1589D01*
G03X-17832Y42346I-230J-328D01*
G37*
G36*
G01X-87582Y44014D02*
G02X-89368Y44040I-918J-1664D01*
G03X-89358Y44746I-183J356D01*
G02X-87572Y44720I918J1664D01*
G03X-87582Y44014I183J-356D01*
G37*
G36*
G01X77954Y-33356D02*
G03X78552Y-33400I318J242D01*
G02X77632Y-36572I2348J-2400D01*
G03X77104Y-36289I-389J-92D01*
G02X77954Y-33356I-661J1781D01*
G37*
G36*
G01X60550Y-29935D02*
G03X61004Y-30326I400J5D01*
G02X59362Y-32233I258J-1883D01*
G03X58908Y-31841I-400J-5D01*
G02X60550Y-29935I-258J1883D01*
G37*
G36*
G01X-23861Y-27677D02*
G03X-23294Y-27812I347J199D01*
G02X-23898Y-30346I1044J-1588D01*
G03X-24465Y-30211I-347J-199D01*
G02X-23861Y-27677I-1044J1588D01*
G37*
G36*
G01X34475Y-22986D02*
G03X34800Y-22461I-54J396D01*
G02X37701Y-23398I1799J611D01*
G03X37657Y-24014I232J-326D01*
G02X34475Y-22986I-2657J-2786D01*
G37*
G36*
G01X-49670Y-24081D02*
G03X-49872Y-24664I139J-375D01*
G02X-49595Y-25612I-1622J-989D01*
G03X-49204Y-26004I400J9D01*
G02X-51145Y-27944I-41J-1900D01*
G03X-51536Y-27553I-400J-9D01*
G02X-52663Y-24155I41J1900D01*
G03X-52646Y-23538I-246J315D01*
G02X-49670Y-24081I1946J2238D01*
G37*
G36*
G01X93515Y-21448D02*
G03X93880Y-21987I375J-139D01*
G02X92050Y-23225I-48J-1900D01*
G03X91686Y-22686I-375J139D01*
G02X90340Y-22078I48J1900D01*
G03X89754I-293J-272D01*
G02Y-19495I-1394J1292D01*
G03X90340I293J272D01*
G02X93515Y-21448I1394J-1292D01*
G37*
G36*
G01X196902Y-12327D02*
G03X196655Y-12813I138J-375D01*
G02X193947Y-10735I-2755J-787D01*
G03X194352Y-10371I7J400D01*
G02X196902Y-12327I1892J-173D01*
G37*
G36*
G01X112527Y-7824D02*
G03Y-8346I303J-261D01*
G02X109646Y-8346I-1441J-1239D01*
G03Y-7824I-303J261D01*
G02X112527Y-7824I1441J1239D01*
G37*
G36*
G01X110149Y5932D02*
G03X109679Y5480I-74J-393D01*
G02X105900Y5207I-1879J-280D01*
G03X105465Y5607I-400J2D01*
G02X107200Y7493I-165J1893D01*
G03X107635Y7093I400J-2D01*
G02X108151Y7068I165J-1893D01*
G03X108621Y7520I74J393D01*
G02X110149Y5932I1879J280D01*
G37*
G36*
G01X92942Y12660D02*
G03X93463Y12452I367J160D01*
G02X92459Y9940I737J-1752D01*
G03X91937Y10148I-367J-160D01*
G02X92942Y12660I-737J1752D01*
G37*
G36*
G01X185743Y17915D02*
G03X185410Y17366I37J-398D01*
G02X183166Y19344I-3110J-1266D01*
G03X183669Y19744I103J386D01*
G02X185743Y17915I1899J63D01*
G37*
G36*
G01X60316Y24087D02*
G03X60171Y23565I211J-340D01*
G02X57475Y24313I-1692J-865D01*
G03X57620Y24835I-211J340D01*
G02X60316Y24087I1692J865D01*
G37*
G36*
G01X103942Y34315D02*
G03X103289Y34160I-276J-289D01*
G02X99754Y34050I-1789J640D01*
G03X99124Y34194I-367J-158D01*
G02X100449Y37015I-2524J2907D01*
G03X100962Y36622I400J-9D01*
G02X102205Y36565I538J-1822D01*
G03X102753Y36952I148J371D01*
G02X103942Y34315I3847J149D01*
G37*
G36*
G01X-45572Y39432D02*
G03X-46225Y39393I-313J-249D01*
G02X-46352Y41577I-1615J1001D01*
G03X-45700Y41615I313J249D01*
G02X-45572Y39432I1615J-1001D01*
G37*
G36*
G01X95418Y43436D02*
G03X94896Y43080I-123J-381D01*
G02X92729Y45081I-1896J119D01*
G03X93042Y45630I-57J396D01*
G02X95418Y43436I3558J1470D01*
G37*
G36*
G01X-134605Y45847D02*
G03X-134674Y45256I231J-327D01*
G02X-137195Y45553I-1426J-1256D01*
G03X-137126Y46144I-231J327D01*
G02X-134605Y45847I1426J1256D01*
G37*
G54D17*
X187300Y41100D03*
X178592Y11100D03*
X164400Y25000D03*
X145000Y6100D03*
X135100Y4100D03*
X132800Y-17500D03*
X133427Y-23950D03*
X137996Y-21700D03*
X129982Y30500D03*
X126400Y34100D03*
X132232Y7338D03*
X121000Y-1849D03*
X127732Y-13600D03*
X127055Y-33200D03*
X122800Y-36900D03*
X114650Y25100D03*
Y9812D03*
X116090Y951D03*
X112968Y-15010D03*
X118149Y-17500D03*
X114655Y-22000D03*
X117650Y-35650D03*
X108000Y29900D03*
X100450Y26832D03*
X108832Y20032D03*
X103700Y13400D03*
X98300D03*
X102140Y-20786D03*
X88800Y5600D03*
X76700Y26800D03*
X76314Y3542D03*
X75000Y-17200D03*
X76700Y-12900D03*
X75753Y-7992D03*
X83392Y-25286D03*
X63700Y29000D03*
X72300Y31600D03*
X73446Y19600D03*
X68500Y22900D03*
X68805Y15400D03*
X66650Y10250D03*
X65900Y-3200D03*
X71200Y-600D03*
X68353Y-9870D03*
X63600Y-16300D03*
X71000Y-13800D03*
X68700Y-22100D03*
X52689Y5711D03*
X59800Y-1168D03*
X55050Y-5350D03*
X61500Y-11900D03*
X51442Y-27510D03*
Y-21005D03*
X57342Y-23706D03*
X62500Y-22500D03*
X55092Y-35800D03*
X40600Y45463D03*
X48516Y17959D03*
X43990Y2732D03*
X40953Y-38750D03*
X36478Y41225D03*
X36599Y34656D03*
X31181Y34260D03*
X38849Y21800D03*
X33382Y19910D03*
X34349Y4982D03*
Y-13059D03*
X25999Y41225D03*
X21422Y-6919D03*
X22882Y-33500D03*
X9989Y43475D03*
X6600Y49800D03*
X14000Y49900D03*
X8900Y39300D03*
X14362Y9100D03*
X12561Y-2180D03*
X8638Y-8436D03*
X7800Y-13800D03*
X3500Y46300D03*
X100Y38800D03*
X2807Y14809D03*
X2288Y250D03*
X-5639Y-17700D03*
X-17500Y12800D03*
X-10223Y6477D03*
X-15493Y3865D03*
X-15219Y-21657D03*
X-12700Y-38100D03*
X-19800Y28700D03*
X-29500Y23500D03*
X-27759Y-24973D03*
X-21350Y-37350D03*
X-38800Y43000D03*
X-41800Y33000D03*
X-30651Y-2490D03*
X-41232Y515D03*
X-30634Y-11160D03*
X-40900Y-10300D03*
X-41500Y-17400D03*
X-40100Y-25600D03*
X-32736Y-37817D03*
X-41750Y-48200D03*
X-43657Y48232D03*
X-49800Y25800D03*
X-52400Y20440D03*
X-53300Y11400D03*
X-47900Y-15800D03*
X-44000Y-14000D03*
X-43150Y-37465D03*
X-46700Y-32600D03*
X-47700Y-49900D03*
X-58450Y44160D03*
X-57200Y25600D03*
X-63450Y9850D03*
X-55145Y-16030D03*
X-59263Y-37318D03*
X-54450Y-40092D03*
X-72585Y44160D03*
X-69559Y26518D03*
X-66100Y6300D03*
X-69133Y-5600D03*
X-68000Y1300D03*
X-72700Y-43600D03*
X-83940Y42350D03*
X-82600Y30350D03*
X-78200Y28768D03*
X-79279Y39300D03*
X-86600Y14400D03*
X-98100Y30100D03*
X-90567Y26518D03*
X-95600Y14400D03*
X-101600Y37981D03*
X-109200Y14500D03*
X-103100Y-38300D03*
X-117472Y31328D03*
X-115006Y-5006D03*
X-120938Y-40700D03*
X-120950Y-47550D03*
X-114600Y-43100D03*
X-131100Y21146D03*
X-127038Y27168D03*
X-126855Y-27625D03*
X-130200Y-22900D03*
X-131550Y-39500D03*
X-127000Y-47000D03*
X-132900Y-47300D03*
X40600Y14600D03*
X36599Y13267D03*
X25950Y28800D03*
G54D20*
X18300Y18500D03*
X-33300Y48100D03*
X-133100Y33500D03*
G54D15*
X192300Y36100D03*
Y26100D03*
Y16100D03*
Y6100D03*
Y-3900D03*
X182300Y26100D03*
Y6100D03*
Y-3900D03*
X100900Y-45800D03*
X90900Y-35800D03*
Y-45800D03*
X80900D03*
X70900Y-35800D03*
Y-45800D03*
G54D18*
X182300Y36100D03*
X110900Y-45800D03*
G54D19*
X183200Y-23000D03*
Y-33000D03*
X173200Y-23000D03*
Y-33000D03*
X158100Y-1700D03*
X168100D03*
X158100Y-11800D03*
X168100D03*
X148100Y-1700D03*
Y-11800D03*
X116600Y47100D03*
Y37100D03*
X106600Y47100D03*
X76600D03*
X86600D03*
X76600Y37100D03*
X86600D03*
X66600Y47100D03*
Y37100D03*
X56600Y47100D03*
Y37100D03*
X46600Y47100D03*
Y37100D03*
X25000Y-26800D03*
X15000D03*
X-25000Y45900D03*
G54D16*
X193200Y-23000D03*
Y-33000D03*
X-5000Y45900D03*
%LPD*%
G75*
G54D10*
X-136100Y44000D03*
X-135700Y47400D03*
X-132900Y-47300D03*
X-127000Y-47000D03*
X-131550Y-39500D03*
X-130200Y-22900D03*
X-126855Y-27625D03*
X-129900Y-29875D03*
X-127038Y27168D03*
X-131100Y21146D03*
X-126528Y35591D03*
X-114600Y-43100D03*
X-120950Y-47550D03*
X-120938Y-40700D03*
X-115006Y-5006D03*
X-117472Y31328D03*
X-114995Y38740D03*
X-103100Y-38300D03*
X-109200Y14500D03*
X-101600Y37981D03*
X-97600Y-43600D03*
X-96118Y-5082D03*
X-95600Y14400D03*
X-90567Y26518D03*
X-98100Y30100D03*
X-86600Y14400D03*
X-79279Y39300D03*
X-78200Y28768D03*
X-82600Y30350D03*
X-86300Y32300D03*
X-88500Y42350D03*
X-83940D03*
X-88440Y46410D03*
X-72700Y-43600D03*
X-74220Y-38718D03*
X-70287Y-37318D03*
X-72818Y-23088D03*
X-68000Y1300D03*
X-69133Y-5600D03*
X-66100Y6300D03*
X-69559Y26518D03*
X-72585Y44160D03*
X-72232Y48745D03*
X-76235Y39610D03*
X-54450Y-40092D03*
X-59263Y-37318D03*
X-55145Y-30154D03*
X-54845Y-21542D03*
X-55145Y-16030D03*
X-59110Y590D03*
X-63450Y9850D03*
X-59110Y11529D03*
X-57200Y25600D03*
X-61000Y27700D03*
X-64928Y27968D03*
X-58450Y44160D03*
X-61200Y47400D03*
X-47700Y-49900D03*
X-43150Y-37465D03*
X-46700Y-32600D03*
X-51495Y-25654D03*
X-49245Y-27904D03*
X-47900Y-15800D03*
X-44000Y-14000D03*
X-51800Y6300D03*
X-53300Y11400D03*
X-52400Y20440D03*
X-49800Y25800D03*
X-50987Y37300D03*
X-43300Y36200D03*
X-44085Y40614D03*
X-47840Y40395D03*
X-43657Y48232D03*
X-41750Y-48200D03*
X-32736Y-37817D03*
X-40100Y-25600D03*
X-30634Y-11160D03*
X-40900Y-10300D03*
X-41500Y-17400D03*
X-41232Y515D03*
X-30651Y-2490D03*
X-38982Y10254D03*
X-32080Y10260D03*
X-30800Y14200D03*
X-34330Y12611D03*
X-41800Y33000D03*
X-38800Y43000D03*
X-22800Y-33500D03*
X-21350Y-37350D03*
X-27759Y-24973D03*
X-22250Y-29400D03*
X-25509Y-28623D03*
X-26909Y-20500D03*
X-29909Y-21100D03*
X-26909Y-16760D03*
X-22800Y5600D03*
X-19800D03*
X-29500Y23500D03*
X-27800Y27900D03*
X-19800Y28700D03*
X-19700Y42000D03*
X-12700Y-38100D03*
X-15219Y-21657D03*
X-10000Y-28800D03*
X-17800Y900D03*
X-15493Y3865D03*
X-17500Y12800D03*
X-10223Y6477D03*
X-11505Y25460D03*
X-14500Y28000D03*
X-2800Y-35750D03*
X-6500Y-27378D03*
X-2100Y-17762D03*
X-5639Y-17700D03*
X-4000Y-900D03*
X2288Y250D03*
X1707Y11809D03*
X2807Y14809D03*
X2032Y27600D03*
X962Y21200D03*
X-6639Y38300D03*
X100Y38800D03*
X3500Y46300D03*
X8638Y-8436D03*
X7800Y-13800D03*
X12561Y-2180D03*
X14362Y9100D03*
X13612Y17666D03*
X8900Y39300D03*
X14000Y49900D03*
X9989Y43475D03*
X6600Y49800D03*
X22882Y-33500D03*
X21422Y-6919D03*
X26737Y13100D03*
X25950Y28800D03*
X25999Y41225D03*
X36599Y-21850D03*
X34349Y-13059D03*
Y4982D03*
X36599Y13267D03*
X32911Y9100D03*
X31132Y17600D03*
X38849Y21800D03*
X33382Y19910D03*
X36599Y34656D03*
X31181Y34260D03*
X36478Y41225D03*
X40953Y-38750D03*
X43990Y2732D03*
X40600Y14600D03*
X47140Y4900D03*
X48516Y17959D03*
X40600Y45463D03*
X55092Y-35800D03*
X61262Y-32209D03*
X58650Y-29959D03*
X57342Y-23706D03*
X51442Y-21005D03*
Y-27510D03*
X62500Y-22500D03*
X61500Y-11900D03*
X55050Y-5350D03*
X59800Y-1168D03*
X62660Y6604D03*
X57454Y15400D03*
X52689Y5711D03*
X58479Y22700D03*
X59312Y25700D03*
X68700Y-22100D03*
X63600Y-16300D03*
X68353Y-9870D03*
X71000Y-13800D03*
X62750Y2482D03*
X65900Y-3200D03*
X71200Y-600D03*
X66650Y10250D03*
X73100Y15300D03*
X68805Y15400D03*
X68500Y22900D03*
X73446Y19600D03*
X63700Y29000D03*
X72300Y31600D03*
X76442Y-34508D03*
X83392Y-25286D03*
X83860Y-20786D03*
X75753Y-7992D03*
X76700Y-12900D03*
X75000Y-17200D03*
X76314Y3542D03*
X76700Y26800D03*
X91734Y-20786D03*
X88360D03*
X93832Y-23886D03*
X93000Y-10800D03*
X86700Y-10300D03*
X86200Y-5600D03*
X93000Y-300D03*
X88300D03*
X94200Y10700D03*
X91200Y11900D03*
X88800Y5600D03*
X94200Y17868D03*
X93000Y43200D03*
X105900Y-33400D03*
X102140Y-20786D03*
X99150Y-10350D03*
X99200Y-5600D03*
X107800Y5200D03*
X103700Y13400D03*
X98300D03*
X105300Y7500D03*
X108832Y20032D03*
X100450Y26832D03*
X101500Y34800D03*
X108000Y29900D03*
X118100Y-50800D03*
X117650Y-35650D03*
X114655Y-22000D03*
X117968D03*
X118149Y-17500D03*
X115089Y-12760D03*
X112968Y-15010D03*
X111086Y-9585D03*
X116090Y951D03*
X111086Y-6585D03*
X114650Y9812D03*
X110500Y7800D03*
X114650Y25100D03*
X109351Y23968D03*
X127055Y-33200D03*
X122800Y-36900D03*
X127732Y-13600D03*
X121935Y3701D03*
X121000Y-1849D03*
X132232Y7338D03*
X126600Y12600D03*
X132232Y25900D03*
X125532Y20000D03*
X125512Y23800D03*
X129982Y30500D03*
X126400Y34100D03*
X133427Y-23950D03*
X137996Y-21700D03*
X132800Y-17500D03*
X135100Y4100D03*
Y23300D03*
X145000Y6100D03*
X144700Y39500D03*
X164400Y25000D03*
X175300Y-10651D03*
X178592Y11100D03*
X185568Y19808D03*
X181500Y41400D03*
X187300Y41100D03*
X196244Y-10544D03*
G54D11*
X-133100Y33500D03*
X-50700Y-21300D03*
X-41700Y14400D03*
X-33300Y48100D03*
X-2700Y-30700D03*
X18300Y18500D03*
X193900Y-13600D03*
G54D12*
X-25000Y45900D03*
X-15000D03*
X-5000D03*
X15000Y-26800D03*
X25000D03*
X35000D03*
X46600Y37100D03*
Y47100D03*
X56600Y37100D03*
Y47100D03*
X66600Y37100D03*
Y47100D03*
X76600Y37100D03*
X86600D03*
X76600Y47100D03*
X86600D03*
X96600Y37100D03*
Y47100D03*
X106600Y37100D03*
Y47100D03*
X116600Y37100D03*
Y47100D03*
X148100Y-11800D03*
Y-1700D03*
X168100Y-11800D03*
X158100D03*
X168100Y-1700D03*
X158100D03*
X173200Y-33000D03*
Y-23000D03*
X183200Y-33000D03*
Y-23000D03*
X193200Y-33000D03*
Y-23000D03*
G54D13*
X70900Y-45800D03*
Y-35800D03*
X80900Y-45800D03*
Y-35800D03*
X90900Y-45800D03*
Y-35800D03*
X100900Y-45800D03*
Y-35800D03*
X110900Y-45800D03*
Y-35800D03*
X182300Y-3900D03*
Y6100D03*
Y16100D03*
Y26100D03*
Y36100D03*
X192300Y-3900D03*
Y6100D03*
Y16100D03*
Y26100D03*
Y36100D03*
G54D14*
G01X-50700Y-21300D02*
Y-18134D01*
G01X-53866Y-21300D02*
X-50700D01*
G01D02*
X-47534D01*
G01X-54800Y37400D02*
X-54371Y36971D01*
X-46121D01*
X-45750Y36600D01*
X-43700D01*
X-43300Y36200D01*
G01X-19800Y5600D02*
X-22800D01*
G01D02*
X-23600D01*
G01X-9150Y45900D02*
X-5000D01*
G01Y41750D02*
Y45900D01*
G01D02*
Y50050D01*
G01Y45900D02*
X-850D01*
G01X107242Y-45800D02*
X110900D01*
G01X107242Y-35800D02*
X110900D01*
G01Y-49458D02*
Y-45800D01*
G01D02*
Y-42142D01*
G01Y-45800D02*
X114558D01*
G01X110900Y-39458D02*
Y-35800D01*
G01D02*
Y-32142D01*
G01Y-35800D02*
X114558D01*
G01X182300Y32442D02*
Y36100D01*
G01D02*
Y39758D01*
G01X178642Y36100D02*
X182300D01*
G01D02*
X185958D01*
G01X193200Y-37150D02*
Y-33000D01*
G01D02*
Y-28850D01*
G01X189050Y-33000D02*
X193200D01*
G01D02*
X197350D01*
G01X193200Y-27150D02*
Y-23000D01*
G01D02*
Y-18850D01*
G01X189050Y-23000D02*
X193200D01*
G01D02*
X197350D01*
M02*
