G04 ================== begin FILE IDENTIFICATION RECORD ==================*
G04 Layout Name:  C:/Users/Liber/Desktop/SmartRing-V1.02/PCB/SmartRing.brd*
G04 Film Name:    PASTEMASK_BOTTOM*
G04 File Format:  Gerber RS274X*
G04 File Origin:  Cadence Allegro 16.3-p003*
G04 Origin Date:  Mon Feb 10 17:13:57 2014*
G04 *
G04 Layer:  VIA CLASS/PASTEMASK_BOTTOM*
G04 Layer:  PIN/PASTEMASK_BOTTOM*
G04 Layer:  PACKAGE GEOMETRY/PASTEMASK_BOTTOM*
G04 *
G04 Offset:    (0.000 0.000)*
G04 Mirror:    No*
G04 Mode:      Positive*
G04 Rotation:  0*
G04 FullContactRelief:  No*
G04 UndefLineWidth:     6.000*
G04 ================== end FILE IDENTIFICATION RECORD ====================*
%FSLAX55Y55*MOIN*%
%IR0*IPPOS*OFA0.00000B0.00000*MIA0B0*SFA1.00000B1.00000*%
%ADD20R,.017717X.068898*%
%AMMACRO25*
21,1,.025197,.022441,0.0,0.0,135.*%
%ADD25MACRO25*%
%AMMACRO24*
21,1,.025197,.024409,0.0,0.0,135.*%
%ADD24MACRO24*%
%ADD10C,.024*%
%ADD22R,.014173X.024803*%
%ADD23R,.03937X.011811*%
%ADD13R,.022441X.025197*%
%ADD16R,.025197X.022441*%
%ADD11R,.031496X.037402*%
%ADD15R,.037402X.017717*%
%ADD14R,.024409X.025197*%
%ADD17R,.025197X.024409*%
%ADD19R,.037402X.082677*%
%ADD21R,.049213X.062992*%
%ADD18R,.062992X.049213*%
%ADD12R,.055118X.096457*%
%LPD*%
G75*
G54D10*
X-136100Y44000D03*
X-135700Y47400D03*
X-132900Y-47300D03*
X-127000Y-47000D03*
X-131550Y-39500D03*
X-130200Y-22900D03*
X-126855Y-27625D03*
X-129900Y-29875D03*
X-127038Y27168D03*
X-131100Y21146D03*
X-126528Y35591D03*
X-114600Y-43100D03*
X-120950Y-47550D03*
X-120938Y-40700D03*
X-115006Y-5006D03*
X-117472Y31328D03*
X-114995Y38740D03*
X-103100Y-38300D03*
X-109200Y14500D03*
X-101600Y37981D03*
X-97600Y-43600D03*
X-96118Y-5082D03*
X-95600Y14400D03*
X-90567Y26518D03*
X-98100Y30100D03*
X-86600Y14400D03*
X-79279Y39300D03*
X-78200Y28768D03*
X-82600Y30350D03*
X-86300Y32300D03*
X-88500Y42350D03*
X-83940D03*
X-88440Y46410D03*
X-72700Y-43600D03*
X-74220Y-38718D03*
X-70287Y-37318D03*
X-72818Y-23088D03*
X-68000Y1300D03*
X-69133Y-5600D03*
X-66100Y6300D03*
X-69559Y26518D03*
X-72585Y44160D03*
X-72232Y48745D03*
X-76235Y39610D03*
X-54450Y-40092D03*
X-59263Y-37318D03*
X-55145Y-30154D03*
X-54845Y-21542D03*
X-55145Y-16030D03*
X-59110Y590D03*
X-63450Y9850D03*
X-59110Y11529D03*
X-57200Y25600D03*
X-61000Y27700D03*
X-64928Y27968D03*
X-58450Y44160D03*
X-61200Y47400D03*
X-47700Y-49900D03*
X-43150Y-37465D03*
X-46700Y-32600D03*
X-51495Y-25654D03*
X-49245Y-27904D03*
X-47900Y-15800D03*
X-44000Y-14000D03*
X-51800Y6300D03*
X-53300Y11400D03*
X-52400Y20440D03*
X-49800Y25800D03*
X-50987Y37300D03*
X-43300Y36200D03*
X-44085Y40614D03*
X-47840Y40395D03*
X-43657Y48232D03*
X-41750Y-48200D03*
X-32736Y-37817D03*
X-40100Y-25600D03*
X-30634Y-11160D03*
X-40900Y-10300D03*
X-41500Y-17400D03*
X-41232Y515D03*
X-30651Y-2490D03*
X-38982Y10254D03*
X-32080Y10260D03*
X-30800Y14200D03*
X-34330Y12611D03*
X-41800Y33000D03*
X-38800Y43000D03*
X-22800Y-33500D03*
X-21350Y-37350D03*
X-27759Y-24973D03*
X-22250Y-29400D03*
X-25509Y-28623D03*
X-26909Y-20500D03*
X-29909Y-21100D03*
X-26909Y-16760D03*
X-22800Y5600D03*
X-19800D03*
X-29500Y23500D03*
X-27800Y27900D03*
X-19800Y28700D03*
X-19700Y42000D03*
X-12700Y-38100D03*
X-15219Y-21657D03*
X-10000Y-28800D03*
X-17800Y900D03*
X-15493Y3865D03*
X-17500Y12800D03*
X-10223Y6477D03*
X-11505Y25460D03*
X-14500Y28000D03*
X-2800Y-35750D03*
X-6500Y-27378D03*
X-2100Y-17762D03*
X-5639Y-17700D03*
X-4000Y-900D03*
X2288Y250D03*
X1707Y11809D03*
X2807Y14809D03*
X2032Y27600D03*
X962Y21200D03*
X-6639Y38300D03*
X100Y38800D03*
X3500Y46300D03*
X8638Y-8436D03*
X7800Y-13800D03*
X12561Y-2180D03*
X14362Y9100D03*
X13612Y17666D03*
X8900Y39300D03*
X14000Y49900D03*
X9989Y43475D03*
X6600Y49800D03*
X22882Y-33500D03*
X21422Y-6919D03*
X26737Y13100D03*
X25950Y28800D03*
X25999Y41225D03*
X36599Y-21850D03*
X34349Y-13059D03*
Y4982D03*
X36599Y13267D03*
X32911Y9100D03*
X31132Y17600D03*
X38849Y21800D03*
X33382Y19910D03*
X36599Y34656D03*
X31181Y34260D03*
X36478Y41225D03*
X40953Y-38750D03*
X43990Y2732D03*
X40600Y14600D03*
X47140Y4900D03*
X48516Y17959D03*
X40600Y45463D03*
X55092Y-35800D03*
X61262Y-32209D03*
X58650Y-29959D03*
X57342Y-23706D03*
X51442Y-21005D03*
Y-27510D03*
X62500Y-22500D03*
X61500Y-11900D03*
X55050Y-5350D03*
X59800Y-1168D03*
X62660Y6604D03*
X57454Y15400D03*
X52689Y5711D03*
X58479Y22700D03*
X59312Y25700D03*
X68700Y-22100D03*
X63600Y-16300D03*
X68353Y-9870D03*
X71000Y-13800D03*
X62750Y2482D03*
X65900Y-3200D03*
X71200Y-600D03*
X66650Y10250D03*
X73100Y15300D03*
X68805Y15400D03*
X68500Y22900D03*
X73446Y19600D03*
X63700Y29000D03*
X72300Y31600D03*
X76442Y-34508D03*
X83392Y-25286D03*
X83860Y-20786D03*
X75753Y-7992D03*
X76700Y-12900D03*
X75000Y-17200D03*
X76314Y3542D03*
X76700Y26800D03*
X91734Y-20786D03*
X88360D03*
X93832Y-23886D03*
X93000Y-10800D03*
X86700Y-10300D03*
X86200Y-5600D03*
X93000Y-300D03*
X88300D03*
X94200Y10700D03*
X91200Y11900D03*
X88800Y5600D03*
X94200Y17868D03*
X93000Y43200D03*
X105900Y-33400D03*
X102140Y-20786D03*
X99150Y-10350D03*
X99200Y-5600D03*
X107800Y5200D03*
X103700Y13400D03*
X98300D03*
X105300Y7500D03*
X108832Y20032D03*
X100450Y26832D03*
X101500Y34800D03*
X108000Y29900D03*
X118100Y-50800D03*
X117650Y-35650D03*
X114655Y-22000D03*
X117968D03*
X118149Y-17500D03*
X115089Y-12760D03*
X112968Y-15010D03*
X111086Y-9585D03*
X116090Y951D03*
X111086Y-6585D03*
X114650Y9812D03*
X110500Y7800D03*
X114650Y25100D03*
X109351Y23968D03*
X127055Y-33200D03*
X122800Y-36900D03*
X127732Y-13600D03*
X121935Y3701D03*
X121000Y-1849D03*
X132232Y7338D03*
X126600Y12600D03*
X132232Y25900D03*
X125532Y20000D03*
X125512Y23800D03*
X129982Y30500D03*
X126400Y34100D03*
X133427Y-23950D03*
X137996Y-21700D03*
X132800Y-17500D03*
X135100Y4100D03*
Y23300D03*
X145000Y6100D03*
X144700Y39500D03*
X164400Y25000D03*
X175300Y-10651D03*
X178592Y11100D03*
X185568Y19808D03*
X181500Y41400D03*
X187300Y41100D03*
X196244Y-10544D03*
G54D11*
X-125685Y-9637D03*
Y-1763D03*
X-64071Y-9637D03*
Y-1763D03*
G54D20*
X-11505Y11799D03*
X-8956Y11809D03*
X-6397D03*
X-3838D03*
X-1279D03*
G54D12*
X-101200Y-30154D03*
Y19254D03*
X-91200Y-30154D03*
Y19254D03*
X-81200Y-30154D03*
Y19254D03*
G54D21*
X-2100Y-23012D03*
Y-11988D03*
G54D13*
X-78729Y32600D03*
X-68571Y38700D03*
X-43171Y5300D03*
X-32971Y2000D03*
Y5800D03*
X-21229Y-24300D03*
X-27729Y-3400D03*
X-11971Y-32700D03*
X-13790Y-28800D03*
X-10010D03*
X-17229Y900D03*
X24371Y17600D03*
X118829Y-9700D03*
X151629Y25300D03*
Y36700D03*
Y32900D03*
Y29100D03*
X161129Y25000D03*
X161029Y28900D03*
Y32700D03*
Y36600D03*
G54D22*
X17361Y13100D03*
X20039D03*
X17361Y9100D03*
X20039D03*
G54D14*
X-74989Y32600D03*
X-72311Y38700D03*
X-46911Y5300D03*
X-36711Y2000D03*
Y5800D03*
X-23989Y-3400D03*
X-15711Y-32700D03*
X-17489Y-24300D03*
X-13489Y900D03*
X28111Y17600D03*
X115089Y-9700D03*
X147889Y25300D03*
Y36700D03*
Y32900D03*
Y29100D03*
X157389Y25000D03*
X157289Y28900D03*
Y32700D03*
Y36600D03*
G54D23*
X52285Y12841D03*
Y10282D03*
Y20518D03*
Y17959D03*
Y15400D03*
X62915Y10282D03*
Y12841D03*
Y15400D03*
Y17959D03*
Y20518D03*
G54D15*
X-61743Y37300D03*
Y34741D03*
X-54657D03*
Y37300D03*
X-61743Y39859D03*
X-54657D03*
G54D24*
X82981Y8281D03*
X189081Y32081D03*
G54D16*
X-49400Y25771D03*
X-47500Y33171D03*
X-19700Y-29571D03*
X46300Y-4029D03*
X50200Y-1829D03*
G54D25*
X80336Y5636D03*
X186436Y29436D03*
G54D17*
X-49400Y29511D03*
X-47500Y36911D03*
X-19700Y-33311D03*
X46300Y-289D03*
X50200Y1911D03*
G54D18*
X-21612Y-18100D03*
X-22612Y37100D03*
X-10588Y-18100D03*
X-11588Y37100D03*
X-3412Y0D03*
X7612D03*
G54D19*
X-22342Y11789D03*
X-23916Y23600D03*
X9942Y11789D03*
X11516Y23600D03*
M02*
