G04 ================== begin FILE IDENTIFICATION RECORD ==================*
G04 Layout Name:  C:/Users/Liber/Desktop/SmartRing-V1.02/PCB/SmartRing.brd*
G04 Film Name:    TOP*
G04 File Format:  Gerber RS274X*
G04 File Origin:  Cadence Allegro 16.3-p003*
G04 Origin Date:  Mon Feb 10 17:13:57 2014*
G04 *
G04 Layer:  ETCH/TOP*
G04 Layer:  PIN/TOP*
G04 Layer:  VIA CLASS/TOP*
G04 *
G04 Offset:    (0.000 0.000)*
G04 Mirror:    No*
G04 Mode:      Positive*
G04 Rotation:  0*
G04 FullContactRelief:  No*
G04 UndefLineWidth:     6.000*
G04 ================== end FILE IDENTIFICATION RECORD ====================*
%FSLAX55Y55*MOIN*%
%IR0*IPPOS*OFA0.00000B0.00000*MIA0B0*SFA1.00000B1.00000*%
%AMMACRO18*
4,1,5,.045276,-.012598,
.004724,-.05315,
-.045276,-.05315,
-.045276,.05315,
.045276,.05315,
.045276,-.012598,
0.0*
%
%ADD18MACRO18*%
%ADD36R,.177165X.177165*%
%ADD15R,.090551X.106299*%
%ADD37R,.025591X.009843*%
%ADD28R,.034X.012*%
%ADD10C,.024*%
%ADD34C,.05315*%
%ADD26R,.033465X.011024*%
%ADD39R,.061024X.051181*%
%ADD24R,.011024X.033465*%
%ADD12C,.043307*%
%ADD38R,.023622X.035433*%
%ADD35R,.033465X.061024*%
%ADD33R,.05315X.05315*%
%ADD13R,.035433X.043307*%
%ADD14R,.043307X.035433*%
%ADD11R,.041339X.023622*%
%ADD23O,.047244X.021654*%
%ADD17R,.022441X.025197*%
%ADD20R,.025197X.022441*%
%ADD22R,.047244X.021654*%
%ADD29C,.062992*%
%ADD16R,.024409X.025197*%
%ADD19R,.025197X.024409*%
%ADD21R,.049213X.062992*%
%ADD31R,.062992X.049213*%
%ADD27R,.062992X.062992*%
%ADD30R,.059055X.07874*%
%ADD32R,.07874X.059055*%
%ADD25R,.066929X.066929*%
%ADD40C,.007*%
%ADD41C,.008*%
G75*
%LPD*%
G75*
G54D10*
X-136100Y44000D03*
X-135700Y47400D03*
X-132900Y-47300D03*
X-127000Y-47000D03*
X-131550Y-39500D03*
X-130200Y-22900D03*
X-126855Y-27625D03*
X-129900Y-29875D03*
X-127038Y27168D03*
X-131100Y21146D03*
X-126528Y35591D03*
X-114600Y-43100D03*
X-120950Y-47550D03*
X-120938Y-40700D03*
X-115006Y-5006D03*
X-117472Y31328D03*
X-114995Y38740D03*
X-103100Y-38300D03*
X-109200Y14500D03*
X-101600Y37981D03*
X-97600Y-43600D03*
X-96118Y-5082D03*
X-95600Y14400D03*
X-90567Y26518D03*
X-98100Y30100D03*
X-86600Y14400D03*
X-79279Y39300D03*
X-78200Y28768D03*
X-82600Y30350D03*
X-86300Y32300D03*
X-88500Y42350D03*
X-83940D03*
X-88440Y46410D03*
X-72700Y-43600D03*
X-74220Y-38718D03*
X-70287Y-37318D03*
X-72818Y-23088D03*
X-68000Y1300D03*
X-69133Y-5600D03*
X-66100Y6300D03*
X-69559Y26518D03*
X-72585Y44160D03*
X-72232Y48745D03*
X-76235Y39610D03*
X-54450Y-40092D03*
X-59263Y-37318D03*
X-55145Y-30154D03*
X-54845Y-21542D03*
X-55145Y-16030D03*
X-59110Y590D03*
X-63450Y9850D03*
X-59110Y11529D03*
X-57200Y25600D03*
X-61000Y27700D03*
X-64928Y27968D03*
X-58450Y44160D03*
X-61200Y47400D03*
X-47700Y-49900D03*
X-43150Y-37465D03*
X-46700Y-32600D03*
X-51495Y-25654D03*
X-49245Y-27904D03*
X-47900Y-15800D03*
X-44000Y-14000D03*
X-51800Y6300D03*
X-53300Y11400D03*
X-52400Y20440D03*
X-49800Y25800D03*
X-50987Y37300D03*
X-43300Y36200D03*
X-44085Y40614D03*
X-47840Y40395D03*
X-43657Y48232D03*
X-41750Y-48200D03*
X-32736Y-37817D03*
X-40100Y-25600D03*
X-30634Y-11160D03*
X-40900Y-10300D03*
X-41500Y-17400D03*
X-41232Y515D03*
X-30651Y-2490D03*
X-38982Y10254D03*
X-32080Y10260D03*
X-30800Y14200D03*
X-34330Y12611D03*
X-41800Y33000D03*
X-38800Y43000D03*
X-22800Y-33500D03*
X-21350Y-37350D03*
X-27759Y-24973D03*
X-22250Y-29400D03*
X-25509Y-28623D03*
X-26909Y-20500D03*
X-29909Y-21100D03*
X-26909Y-16760D03*
X-22800Y5600D03*
X-19800D03*
X-29500Y23500D03*
X-27800Y27900D03*
X-19800Y28700D03*
X-19700Y42000D03*
X-12700Y-38100D03*
X-15219Y-21657D03*
X-10000Y-28800D03*
X-17800Y900D03*
X-15493Y3865D03*
X-17500Y12800D03*
X-10223Y6477D03*
X-11505Y25460D03*
X-14500Y28000D03*
X-2800Y-35750D03*
X-6500Y-27378D03*
X-2100Y-17762D03*
X-5639Y-17700D03*
X-4000Y-900D03*
X2288Y250D03*
X1707Y11809D03*
X2807Y14809D03*
X2032Y27600D03*
X962Y21200D03*
X-6639Y38300D03*
X100Y38800D03*
X3500Y46300D03*
X8638Y-8436D03*
X7800Y-13800D03*
X12561Y-2180D03*
X14362Y9100D03*
X13612Y17666D03*
X8900Y39300D03*
X14000Y49900D03*
X9989Y43475D03*
X6600Y49800D03*
X22882Y-33500D03*
X21422Y-6919D03*
X26737Y13100D03*
X25950Y28800D03*
X25999Y41225D03*
X36599Y-21850D03*
X34349Y-13059D03*
Y4982D03*
X36599Y13267D03*
X32911Y9100D03*
X31132Y17600D03*
X38849Y21800D03*
X33382Y19910D03*
X36599Y34656D03*
X31181Y34260D03*
X36478Y41225D03*
X40953Y-38750D03*
X43990Y2732D03*
X40600Y14600D03*
X47140Y4900D03*
X48516Y17959D03*
X40600Y45463D03*
X55092Y-35800D03*
X61262Y-32209D03*
X58650Y-29959D03*
X57342Y-23706D03*
X51442Y-21005D03*
Y-27510D03*
X62500Y-22500D03*
X61500Y-11900D03*
X55050Y-5350D03*
X59800Y-1168D03*
X62660Y6604D03*
X57454Y15400D03*
X52689Y5711D03*
X58479Y22700D03*
X59312Y25700D03*
X68700Y-22100D03*
X63600Y-16300D03*
X68353Y-9870D03*
X71000Y-13800D03*
X62750Y2482D03*
X65900Y-3200D03*
X71200Y-600D03*
X66650Y10250D03*
X73100Y15300D03*
X68805Y15400D03*
X68500Y22900D03*
X73446Y19600D03*
X63700Y29000D03*
X72300Y31600D03*
X76442Y-34508D03*
X83392Y-25286D03*
X83860Y-20786D03*
X75753Y-7992D03*
X76700Y-12900D03*
X75000Y-17200D03*
X76314Y3542D03*
X76700Y26800D03*
X91734Y-20786D03*
X88360D03*
X93832Y-23886D03*
X93000Y-10800D03*
X86700Y-10300D03*
X86200Y-5600D03*
X93000Y-300D03*
X88300D03*
X94200Y10700D03*
X91200Y11900D03*
X88800Y5600D03*
X94200Y17868D03*
X93000Y43200D03*
X105900Y-33400D03*
X102140Y-20786D03*
X99150Y-10350D03*
X99200Y-5600D03*
X107800Y5200D03*
X103700Y13400D03*
X98300D03*
X105300Y7500D03*
X108832Y20032D03*
X100450Y26832D03*
X101500Y34800D03*
X108000Y29900D03*
X118100Y-50800D03*
X117650Y-35650D03*
X114655Y-22000D03*
X117968D03*
X118149Y-17500D03*
X115089Y-12760D03*
X112968Y-15010D03*
X111086Y-9585D03*
X116090Y951D03*
X111086Y-6585D03*
X114650Y9812D03*
X110500Y7800D03*
X114650Y25100D03*
X109351Y23968D03*
X127055Y-33200D03*
X122800Y-36900D03*
X127732Y-13600D03*
X121935Y3701D03*
X121000Y-1849D03*
X132232Y7338D03*
X126600Y12600D03*
X132232Y25900D03*
X125532Y20000D03*
X125512Y23800D03*
X129982Y30500D03*
X126400Y34100D03*
X133427Y-23950D03*
X137996Y-21700D03*
X132800Y-17500D03*
X135100Y4100D03*
Y23300D03*
X145000Y6100D03*
X144700Y39500D03*
X164400Y25000D03*
X175300Y-10651D03*
X178592Y11100D03*
X185568Y19808D03*
X181500Y41400D03*
X187300Y41100D03*
X196244Y-10544D03*
G54D20*
X-88500Y37829D03*
X-50200Y16229D03*
X-50900Y36971D03*
X-10400Y-20071D03*
X12500Y28029D03*
X59800Y-8229D03*
X55800Y1971D03*
X59600Y5829D03*
X94200Y24029D03*
X90300Y20071D03*
X98200D03*
X117000Y-1971D03*
X118300Y12471D03*
X121000Y-5971D03*
X124900D03*
X175300Y-7729D03*
G54D11*
X-126528Y31260D03*
Y38740D03*
X-117472Y35000D03*
X-102072D03*
X-111128Y31260D03*
Y38740D03*
G54D30*
X-4591Y-11811D03*
Y11811D03*
X46591Y-11811D03*
Y11811D03*
G54D21*
X-48200Y5212D03*
Y-5812D03*
G54D12*
X-133100Y33500D03*
X-50700Y-21300D03*
X-41700Y14400D03*
X-33300Y48100D03*
X-2700Y-30700D03*
X18300Y18500D03*
X193900Y-13600D03*
G54D40*
G01X-132900Y-47300D02*
X-130200Y-44600D01*
X-123900D01*
X-120950Y-47550D01*
G01X-46700Y-32600D02*
X-50000Y-35900D01*
Y-43600D01*
X-56300Y-49900D01*
X-124300D01*
X-125338Y-48862D01*
Y-48662D01*
X-127000Y-47000D01*
G01X-130200Y-22900D02*
X-132950Y-25650D01*
Y-30853D01*
X-130450Y-33353D01*
X-121315D01*
G01X-131550Y-39500D02*
X-134188Y-36862D01*
Y-36700D01*
X-136700Y-34188D01*
Y37800D01*
X-125500Y49000D01*
X-87500D01*
X-86190Y47690D01*
Y36100D01*
X-82690Y32600D01*
X-71029D01*
G01X-131100Y21146D02*
Y-19000D01*
X-134750Y-22650D01*
Y-31250D01*
X-122300Y-43700D01*
X-118800D01*
X-115983Y-46517D01*
X-68462D01*
X-59263Y-37318D01*
G01X-122890Y-5006D02*
X-126150D01*
Y-26920D01*
X-126855Y-27625D01*
G01X-116394Y-21542D02*
X-116787D01*
X-119372Y-24127D01*
Y-24520D01*
X-119609Y-24757D01*
Y-29375D01*
X-120109Y-29875D01*
X-129900D01*
G01X-88440Y46410D02*
X-123835D01*
X-129645Y40600D01*
Y26481D01*
X-128082Y24918D01*
X-125213D01*
X-124363Y25768D01*
X-113507D01*
X-110291Y22553D01*
G01X-88500Y42350D02*
X-115011D01*
X-122011Y35350D01*
Y32260D01*
X-123011Y31260D01*
X-126528D01*
G01X-104780Y22553D02*
X-106901D01*
Y24718D01*
X-107470D01*
Y25486D01*
X-109152Y27168D01*
X-127038D01*
G01X-126528Y38740D02*
Y35591D01*
G01X-136100Y44000D02*
X-133750D01*
X-126050Y51700D01*
X-84900D01*
X-79279Y46079D01*
Y39300D01*
G01X-114600Y-43100D02*
X-107900D01*
X-103100Y-38300D01*
G01X-120938Y-40700D02*
X-119276Y-39038D01*
Y-37220D01*
X-115803Y-33746D01*
Y-33353D01*
G01X-116394Y-5006D02*
X-115006D01*
G01X-117472Y35000D02*
Y31328D01*
G01X-111128Y38740D02*
X-114994D01*
X-114995Y38740D01*
G01X-106354Y-5400D02*
Y-17211D01*
G01X-96118D02*
X-106354D01*
G01Y6411D02*
Y-5400D01*
G01Y6411D02*
Y14679D01*
X-104780Y16254D01*
G01X-106354Y6411D02*
X-96118D01*
G01X-110291Y16254D02*
Y15591D01*
X-109200Y14500D01*
G01X-111128Y31260D02*
X-106618Y26750D01*
X-94170D01*
X-93389Y27531D01*
Y30000D01*
G01X-99268Y-33353D02*
Y-41932D01*
X-97600Y-43600D01*
G01X-88244Y-33353D02*
Y-34244D01*
X-97600Y-43600D01*
G01X-99268Y-33353D02*
X-96578Y-30663D01*
Y-29875D01*
X-93756Y-27054D01*
G01X-99268D02*
Y-23838D01*
X-73568D01*
X-72818Y-23088D01*
G01X-96118Y-17211D02*
X-85882D01*
G01X-96118D02*
Y-5400D01*
G01X-85882D02*
X-96118D01*
G01D02*
Y-5082D01*
G01Y6411D02*
X-85882D01*
G01X-93756Y16254D02*
Y16244D01*
X-95600Y14400D01*
G01X-93756Y22553D02*
X-91634D01*
Y25318D01*
X-90567Y26385D01*
Y26518D01*
G01X-89629Y30000D02*
X-93389D01*
G01X-93289Y33900D02*
X-91038D01*
Y37800D01*
X-93210D01*
G01X-97029Y33900D02*
Y34169D01*
X-102072D01*
Y35000D01*
G01X-96990Y37800D02*
X-99162D01*
X-99343Y37981D01*
X-101600D01*
G01X-82732Y-33353D02*
X-88244D01*
G01X-77220D02*
X-82732D01*
G01X-88244Y-27054D02*
Y-33353D01*
G01X-75646Y-17211D02*
X-85882D01*
G01X-75646Y6411D02*
X-85882D01*
G01X-78200Y28768D02*
X-80550D01*
X-81918Y27400D01*
X-86712D01*
X-88244Y25868D01*
Y22553D01*
G01X-82732D02*
Y25768D01*
X-76245D01*
X-74682Y27331D01*
Y29456D01*
X-76245Y31018D01*
X-81932D01*
X-82600Y30350D01*
G01X-88244Y16254D02*
Y16044D01*
X-86600Y14400D01*
G01X-81411Y36200D02*
X-83940D01*
Y42350D01*
G01X-88500Y34089D02*
Y32738D01*
X-87457Y31695D01*
Y31568D01*
X-85889Y30000D01*
G01D02*
Y31889D01*
X-86300Y32300D01*
G01X-88500Y37829D02*
Y42350D01*
G01X-74220Y-38718D02*
Y-42080D01*
X-72700Y-43600D01*
G01X-71709Y-33353D02*
X-70287D01*
Y-37318D01*
G01X-78600Y-34700D02*
X-78568D01*
X-77220Y-33353D01*
G01X-71709Y-27054D02*
Y-24198D01*
X-72818Y-23088D01*
G01X-65606Y-27054D02*
X-71709D01*
G01X-65606Y-21542D02*
X-71272D01*
X-72818Y-23088D01*
G01X-75646Y-17211D02*
Y-5400D01*
G01X-68000Y1300D02*
X-66401D01*
X-65606Y505D01*
G01Y-5006D02*
X-66674Y-3938D01*
X-67471D01*
X-69133Y-5600D01*
G01X-75646Y6411D02*
Y-5400D01*
G01X-77671Y36200D02*
X-69299D01*
X-66299Y39200D01*
Y49215D01*
X-62799Y52715D01*
X14867D01*
X16950Y50632D01*
X16968D01*
X24338Y43262D01*
Y42887D01*
X25999Y41225D01*
G01X-69559Y26518D02*
X-65788Y30290D01*
X-65634D01*
X-64424Y31500D01*
X-56717D01*
X-54000Y34217D01*
Y34604D01*
X-53999Y34605D01*
Y37997D01*
X-51601Y40395D01*
X-47840D01*
G01X3500Y46300D02*
Y48650D01*
X835Y51315D01*
X-61850D01*
X-64350Y48815D01*
Y35578D01*
X-67289Y32639D01*
Y32600D01*
G01X-72585Y44160D02*
X-69121D01*
X-68471Y43510D01*
Y41100D01*
G01X-74835D02*
Y41010D01*
X-76235Y39610D01*
G01X-74835Y41100D02*
X-72211D01*
G01X-74835D02*
Y46142D01*
X-72232Y48745D01*
G01X-65606Y-10518D02*
X-65213D01*
X-62628Y-13103D01*
Y-13587D01*
X-62391Y-13823D01*
Y-29400D01*
X-61653Y-30137D01*
X-58478D01*
X-58116Y-30500D01*
X-58001D01*
X-54450Y-34051D01*
Y-40092D01*
G01X-66197Y-33353D02*
Y-27644D01*
X-65606Y-27054D01*
G01X-60685Y-33353D02*
X-59263D01*
Y-37318D01*
G01X-59110Y-21542D02*
X-54845D01*
G01X-65606D02*
Y-27054D01*
G01Y-16030D02*
Y-21542D01*
G01X-59110Y-27054D02*
X-55895D01*
X-55045Y-27904D01*
X-49245D01*
G01X-59110Y-16030D02*
X-55145D01*
G01X-41500Y-17400D02*
X-43850D01*
X-44535Y-18085D01*
X-49315D01*
X-52895Y-14505D01*
Y-14461D01*
X-54253Y-13103D01*
X-56132D01*
X-58716Y-10518D01*
X-59110D01*
G01X-47900Y-15800D02*
X-49562Y-14138D01*
X-49585D01*
X-58716Y-5006D01*
X-59110D01*
G01Y505D02*
Y590D01*
G01X-57200Y25600D02*
X-55538Y23938D01*
Y19604D01*
X-55895Y19248D01*
Y5795D01*
X-51200Y1100D01*
Y-2812D01*
X-48200Y-5812D01*
G01X-41232Y515D02*
X-41800Y-53D01*
Y-8050D01*
X-41832D01*
X-43150Y-9368D01*
Y-9750D01*
X-45000Y-11600D01*
X-49600D01*
X-53600Y-7600D01*
Y901D01*
X-58716Y6017D01*
X-59110D01*
G01X-65606Y11529D02*
X-64350Y10750D01*
X-63450Y9850D01*
G01X-41800Y33000D02*
X-44150D01*
X-44321Y33171D01*
X-48734D01*
X-51805Y30100D01*
X-62796D01*
X-64928Y27968D01*
G01X-44800Y43500D02*
X-52652D01*
X-56171Y39982D01*
Y36300D01*
G01X-61000Y27700D02*
X-58282D01*
X-58132Y27850D01*
X-56268D01*
X-56118Y27700D01*
X-51700D01*
X-49800Y25800D01*
G01X-61200Y47400D02*
X-62862Y45738D01*
Y41661D01*
X-59911Y38710D01*
Y36300D01*
G01X-43657Y48232D02*
X-54378D01*
X-58450Y44160D01*
G01X-40100Y-25600D02*
Y-29500D01*
X-47700Y-37100D01*
Y-49900D01*
G01X-38982Y10254D02*
Y-9036D01*
X-38650Y-9368D01*
Y-11232D01*
X-38982Y-11564D01*
Y-19154D01*
X-45482Y-25654D01*
X-51495D01*
G01X-50700Y-21300D02*
X-52120Y-19880D01*
X-53183D01*
X-54845Y-21542D01*
G01X-44000Y-14000D02*
X-40900Y-10900D01*
Y-10300D01*
G01X-48200Y5212D02*
X-50712D01*
X-51800Y6300D01*
G01X102400Y51300D02*
X40700D01*
X26900Y37500D01*
X15900D01*
X12650Y34250D01*
X-22789D01*
X-22889Y34350D01*
X-28152D01*
X-30471Y34350D01*
X-30472Y34350D01*
X-32022D01*
X-43100Y23272D01*
Y23100D01*
X-45100Y21100D01*
Y11800D01*
X-47000Y9900D01*
X-51800D01*
X-53300Y11400D01*
G01X-50200Y12489D02*
X-48632Y14057D01*
X-48505D01*
X-47300Y15262D01*
Y22000D01*
X-33500Y35800D01*
X9800D01*
X14000Y40000D01*
Y49900D01*
G01X-52400Y20440D02*
X-50032Y18072D01*
Y16397D01*
X-50200Y16229D01*
G01X-43300Y36200D02*
X-43700Y36600D01*
X-45750D01*
X-46121Y36971D01*
X-50900D01*
G01D02*
X-50987Y37058D01*
Y37300D01*
G01X-44085Y40614D02*
X-44800Y41329D01*
Y43500D01*
G01X-33300Y48100D02*
X-35800Y45600D01*
X-42700D01*
X-44800Y43500D01*
G01X-47840Y40395D02*
X-47845Y40400D01*
X-50589D01*
X-50900Y40711D01*
G01X-43150Y-37465D02*
Y-44450D01*
X-41750Y-45850D01*
Y-48200D01*
G01X-30634Y-11160D02*
X-32296Y-12822D01*
Y-33104D01*
X-21290Y-44110D01*
X12272D01*
X22882Y-33500D01*
G01X80900Y-45800D02*
X77192Y-49508D01*
X-21045D01*
X-32736Y-37817D01*
G01X118100Y-50800D02*
X116438Y-52462D01*
X-23630D01*
X-37284Y-38808D01*
Y-11846D01*
X-37250Y-11812D01*
Y-8788D01*
X-37284Y-8754D01*
Y6527D01*
X-34330Y9481D01*
Y12611D01*
G01X-27107Y4247D02*
X-29884D01*
X-35884Y-1753D01*
Y-8174D01*
X-35850Y-8208D01*
Y-12392D01*
X-35884Y-12426D01*
Y-37908D01*
X-22884Y-50907D01*
X112492D01*
X117600Y-45800D01*
X143989D01*
X167982Y-21808D01*
Y-18590D01*
X165982Y-16590D01*
X162890D01*
X158100Y-11800D01*
G01X-38982Y10254D02*
X-37320Y11916D01*
Y13300D01*
X-35729Y14890D01*
Y17300D01*
G01X63700Y29000D02*
X60690Y32010D01*
X30911D01*
X30201Y31300D01*
X1256D01*
X1246Y31310D01*
X-3224D01*
X-3234Y31300D01*
X-23799D01*
X-24049Y31550D01*
X-30700D01*
X-32018Y30232D01*
X-32180D01*
X-35000Y27412D01*
Y22721D01*
X-31989Y19710D01*
Y17300D01*
G01X31181Y34260D02*
X15400D01*
X13840Y32700D01*
X1836D01*
X1826Y32710D01*
X-3804D01*
X-3814Y32700D01*
X-23219D01*
X-23469Y32950D01*
X-31442D01*
X-41700Y22692D01*
Y14400D01*
G01X-24254Y13007D02*
X-26425D01*
X-29719Y16301D01*
Y19419D01*
X-32300Y22001D01*
Y27900D01*
X-30050Y30150D01*
X-24629D01*
X-22289Y27810D01*
Y25800D01*
G01X-19700Y42000D02*
X-21362Y40338D01*
X-36138D01*
X-38800Y43000D01*
G01X-27759Y-24973D02*
Y-35141D01*
X-20190Y-42710D01*
X9090D01*
X25000Y-26800D01*
G01X-22760Y-33500D02*
X-21829D01*
X-17129Y-38200D01*
G01X-22760Y-33500D02*
X-22101Y-34159D01*
X-17350D01*
G01X-22760Y-33500D02*
X-22800D01*
G01X-22250Y-29400D02*
X-22141Y-29291D01*
X-17350D01*
Y-29041D01*
G01X-25509Y-28623D02*
Y-26373D01*
G01D02*
Y-24240D01*
X-22446D01*
G01X-10400Y-23811D02*
X-12341Y-25752D01*
Y-25758D01*
X-12956Y-26373D01*
X-25509D01*
G01X-23929Y-13100D02*
X-27200D01*
X-29909Y-15809D01*
Y-21100D01*
G01X-22446Y-16760D02*
X-26909D01*
G01X-22446Y-20500D02*
X-26909D01*
G01X-21989Y-7200D02*
Y-10889D01*
X-23700Y-12600D01*
Y-12871D01*
X-23929Y-13100D01*
G01X-24254Y1393D02*
Y-1490D01*
X-25254Y-2490D01*
X-30651D01*
G01X-25729Y-7200D02*
Y-5334D01*
X-22285Y-1890D01*
Y1393D01*
G01X-21400Y7200D02*
X-19800Y5600D01*
G01X-22800D02*
X-22400Y6000D01*
Y6200D01*
X-21400Y7200D01*
G01X-27107Y6216D02*
X-29830D01*
Y8184D01*
G01D02*
X-30004D01*
X-32080Y10260D01*
G01X-27107Y8184D02*
X-29830D01*
G01X-27107Y10153D02*
X-28229D01*
X-29594Y11518D01*
X-29618D01*
X-30800Y12700D01*
Y14200D01*
G01X-20315Y13007D02*
Y13216D01*
X-20684Y13585D01*
Y15115D01*
X-20699Y15130D01*
Y17428D01*
X-21471Y18200D01*
G01X-29500Y23500D02*
X-27838Y21838D01*
Y16638D01*
X-26930Y15730D01*
X-23268D01*
X-22285Y14748D01*
Y13007D01*
G01X-27800Y27900D02*
X-26029Y26129D01*
Y25800D01*
G01X-25329Y22000D02*
Y25100D01*
X-26029Y25800D01*
G01X-25211Y18200D02*
Y21882D01*
X-25329Y22000D01*
G01X-15493Y10153D02*
X-14184Y11462D01*
Y14284D01*
X-15700Y15800D01*
X-17996D01*
X-19299Y17103D01*
Y19895D01*
X-19300Y19896D01*
Y20804D01*
X-20496Y22000D01*
X-21589D01*
G01X-10050Y-34159D02*
X-4391D01*
X-2800Y-35750D01*
G01X-12700Y-38100D02*
X-12800Y-38000D01*
Y-33300D01*
X-14500Y-31600D01*
X-17350D01*
G01X-15754Y-24240D02*
X-15219D01*
Y-21657D01*
G01X-10050Y-29041D02*
X-17350D01*
G01X-6490Y-23800D02*
Y-23811D01*
X-10400D01*
G01X-10050Y-31600D02*
X-7281D01*
X-6500Y-30819D01*
Y-27378D01*
G01X-20315Y1393D02*
Y-1792D01*
X-19600Y-2507D01*
Y-9662D01*
X-18162Y-11100D01*
X-15890D01*
G01X-12110D02*
X-12071Y-11061D01*
Y-7200D01*
G01X-20189Y-13100D02*
X-18600D01*
X-14940Y-16760D01*
G01D02*
X-11629Y-20071D01*
X-10400D01*
G01X-14940Y-16760D02*
X-15754D01*
G01X-18346Y1393D02*
X-18293D01*
X-17800Y900D01*
G01X626Y1912D02*
X-12909D01*
X-15811Y-990D01*
Y-3400D01*
G01Y-7200D02*
Y-3400D01*
G01X-12071D02*
X-2576D01*
X6138Y-12114D01*
Y-12138D01*
X7800Y-13800D01*
G01X-14900Y8000D02*
X-15200Y7700D01*
Y6400D01*
G01X-14900Y8000D02*
X-15309D01*
X-15493Y8184D01*
G01X-14900Y8000D02*
X-14348Y8552D01*
X-13385D01*
X-12770Y9167D01*
Y15771D01*
X-12989Y15990D01*
Y18400D01*
G01X-15200Y6400D02*
X-15309D01*
X-15493Y6216D01*
G01X626Y1912D02*
X-1689Y4227D01*
X-11156D01*
X-13426Y6497D01*
X-14979D01*
X-15076Y6400D01*
X-15200D01*
G01X-15493Y4247D02*
Y3865D01*
G01X-10223Y6477D02*
Y19523D01*
X-10718Y20018D01*
Y20095D01*
X-11334Y20710D01*
X-11410D01*
X-12810Y22110D01*
Y22300D01*
G01X-11505Y25460D02*
X-11300D01*
G01D02*
X-9160Y27600D01*
X-4729D01*
G01X-11300Y25460D02*
X-7040Y21200D01*
X-4812D01*
G01X-16590Y22300D02*
X-16729D01*
Y18400D01*
G01X-14500Y28000D02*
X-19100D01*
X-19800Y28700D01*
G01X515Y-23800D02*
Y-27485D01*
X-2700Y-30700D01*
G01X33382Y19910D02*
Y14247D01*
X30387Y11253D01*
Y-11100D01*
X21887Y-19600D01*
X4715D01*
X515Y-23800D01*
G01X-2710D02*
X515D01*
G01X8638Y-8436D02*
Y-6100D01*
X2288Y250D01*
G01D02*
X626Y1912D01*
G01X21422Y-6919D02*
X9703Y4800D01*
X1715D01*
X-588Y7103D01*
Y17785D01*
X-4003Y21200D01*
X-4812D01*
G01X6212D02*
X962D01*
G01X-4729Y27600D02*
X-3260Y29070D01*
Y29295D01*
X-2644Y29910D01*
X666D01*
X676Y29900D01*
X8219D01*
X10090Y28029D01*
X12500D01*
G01X2032Y27600D02*
X-989D01*
G01X100Y38800D02*
X8400D01*
X8900Y39300D01*
G01X7800Y-13800D02*
X9462Y-12138D01*
Y-12123D01*
X12561Y-9024D01*
Y-2180D01*
G01X2807Y14809D02*
X8653D01*
X14362Y9100D01*
G01X12500Y24289D02*
Y22019D01*
X13262Y21257D01*
Y18016D01*
X13612Y17666D01*
G01X6600Y49800D02*
X9989Y46411D01*
Y43475D01*
G01X36599Y-21850D02*
Y13267D01*
G01X34349Y-13059D02*
Y4982D01*
G01X25950Y28800D02*
X28300D01*
X38790Y18310D01*
X41076D01*
X46591Y12795D01*
Y11811D01*
G01X46600Y37100D02*
X39042D01*
X36599Y34656D01*
G01X93000Y43200D02*
X91100Y41300D01*
X38902D01*
X38828Y41225D01*
X36478D01*
G01X40953Y-38750D02*
X52142D01*
X55092Y-35800D01*
G01X40600Y14600D02*
Y-14570D01*
X47035Y-21005D01*
X51442D01*
G01X43990Y2732D02*
Y-546D01*
X66450Y-23006D01*
Y-23032D01*
X67768Y-24350D01*
X67794D01*
X69544Y-26100D01*
X80228D01*
X81042Y-25286D01*
X83392D01*
G01X55800Y1971D02*
X50069D01*
X47140Y4900D01*
G01X49910Y21800D02*
X45511D01*
G01X49910Y25700D02*
X45511D01*
G01X38849Y21800D02*
X41771D01*
G01Y25700D02*
Y21800D01*
G01Y29600D02*
Y25700D01*
G01X49910Y29700D02*
Y29600D01*
X45511D01*
G01X40600Y45463D02*
X43163Y42900D01*
X88700D01*
X92899Y47100D01*
X96600D01*
G01X58650Y-29959D02*
Y-32908D01*
X66650Y-40908D01*
X78363D01*
X78555Y-41100D01*
X125314D01*
X125507Y-40908D01*
X125819D01*
X140819Y-25908D01*
Y-20300D01*
G01X57342Y-23706D02*
X59746Y-26110D01*
X63910D01*
X66736Y-28936D01*
X94421D01*
X97921Y-25436D01*
Y-17313D01*
G01X51442Y-27510D02*
X62174D01*
X65000Y-30336D01*
X95390D01*
X99890Y-25836D01*
Y-17313D01*
G01X63600Y-16300D02*
X61938Y-14638D01*
X60388D01*
X55050Y-9300D01*
Y-5350D01*
G01X62750Y-9947D02*
X62110Y-9307D01*
Y-8229D01*
X59800D01*
G01X55800Y1971D02*
Y2089D01*
X59600D01*
G01X59800Y-1168D02*
Y-4489D01*
G01X55800Y5711D02*
X52689D01*
G01X62660Y6604D02*
Y14068D01*
X54928Y21800D01*
G01D02*
X55862D01*
Y22700D01*
X58479D01*
G01X53690Y21800D02*
X54928D01*
G01X53690Y25700D02*
X59312D01*
G01X53690Y29700D02*
X58562D01*
X61562Y26700D01*
Y18303D01*
X64100Y15765D01*
Y8346D01*
X64910Y7536D01*
Y3504D01*
X65000Y3414D01*
Y1549D01*
X64100Y649D01*
Y-1818D01*
X63650Y-2268D01*
Y-4132D01*
X64100Y-4582D01*
Y-5534D01*
X66186Y-7620D01*
X72093D01*
X73971Y-5742D01*
X77581D01*
X78424Y-6585D01*
X81287D01*
G01X104713Y-14460D02*
Y-24093D01*
X96713Y-32092D01*
X61379D01*
X61262Y-32209D01*
G01X62500Y-22500D02*
X67536Y-27536D01*
X93582D01*
X96082Y-25036D01*
Y-20165D01*
X95953Y-20036D01*
Y-17313D01*
G01X68700Y-22100D02*
Y-16100D01*
X71000Y-13800D01*
G01X68353Y-9870D02*
X70014Y-11532D01*
X74886D01*
X75768Y-10650D01*
X76648D01*
X76776Y-10522D01*
X81287D01*
G01X62750Y2482D02*
Y1280D01*
X62700Y1230D01*
Y-1238D01*
X62250Y-1688D01*
Y-4712D01*
X62700Y-5162D01*
Y-6114D01*
X62750Y-6164D01*
Y-9947D01*
G01X61500Y-11900D02*
X62750Y-10650D01*
Y-9947D01*
G01X65900Y-3200D02*
X70306D01*
X71448Y-4342D01*
X78191D01*
X78464Y-4615D01*
X81287D01*
G01X71200Y-600D02*
X72862Y-2262D01*
X72962D01*
X73346Y-2646D01*
X81287D01*
G01Y-678D02*
X74764D01*
X72264Y1822D01*
Y10302D01*
X79547Y17585D01*
Y22000D01*
G01X66650Y10250D02*
Y14373D01*
X66250Y14773D01*
Y30250D01*
X70060Y34060D01*
X73560D01*
X76600Y37100D01*
G01X106600D02*
X106200Y36700D01*
Y35500D01*
X101600Y30900D01*
X75638D01*
X73159Y28421D01*
Y28359D01*
X70162Y25362D01*
Y24562D01*
X68500Y22900D01*
G01X72300Y31600D02*
X73400D01*
X74500Y32700D01*
X99400D01*
X101500Y34800D01*
G01X76442Y-34508D02*
Y-37008D01*
X79135Y-39700D01*
X124734D01*
X133427Y-31008D01*
Y-23950D01*
G01X86110Y-17313D02*
Y-22568D01*
X83392Y-25286D01*
G01X84142Y-17313D02*
Y-20504D01*
X83860Y-20786D01*
G01X81287Y-12492D02*
X77108D01*
X76700Y-12900D01*
G01X75000Y-17200D02*
X76662Y-15538D01*
X77385D01*
X78464Y-14460D01*
X81287D01*
G01Y-8554D02*
X76314D01*
X75753Y-7992D01*
G01X81287Y1292D02*
X75064D01*
X74064Y2292D01*
Y4489D01*
X85453Y15878D01*
Y20071D01*
G01X81287Y3260D02*
X76596D01*
X76314Y3542D01*
G01X84142Y6113D02*
Y9954D01*
X87550Y13362D01*
Y13412D01*
X89688Y15550D01*
X89738D01*
X89807Y15619D01*
X95130D01*
X95161Y15650D01*
X104632D01*
X105301Y14982D01*
X111480D01*
X116499Y20000D01*
X118771D01*
G01X116600Y37100D02*
X112400Y32900D01*
X106400D01*
X102582Y29082D01*
X92986D01*
X92955Y29050D01*
X75768D01*
X74559Y27841D01*
Y27779D01*
X73446Y26666D01*
Y19600D01*
G01X79547Y22000D02*
Y22378D01*
X81669Y24500D01*
X81743D01*
X83345Y26101D01*
X87561D01*
X87581Y26082D01*
X91995D01*
X93576Y24500D01*
X93729D01*
X94200Y24029D01*
G01X98200Y23968D02*
Y24182D01*
X94900Y27481D01*
X88161D01*
X88141Y27501D01*
X79751D01*
X79050Y26800D01*
X76700D01*
G01X105900Y-33400D02*
X104238Y-31738D01*
X103538D01*
X103397Y-31597D01*
X100203D01*
X99708Y-32092D01*
X99364D01*
X95657Y-35800D01*
X90900D01*
G01X92016Y-17313D02*
Y-20504D01*
X91734Y-20786D01*
G01X88079Y-17313D02*
Y-20506D01*
X88360Y-20786D01*
G01X93832Y-23886D02*
X93984Y-23734D01*
Y-17313D01*
G01X93000Y-5600D02*
Y-10800D01*
G01X91400Y-5600D02*
X86700Y-10300D01*
G01X93000Y-5000D02*
X88300Y-300D01*
G01X93000Y-5000D02*
Y-300D01*
G01Y-5600D02*
Y-5000D01*
G01Y-5600D02*
X98200Y-9400D01*
G01X94400Y-5600D02*
X98200Y-9400D01*
G01X93000Y-5600D02*
X94400D01*
G01D02*
X99200D01*
G01X93000D02*
X91400D01*
G01D02*
X86200D01*
G01X94200Y10700D02*
Y9000D01*
X93984Y8784D01*
Y6113D01*
G01X92016D02*
Y9702D01*
X91950Y9768D01*
Y10950D01*
X91200Y11700D01*
Y11900D01*
G01X90047Y6113D02*
X89860Y6300D01*
X87900D01*
G01D02*
X87178Y7022D01*
Y7468D01*
G01X87900Y6300D02*
Y6292D01*
X88079Y6113D01*
G01X87178Y7468D02*
Y11010D01*
X88950Y12782D01*
Y12832D01*
X90268Y14150D01*
X90318D01*
X90386Y14218D01*
X94082D01*
X96550Y11750D01*
Y9533D01*
X95953Y8936D01*
Y6113D01*
G01X87178Y7468D02*
X86110Y6400D01*
Y6113D01*
G01X88079D02*
X88287D01*
X88800Y5600D01*
G01X94200Y20289D02*
Y17868D01*
G01X90300Y23811D02*
X90551D01*
X92505Y21857D01*
X92632D01*
X94200Y20289D01*
G01X90300Y20071D02*
X85453D01*
G01D02*
Y22000D01*
G01X96600Y37100D02*
X93858Y34358D01*
X93234Y34100D01*
X89540D01*
G01X102400Y51300D02*
X101100Y50000D01*
Y45500D01*
X96900Y41300D01*
X94500D01*
X92600Y39400D01*
Y38800D01*
X90900Y37100D01*
X86600D01*
G01X102140Y-20786D02*
X101858Y-20504D01*
Y-17313D01*
G01X98200Y-9400D02*
X99150Y-10350D01*
G01X122800Y-36900D02*
X110600Y-24700D01*
Y-13286D01*
X107836Y-10522D01*
X104713D01*
G01X117650Y-35650D02*
X108600Y-26600D01*
Y-14637D01*
X106821Y-12859D01*
X106455Y-12492D01*
X104713D01*
G01Y-4615D02*
X109664D01*
X113636Y-643D01*
Y-249D01*
X114836Y951D01*
X116090D01*
G01X104713Y-2646D02*
X108489D01*
X114336Y3201D01*
X117117D01*
X120650Y-332D01*
Y-1499D01*
X121000Y-1849D01*
G01X110500Y7800D02*
Y4318D01*
X107474Y1292D01*
X104713D01*
G01X135100Y4100D02*
X132451Y1451D01*
X120942D01*
X117792Y4601D01*
X113215D01*
X107936Y-678D01*
X104713D01*
G01Y-6585D02*
X111086D01*
G01X104713Y-8554D02*
X108336D01*
X108836Y-9054D01*
Y-9122D01*
X110623D01*
X111086Y-9585D01*
G01X118300Y12471D02*
X106871D01*
X105550Y11150D01*
X103434D01*
X103384Y11100D01*
X99600D01*
X97950Y9450D01*
Y7588D01*
X97921Y7559D01*
Y6113D01*
G01X114650Y9812D02*
X112300D01*
X111042Y11071D01*
X107653D01*
X106332Y9750D01*
X104368D01*
X104362Y9744D01*
X104008D01*
X103964Y9700D01*
X100654D01*
X99890Y8936D01*
Y6113D01*
G01X104713Y3260D02*
X106653Y5200D01*
X107800D01*
G01X98300Y13400D02*
X103700D01*
G01X105300Y7500D02*
X104946D01*
X103559Y6113D01*
X101858D01*
G01X98200Y23811D02*
Y23968D01*
G01D02*
X102728D01*
G01X106272Y20032D02*
X108832D01*
G01X118500Y24188D02*
X110912Y16600D01*
X110562D01*
X110344Y16381D01*
X105880D01*
X105212Y17050D01*
X101359D01*
X98338Y20071D01*
X98200D01*
G01X102728Y20032D02*
X104310Y18450D01*
X105792D01*
X106460Y17782D01*
X109764D01*
X110282Y18300D01*
X110412D01*
X111601Y19489D01*
Y25269D01*
X110039Y26832D01*
X100450D01*
G01X106272Y23968D02*
X109351D01*
G01X106272D02*
Y22000D01*
G01D02*
X102728D01*
G01X129982Y30500D02*
Y35418D01*
X124100Y41300D01*
X100800D01*
X96600Y37100D01*
G01X135100Y23300D02*
Y35700D01*
X127900Y42900D01*
X110800D01*
X106600Y47100D01*
G01X102400Y51300D02*
X106900D01*
X182407Y51300D01*
X196408Y37300D01*
Y24808D01*
X191408Y19808D01*
X185568D01*
G01X114655Y-22000D02*
Y-23591D01*
X124264Y-33200D01*
X127055D01*
G01X120989Y-21700D02*
X118268D01*
X117968Y-22000D01*
G01X118149Y-17500D02*
X121071D01*
G01X117000Y-5711D02*
Y-7982D01*
X117339D01*
Y-9711D01*
G01D02*
Y-14010D01*
X116339Y-15010D01*
X112968D01*
G01X121000Y-9711D02*
X117339D01*
G01X116090Y951D02*
Y-1971D01*
X117000D01*
G01X121935Y12062D02*
Y12471D01*
X118300D01*
G01X114650Y25100D02*
X117112Y27562D01*
X130570D01*
X132232Y25900D01*
G01X118500Y24188D02*
Y24200D01*
X120462Y26162D01*
X128238D01*
X129982Y24418D01*
Y24368D01*
X131299Y23050D01*
X131350D01*
X142400Y12000D01*
X162185D01*
X172000Y21815D01*
Y25998D01*
G01X118810Y23800D02*
X118500Y24110D01*
Y24188D01*
G01X122071Y16211D02*
X118300D01*
G01X108000Y29900D02*
X117000D01*
X121200Y34100D01*
X126400D01*
G01X178592Y11100D02*
Y41100D01*
X172592Y47100D01*
X116600D01*
G01X124729Y-21700D02*
X137996D01*
G01X124900Y-9711D02*
X130230D01*
X140819Y-20300D01*
G01X120971Y-13600D02*
X121071D01*
Y-17500D01*
G01X124811D02*
X132800D01*
G01X127732Y-13600D02*
X124711D01*
G01X121000Y-1849D02*
Y-5971D01*
G01X148100Y-1700D02*
X126900D01*
X124900Y-3700D01*
Y-5971D01*
G01X126500Y7338D02*
X129600Y10438D01*
Y14682D01*
X128182Y16100D01*
X125811D01*
G01X132232Y7338D02*
X126500D01*
G01X126500Y7338D02*
X126265D01*
G01X121935D02*
Y3701D01*
G01X126265Y12062D02*
Y12265D01*
X126600Y12600D01*
G01X122511Y20000D02*
X125532D01*
G01X122590Y23800D02*
X125512D01*
G01X122071Y16100D02*
Y16211D01*
G01D02*
X122300Y16440D01*
Y19789D01*
X122511Y20000D01*
G01X161571Y-20300D02*
X140819D01*
G01X168100Y-11800D02*
X163500Y-7200D01*
X144500D01*
X143500Y-8200D01*
Y-14990D01*
X146500Y-17990D01*
X165311D01*
Y-20300D01*
G01X182300Y6100D02*
X145000D01*
G01X175300Y-7729D02*
Y-10651D01*
G01X168100Y-1700D02*
X175300D01*
Y-3989D01*
G01X183200Y-33000D02*
Y-23000D01*
G01X193900Y-13600D02*
X191556Y-15944D01*
X190256D01*
X183200Y-23000D01*
G01X193900Y-13600D02*
X196244Y-11256D01*
Y-10544D01*
G54D31*
X-4812Y21200D03*
X6212D03*
G54D22*
X-22446Y-24240D03*
Y-20500D03*
X-15754Y-24240D03*
Y-16760D03*
G54D13*
X-121315Y-33353D03*
X-115803D03*
X-121315Y22553D03*
X-115803D03*
X-110291Y-33353D03*
X-104780D03*
X-110291Y-27054D03*
X-104780D03*
X-110291Y16254D03*
X-104780D03*
X-110291Y22553D03*
X-104780D03*
X-99268Y-33353D03*
X-93756D03*
X-99268Y-27054D03*
X-93756D03*
X-99268Y16254D03*
X-93756D03*
X-99268Y22553D03*
X-93756D03*
X-88244Y-33353D03*
X-82732D03*
X-88244Y-27054D03*
X-82732D03*
X-88244Y16254D03*
X-82732D03*
X-88244Y22553D03*
X-82732D03*
X-77220Y-33353D03*
X-71709D03*
X-66197D03*
X-77220Y-27054D03*
X-71709D03*
X-77220Y16254D03*
X-71709D03*
X-77220Y22553D03*
X-71709D03*
X-66197D03*
X-60685Y-33353D03*
Y22553D03*
G54D41*
G01X59600Y5829D02*
X59482Y5711D01*
X55800D01*
G54D32*
X21000Y-11811D03*
Y11811D03*
G54D23*
X-22446Y-16760D03*
G54D14*
X-116394Y-21542D03*
X-122890D03*
X-116394Y-27054D03*
X-122890D03*
X-116394Y-10518D03*
X-122890D03*
X-116394Y-16030D03*
X-122890D03*
X-116394Y505D03*
X-122890D03*
X-116394Y-5006D03*
X-122890D03*
X-116394Y11529D03*
X-122890D03*
X-116394Y6017D03*
X-122890D03*
X-116394Y17041D03*
X-122890D03*
X-65606Y-21542D03*
Y-27054D03*
Y-10518D03*
Y-16030D03*
Y505D03*
Y-5006D03*
Y11529D03*
Y6017D03*
Y17041D03*
X-59110Y-21542D03*
Y-27054D03*
Y-10518D03*
Y-16030D03*
Y505D03*
Y-5006D03*
Y11529D03*
Y6017D03*
Y17041D03*
G54D33*
X70900Y-45800D03*
X182300Y36100D03*
G54D24*
X-22285Y1393D03*
X-24254D03*
Y13007D03*
X-22285D03*
X-18346Y1393D03*
X-20315D03*
Y13007D03*
X-18346D03*
X84142Y-17313D03*
Y6113D03*
X95953Y-17313D03*
X93984D03*
X92016D03*
X90047D03*
X88079D03*
X86110D03*
Y6113D03*
X88079D03*
X90047D03*
X92016D03*
X93984D03*
X95953D03*
X101858Y-17313D03*
X99890D03*
X97921D03*
Y6113D03*
X99890D03*
X101858D03*
G54D15*
X-106354Y-17211D03*
Y-5400D03*
Y6411D03*
X-96118Y-17211D03*
Y-5400D03*
Y6411D03*
X-85882Y-17211D03*
Y-5400D03*
X-75646D03*
X-85882Y6411D03*
X-75646D03*
G54D25*
X-21400Y7200D03*
G54D16*
X-93389Y30000D03*
X-93289Y33900D03*
X-81411Y36200D03*
X-85889Y30000D03*
X-67289Y32600D03*
X-72211Y41100D03*
X-59911Y36300D03*
X-31989Y17300D03*
X-20189Y-13100D03*
X-21989Y-7200D03*
X-22289Y25800D03*
X-21589Y22000D03*
X-25211Y18200D03*
X-13389Y-38200D03*
X-15811Y-3400D03*
Y-7200D03*
X-12989Y18400D03*
X-989Y27600D03*
X45511Y25700D03*
Y21800D03*
Y29600D03*
X120989Y-21700D03*
X124811Y-17500D03*
X124711Y-13600D03*
X122511Y20000D03*
X125811Y16100D03*
X165311Y-20300D03*
G54D34*
X70900Y-35800D03*
X80900Y-45800D03*
Y-35800D03*
X90900Y-45800D03*
Y-35800D03*
X100900Y-45800D03*
Y-35800D03*
X110900Y-45800D03*
Y-35800D03*
X182300Y-3900D03*
Y6100D03*
Y16100D03*
Y26100D03*
X192300Y-3900D03*
Y6100D03*
Y16100D03*
Y26100D03*
Y36100D03*
G54D17*
X-97129Y30000D03*
X-97029Y33900D03*
X-89629Y30000D03*
X-93210Y37800D03*
X-96990D03*
X-71029Y32600D03*
X-77671Y36200D03*
X-68471Y41100D03*
X-56171Y36300D03*
X-35729Y17300D03*
X-23929Y-13100D03*
X-25729Y-7200D03*
X-26029Y25800D03*
X-25329Y22000D03*
X-21471Y18200D03*
X-17129Y-38200D03*
X-15890Y-11100D03*
X-12110D03*
X-12071Y-3400D03*
Y-7200D03*
X-16729Y18400D03*
X-12810Y22300D03*
X-16590D03*
X-2710Y-23800D03*
X-6490D03*
X-4729Y27600D03*
X41771Y25700D03*
Y21800D03*
X49910D03*
Y25700D03*
X41771Y29600D03*
X49910Y29700D03*
X53690Y21800D03*
Y25700D03*
Y29700D03*
X118771Y20000D03*
X118810Y23800D03*
X124729Y-21700D03*
X121071Y-17500D03*
X120971Y-13600D03*
X122590Y23800D03*
X122071Y16100D03*
X161571Y-20300D03*
G54D35*
X85453Y22000D03*
X79547D03*
G54D26*
X-27107Y4247D03*
Y6216D03*
Y8184D03*
Y10153D03*
X-15493D03*
Y8184D03*
Y6216D03*
Y4247D03*
X81287Y-14460D03*
Y-12492D03*
Y-10522D03*
Y-8554D03*
Y-6585D03*
Y-4615D03*
Y-2646D03*
Y-678D03*
Y1292D03*
Y3260D03*
X104713Y-10522D03*
Y-12492D03*
Y-14460D03*
Y1292D03*
Y-678D03*
Y-2646D03*
Y-4615D03*
Y-6585D03*
Y-8554D03*
Y3260D03*
G54D27*
X-25000Y45900D03*
X15000Y-26800D03*
X116600Y47100D03*
X148100Y-11800D03*
Y-1700D03*
X173200Y-23000D03*
G54D36*
X93000Y-5600D03*
G54D18*
X-75646Y-17211D03*
G54D19*
X-88500Y34089D03*
X-50200Y12489D03*
X-50900Y40711D03*
X-10400Y-23811D03*
X12500Y24289D03*
X59800Y-4489D03*
X59600Y2089D03*
X55800Y5711D03*
X94200Y20289D03*
X90300Y23811D03*
X98200D03*
X117000Y-5711D03*
X118300Y16211D03*
X121000Y-9711D03*
X124900D03*
X175300Y-3989D03*
G54D28*
X-10050Y-34159D03*
X-17350D03*
X-10050Y-29041D03*
Y-31600D03*
X-17350D03*
Y-29041D03*
G54D37*
X106272Y23968D03*
Y22000D03*
Y20032D03*
X102728D03*
Y22000D03*
Y23968D03*
G54D29*
X-15000Y45900D03*
X-5000D03*
X25000Y-26800D03*
X35000D03*
X46600Y37100D03*
Y47100D03*
X56600Y37100D03*
Y47100D03*
X66600Y37100D03*
Y47100D03*
X76600Y37100D03*
X86600D03*
X76600Y47100D03*
X86600D03*
X96600Y37100D03*
Y47100D03*
X106600Y37100D03*
Y47100D03*
X116600Y37100D03*
X168100Y-11800D03*
X158100D03*
X168100Y-1700D03*
X158100D03*
X173200Y-33000D03*
X183200D03*
Y-23000D03*
X193200Y-33000D03*
Y-23000D03*
G54D38*
X126265Y12062D03*
Y7338D03*
X121935D03*
Y12062D03*
G54D39*
X172000Y25998D03*
Y38202D03*
M02*
