G04 ================== begin FILE IDENTIFICATION RECORD ==================*
G04 Layout Name:  C:/Users/Liber/Desktop/SmartRing-V1.03/version3/MainBoard.brd*
G04 Film Name:    BOTTOM*
G04 File Format:  Gerber RS274X*
G04 File Origin:  Cadence Allegro 16.3-p003*
G04 Origin Date:  Thu Apr 03 23:25:12 2014*
G04 *
G04 Layer:  ETCH/BOTTOM*
G04 Layer:  PIN/BOTTOM*
G04 Layer:  VIA CLASS/BOTTOM*
G04 *
G04 Offset:    (0.000 0.000)*
G04 Mirror:    No*
G04 Mode:      Positive*
G04 Rotation:  0*
G04 FullContactRelief:  No*
G04 UndefLineWidth:     6.000*
G04 ================== end FILE IDENTIFICATION RECORD ====================*
%FSLAX35Y35*MOIN*%
%IR0*IPPOS*OFA0.00000B0.00000*MIA0B0*SFA1.00000B1.00000*%
%ADD15C,.11811*%
%AMMACRO18*
21,1,.11024,.072831,0.0,0.0,38.*%
%ADD18MACRO18*%
%AMMACRO17*
21,1,.049209,.011811,0.0,0.0,145.*%
%ADD17MACRO17*%
%AMMACRO14*
21,1,.07874,.098429,0.0,0.0,144.*%
%ADD14MACRO14*%
%ADD10C,.024*%
%ADD11C,.016*%
%AMMACRO16*
21,1,.11024,.072831,0.0,0.0,145.*%
%ADD16MACRO16*%
%ADD12C,.041339*%
%AMMACRO19*
21,1,.049209,.011811,0.0,0.0,38.*%
%ADD19MACRO19*%
%ADD13R,.041339X.041339*%
%ADD20C,.008*%
%ADD21C,.01*%
G75*
%LPD*%
G75*
G54D10*
X-36900Y-25671D03*
X-32500Y-19800D03*
X-37600Y-8000D03*
X-28400Y-14000D03*
X-27400Y-2200D03*
X-43700Y4600D03*
X-26900Y1500D03*
X-42600Y8000D03*
X-34700Y4600D03*
X-34600Y18300D03*
X-26500Y25900D03*
X-36529Y14171D03*
X-9600Y-33400D03*
X-19918Y-38182D03*
X-13500Y-11892D03*
X-8800Y4800D03*
X-8529Y13300D03*
X-17998Y30700D03*
X-19400Y18300D03*
X-21000Y35800D03*
X10300Y-33363D03*
X-4911Y-29411D03*
X9100Y-37000D03*
X-3400Y-25671D03*
X571D03*
X-1100Y-6600D03*
X8600Y-9600D03*
X11835Y13238D03*
X8700Y-500D03*
X-900Y-900D03*
X-821Y6900D03*
X-4500Y13500D03*
X15800Y-29800D03*
X20700Y-25600D03*
X31158Y-15214D03*
X14800Y-17300D03*
X30800Y-18210D03*
X18700Y-21100D03*
X27989Y4189D03*
X23711D03*
X23771Y-3371D03*
Y571D03*
X27511Y400D03*
X14413Y6713D03*
X27451Y12249D03*
X26000Y21900D03*
X18699Y23900D03*
X33054Y25100D03*
X30100Y29500D03*
X33311Y21200D03*
X39600Y-24000D03*
X41500Y-7200D03*
X41689Y6200D03*
G54D20*
G01X25027Y15677D02*
X22300Y13547D01*
X19169Y11100D01*
X-17900D01*
X-23100Y5900D01*
Y-2400D01*
X-28400Y-7700D01*
Y-14000D01*
G01X-9900Y-2100D02*
X-11173Y-827D01*
X-17527D01*
X-21900Y-5200D01*
Y-19400D01*
X-13100Y-28200D01*
Y-30665D01*
X-12998Y-31308D01*
X-13100Y-31448D01*
Y-59365D01*
X-12298Y-60167D01*
X-7502D01*
X-7033Y-59698D01*
Y-59433D01*
X-4900Y-57300D01*
G01Y-52300D02*
Y-49233D01*
X-5000Y-49133D01*
Y-33500D01*
X-18700Y-19800D01*
Y-7200D01*
X-15500Y-4000D01*
X-12400D01*
G01X25621Y-15693D02*
X22786Y-13708D01*
X20795Y-15700D01*
X17600D01*
X16200Y-14300D01*
X12806D01*
X7053Y-20053D01*
G01X31158Y-15214D02*
X30625D01*
X27879Y-12468D01*
G01X19100Y-17400D02*
X21845D01*
X23363Y-18918D01*
G01X27335Y-20400D02*
Y-19935D01*
X25900Y-18500D01*
X25686D01*
X24492Y-17306D01*
G01X22234Y-20531D02*
X25069Y-22516D01*
X26153Y-23600D01*
X26300D01*
X26700Y-24000D01*
X39600D01*
G01X18700Y-21100D02*
X21665D01*
X22234Y-20531D01*
G01X26750Y-14081D02*
X23916Y-12096D01*
Y-10616D01*
X22600Y-9300D01*
X22546D01*
X21200Y-7954D01*
G01X23815Y17228D02*
X26542Y19359D01*
X29941D01*
X31600Y17700D01*
Y14400D01*
X30523Y13323D01*
Y11672D01*
X28251Y9400D01*
X26000D01*
X18492Y1892D01*
G01X22500Y24100D02*
X22398D01*
X20180Y21882D01*
G01X22900Y21300D02*
X22361D01*
X21391Y20331D01*
G01X22603Y18780D02*
X23524Y19700D01*
X23563D01*
X24500Y20637D01*
Y20676D01*
X25724Y21900D01*
X26000D01*
G01X18699Y23900D02*
Y23702D01*
X18968Y23433D01*
G01X29100Y16100D02*
X28213D01*
X26239Y14126D01*
G54D11*
X-32789Y12611D03*
X-37371Y23071D03*
X-28062Y16900D03*
X-30400Y31400D03*
X-28000Y33573D03*
X-10000Y-5985D03*
X-12546Y-7954D03*
X-10400Y-9922D03*
X-12400Y-4000D03*
X-9900Y-2100D03*
X-14471Y20971D03*
X7053Y-20053D03*
X5084Y-22600D03*
X3116Y-20100D03*
X10990Y-20500D03*
X9021Y-22900D03*
X7300Y9200D03*
X16485Y-39880D03*
X19222Y-9922D03*
X19600Y-13600D03*
X19100Y-17400D03*
X27335Y-20400D03*
X21500Y-11892D03*
X14100Y-22300D03*
X21200Y-7954D03*
X20522Y-78D03*
X18492Y1892D03*
X22500Y24100D03*
X22900Y21300D03*
X29100Y16100D03*
X36100Y-17400D03*
G54D21*
G01X-19918Y-32773D02*
Y-38182D01*
G01X27451Y12575D02*
Y12249D01*
G54D12*
X-9900Y-52300D03*
X10100D03*
Y-57300D03*
X5100Y-52300D03*
Y-57300D03*
X100Y-52300D03*
Y-57300D03*
X-4900Y-52300D03*
Y-57300D03*
X-1500Y-43600D03*
X3500D03*
G54D13*
X-9900Y-57300D03*
X8500Y-43600D03*
G54D14*
X-19918Y-32773D03*
G54D15*
X-1283Y-3551D03*
G54D16*
X26432Y-30666D03*
X38854Y-12751D03*
G54D17*
X27879Y-12468D03*
X26750Y-14081D03*
X25621Y-15693D03*
X24492Y-17306D03*
X23363Y-18918D03*
X22234Y-20531D03*
G54D18*
X38380Y13614D03*
X22620Y33786D03*
G54D19*
X26239Y14126D03*
X27451Y12575D03*
X18968Y23433D03*
X20180Y21882D03*
X21391Y20331D03*
X22603Y18780D03*
X23815Y17228D03*
X25027Y15677D03*
M02*
