G04 ================== begin FILE IDENTIFICATION RECORD ==================*
G04 Layout Name:  C:/Users/Liber/Desktop/SmartRing-V1.03/version3/MainBoard.brd*
G04 Film Name:    PASTEMASK_BOTTOM*
G04 File Format:  Gerber RS274X*
G04 File Origin:  Cadence Allegro 16.3-p003*
G04 Origin Date:  Thu Apr 03 23:29:26 2014*
G04 *
G04 Layer:  VIA CLASS/PASTEMASK_BOTTOM*
G04 Layer:  PIN/PASTEMASK_BOTTOM*
G04 Layer:  PACKAGE GEOMETRY/PASTEMASK_BOTTOM*
G04 *
G04 Offset:    (0.000 0.000)*
G04 Mirror:    No*
G04 Mode:      Positive*
G04 Rotation:  0*
G04 FullContactRelief:  No*
G04 UndefLineWidth:     6.000*
G04 ================== end FILE IDENTIFICATION RECORD ====================*
%FSLAX35Y35*MOIN*%
%IR0*IPPOS*OFA0.00000B0.00000*MIA0B0*SFA1.00000B1.00000*%
%ADD12C,.11811*%
%AMMACRO15*
21,1,.11024,.072831,0.0,0.0,38.*%
%ADD15MACRO15*%
%AMMACRO14*
21,1,.049209,.011811,0.0,0.0,145.*%
%ADD14MACRO14*%
%AMMACRO11*
21,1,.07874,.098429,0.0,0.0,144.*%
%ADD11MACRO11*%
%ADD10C,.024*%
%AMMACRO13*
21,1,.11024,.072831,0.0,0.0,145.*%
%ADD13MACRO13*%
%AMMACRO16*
21,1,.049209,.011811,0.0,0.0,38.*%
%ADD16MACRO16*%
%LPD*%
G75*
G54D10*
X-36900Y-25671D03*
X-32500Y-19800D03*
X-37600Y-8000D03*
X-28400Y-14000D03*
X-27400Y-2200D03*
X-43700Y4600D03*
X-26900Y1500D03*
X-42600Y8000D03*
X-34700Y4600D03*
X-32789Y12611D03*
X-34600Y18300D03*
X-26500Y25900D03*
X-37371Y23071D03*
X-36529Y14171D03*
X-28062Y16900D03*
X-30400Y31400D03*
X-28000Y33573D03*
X-9600Y-33400D03*
X-19918Y-38182D03*
X-10000Y-5985D03*
X-12546Y-7954D03*
X-10400Y-9922D03*
X-13500Y-11892D03*
X-12400Y-4000D03*
X-9900Y-2100D03*
X-8800Y4800D03*
X-8529Y13300D03*
X-17998Y30700D03*
X-14471Y20971D03*
X-19400Y18300D03*
X-21000Y35800D03*
X10300Y-33363D03*
X-4911Y-29411D03*
X9100Y-37000D03*
X-3400Y-25671D03*
X571D03*
X7053Y-20053D03*
X5084Y-22600D03*
X3116Y-20100D03*
X-1100Y-6600D03*
X8600Y-9600D03*
X10990Y-20500D03*
X9021Y-22900D03*
X11835Y13238D03*
X8700Y-500D03*
X-900Y-900D03*
X-821Y6900D03*
X7300Y9200D03*
X-4500Y13500D03*
X15800Y-29800D03*
X20700Y-25600D03*
X16485Y-39880D03*
X19222Y-9922D03*
X19600Y-13600D03*
X31158Y-15214D03*
X19100Y-17400D03*
X27335Y-20400D03*
X14800Y-17300D03*
X30800Y-18210D03*
X18700Y-21100D03*
X21500Y-11892D03*
X14100Y-22300D03*
X21200Y-7954D03*
X27989Y4189D03*
X23711D03*
X23771Y-3371D03*
Y571D03*
X27511Y400D03*
X14413Y6713D03*
X27451Y12249D03*
X20522Y-78D03*
X18492Y1892D03*
X22500Y24100D03*
X22900Y21300D03*
X26000Y21900D03*
X18699Y23900D03*
X33054Y25100D03*
X30100Y29500D03*
X33311Y21200D03*
X29100Y16100D03*
X39600Y-24000D03*
X41500Y-7200D03*
X36100Y-17400D03*
X41689Y6200D03*
G54D11*
X-19918Y-32773D03*
G54D12*
X-1283Y-3551D03*
G54D13*
X26432Y-30666D03*
X38854Y-12751D03*
G54D14*
X27879Y-12468D03*
X26750Y-14081D03*
X25621Y-15693D03*
X24492Y-17306D03*
X23363Y-18918D03*
X22234Y-20531D03*
G54D15*
X38380Y13614D03*
X22620Y33786D03*
G54D16*
X26239Y14126D03*
X27451Y12575D03*
X18968Y23433D03*
X20180Y21882D03*
X21391Y20331D03*
X22603Y18780D03*
X23815Y17228D03*
X25027Y15677D03*
M02*
