G04 ================== begin FILE IDENTIFICATION RECORD ==================*
G04 Layout Name:  C:/Users/Liber/Desktop/SmartRing-V1.03/version3/MainBoard.brd*
G04 Film Name:    PASTEMASK_TOP*
G04 File Format:  Gerber RS274X*
G04 File Origin:  Cadence Allegro 16.3-p003*
G04 Origin Date:  Thu Apr 03 23:25:12 2014*
G04 *
G04 Layer:  VIA CLASS/PASTEMASK_TOP*
G04 Layer:  PIN/PASTEMASK_TOP*
G04 Layer:  PACKAGE GEOMETRY/PASTEMASK_TOP*
G04 *
G04 Offset:    (0.000 0.000)*
G04 Mirror:    No*
G04 Mode:      Positive*
G04 Rotation:  0*
G04 FullContactRelief:  No*
G04 UndefLineWidth:     6.000*
G04 ================== end FILE IDENTIFICATION RECORD ====================*
%FSLAX35Y35*MOIN*%
%IR0*IPPOS*OFA0.00000B0.00000*MIA0B0*SFA1.00000B1.00000*%
%ADD27C,.001*%
%ADD33R,.001X.001*%
%AMMACRO12*
4,1,4,.03289,.015181,
.03289,-.015169,
-.032902,-.015169,
-.032902,.015181,
.03289,.015181,
0.0*
%
%ADD12MACRO12*%
%AMMACRO29*
4,1,21,.01378,-.003937,
-.009843,-.003937,
-.010527,-.003877,
-.01119,-.0037,
-.011811,-.00341,
-.012374,-.003016,
-.012859,-.002531,
-.013253,-.001969,
-.013543,-.001347,
-.01372,-.000684,
-.01378,0.0,
-.01372,.000684,
-.013543,.001347,
-.013253,.001968,
-.012859,.002531,
-.012374,.003016,
-.011812,.00341,
-.01119,.0037,
-.010527,.003877,
-.009843,.003937,
.01378,.003937,
.01378,-.003937,
0.0*
%
%ADD29MACRO29*%
%AMMACRO23*
4,1,21,.003937,.01378,
.003937,-.009843,
.003877,-.010527,
.0037,-.01119,
.00341,-.011811,
.003016,-.012374,
.002531,-.012859,
.001969,-.013253,
.001347,-.013543,
.000684,-.01372,
0.0,-.01378,
-.000684,-.01372,
-.001347,-.013543,
-.001968,-.013253,
-.002531,-.012859,
-.003016,-.012374,
-.00341,-.011812,
-.0037,-.01119,
-.003877,-.010527,
-.003937,-.009843,
-.003937,.01378,
.003937,.01378,
0.0*
%
%ADD23MACRO23*%
%AMMACRO13*
4,1,21,.008858,.016728,
.008858,-.00787,
.008723,-.009408,
.008324,-.0109,
.007671,-.012299,
.006786,-.013564,
.005694,-.014656,
.004429,-.015541,
.00303,-.016194,
.001538,-.016593,
0.0,-.016728,
-.001538,-.016593,
-.00303,-.016194,
-.004429,-.015541,
-.005694,-.014656,
-.006786,-.013564,
-.007671,-.012299,
-.008324,-.0109,
-.008723,-.009408,
-.008858,-.00787,
-.008858,.016728,
.008858,.016728,
0.0*
%
%ADD13MACRO13*%
%ADD36R,.017319X.006299*%
%ADD35R,.025591X.009839*%
%ADD11C,.024*%
%ADD31R,.011811X.0315*%
%ADD19C,.016*%
%ADD32R,.0315X.011811*%
%ADD21R,.022441X.025201*%
%AMMACRO22*
4,1,4,-.018012,.021949,
.018012,.021949,
.018012,-.021949,
-.018012,-.021949,
-.018012,.021949,
0.0*
%
%ADD22MACRO22*%
%ADD15R,.025201X.022441*%
%ADD28R,.06102X.033461*%
%AMMACRO17*
4,1,4,.026539,-.040311,
-.026531,-.040311,
-.026531,.040319,
.026539,.040319,
.026539,-.040311,
0.0*
%
%ADD17MACRO17*%
%ADD20R,.024409X.025201*%
%ADD14R,.025201X.024409*%
%AMMACRO24*
4,1,21,-.003937,-.01378,
-.003937,.009843,
-.003877,.010527,
-.0037,.01119,
-.00341,.011811,
-.003016,.012374,
-.002531,.012859,
-.001969,.013253,
-.001347,.013543,
-.000684,.01372,
0.0,.01378,
.000684,.01372,
.001347,.013543,
.001968,.013253,
.002531,.012859,
.003016,.012374,
.00341,.011812,
.0037,.01119,
.003877,.010527,
.003937,.009843,
.003937,-.01378,
-.003937,-.01378,
0.0*
%
%ADD24MACRO24*%
%ADD30R,.049213X.09252*%
%AMMACRO25*
4,1,21,-.01378,.003937,
.009843,.003937,
.010527,.003877,
.01119,.0037,
.011811,.00341,
.012374,.003016,
.012859,.002531,
.013253,.001969,
.013543,.001347,
.01372,.000684,
.01378,0.0,
.01372,-.000684,
.013543,-.001347,
.013253,-.001968,
.012859,-.002531,
.012374,-.003016,
.011812,-.00341,
.01119,-.0037,
.010527,-.003877,
.009843,-.003937,
-.01378,-.003937,
-.01378,.003937,
0.0*
%
%ADD25MACRO25*%
%ADD18R,.033461X.01378*%
%ADD16R,.017323X.013386*%
%AMMACRO10*
4,1,21,-.008858,-.016728,
-.008858,.00787,
-.008723,.009408,
-.008324,.0109,
-.007671,.012299,
-.006786,.013564,
-.005694,.014656,
-.004429,.015541,
-.00303,.016194,
-.001538,.016593,
0.0,.016728,
.001538,.016593,
.00303,.016194,
.004429,.015541,
.005694,.014656,
.006786,.013564,
.007671,.012299,
.008324,.0109,
.008723,.009408,
.008858,.00787,
.008858,-.016728,
-.008858,-.016728,
0.0*
%
%ADD10MACRO10*%
%ADD34R,.023618X.035429*%
%ADD26R,.03937X.03937*%
G75*
%LPD*%
G75*
G36*
G01X-29211Y-18283D02*
Y-21318D01*
X-35790D01*
X-35790Y-18283D01*
X-29211Y-18283D01*
G37*
G36*
G01X-32047Y-1031D02*
X-37354D01*
Y7032D01*
X-32047D01*
Y-1031D01*
G37*
G36*
G01X-27501Y27094D02*
X-23898D01*
Y22705D01*
X-27501D01*
Y27094D01*
G37*
G36*
G01X-9190Y-14310D02*
X-6040D01*
Y-13410D01*
X-9190D01*
Y-14310D01*
G37*
G36*
G01Y-12340D02*
X-6040D01*
Y-11440D01*
X-9190D01*
Y-12340D01*
G37*
G36*
G01Y-10380D02*
X-6040D01*
Y-9470D01*
X-9190D01*
Y-10380D01*
G37*
G36*
G01Y-8410D02*
X-6040D01*
Y-7500D01*
X-9190D01*
Y-8410D01*
G37*
G36*
G01Y-6440D02*
X-6040D01*
Y-5530D01*
X-9190D01*
Y-6440D01*
G37*
G36*
G01Y-4470D02*
X-6040D01*
Y-3560D01*
X-9190D01*
Y-4470D01*
G37*
G36*
G01Y-2500D02*
X-6040D01*
Y-1590D01*
X-9190D01*
Y-2500D01*
G37*
G36*
G01Y-530D02*
X-6040D01*
Y380D01*
X-9190D01*
Y-530D01*
G37*
G36*
G01Y1440D02*
X-6040D01*
Y2340D01*
X-9190D01*
Y1440D01*
G37*
G36*
G01Y3410D02*
X-6040D01*
Y4310D01*
X-9190D01*
Y3410D01*
G37*
G36*
G01X10690Y-10250D02*
X11250Y-10810D01*
X12660D01*
Y-8490D01*
X11250D01*
X10690Y-9050D01*
Y-10250D01*
G37*
G36*
G01X7590D02*
X8150Y-10810D01*
X9350D01*
X9910Y-10250D01*
Y-9050D01*
X9350Y-8490D01*
X8150D01*
X7590Y-9050D01*
Y-10250D01*
G37*
G36*
G01X4490D02*
X5050Y-10810D01*
X6250D01*
X6810Y-10250D01*
Y-9050D01*
X6250Y-8490D01*
X5050D01*
X4490Y-9050D01*
Y-10250D01*
G37*
G36*
G01X1390D02*
X1950Y-10810D01*
X3150D01*
X3710Y-10250D01*
Y-9050D01*
X3150Y-8490D01*
X1950D01*
X1390Y-9050D01*
Y-10250D01*
G37*
G36*
G01X-1710D02*
X-1150Y-10810D01*
X50D01*
X610Y-10250D01*
Y-9050D01*
X50Y-8490D01*
X-1150D01*
X-1710Y-9050D01*
Y-10250D01*
G37*
G36*
G01X-4460Y-10810D02*
X-3050D01*
X-2490Y-10250D01*
Y-9050D01*
X-3050Y-8490D01*
X-4460D01*
Y-10810D01*
G37*
G36*
G01X10690Y-13560D02*
X12660D01*
Y-11590D01*
X11250D01*
X10690Y-12150D01*
Y-13560D01*
G37*
G36*
G01X7590D02*
X9910D01*
Y-12150D01*
X9350Y-11590D01*
X8150D01*
X7590Y-12150D01*
Y-13560D01*
G37*
G36*
G01X4490D02*
X6810D01*
Y-12150D01*
X6250Y-11590D01*
X5050D01*
X4490Y-12150D01*
Y-13560D01*
G37*
G36*
G01X1390D02*
X3710D01*
Y-12150D01*
X3150Y-11590D01*
X1950D01*
X1390Y-12150D01*
Y-13560D01*
G37*
G36*
G01X-1710D02*
X610D01*
Y-12150D01*
X50Y-11590D01*
X-1150D01*
X-1710Y-12150D01*
Y-13560D01*
G37*
G36*
G01X-4460D02*
X-2490D01*
Y-12150D01*
X-3050Y-11590D01*
X-4460D01*
Y-13560D01*
G37*
G36*
G01X10540Y-18290D02*
X11440D01*
Y-15140D01*
X10540D01*
Y-18290D01*
G37*
G36*
G01X8570D02*
X9470D01*
Y-15140D01*
X8570D01*
Y-18290D01*
G37*
G36*
G01X6600D02*
X7510D01*
Y-15140D01*
X6600D01*
Y-18290D01*
G37*
G36*
G01X4630D02*
X5540D01*
Y-15140D01*
X4630D01*
Y-18290D01*
G37*
G36*
G01X2660D02*
X3570D01*
Y-15140D01*
X2660D01*
Y-18290D01*
G37*
G36*
G01X690D02*
X1600D01*
Y-15140D01*
X690D01*
Y-18290D01*
G37*
G36*
G01X-1270D02*
X-370D01*
Y-15140D01*
X-1270D01*
Y-18290D01*
G37*
G36*
G01X-3240D02*
X-2340D01*
Y-15140D01*
X-3240D01*
Y-18290D01*
G37*
G36*
G01X-5210D02*
X-4310D01*
Y-15140D01*
X-5210D01*
Y-18290D01*
G37*
G36*
G01X10690Y2150D02*
X11250Y1590D01*
X12660D01*
Y3560D01*
X10690D01*
Y2150D01*
G37*
G36*
G01X7590D02*
X8150Y1590D01*
X9350D01*
X9910Y2150D01*
Y3560D01*
X7590D01*
Y2150D01*
G37*
G36*
G01X4490D02*
X5050Y1590D01*
X6250D01*
X6810Y2150D01*
Y3560D01*
X4490D01*
Y2150D01*
G37*
G36*
G01X1390D02*
X1950Y1590D01*
X3150D01*
X3710Y2150D01*
Y3560D01*
X1390D01*
Y2150D01*
G37*
G36*
G01X-1710D02*
X-1150Y1590D01*
X50D01*
X610Y2150D01*
Y3560D01*
X-1710D01*
Y2150D01*
G37*
G36*
G01X-4460Y1590D02*
X-3050D01*
X-2490Y2150D01*
Y3560D01*
X-4460D01*
Y1590D01*
G37*
G36*
G01X10690Y-950D02*
X11250Y-1510D01*
X12660D01*
Y810D01*
X11250D01*
X10690Y250D01*
Y-950D01*
G37*
G36*
G01X7590D02*
X8150Y-1510D01*
X9350D01*
X9910Y-950D01*
Y250D01*
X9350Y810D01*
X8150D01*
X7590Y250D01*
Y-950D01*
G37*
G36*
G01X4490D02*
X5050Y-1510D01*
X6250D01*
X6810Y-950D01*
Y250D01*
X6250Y810D01*
X5050D01*
X4490Y250D01*
Y-950D01*
G37*
G36*
G01X1390D02*
X1950Y-1510D01*
X3150D01*
X3710Y-950D01*
Y250D01*
X3150Y810D01*
X1950D01*
X1390Y250D01*
Y-950D01*
G37*
G36*
G01X-1710D02*
X-1150Y-1510D01*
X50D01*
X610Y-950D01*
Y250D01*
X50Y810D01*
X-1150D01*
X-1710Y250D01*
Y-950D01*
G37*
G36*
G01X-4460Y-1510D02*
X-3050D01*
X-2490Y-950D01*
Y250D01*
X-3050Y810D01*
X-4460D01*
Y-1510D01*
G37*
G36*
G01X10690Y-4050D02*
X11250Y-4610D01*
X12660D01*
Y-2290D01*
X11250D01*
X10690Y-2850D01*
Y-4050D01*
G37*
G36*
G01X7590D02*
X8150Y-4610D01*
X9350D01*
X9910Y-4050D01*
Y-2850D01*
X9350Y-2290D01*
X8150D01*
X7590Y-2850D01*
Y-4050D01*
G37*
G36*
G01X4490D02*
X5050Y-4610D01*
X6250D01*
X6810Y-4050D01*
Y-2850D01*
X6250Y-2290D01*
X5050D01*
X4490Y-2850D01*
Y-4050D01*
G37*
G36*
G01X1390D02*
X1950Y-4610D01*
X3150D01*
X3710Y-4050D01*
Y-2850D01*
X3150Y-2290D01*
X1950D01*
X1390Y-2850D01*
Y-4050D01*
G37*
G36*
G01X-1710D02*
X-1150Y-4610D01*
X50D01*
X610Y-4050D01*
Y-2850D01*
X50Y-2290D01*
X-1150D01*
X-1710Y-2850D01*
Y-4050D01*
G37*
G36*
G01X-4460Y-4610D02*
X-3050D01*
X-2490Y-4050D01*
Y-2850D01*
X-3050Y-2290D01*
X-4460D01*
Y-4610D01*
G37*
G36*
G01X10690Y-7150D02*
X11250Y-7710D01*
X12660D01*
Y-5390D01*
X11250D01*
X10690Y-5950D01*
Y-7150D01*
G37*
G36*
G01X7590D02*
X8150Y-7710D01*
X9350D01*
X9910Y-7150D01*
Y-5950D01*
X9350Y-5390D01*
X8150D01*
X7590Y-5950D01*
Y-7150D01*
G37*
G36*
G01X4490D02*
X5050Y-7710D01*
X6250D01*
X6810Y-7150D01*
Y-5950D01*
X6250Y-5390D01*
X5050D01*
X4490Y-5950D01*
Y-7150D01*
G37*
G36*
G01X1390D02*
X1950Y-7710D01*
X3150D01*
X3710Y-7150D01*
Y-5950D01*
X3150Y-5390D01*
X1950D01*
X1390Y-5950D01*
Y-7150D01*
G37*
G36*
G01X-1710D02*
X-1150Y-7710D01*
X50D01*
X610Y-7150D01*
Y-5950D01*
X50Y-5390D01*
X-1150D01*
X-1710Y-5950D01*
Y-7150D01*
G37*
G36*
G01X-4460Y-7710D02*
X-3050D01*
X-2490Y-7150D01*
Y-5950D01*
X-3050Y-5390D01*
X-4460D01*
Y-7710D01*
G37*
G36*
G01X-5210Y5140D02*
X-4310D01*
Y8290D01*
X-5210D01*
Y5140D01*
G37*
G36*
G01X-3240D02*
X-2340D01*
Y8290D01*
X-3240D01*
Y5140D01*
G37*
G36*
G01X-1270D02*
X-370D01*
Y8290D01*
X-1270D01*
Y5140D01*
G37*
G36*
G01X690D02*
X1600D01*
Y8290D01*
X690D01*
Y5140D01*
G37*
G36*
G01X2660D02*
X3570D01*
Y8290D01*
X2660D01*
Y5140D01*
G37*
G36*
G01X4630D02*
X5540D01*
Y8290D01*
X4630D01*
Y5140D01*
G37*
G36*
G01X6600D02*
X7510D01*
Y8290D01*
X6600D01*
Y5140D01*
G37*
G36*
G01X8570D02*
X9470D01*
Y8290D01*
X8570D01*
Y5140D01*
G37*
G36*
G01X10540D02*
X11440D01*
Y8290D01*
X10540D01*
Y5140D01*
G37*
G36*
G01X14240Y-8410D02*
X17390D01*
Y-7500D01*
X14240D01*
Y-8410D01*
G37*
G36*
G01Y-10380D02*
X17390D01*
Y-9470D01*
X14240D01*
Y-10380D01*
G37*
G36*
G01Y-12340D02*
X17390D01*
Y-11440D01*
X14240D01*
Y-12340D01*
G37*
G36*
G01Y-14310D02*
X17390D01*
Y-13410D01*
X14240D01*
Y-14310D01*
G37*
G36*
G01X12510Y-18290D02*
X13410D01*
Y-15140D01*
X12510D01*
Y-18290D01*
G37*
G36*
G01Y5140D02*
X13410D01*
Y8290D01*
X12510D01*
Y5140D01*
G37*
G36*
G01X14240Y3410D02*
X17390D01*
Y4310D01*
X14240D01*
Y3410D01*
G37*
G36*
G01Y1440D02*
X17390D01*
Y2340D01*
X14240D01*
Y1440D01*
G37*
G36*
G01Y-530D02*
X17390D01*
Y380D01*
X14240D01*
Y-530D01*
G37*
G36*
G01Y-2500D02*
X17390D01*
Y-1590D01*
X14240D01*
Y-2500D01*
G37*
G36*
G01Y-4470D02*
X17390D01*
Y-3560D01*
X14240D01*
Y-4470D01*
G37*
G36*
G01Y-6440D02*
X17390D01*
Y-5530D01*
X14240D01*
Y-6440D01*
G37*
G36*
G01X33640Y-19670D02*
X34620D01*
Y-17820D01*
X33640D01*
Y-19670D01*
G37*
G36*
G01X35610D02*
X36590D01*
Y-17820D01*
X35610D01*
Y-19670D01*
G37*
G36*
G01X37580D02*
X38560D01*
Y-17820D01*
X37580D01*
Y-19670D01*
G37*
G36*
G01Y-22580D02*
X38560D01*
Y-20730D01*
X37580D01*
Y-22580D01*
G37*
G36*
G01X35610D02*
X36590D01*
Y-20730D01*
X35610D01*
Y-22580D01*
G37*
G36*
G01X33640D02*
X34620D01*
Y-20610D01*
X33640D01*
Y-22580D01*
G37*
G54D10*
X-28563Y-25509D03*
X-32500D03*
X-36437D03*
G54D20*
X-32789Y14200D03*
X-28611D03*
X-41111Y22200D03*
X-9789Y-37400D03*
Y-33400D03*
X-17989Y-29500D03*
Y-33400D03*
X-9789Y-29400D03*
X-17989Y-21800D03*
X-16189Y-13900D03*
X-17989Y-25600D03*
X-19911Y-6500D03*
X-9789Y-25500D03*
X-19911Y9200D03*
Y13500D03*
X-22589Y35900D03*
X211Y-37600D03*
Y-33700D03*
X-4789Y13300D03*
X3511Y21700D03*
X27511Y-3400D03*
Y400D03*
X15711Y22300D03*
X30511Y21900D03*
X42211Y-10900D03*
X38211Y-14700D03*
X45211Y10400D03*
X41689Y6200D03*
X34111Y29500D03*
G54D11*
X-36900Y-25671D03*
X-32500Y-19800D03*
X-37600Y-8000D03*
X-28400Y-14000D03*
X-27400Y-2200D03*
X-43700Y4600D03*
X-26900Y1500D03*
X-42600Y8000D03*
X-34700Y4600D03*
X-34600Y18300D03*
X-26500Y25900D03*
X-36529Y14171D03*
X-9600Y-33400D03*
X-19918Y-38182D03*
X-13500Y-11892D03*
X-8800Y4800D03*
X-8529Y13300D03*
X-17998Y30700D03*
X-19400Y18300D03*
X-21000Y35800D03*
X10300Y-33363D03*
X-4911Y-29411D03*
X9100Y-37000D03*
X-3400Y-25671D03*
X571D03*
X-1100Y-6600D03*
X8600Y-9600D03*
X11835Y13238D03*
X8700Y-500D03*
X-900Y-900D03*
X-821Y6900D03*
X-4500Y13500D03*
X15800Y-29800D03*
X20700Y-25600D03*
X31158Y-15214D03*
X14800Y-17300D03*
X30800Y-18210D03*
X18700Y-21100D03*
X27989Y4189D03*
X23711D03*
X23771Y-3371D03*
Y571D03*
X27511Y400D03*
X14413Y6713D03*
X27451Y12249D03*
X26000Y21900D03*
X18699Y23900D03*
X33054Y25100D03*
X30100Y29500D03*
X33311Y21200D03*
X39600Y-24000D03*
X41500Y-7200D03*
X41689Y6200D03*
G54D30*
X-11639Y39400D03*
X8439D03*
G54D21*
X-36529Y14200D03*
X-37371Y22200D03*
X-37410Y18200D03*
X-41190D03*
X-26329Y35900D03*
X-13529Y-37400D03*
Y-33400D03*
X-21729Y-29500D03*
Y-33400D03*
X-13529Y-29400D03*
X-21729Y-21800D03*
X-19929Y-13900D03*
X-21729Y-25600D03*
X-16171Y-6500D03*
X-13529Y-25500D03*
X-16171Y9200D03*
Y13500D03*
X-8529Y13300D03*
X-24871Y14200D03*
X-3529Y-37600D03*
Y-33700D03*
X11971Y22300D03*
X-229Y21700D03*
X31910Y-25700D03*
X23771Y-3400D03*
Y400D03*
X30371Y29500D03*
X26771Y21900D03*
X35690Y-25700D03*
X38471Y-10900D03*
X34471Y-14700D03*
X41471Y10400D03*
X45429Y6200D03*
G54D12*
X-32500Y-19801D03*
G54D22*
X-25700Y24900D03*
G54D31*
X12363Y-36906D03*
Y-25094D03*
X20237Y-36906D03*
X18268D03*
X16300D03*
X14332D03*
Y-25094D03*
X16300D03*
X18268D03*
X20237D03*
G54D13*
X-36437Y-14091D03*
X-32500D03*
X-28563D03*
G54D14*
X-42100Y-18811D03*
X-14600Y24711D03*
X600Y-29411D03*
X-3400D03*
X23900Y4189D03*
X20000Y12889D03*
X28000Y4189D03*
X42300Y-14689D03*
G54D32*
X10394Y-32968D03*
Y-31000D03*
Y-29032D03*
X22206D03*
Y-31000D03*
Y-32968D03*
G54D23*
X-29637Y31002D03*
X-28062D03*
X-26487D03*
X-24913D03*
X-23338D03*
X-21763D03*
G54D24*
X-28062Y18798D03*
X-29637D03*
X-21763D03*
X-23338D03*
X-24913D03*
X-26487D03*
G54D15*
X-42100Y-15071D03*
X-14600Y20971D03*
X600Y-25671D03*
X-3400D03*
X-4200Y21690D03*
Y17910D03*
X29700Y-18210D03*
Y-21990D03*
X23900Y7929D03*
X28000D03*
X20000Y16629D03*
X42300Y-18429D03*
G54D33*
X4100Y-5000D03*
G54D34*
X11835Y13238D03*
Y17962D03*
X16165Y13238D03*
Y17962D03*
G54D16*
X-42465Y-8000D03*
X-38135D03*
G54D25*
X-31802Y20963D03*
Y22538D03*
Y24113D03*
Y25687D03*
Y27262D03*
Y28837D03*
G54D26*
X-7500Y-43100D03*
X-13500Y-43000D03*
G54D17*
X-34701Y3000D03*
G54D35*
X6172Y17268D03*
Y15300D03*
Y13331D03*
X2628D03*
Y15300D03*
Y17268D03*
G54D18*
X-42377Y-1724D03*
Y1425D03*
Y4575D03*
Y7724D03*
X-27023D03*
Y4575D03*
Y1425D03*
Y-1724D03*
G54D36*
X30411Y25700D03*
X26789Y24991D03*
Y26409D03*
G54D27*
X-7613Y-13860D03*
Y-11892D03*
Y-9922D03*
Y-7954D03*
Y-5985D03*
Y-4015D03*
Y-2046D03*
Y-78D03*
Y1892D03*
Y3860D03*
X10990Y-16713D03*
X9021D03*
X7053D03*
X5084D03*
X3116D03*
X1147D03*
X-821D03*
X-2790D03*
X-4758D03*
Y6713D03*
X-2790D03*
X-821D03*
X1147D03*
X3116D03*
X5084D03*
X7053D03*
X9021D03*
X10990D03*
X15813Y-7954D03*
Y-9922D03*
Y-11892D03*
Y-13860D03*
X12958Y-16713D03*
Y6713D03*
X15813Y3860D03*
Y1892D03*
Y-78D03*
Y-2046D03*
Y-4015D03*
Y-5985D03*
X34132Y-18743D03*
X36100D03*
X38068D03*
Y-21657D03*
X36100D03*
X34132Y-21598D03*
G54D28*
X-17600Y4253D03*
Y-1653D03*
G54D19*
X-32789Y12611D03*
X-37371Y23071D03*
X-28062Y16900D03*
X-30400Y31400D03*
X-28000Y33573D03*
X-10000Y-5985D03*
X-12546Y-7954D03*
X-10400Y-9922D03*
X-12400Y-4000D03*
X-9900Y-2100D03*
X-14471Y20971D03*
X7053Y-20053D03*
X5084Y-22600D03*
X3116Y-20100D03*
X10990Y-20500D03*
X9021Y-22900D03*
X7300Y9200D03*
X16485Y-39880D03*
X19222Y-9922D03*
X19600Y-13600D03*
X19100Y-17400D03*
X27335Y-20400D03*
X21500Y-11892D03*
X14100Y-22300D03*
X21200Y-7954D03*
X20522Y-78D03*
X18492Y1892D03*
X22500Y24100D03*
X22900Y21300D03*
X29100Y16100D03*
X36100Y-17400D03*
G54D29*
X-19598Y28837D03*
Y27262D03*
Y25687D03*
Y24113D03*
Y22538D03*
Y20963D03*
M02*
