G04 ================== begin FILE IDENTIFICATION RECORD ==================*
G04 Layout Name:  C:/Users/Liber/Desktop/SmartRing-V1.03/version3/MainBoard.brd*
G04 Film Name:    SIGNAL2*
G04 File Format:  Gerber RS274X*
G04 File Origin:  Cadence Allegro 16.3-p003*
G04 Origin Date:  Thu Apr 03 23:29:26 2014*
G04 *
G04 Layer:  ETCH/SIGNAL2*
G04 Layer:  PIN/SIGNAL2*
G04 Layer:  VIA CLASS/SIGNAL2*
G04 *
G04 Offset:    (0.000 0.000)*
G04 Mirror:    No*
G04 Mode:      Positive*
G04 Rotation:  0*
G04 FullContactRelief:  No*
G04 UndefLineWidth:     6.000*
G04 ================== end FILE IDENTIFICATION RECORD ====================*
%FSLAX35Y35*MOIN*%
%IR0*IPPOS*OFA0.00000B0.00000*MIA0B0*SFA1.00000B1.00000*%
%ADD10C,.024*%
%ADD11C,.016*%
%ADD12C,.04528*%
%ADD13R,.04528X.04528*%
%ADD14C,.008*%
G75*
%LPD*%
G75*
G54D10*
X-36900Y-25671D03*
X-32500Y-19800D03*
X-37600Y-8000D03*
X-28400Y-14000D03*
X-27400Y-2200D03*
X-43700Y4600D03*
X-26900Y1500D03*
X-42600Y8000D03*
X-34700Y4600D03*
X-34600Y18300D03*
X-26500Y25900D03*
X-36529Y14171D03*
X-9600Y-33400D03*
X-19918Y-38182D03*
X-13500Y-11892D03*
X-8800Y4800D03*
X-8529Y13300D03*
X-17998Y30700D03*
X-19400Y18300D03*
X-21000Y35800D03*
X10300Y-33363D03*
X-4911Y-29411D03*
X9100Y-37000D03*
X-3400Y-25671D03*
X571D03*
X-1100Y-6600D03*
X8600Y-9600D03*
X11835Y13238D03*
X8700Y-500D03*
X-900Y-900D03*
X-821Y6900D03*
X-4500Y13500D03*
X15800Y-29800D03*
X20700Y-25600D03*
X31158Y-15214D03*
X14800Y-17300D03*
X30800Y-18210D03*
X18700Y-21100D03*
X27989Y4189D03*
X23711D03*
X23771Y-3371D03*
Y571D03*
X27511Y400D03*
X14413Y6713D03*
X27451Y12249D03*
X26000Y21900D03*
X18699Y23900D03*
X33054Y25100D03*
X30100Y29500D03*
X33311Y21200D03*
X39600Y-24000D03*
X41500Y-7200D03*
X41689Y6200D03*
G54D11*
X-32789Y12611D03*
X-37371Y23071D03*
X-28062Y16900D03*
X-30400Y31400D03*
X-28000Y33573D03*
X-10000Y-5985D03*
X-12546Y-7954D03*
X-10400Y-9922D03*
X-12400Y-4000D03*
X-9900Y-2100D03*
X-14471Y20971D03*
X7053Y-20053D03*
X5084Y-22600D03*
X3116Y-20100D03*
X10990Y-20500D03*
X9021Y-22900D03*
X7300Y9200D03*
X16485Y-39880D03*
X19222Y-9922D03*
X19600Y-13600D03*
X19100Y-17400D03*
X27335Y-20400D03*
X21500Y-11892D03*
X14100Y-22300D03*
X21200Y-7954D03*
X20522Y-78D03*
X18492Y1892D03*
X22500Y24100D03*
X22900Y21300D03*
X29100Y16100D03*
X36100Y-17400D03*
G54D12*
X-9900Y-52300D03*
X10100D03*
Y-57300D03*
X5100Y-52300D03*
Y-57300D03*
X100Y-52300D03*
Y-57300D03*
X-4900Y-52300D03*
Y-57300D03*
X-1500Y-43600D03*
X3500D03*
G54D13*
X-9900Y-57300D03*
X8500Y-43600D03*
G54D14*
G01X-36900Y-25671D02*
Y-21200D01*
X-42400Y-15700D01*
Y-9600D01*
X-46900Y-5100D01*
Y9700D01*
X-43300Y13300D01*
X-43200D01*
X-35400Y21100D01*
Y30000D01*
X-31827Y33573D01*
X-28000D01*
G01X-43700Y4600D02*
X-42900Y3800D01*
X-42300D01*
X-18400Y-20100D01*
X3116D01*
G01X-34600Y18300D02*
Y17500D01*
X-23000Y5900D01*
Y0D01*
X-17015Y-5985D01*
X-10000D01*
G01X-27400Y-2200D02*
Y-4400D01*
X-15200Y-16600D01*
X3500D01*
X5084Y-18184D01*
Y-22600D01*
G01X10990Y-20500D02*
Y-29890D01*
X15212Y-34112D01*
Y-38608D01*
X16485Y-39880D01*
G01X9100Y-37000D02*
X7300Y-35200D01*
Y-24621D01*
X9021Y-22900D01*
G01X-4500Y13500D02*
X8800Y26800D01*
X27600D01*
X29800Y24600D01*
Y20300D01*
X22900Y13400D01*
Y9300D01*
X16100Y2500D01*
Y-5000D01*
X19054Y-7954D01*
X21200D01*
G01X29100Y16100D02*
X30373Y14827D01*
X31173D01*
X38300Y7700D01*
Y-17800D01*
X28500Y-27600D01*
X19400D01*
X14100Y-22300D01*
G01X22500Y24100D02*
X20600Y22200D01*
Y9000D01*
X14200Y2600D01*
Y-6900D01*
X17222Y-9922D01*
X19222D01*
G01X19100Y-17400D02*
X22300D01*
X23771Y-15929D01*
Y-3371D01*
G01X27335Y-20400D02*
Y-18600D01*
X27600Y-18335D01*
Y-18200D01*
X27873Y-17927D01*
Y-17527D01*
X28173Y-17227D01*
Y-3831D01*
X23771Y571D01*
M02*
