G04 ================== begin FILE IDENTIFICATION RECORD ==================*
G04 Layout Name:  C:/Users/Liber/Desktop/SmartRing-V1.03/version3/MainBoard.brd*
G04 Film Name:    SIGNAL1*
G04 File Format:  Gerber RS274X*
G04 File Origin:  Cadence Allegro 16.3-p003*
G04 Origin Date:  Thu Apr 03 23:25:12 2014*
G04 *
G04 Layer:  ETCH/SIGNAL1*
G04 Layer:  PIN/SIGNAL1*
G04 Layer:  VIA CLASS/SIGNAL1*
G04 *
G04 Offset:    (0.000 0.000)*
G04 Mirror:    No*
G04 Mode:      Positive*
G04 Rotation:  0*
G04 FullContactRelief:  No*
G04 UndefLineWidth:     6.000*
G04 ================== end FILE IDENTIFICATION RECORD ====================*
%FSLAX35Y35*MOIN*%
%IR0*IPPOS*OFA0.00000B0.00000*MIA0B0*SFA1.00000B1.00000*%
%ADD10C,.024*%
%ADD11C,.016*%
%ADD12C,.04528*%
%ADD13R,.04528X.04528*%
%ADD14C,.008*%
%ADD15C,.01*%
G75*
%LPD*%
G75*
G54D10*
X-36900Y-25671D03*
X-32500Y-19800D03*
X-37600Y-8000D03*
X-28400Y-14000D03*
X-27400Y-2200D03*
X-43700Y4600D03*
X-26900Y1500D03*
X-42600Y8000D03*
X-34700Y4600D03*
X-34600Y18300D03*
X-26500Y25900D03*
X-36529Y14171D03*
X-9600Y-33400D03*
X-19918Y-38182D03*
X-13500Y-11892D03*
X-8800Y4800D03*
X-8529Y13300D03*
X-17998Y30700D03*
X-19400Y18300D03*
X-21000Y35800D03*
X10300Y-33363D03*
X-4911Y-29411D03*
X9100Y-37000D03*
X-3400Y-25671D03*
X571D03*
X-1100Y-6600D03*
X8600Y-9600D03*
X11835Y13238D03*
X8700Y-500D03*
X-900Y-900D03*
X-821Y6900D03*
X-4500Y13500D03*
X15800Y-29800D03*
X20700Y-25600D03*
X31158Y-15214D03*
X14800Y-17300D03*
X30800Y-18210D03*
X18700Y-21100D03*
X27989Y4189D03*
X23711D03*
X23771Y-3371D03*
Y571D03*
X27511Y400D03*
X14413Y6713D03*
X27451Y12249D03*
X26000Y21900D03*
X18699Y23900D03*
X33054Y25100D03*
X30100Y29500D03*
X33311Y21200D03*
X39600Y-24000D03*
X41500Y-7200D03*
X41689Y6200D03*
G54D11*
X-32789Y12611D03*
X-37371Y23071D03*
X-28062Y16900D03*
X-30400Y31400D03*
X-28000Y33573D03*
X-10000Y-5985D03*
X-12546Y-7954D03*
X-10400Y-9922D03*
X-12400Y-4000D03*
X-9900Y-2100D03*
X-14471Y20971D03*
X7053Y-20053D03*
X5084Y-22600D03*
X3116Y-20100D03*
X10990Y-20500D03*
X9021Y-22900D03*
X7300Y9200D03*
X16485Y-39880D03*
X19222Y-9922D03*
X19600Y-13600D03*
X19100Y-17400D03*
X27335Y-20400D03*
X21500Y-11892D03*
X14100Y-22300D03*
X21200Y-7954D03*
X20522Y-78D03*
X18492Y1892D03*
X22500Y24100D03*
X22900Y21300D03*
X29100Y16100D03*
X36100Y-17400D03*
G54D12*
X-9900Y-52300D03*
X10100D03*
Y-57300D03*
X5100Y-52300D03*
Y-57300D03*
X100Y-52300D03*
Y-57300D03*
X-4900Y-52300D03*
Y-57300D03*
X-1500Y-43600D03*
X3500D03*
G54D13*
X-9900Y-57300D03*
X8500Y-43600D03*
G54D14*
G01X-28400Y-14000D02*
X-29956Y-12444D01*
Y-11944D01*
X-42500Y600D01*
X-44200D01*
X-46400Y2800D01*
Y11300D01*
X-34900Y22800D01*
Y26900D01*
X-30400Y31400D01*
G01X-42600Y8000D02*
X-24678Y-9922D01*
X-14359D01*
X-14329Y-9892D01*
X-12671D01*
X-12641Y-9922D01*
X-10400D01*
G01X-3400Y-25671D02*
X-36900D01*
G01X-28400Y-14000D02*
X-21100Y-21300D01*
X-3800D01*
X571Y-25671D01*
G01X-26900Y1500D02*
X-22000D01*
X-12546Y-7954D01*
G01X-21000Y35800D02*
Y23600D01*
X-16700Y19300D01*
X9800D01*
X23500Y33000D01*
X31100D01*
X41689Y22411D01*
Y6200D01*
G01X-19400Y18300D02*
Y16100D01*
X-16600Y13300D01*
X-8529D01*
G01X27989Y4189D02*
X38511D01*
X44200Y-1500D01*
Y-16100D01*
X13300Y-47000D01*
Y-58433D01*
X11369Y-60364D01*
X8164D01*
X5100Y-57300D01*
G01X19100Y-17400D02*
X24100Y-22400D01*
Y-26700D01*
X11100Y-39700D01*
X4136D01*
X3500Y-40336D01*
Y-43600D01*
G01X27335Y-20400D02*
Y-22200D01*
X27500Y-22365D01*
Y-26100D01*
X10000Y-43600D01*
X8500D01*
G01X14100Y-22300D02*
X6600Y-29800D01*
X-1500D01*
X-3400Y-27900D01*
Y-25671D01*
G01X19600Y-13600D02*
X17000D01*
X14600Y-11200D01*
Y2000D01*
X19100Y6500D01*
Y17500D01*
X22900Y21300D01*
G01X20522Y-78D02*
Y-4222D01*
X23500Y-7200D01*
X41500D01*
G01X21500Y-11892D02*
X30592D01*
X31914Y-13214D01*
X31987D01*
X33158Y-14385D01*
Y-14458D01*
X36100Y-17400D01*
G54D15*
G01X-19918Y-38182D02*
X1618D01*
X18700Y-21100D01*
M02*
