G04 ================== begin FILE IDENTIFICATION RECORD ==================*
G04 Layout Name:  C:/Users/Liber/Desktop/SmartRing-V1.03/version3/MainBoard.brd*
G04 Film Name:    SOLDERMASK_TOP*
G04 File Format:  Gerber RS274X*
G04 File Origin:  Cadence Allegro 16.3-p003*
G04 Origin Date:  Thu Apr 03 23:25:12 2014*
G04 *
G04 Layer:  PIN/SOLDERMASK_TOP*
G04 Layer:  PACKAGE GEOMETRY/SOLDERMASK_TOP*
G04 Layer:  BOARD GEOMETRY/SOLDERMASK_TOP*
G04 *
G04 Offset:    (0.000 0.000)*
G04 Mirror:    No*
G04 Mode:      Positive*
G04 Rotation:  0*
G04 FullContactRelief:  No*
G04 UndefLineWidth:     6.000*
G04 ================== end FILE IDENTIFICATION RECORD ====================*
%FSLAX35Y35*MOIN*%
%IR0*IPPOS*OFA0.00000B0.00000*MIA0B0*SFA1.00000B1.00000*%
%ADD32R,.03937X.019689*%
%AMMACRO11*
4,1,35,.037402,.027559,
.04528,.019689,
.04528,-.025591,
.045251,-.025932,
.045163,-.026263,
.045019,-.026574,
.044823,-.026854,
.044582,-.027097,
.044301,-.027294,
.043992,-.027439,
.043661,-.027528,
.04332,-.027559,
.043311,-.027559,
-.043311,-.027559,
-.043652,-.02753,
-.043983,-.027442,
-.044294,-.027298,
-.044575,-.027103,
-.044817,-.026861,
-.045014,-.026581,
-.04516,-.026271,
-.045249,-.025941,
-.04528,-.0256,
-.04528,-.025591,
-.04528,.025591,
-.045251,.025932,
-.045163,.026263,
-.045019,.026574,
-.044823,.026854,
-.044582,.027097,
-.044301,.027294,
-.043992,.027439,
-.043661,.027528,
-.04332,.027559,
-.043311,.027559,
.037402,.027559,
0.0*
%
%ADD11MACRO11*%
%ADD33R,.001X.001*%
%AMMACRO16*
4,1,32,.04528,-.04724,
.033461,-.059059,
-.041339,-.059059,
-.042023,-.058999,
-.042687,-.058821,
-.04331,-.058531,
-.043872,-.058137,
-.044358,-.057651,
-.044752,-.057088,
-.045042,-.056466,
-.04522,-.055802,
-.04528,-.055118,
-.04528,.055118,
-.04522,.055802,
-.045042,.056466,
-.044752,.057089,
-.044358,.057651,
-.043872,.058137,
-.043309,.058531,
-.042687,.058821,
-.042023,.058999,
-.041339,.059059,
.041339,.059059,
.042023,.058999,
.042687,.058821,
.04331,.058531,
.043872,.058137,
.044358,.057651,
.044752,.057088,
.045042,.056466,
.04522,.055802,
.04528,.055118,
.04528,-.04724,
0.0*
%
%ADD16MACRO16*%
%AMMACRO29*
4,1,21,.017717,-.007874,
-.009843,-.007874,
-.01121,-.007754,
-.012536,-.007399,
-.01378,-.006819,
-.014904,-.006032,
-.015875,-.005061,
-.016662,-.003937,
-.017242,-.002693,
-.017597,-.001367,
-.017717,0.0,
-.017597,.001367,
-.017242,.002693,
-.016662,.003937,
-.015875,.005061,
-.014904,.006032,
-.01378,.006819,
-.012536,.007399,
-.01121,.007754,
-.009843,.007874,
.017717,.007874,
.017717,-.007874,
0.0*
%
%ADD29MACRO29*%
%AMMACRO21*
4,1,21,.007874,.017717,
.007874,-.009843,
.007754,-.01121,
.007399,-.012536,
.006819,-.01378,
.006032,-.014904,
.005061,-.015875,
.003937,-.016662,
.002693,-.017242,
.001367,-.017597,
0.0,-.017717,
-.001367,-.017597,
-.002693,-.017242,
-.003937,-.016662,
-.005061,-.015875,
-.006032,-.014904,
-.006819,-.01378,
-.007399,-.012536,
-.007754,-.01121,
-.007874,-.009843,
-.007874,.017717,
.007874,.017717,
0.0*
%
%ADD21MACRO21*%
%ADD37R,.017319X.007091*%
%ADD30R,.057087X.100394*%
%AMMACRO10*
4,1,21,-.012799,-.020669,
-.012799,.00787,
-.012605,.010093,
-.012027,.012248,
-.011084,.014269,
-.009805,.016097,
-.008227,.017675,
-.0064,.018954,
-.004378,.019897,
-.002223,.020475,
0.0,.020669,
.002223,.020475,
.004378,.019897,
.006399,.018954,
.008227,.017675,
.009805,.016097,
.011084,.01427,
.012027,.012248,
.012605,.010093,
.012799,.00787,
.012799,-.020669,
-.012799,-.020669,
0.0*
%
%ADD10MACRO10*%
%ADD35R,.0315X.043311*%
%ADD27R,.033461X.01102*%
%ADD34R,.01102X.033461*%
%ADD19R,.030311X.033071*%
%ADD14R,.033071X.030311*%
%ADD39R,.011811X.02165*%
%AMMACRO20*
4,1,35,-.029528,.021654,
-.017717,.033465,
.023622,.033465,
.024647,.033376,
.025641,.033111,
.026573,.032677,
.027416,.032087,
.028144,.031361,
.028735,.030519,
.02917,.029587,
.029438,.028593,
.029528,.027569,
.029528,.027559,
.029528,-.027559,
.029439,-.028584,
.029174,-.029578,
.02874,-.03051,
.02815,-.031353,
.027424,-.032081,
.026582,-.032672,
.02565,-.033107,
.024656,-.033375,
.023632,-.033465,
.023622,-.033465,
-.023622,-.033465,
-.024647,-.033376,
-.025641,-.033111,
-.026573,-.032677,
-.027416,-.032087,
-.028144,-.031361,
-.028735,-.030519,
-.02917,-.029587,
-.029438,-.028593,
-.029528,-.027569,
-.029528,-.027559,
-.029528,.021654,
0.0*
%
%ADD20MACRO20*%
%ADD18R,.03228X.033071*%
%ADD13R,.033071X.03228*%
%ADD38R,.011811X.020469*%
%ADD24C,.04528*%
%ADD17R,.041339X.02165*%
%ADD15R,.025197X.02126*%
%ADD26R,.043307X.043307*%
%ADD25R,.04528X.04528*%
%AMMACRO22*
4,1,21,-.007874,-.017717,
-.007874,.009843,
-.007754,.01121,
-.007399,.012536,
-.006819,.01378,
-.006032,.014904,
-.005061,.015875,
-.003937,.016662,
-.002693,.017242,
-.001367,.017597,
0.0,.017717,
.001367,.017597,
.002693,.017242,
.003937,.016662,
.005061,.015875,
.006032,.014904,
.006819,.01378,
.007399,.012536,
.007754,.01121,
.007874,.009843,
.007874,-.017717,
-.007874,-.017717,
0.0*
%
%ADD22MACRO22*%
%AMMACRO23*
4,1,21,-.017717,.007874,
.009843,.007874,
.01121,.007754,
.012536,.007399,
.01378,.006819,
.014904,.006032,
.015875,.005061,
.016662,.003937,
.017242,.002693,
.017597,.001367,
.017717,0.0,
.017597,-.001367,
.017242,-.002693,
.016662,-.003937,
.015875,-.005061,
.014904,-.006032,
.01378,-.006819,
.012536,-.007399,
.01121,-.007754,
.009843,-.007874,
-.017717,-.007874,
-.017717,.007874,
0.0*
%
%ADD23MACRO23*%
%AMMACRO12*
4,1,21,.012799,.020669,
.012799,-.00787,
.012605,-.010093,
.012027,-.012248,
.011084,-.014269,
.009805,-.016097,
.008227,-.017675,
.0064,-.018954,
.004378,-.019897,
.002223,-.020475,
0.0,-.020669,
-.002223,-.020475,
-.004378,-.019897,
-.006399,-.018954,
-.008227,-.017675,
-.009805,-.016097,
-.011084,-.01427,
-.012027,-.012248,
-.012605,-.010093,
-.012799,-.00787,
-.012799,.020669,
.012799,.020669,
0.0*
%
%ADD12MACRO12*%
%ADD28R,.068902X.041339*%
%ADD36R,.033461X.019689*%
%ADD31R,.019689X.03937*%
G75*
%LPD*%
G75*
G36*
G01X-9560Y-14690D02*
X-5670D01*
Y-13040D01*
X-9560D01*
Y-14690D01*
G37*
G36*
G01Y-12720D02*
X-5670D01*
Y-11070D01*
X-9560D01*
Y-12720D01*
G37*
G36*
G01Y-10750D02*
X-5670D01*
Y-9100D01*
X-9560D01*
Y-10750D01*
G37*
G36*
G01Y-8780D02*
X-5670D01*
Y-7130D01*
X-9560D01*
Y-8780D01*
G37*
G36*
G01Y-6810D02*
X-5670D01*
Y-5160D01*
X-9560D01*
Y-6810D01*
G37*
G36*
G01Y-4840D02*
X-5670D01*
Y-3190D01*
X-9560D01*
Y-4840D01*
G37*
G36*
G01Y-2870D02*
X-5670D01*
Y-1220D01*
X-9560D01*
Y-2870D01*
G37*
G36*
G01Y-900D02*
X-5670D01*
Y750D01*
X-9560D01*
Y-900D01*
G37*
G36*
G01Y1070D02*
X-5670D01*
Y2720D01*
X-9560D01*
Y1070D01*
G37*
G36*
G01Y3040D02*
X-5670D01*
Y4690D01*
X-9560D01*
Y3040D01*
G37*
G36*
G01X-5010Y-8890D02*
Y-10410D01*
X13210D01*
Y-8890D01*
X-5010D01*
G37*
G36*
G01Y-14110D02*
Y-11990D01*
X13210D01*
Y-14110D01*
X-5010D01*
G37*
G36*
G01X11090D02*
Y4110D01*
X13210D01*
Y-14110D01*
X11090D01*
G37*
G36*
G01X7990D02*
Y4110D01*
X9510D01*
Y-14110D01*
X7990D01*
G37*
G36*
G01X4890D02*
Y4110D01*
X6410D01*
Y-14110D01*
X4890D01*
G37*
G36*
G01X1790D02*
Y4110D01*
X3310D01*
Y-14110D01*
X1790D01*
G37*
G36*
G01X-1310D02*
Y4110D01*
X210D01*
Y-14110D01*
X-1310D01*
G37*
G36*
G01X-5010D02*
Y4110D01*
X-2890D01*
Y-14110D01*
X-5010D01*
G37*
G36*
G01X10160Y-18660D02*
X11810D01*
Y-14770D01*
X10160D01*
Y-18660D01*
G37*
G36*
G01X8200D02*
X9850D01*
Y-14770D01*
X8200D01*
Y-18660D01*
G37*
G36*
G01X6230D02*
X7880D01*
Y-14770D01*
X6230D01*
Y-18660D01*
G37*
G36*
G01X4260D02*
X5910D01*
Y-14770D01*
X4260D01*
Y-18660D01*
G37*
G36*
G01X2290D02*
X3940D01*
Y-14770D01*
X2290D01*
Y-18660D01*
G37*
G36*
G01X320D02*
X1970D01*
Y-14770D01*
X320D01*
Y-18660D01*
G37*
G36*
G01X-1650D02*
X0D01*
Y-14770D01*
X-1650D01*
Y-18660D01*
G37*
G36*
G01X-3610D02*
X-1960D01*
Y-14770D01*
X-3610D01*
Y-18660D01*
G37*
G36*
G01X-5580D02*
X-3930D01*
Y-14770D01*
X-5580D01*
Y-18660D01*
G37*
G36*
G01X-5010Y1990D02*
Y4110D01*
X13210D01*
Y1990D01*
X-5010D01*
G37*
G36*
G01Y410D02*
Y-1110D01*
X13210D01*
Y410D01*
X-5010D01*
G37*
G36*
G01Y-2690D02*
Y-4210D01*
X13210D01*
Y-2690D01*
X-5010D01*
G37*
G36*
G01Y-5790D02*
Y-7310D01*
X13210D01*
Y-5790D01*
X-5010D01*
G37*
G36*
G01X-5580Y4770D02*
X-3930D01*
Y8660D01*
X-5580D01*
Y4770D01*
G37*
G36*
G01X-3610D02*
X-1960D01*
Y8660D01*
X-3610D01*
Y4770D01*
G37*
G36*
G01X-1650D02*
X0D01*
Y8660D01*
X-1650D01*
Y4770D01*
G37*
G36*
G01X320D02*
X1970D01*
Y8660D01*
X320D01*
Y4770D01*
G37*
G36*
G01X2290D02*
X3940D01*
Y8660D01*
X2290D01*
Y4770D01*
G37*
G36*
G01X4260D02*
X5910D01*
Y8660D01*
X4260D01*
Y4770D01*
G37*
G36*
G01X6230D02*
X7880D01*
Y8660D01*
X6230D01*
Y4770D01*
G37*
G36*
G01X8200D02*
X9850D01*
Y8660D01*
X8200D01*
Y4770D01*
G37*
G36*
G01X10160D02*
X11810D01*
Y8660D01*
X10160D01*
Y4770D01*
G37*
G36*
G01X13870Y-8780D02*
X17760D01*
Y-7130D01*
X13870D01*
Y-8780D01*
G37*
G36*
G01Y-10750D02*
X17760D01*
Y-9100D01*
X13870D01*
Y-10750D01*
G37*
G36*
G01Y-12720D02*
X17760D01*
Y-11070D01*
X13870D01*
Y-12720D01*
G37*
G36*
G01Y-14690D02*
X17760D01*
Y-13040D01*
X13870D01*
Y-14690D01*
G37*
G36*
G01X12130Y-18660D02*
X13780D01*
Y-14770D01*
X12130D01*
Y-18660D01*
G37*
G36*
G01Y4770D02*
X13780D01*
Y8660D01*
X12130D01*
Y4770D01*
G37*
G36*
G01X13870Y3040D02*
X17760D01*
Y4690D01*
X13870D01*
Y3040D01*
G37*
G36*
G01Y1070D02*
X17760D01*
Y2720D01*
X13870D01*
Y1070D01*
G37*
G36*
G01Y-900D02*
X17760D01*
Y750D01*
X13870D01*
Y-900D01*
G37*
G36*
G01Y-2870D02*
X17760D01*
Y-1220D01*
X13870D01*
Y-2870D01*
G37*
G36*
G01Y-4840D02*
X17760D01*
Y-3190D01*
X13870D01*
Y-4840D01*
G37*
G36*
G01Y-6810D02*
X17760D01*
Y-5160D01*
X13870D01*
Y-6810D01*
G37*
G36*
G01X33270Y-20040D02*
X35000D01*
Y-17440D01*
X33270D01*
Y-20040D01*
G37*
G36*
G01X35230D02*
X36970D01*
Y-17440D01*
X35230D01*
Y-20040D01*
G37*
G36*
G01X37200D02*
X38930D01*
Y-17440D01*
X37200D01*
Y-20040D01*
G37*
G36*
G01Y-22960D02*
X38930D01*
Y-20360D01*
X37200D01*
Y-22960D01*
G37*
G36*
G01X35230D02*
X36970D01*
Y-20360D01*
X35230D01*
Y-22960D01*
G37*
G36*
G01X33270D02*
X35000D01*
Y-20360D01*
X33270D01*
Y-22960D01*
G37*
G54D10*
X-28563Y-25509D03*
X-32500D03*
X-36437D03*
G54D20*
X-25700Y24900D03*
G54D11*
X-32500Y-19800D03*
G54D12*
X-36437Y-14091D03*
X-32500D03*
X-28563D03*
G54D30*
X-11639Y39400D03*
X8439D03*
G54D21*
X-29637Y31002D03*
X-28062D03*
X-26487D03*
X-24913D03*
X-23338D03*
X-21763D03*
G54D31*
X12363Y-36906D03*
Y-25094D03*
X20237Y-36906D03*
X18268D03*
X16300D03*
X14332D03*
Y-25094D03*
X16300D03*
X18268D03*
X20237D03*
G54D22*
X-28062Y18798D03*
X-29637D03*
X-21763D03*
X-23338D03*
X-24913D03*
X-26487D03*
G54D13*
X-42100Y-18811D03*
X-14600Y24711D03*
X600Y-29411D03*
X-3400D03*
X23900Y4189D03*
X20000Y12889D03*
X28000Y4189D03*
X42300Y-14689D03*
G54D23*
X-31802Y20963D03*
Y22538D03*
Y24113D03*
Y25687D03*
Y27262D03*
Y28837D03*
G54D14*
X-42100Y-15071D03*
X-14600Y20971D03*
X600Y-25671D03*
X-3400D03*
X-4200Y21690D03*
Y17910D03*
X29700Y-18210D03*
Y-21990D03*
X23900Y7929D03*
X28000D03*
X20000Y16629D03*
X42300Y-18429D03*
G54D32*
X10394Y-32968D03*
Y-31000D03*
Y-29032D03*
X22206D03*
Y-31000D03*
Y-32968D03*
G54D15*
X-42465Y-8000D03*
X-38135D03*
G54D24*
X-9900Y-52300D03*
X10100D03*
Y-57300D03*
X5100Y-52300D03*
Y-57300D03*
X100Y-52300D03*
Y-57300D03*
X-4900Y-52300D03*
Y-57300D03*
X-1500Y-43600D03*
X3500D03*
G54D33*
X4100Y-5000D03*
G54D25*
X-9900Y-57300D03*
X8500Y-43600D03*
G54D34*
X10990Y-16713D03*
X9021D03*
X7053D03*
X5084D03*
X3116D03*
X1147D03*
X-821D03*
X-2790D03*
X-4758D03*
Y6713D03*
X-2790D03*
X-821D03*
X1147D03*
X3116D03*
X5084D03*
X7053D03*
X9021D03*
X10990D03*
X12958Y-16713D03*
Y6713D03*
G54D16*
X-34700Y3000D03*
G54D26*
X-7500Y-43100D03*
X-13500Y-43000D03*
G54D17*
X-42377Y-1724D03*
Y1425D03*
Y4575D03*
Y7724D03*
X-27023D03*
Y4575D03*
Y1425D03*
Y-1724D03*
G54D35*
X11835Y13238D03*
Y17962D03*
X16165Y13238D03*
Y17962D03*
G54D36*
X6172Y17268D03*
Y15300D03*
Y13331D03*
X2628D03*
Y15300D03*
Y17268D03*
G54D18*
X-32789Y14200D03*
X-28611D03*
X-41111Y22200D03*
X-9789Y-37400D03*
Y-33400D03*
X-17989Y-29500D03*
Y-33400D03*
X-9789Y-29400D03*
X-17989Y-21800D03*
X-16189Y-13900D03*
X-17989Y-25600D03*
X-19911Y-6500D03*
X-9789Y-25500D03*
X-19911Y9200D03*
Y13500D03*
X-22589Y35900D03*
X211Y-37600D03*
Y-33700D03*
X-4789Y13300D03*
X3511Y21700D03*
X27511Y-3400D03*
Y400D03*
X15711Y22300D03*
X30511Y21900D03*
X42211Y-10900D03*
X38211Y-14700D03*
X45211Y10400D03*
X41689Y6200D03*
X34111Y29500D03*
G54D27*
X-7613Y-13860D03*
Y-11892D03*
Y-9922D03*
Y-7954D03*
Y-5985D03*
Y-4015D03*
Y-2046D03*
Y-78D03*
Y1892D03*
Y3860D03*
X15813Y-7954D03*
Y-9922D03*
Y-11892D03*
Y-13860D03*
Y3860D03*
Y1892D03*
Y-78D03*
Y-2046D03*
Y-4015D03*
Y-5985D03*
G54D28*
X-17600Y4253D03*
Y-1653D03*
G54D19*
X-36529Y14200D03*
X-37371Y22200D03*
X-37410Y18200D03*
X-41190D03*
X-26329Y35900D03*
X-13529Y-37400D03*
Y-33400D03*
X-21729Y-29500D03*
Y-33400D03*
X-13529Y-29400D03*
X-21729Y-21800D03*
X-19929Y-13900D03*
X-21729Y-25600D03*
X-16171Y-6500D03*
X-13529Y-25500D03*
X-16171Y9200D03*
Y13500D03*
X-8529Y13300D03*
X-24871Y14200D03*
X-3529Y-37600D03*
Y-33700D03*
X11971Y22300D03*
X-229Y21700D03*
X31910Y-25700D03*
X23771Y-3400D03*
Y400D03*
X30371Y29500D03*
X26771Y21900D03*
X35690Y-25700D03*
X38471Y-10900D03*
X34471Y-14700D03*
X41471Y10400D03*
X45429Y6200D03*
G54D37*
X30411Y25700D03*
X26789Y24991D03*
Y26409D03*
G54D38*
X34132Y-18743D03*
X36100D03*
X38068D03*
Y-21657D03*
X36100D03*
G54D29*
X-19598Y28837D03*
Y27262D03*
Y25687D03*
Y24113D03*
Y22538D03*
Y20963D03*
G54D39*
X34132Y-21598D03*
M02*
