G04 ================== begin FILE IDENTIFICATION RECORD ==================*
G04 Layout Name:  C:/Users/Liber/Desktop/SmartRing-V1.03/version3/MainBoard.brd*
G04 Film Name:    TOP*
G04 File Format:  Gerber RS274X*
G04 File Origin:  Cadence Allegro 16.3-p003*
G04 Origin Date:  Thu Apr 03 23:29:26 2014*
G04 *
G04 Layer:  ETCH/TOP*
G04 Layer:  PIN/TOP*
G04 Layer:  VIA CLASS/TOP*
G04 *
G04 Offset:    (0.000 0.000)*
G04 Mirror:    No*
G04 Mode:      Positive*
G04 Rotation:  0*
G04 FullContactRelief:  No*
G04 UndefLineWidth:     6.000*
G04 ================== end FILE IDENTIFICATION RECORD ====================*
%FSLAX35Y35*MOIN*%
%IR0*IPPOS*OFA0.00000B0.00000*MIA0B0*SFA1.00000B1.00000*%
%AMMACRO12*
4,1,35,.037402,.027559,
.04528,.019689,
.04528,-.025591,
.045251,-.025932,
.045163,-.026263,
.045019,-.026574,
.044823,-.026854,
.044582,-.027097,
.044301,-.027294,
.043992,-.027439,
.043661,-.027528,
.04332,-.027559,
.043311,-.027559,
-.043311,-.027559,
-.043652,-.02753,
-.043983,-.027442,
-.044294,-.027298,
-.044575,-.027103,
-.044817,-.026861,
-.045014,-.026581,
-.04516,-.026271,
-.045249,-.025941,
-.04528,-.0256,
-.04528,-.025591,
-.04528,.025591,
-.045251,.025932,
-.045163,.026263,
-.045019,.026574,
-.044823,.026854,
-.044582,.027097,
-.044301,.027294,
-.043992,.027439,
-.043661,.027528,
-.04332,.027559,
-.043311,.027559,
.037402,.027559,
0.0*
%
%ADD12MACRO12*%
%AMMACRO17*
4,1,32,.04528,-.04724,
.033461,-.059059,
-.041339,-.059059,
-.042023,-.058999,
-.042687,-.058821,
-.04331,-.058531,
-.043872,-.058137,
-.044358,-.057651,
-.044752,-.057088,
-.045042,-.056466,
-.04522,-.055802,
-.04528,-.055118,
-.04528,.055118,
-.04522,.055802,
-.045042,.056466,
-.044752,.057089,
-.044358,.057651,
-.043872,.058137,
-.043309,.058531,
-.042687,.058821,
-.042023,.058999,
-.041339,.059059,
.041339,.059059,
.042023,.058999,
.042687,.058821,
.04331,.058531,
.043872,.058137,
.044358,.057651,
.044752,.057088,
.045042,.056466,
.04522,.055802,
.04528,.055118,
.04528,-.04724,
0.0*
%
%ADD17MACRO17*%
%AMMACRO31*
4,1,21,.01378,-.003937,
-.009843,-.003937,
-.010527,-.003877,
-.01119,-.0037,
-.011811,-.00341,
-.012374,-.003016,
-.012859,-.002531,
-.013253,-.001969,
-.013543,-.001347,
-.01372,-.000684,
-.01378,0.0,
-.01372,.000684,
-.013543,.001347,
-.013253,.001968,
-.012859,.002531,
-.012374,.003016,
-.011812,.00341,
-.01119,.0037,
-.010527,.003877,
-.009843,.003937,
.01378,.003937,
.01378,-.003937,
0.0*
%
%ADD31MACRO31*%
%AMMACRO23*
4,1,21,.003937,.01378,
.003937,-.009843,
.003877,-.010527,
.0037,-.01119,
.00341,-.011811,
.003016,-.012374,
.002531,-.012859,
.001969,-.013253,
.001347,-.013543,
.000684,-.01372,
0.0,-.01378,
-.000684,-.01372,
-.001347,-.013543,
-.001968,-.013253,
-.002531,-.012859,
-.003016,-.012374,
-.00341,-.011812,
-.0037,-.01119,
-.003877,-.010527,
-.003937,-.009843,
-.003937,.01378,
.003937,.01378,
0.0*
%
%ADD23MACRO23*%
%AMMACRO13*
4,1,21,.008858,.016728,
.008858,-.00787,
.008723,-.009408,
.008324,-.0109,
.007671,-.012299,
.006786,-.013564,
.005694,-.014656,
.004429,-.015541,
.00303,-.016194,
.001538,-.016593,
0.0,-.016728,
-.001538,-.016593,
-.00303,-.016194,
-.004429,-.015541,
-.005694,-.014656,
-.006786,-.013564,
-.007671,-.012299,
-.008324,-.0109,
-.008723,-.009408,
-.008858,-.00787,
-.008858,.016728,
.008858,.016728,
0.0*
%
%ADD13MACRO13*%
%ADD35R,.177169X.177169*%
%ADD39R,.017319X.006299*%
%ADD38R,.025591X.009839*%
%ADD11C,.024*%
%ADD33R,.011811X.0315*%
%ADD29R,.033461X.01102*%
%ADD19C,.016*%
%ADD36R,.01102X.033461*%
%ADD34R,.0315X.011811*%
%ADD21R,.022441X.025201*%
%ADD15R,.025201X.022441*%
%ADD41R,.011811X.02165*%
%ADD30R,.06102X.033461*%
%AMMACRO22*
4,1,35,-.029528,.021654,
-.017717,.033465,
.023622,.033465,
.024647,.033376,
.025641,.033111,
.026573,.032677,
.027416,.032087,
.028144,.031361,
.028735,.030519,
.02917,.029587,
.029438,.028593,
.029528,.027569,
.029528,.027559,
.029528,-.027559,
.029439,-.028584,
.029174,-.029578,
.02874,-.03051,
.02815,-.031353,
.027424,-.032081,
.026582,-.032672,
.02565,-.033107,
.024656,-.033375,
.023632,-.033465,
.023622,-.033465,
-.023622,-.033465,
-.024647,-.033376,
-.025641,-.033111,
-.026573,-.032677,
-.027416,-.032087,
-.028144,-.031361,
-.028735,-.030519,
-.02917,-.029587,
-.029438,-.028593,
-.029528,-.027569,
-.029528,-.027559,
-.029528,.021654,
0.0*
%
%ADD22MACRO22*%
%ADD20R,.024409X.025201*%
%ADD14R,.025201X.024409*%
%ADD40R,.011811X.020469*%
%ADD26C,.041339*%
%AMMACRO24*
4,1,21,-.003937,-.01378,
-.003937,.009843,
-.003877,.010527,
-.0037,.01119,
-.00341,.011811,
-.003016,.012374,
-.002531,.012859,
-.001969,.013253,
-.001347,.013543,
-.000684,.01372,
0.0,.01378,
.000684,.01372,
.001347,.013543,
.001968,.013253,
.002531,.012859,
.003016,.012374,
.00341,.011812,
.0037,.01119,
.003877,.010527,
.003937,.009843,
.003937,-.01378,
-.003937,-.01378,
0.0*
%
%ADD24MACRO24*%
%ADD32R,.049213X.09252*%
%AMMACRO25*
4,1,21,-.01378,.003937,
.009843,.003937,
.010527,.003877,
.01119,.0037,
.011811,.00341,
.012374,.003016,
.012859,.002531,
.013253,.001969,
.013543,.001347,
.01372,.000684,
.01378,0.0,
.01372,-.000684,
.013543,-.001347,
.013253,-.001968,
.012859,-.002531,
.012374,-.003016,
.011812,-.00341,
.01119,-.0037,
.010527,-.003877,
.009843,-.003937,
-.01378,-.003937,
-.01378,.003937,
0.0*
%
%ADD25MACRO25*%
%ADD18R,.033461X.01378*%
%ADD16R,.017323X.013386*%
%AMMACRO10*
4,1,21,-.008858,-.016728,
-.008858,.00787,
-.008723,.009408,
-.008324,.0109,
-.007671,.012299,
-.006786,.013564,
-.005694,.014656,
-.004429,.015541,
-.00303,.016194,
-.001538,.016593,
0.0,.016728,
.001538,.016593,
.00303,.016194,
.004429,.015541,
.005694,.014656,
.006786,.013564,
.007671,.012299,
.008324,.0109,
.008723,.009408,
.008858,.00787,
.008858,-.016728,
-.008858,-.016728,
0.0*
%
%ADD10MACRO10*%
%ADD27R,.041339X.041339*%
%ADD37R,.023618X.035429*%
%ADD28R,.03937X.03937*%
%ADD42C,.008*%
%ADD43C,.01*%
%ADD44C,.012*%
G75*
%LPD*%
G75*
G54D10*
X-28563Y-25509D03*
X-32500D03*
X-36437D03*
G54D20*
X-32789Y14200D03*
X-28611D03*
X-41111Y22200D03*
X-9789Y-37400D03*
Y-33400D03*
X-17989Y-29500D03*
Y-33400D03*
X-9789Y-29400D03*
X-17989Y-21800D03*
X-16189Y-13900D03*
X-17989Y-25600D03*
X-19911Y-6500D03*
X-9789Y-25500D03*
X-19911Y9200D03*
Y13500D03*
X-22589Y35900D03*
X211Y-37600D03*
Y-33700D03*
X-4789Y13300D03*
X3511Y21700D03*
X27511Y-3400D03*
Y400D03*
X15711Y22300D03*
X30511Y21900D03*
X42211Y-10900D03*
X38211Y-14700D03*
X45211Y10400D03*
X41689Y6200D03*
X34111Y29500D03*
G54D11*
X-36900Y-25671D03*
X-32500Y-19800D03*
X-37600Y-8000D03*
X-28400Y-14000D03*
X-27400Y-2200D03*
X-43700Y4600D03*
X-26900Y1500D03*
X-42600Y8000D03*
X-34700Y4600D03*
X-34600Y18300D03*
X-26500Y25900D03*
X-36529Y14171D03*
X-9600Y-33400D03*
X-19918Y-38182D03*
X-13500Y-11892D03*
X-8800Y4800D03*
X-8529Y13300D03*
X-17998Y30700D03*
X-19400Y18300D03*
X-21000Y35800D03*
X10300Y-33363D03*
X-4911Y-29411D03*
X9100Y-37000D03*
X-3400Y-25671D03*
X571D03*
X-1100Y-6600D03*
X8600Y-9600D03*
X11835Y13238D03*
X8700Y-500D03*
X-900Y-900D03*
X-821Y6900D03*
X-4500Y13500D03*
X15800Y-29800D03*
X20700Y-25600D03*
X31158Y-15214D03*
X14800Y-17300D03*
X30800Y-18210D03*
X18700Y-21100D03*
X27989Y4189D03*
X23711D03*
X23771Y-3371D03*
Y571D03*
X27511Y400D03*
X14413Y6713D03*
X27451Y12249D03*
X26000Y21900D03*
X18699Y23900D03*
X33054Y25100D03*
X30100Y29500D03*
X33311Y21200D03*
X39600Y-24000D03*
X41500Y-7200D03*
X41689Y6200D03*
G54D30*
X-17600Y4253D03*
Y-1653D03*
G54D21*
X-36529Y14200D03*
X-37371Y22200D03*
X-37410Y18200D03*
X-41190D03*
X-26329Y35900D03*
X-13529Y-37400D03*
Y-33400D03*
X-21729Y-29500D03*
Y-33400D03*
X-13529Y-29400D03*
X-21729Y-21800D03*
X-19929Y-13900D03*
X-21729Y-25600D03*
X-16171Y-6500D03*
X-13529Y-25500D03*
X-16171Y9200D03*
Y13500D03*
X-8529Y13300D03*
X-24871Y14200D03*
X-3529Y-37600D03*
Y-33700D03*
X11971Y22300D03*
X-229Y21700D03*
X31910Y-25700D03*
X23771Y-3400D03*
Y400D03*
X30371Y29500D03*
X26771Y21900D03*
X35690Y-25700D03*
X38471Y-10900D03*
X34471Y-14700D03*
X41471Y10400D03*
X45429Y6200D03*
G54D12*
X-32500Y-19800D03*
G54D40*
X34132Y-18743D03*
X36100D03*
X38068D03*
Y-21657D03*
X36100D03*
G54D22*
X-25700Y24900D03*
G54D13*
X-36437Y-14091D03*
X-32500D03*
X-28563D03*
G54D31*
X-19598Y28837D03*
Y27262D03*
Y25687D03*
Y24113D03*
Y22538D03*
Y20963D03*
G54D32*
X-11639Y39400D03*
X8439D03*
G54D14*
X-42100Y-18811D03*
X-14600Y24711D03*
X600Y-29411D03*
X-3400D03*
X23900Y4189D03*
X20000Y12889D03*
X28000Y4189D03*
X42300Y-14689D03*
G54D41*
X34132Y-21598D03*
G54D23*
X-29637Y31002D03*
X-28062D03*
X-26487D03*
X-24913D03*
X-23338D03*
X-21763D03*
G54D42*
G01X-19911Y-6540D02*
X-22471Y-9100D01*
X-29800D01*
X-32500Y-11800D01*
Y-12200D01*
G01X-38135Y-8000D02*
X-37600D01*
G01X-42465D02*
Y-3502D01*
X-42377Y-3413D01*
Y-1724D01*
G01Y7724D02*
X-43900Y8000D01*
X-42600D01*
G01X-34700Y3000D02*
Y4600D01*
G01X-34600Y18300D02*
X-37310D01*
X-37410Y18200D01*
G01X-32789Y14200D02*
X-28611D01*
G01X-32789D02*
Y12611D01*
G01X-41111Y22200D02*
Y18279D01*
X-41190Y18200D01*
G01X-37371Y22200D02*
Y23071D01*
G01X-36529Y14200D02*
Y14171D01*
G01X-28062Y18798D02*
Y16900D01*
G01X-28000Y33573D02*
Y31773D01*
X-28062Y31711D01*
Y31002D01*
G01X-29637D02*
X-30002D01*
X-30400Y31400D01*
G01X-9789Y-33400D02*
X-9600D01*
G01X-7613Y-7954D02*
X-12546D01*
G01X-7613Y-9922D02*
X-10400D01*
G01X-17989Y-21800D02*
Y-18100D01*
X-19929Y-16160D01*
Y-13900D01*
G01X-16189D02*
X-10326D01*
X-10286Y-13860D01*
X-7613D01*
G01Y-5985D02*
X-10000D01*
G01X-7613Y1892D02*
X-11188D01*
X-13549Y4253D01*
X-17600D01*
G01X-16171Y9200D02*
Y5682D01*
X-17600Y4253D01*
G01X-12400Y-4000D02*
X-10286Y-4015D01*
X-7613D01*
G01Y-2046D02*
X-9900Y-2100D01*
G01X-19911Y9200D02*
Y13500D01*
G01X-17600Y-1653D02*
X-11861D01*
X-10286Y-78D01*
X-7613D01*
G01X-16171Y-6500D02*
Y-3082D01*
X-17600Y-1653D01*
G01X-4758Y6713D02*
X-6309D01*
X-13096Y13500D01*
X-16171D01*
G01X-26487Y18798D02*
Y19646D01*
X-26443Y19691D01*
Y22238D01*
X-26487Y22283D01*
Y24113D01*
X-25700Y24900D01*
G01X-17998Y30700D02*
Y29637D01*
X-18798Y28837D01*
X-19598D01*
G01X-23338Y31002D02*
Y27262D01*
X-25700Y24900D01*
G01D02*
Y25100D01*
X-26500Y25900D01*
G01X-14600Y24711D02*
Y27302D01*
X-17998Y30700D01*
G01X-23338Y18798D02*
Y22538D01*
X-25700Y24900D01*
G01X-19598Y20963D02*
X-19590Y20971D01*
X-14600D01*
G01D02*
X-14471D01*
G01X-24871Y14200D02*
Y18756D01*
X-24913Y18798D01*
G01X-26329Y35900D02*
Y31161D01*
X-26487Y31002D01*
G01X-19400Y18300D02*
X-21265D01*
X-21763Y18798D01*
G01X-22589Y35900D02*
X-23000Y35800D01*
X-21000D01*
G01X12363Y-25094D02*
Y-27670D01*
X14494Y-29800D01*
X15800D01*
G01X10394Y-31000D02*
X10694Y-31300D01*
X11729D01*
X11784Y-31356D01*
X14244D01*
G01X10394Y-32968D02*
X10300Y-33063D01*
Y-33363D01*
G01X-3440Y-29411D02*
X-4911D01*
G01X9100Y-37000D02*
X12268D01*
X12363Y-36906D01*
G01X10394Y-29032D02*
X10226Y-29200D01*
X7200D01*
X3671Y-25671D01*
X600D01*
G01X7053Y-16713D02*
Y-20053D01*
G01X5084Y-16713D02*
Y-22600D01*
G01X3116Y-16713D02*
Y-20100D01*
G01X-4758Y-16713D02*
Y-13858D01*
X4100Y-5000D01*
G01D02*
Y-5100D01*
X8600Y-9600D01*
G01X10990Y-16713D02*
Y-20500D01*
G01X9021Y-16713D02*
Y-22900D01*
G01X-3400Y-25671D02*
Y-19996D01*
X-2790Y-19386D01*
Y-16713D01*
G01X600Y-25671D02*
Y-20807D01*
X-821Y-19386D01*
Y-16713D01*
G01X600Y-25671D02*
X571D01*
G01X11835Y17962D02*
Y17372D01*
X9021Y14558D01*
Y6713D01*
G01X16165Y13238D02*
Y12647D01*
X14184Y10666D01*
X12270D01*
X10990Y9386D01*
Y6713D01*
G01X-900Y-900D02*
X0D01*
X4100Y-5000D01*
G01D02*
X4200D01*
X8700Y-500D01*
G01X4100Y-5000D02*
X500D01*
X-1100Y-6600D01*
G01X11835Y17962D02*
Y22164D01*
X11971Y22300D01*
G01X18699Y23900D02*
X16899Y25700D01*
X10300D01*
X6172Y21572D01*
Y17268D01*
G01X15800Y-29800D02*
X18268Y-32268D01*
Y-36906D01*
G01X22206Y-29032D02*
X21418Y-28244D01*
X17356D01*
X15800Y-29800D01*
G01X14332Y-36906D02*
X14244Y-36818D01*
Y-31356D01*
G01X20237Y-36906D02*
X18268D01*
G01X14244Y-31356D02*
X15800Y-29800D01*
G01X22206Y-31000D02*
Y-32968D01*
G01X16485Y-39880D02*
Y-38492D01*
X16450Y-38458D01*
Y-37056D01*
X16300Y-36906D01*
G01X15813Y-9922D02*
X19222D01*
G01X19600Y-13600D02*
X19200Y-14000D01*
X15953D01*
X15813Y-13860D01*
G01X29700Y-18210D02*
X30800D01*
G01X15813Y-11892D02*
X21500D01*
G01X14100Y-22300D02*
Y-24863D01*
X14332Y-25094D01*
G01X15813Y-7954D02*
X21200D01*
G01X23900Y7929D02*
X28000D01*
G01X15813Y3860D02*
X19693D01*
X23762Y7929D01*
X23900D01*
G01X28000Y4189D02*
X27989D01*
G01X23900D02*
X23711D01*
G01X15813Y-4015D02*
X21034D01*
X21649Y-3400D01*
X23771D01*
G01D02*
Y-3371D01*
G01Y400D02*
Y262D01*
X21463Y-2046D01*
X15813D01*
G01X23771Y400D02*
Y571D01*
G01X15813Y-78D02*
X20522D01*
G01X15813Y1892D02*
X18492D01*
G01X41689Y6200D02*
Y6160D01*
X29544Y-5985D01*
X15813D01*
G01X34111Y29460D02*
X32090Y27440D01*
X29686D01*
X28655Y26409D01*
X26789D01*
G01X26771Y21900D02*
X26789Y21918D01*
Y24991D01*
G01X26771Y21900D02*
X26000D01*
G01X16165Y13238D02*
X19651D01*
X20000Y12889D01*
G01X15711Y22300D02*
X15800D01*
X17400Y23900D01*
X18699D01*
G01X33054Y25100D02*
X31011D01*
X30411Y25700D01*
G01X30371Y29500D02*
X30100D01*
G01X30511Y21900D02*
X31211Y21200D01*
X32478D01*
X33311Y21200D01*
G01X41500Y-7200D02*
X42211Y-7911D01*
Y-10900D01*
G01X36100Y-17400D02*
Y-18743D01*
G01X34111Y29460D02*
X38200Y25371D01*
Y19671D01*
X45211Y12660D01*
Y10400D01*
G01X45429Y6200D02*
Y10182D01*
X45211Y10400D01*
G01X41689Y6200D02*
X41471Y6418D01*
Y10400D01*
G01X34111Y29500D02*
Y29460D01*
G54D24*
X-28062Y18798D03*
X-29637D03*
X-21763D03*
X-23338D03*
X-24913D03*
X-26487D03*
G54D15*
X-42100Y-15071D03*
X-14600Y20971D03*
X600Y-25671D03*
X-3400D03*
X-4200Y21690D03*
Y17910D03*
X29700Y-18210D03*
Y-21990D03*
X23900Y7929D03*
X28000D03*
X20000Y16629D03*
X42300Y-18429D03*
G54D33*
X12363Y-36906D03*
Y-25094D03*
X20237Y-36906D03*
X18268D03*
X16300D03*
X14332D03*
Y-25094D03*
X16300D03*
X18268D03*
X20237D03*
G54D43*
G01X-21729Y-29500D02*
X-29400D01*
X-32500Y-26400D01*
Y-25509D01*
G01D02*
X-34100Y-28800D01*
X-38500Y-28700D01*
X-42100Y-21132D01*
Y-18811D01*
G01X-32500Y-14091D02*
Y-12200D01*
G01Y-19800D02*
Y-14091D01*
G01Y-12200D02*
X-34550Y-10150D01*
X-40250D01*
X-42100Y-12000D01*
Y-15071D01*
G01X-27023Y7724D02*
X-23707D01*
X-22232Y9200D01*
X-19911D01*
G01X-27023Y7724D02*
Y4575D01*
G01X-34700Y3000D02*
X-33125Y4575D01*
X-27023D01*
G01X-17989Y-29500D02*
Y-33400D01*
G01Y-25600D02*
Y-29500D01*
G01X-9789Y-37400D02*
Y-39289D01*
X-13500Y-43000D01*
G01X-9789Y-29400D02*
Y-25500D01*
G01Y-33400D02*
Y-29400D01*
G01Y-37400D02*
Y-33400D01*
G01X-3529Y-37600D02*
Y-39129D01*
X-7500Y-43100D01*
G01X-13529Y-29400D02*
Y-25500D01*
G01Y-33400D02*
Y-29400D01*
G01Y-37400D02*
Y-33400D01*
G01X-21729D02*
X-20110Y-35020D01*
Y-35033D01*
X-19582Y-35560D01*
X-17591D01*
X-15751Y-37400D01*
X-13529D01*
G01X-21729Y-29500D02*
Y-33400D01*
G01Y-25600D02*
Y-29500D01*
G01X-17989Y-21800D02*
Y-25600D01*
G01X-19911Y-6540D02*
Y-11522D01*
X-19929Y-11540D01*
Y-13900D01*
G01X-7613Y-11892D02*
X-13500D01*
G01X-21729Y-21800D02*
Y-25600D01*
G01X-3440Y-29411D02*
X-7100Y-25751D01*
Y-23900D01*
X-8100Y-22900D01*
X-11067D01*
X-13529Y-25362D01*
Y-25500D01*
G01X-19911Y-6500D02*
Y-6540D01*
G01X-7613Y3860D02*
X-7860D01*
X-8800Y4800D01*
G01X-4200Y17910D02*
X-15540D01*
X-19911Y13540D01*
Y13500D01*
G01X211Y-33700D02*
Y-37600D01*
G01X-1500Y-43600D02*
Y-39311D01*
X211Y-37600D01*
G01X-3400Y-29411D02*
Y-37471D01*
X-3529Y-37600D01*
G01X-3400Y-29411D02*
X600D01*
G01X-3529Y-33700D02*
Y-37600D01*
G01X-3400Y-29411D02*
X-3440D01*
G01X-821Y6713D02*
X1147D01*
G01X-2790D02*
X-821D01*
G01D02*
Y6900D01*
G01X7053Y6713D02*
Y8953D01*
X7300Y9200D01*
G01X2628Y15300D02*
X-1452D01*
X-4062Y17910D01*
X-4200D01*
G01X6172Y15300D02*
Y17268D01*
G01X20237Y-25094D02*
X23694D01*
X25800Y-27200D01*
Y-30080D01*
X24880Y-31000D01*
X22206D01*
G01X31158Y-15214D02*
Y-12914D01*
X33172Y-10900D01*
X38471D01*
G01X12958Y-16713D02*
X14213D01*
X14800Y-17300D01*
G01X20237Y-25094D02*
Y-25137D01*
X20700Y-25600D01*
G01X29700Y-21990D02*
X30794D01*
X33169Y-19616D01*
X33260D01*
X34132Y-18743D01*
G01X31910Y-25700D02*
Y-24200D01*
X29700Y-21990D01*
G01X27511Y400D02*
Y-3400D01*
G01X12958Y6713D02*
X14413D01*
G01X16165Y17962D02*
X18667D01*
X20000Y16629D01*
G01X15711Y22300D02*
Y18417D01*
X16165Y17962D01*
G01X38471Y-10900D02*
Y-14440D01*
X38222Y-14689D01*
G01D02*
X38211Y-14700D01*
G01X42300Y-14689D02*
X38222D01*
G01X38068Y-18743D02*
Y-14843D01*
X38211Y-14700D01*
G01X38068Y-21657D02*
X41294D01*
X42300Y-20651D01*
Y-18429D01*
G01X42211Y-10900D02*
X43880Y-12568D01*
X43933D01*
X44460Y-13096D01*
Y-16282D01*
X43933Y-16810D01*
X43920D01*
X42300Y-18429D01*
G01X39600Y-24000D02*
Y-23189D01*
X38068Y-21657D01*
G01X34132Y-18743D02*
Y-15039D01*
X34471Y-14700D01*
G01X35690Y-25700D02*
Y-22067D01*
X36100Y-21657D01*
G54D16*
X-42465Y-8000D03*
X-38135D03*
G54D25*
X-31802Y20963D03*
Y22538D03*
Y24113D03*
Y25687D03*
Y27262D03*
Y28837D03*
G54D34*
X10394Y-32968D03*
Y-31000D03*
Y-29032D03*
X22206D03*
Y-31000D03*
Y-32968D03*
G54D44*
G01X-11639Y39400D02*
Y33574D01*
X-11700Y33513D01*
Y25000D01*
X-8390Y21690D01*
X-4200D01*
G01X5084Y6713D02*
Y10552D01*
X6172Y11640D01*
Y13331D01*
G01X3116Y6713D02*
Y11152D01*
X2628Y11640D01*
Y13331D01*
G01Y17268D02*
Y20817D01*
X3511Y21700D01*
G01X-229D02*
X-4190D01*
X-4200Y21690D01*
G54D26*
X-9900Y-52300D03*
X10100D03*
Y-57300D03*
X5100Y-52300D03*
Y-57300D03*
X100Y-52300D03*
Y-57300D03*
X-4900Y-52300D03*
Y-57300D03*
X-1500Y-43600D03*
X3500D03*
G54D35*
X4100Y-5000D03*
G54D17*
X-34700Y3000D03*
G54D27*
X-9900Y-57300D03*
X8500Y-43600D03*
G54D18*
X-42377Y-1724D03*
Y1425D03*
Y4575D03*
Y7724D03*
X-27023D03*
Y4575D03*
Y1425D03*
Y-1724D03*
G54D36*
X10990Y-16713D03*
X9021D03*
X7053D03*
X5084D03*
X3116D03*
X1147D03*
X-821D03*
X-2790D03*
X-4758D03*
Y6713D03*
X-2790D03*
X-821D03*
X1147D03*
X3116D03*
X5084D03*
X7053D03*
X9021D03*
X10990D03*
X12958Y-16713D03*
Y6713D03*
G54D28*
X-7500Y-43100D03*
X-13500Y-43000D03*
G54D37*
X11835Y13238D03*
Y17962D03*
X16165Y13238D03*
Y17962D03*
G54D19*
X-32789Y12611D03*
X-37371Y23071D03*
X-28062Y16900D03*
X-30400Y31400D03*
X-28000Y33573D03*
X-10000Y-5985D03*
X-12546Y-7954D03*
X-10400Y-9922D03*
X-12400Y-4000D03*
X-9900Y-2100D03*
X-14471Y20971D03*
X7053Y-20053D03*
X5084Y-22600D03*
X3116Y-20100D03*
X10990Y-20500D03*
X9021Y-22900D03*
X7300Y9200D03*
X16485Y-39880D03*
X19222Y-9922D03*
X19600Y-13600D03*
X19100Y-17400D03*
X27335Y-20400D03*
X21500Y-11892D03*
X14100Y-22300D03*
X21200Y-7954D03*
X20522Y-78D03*
X18492Y1892D03*
X22500Y24100D03*
X22900Y21300D03*
X29100Y16100D03*
X36100Y-17400D03*
G54D29*
X-7613Y-13860D03*
Y-11892D03*
Y-9922D03*
Y-7954D03*
Y-5985D03*
Y-4015D03*
Y-2046D03*
Y-78D03*
Y1892D03*
Y3860D03*
X15813Y-7954D03*
Y-9922D03*
Y-11892D03*
Y-13860D03*
Y3860D03*
Y1892D03*
Y-78D03*
Y-2046D03*
Y-4015D03*
Y-5985D03*
G54D38*
X6172Y17268D03*
Y15300D03*
Y13331D03*
X2628D03*
Y15300D03*
Y17268D03*
G54D39*
X30411Y25700D03*
X26789Y24991D03*
Y26409D03*
M02*
