G04 ================== begin FILE IDENTIFICATION RECORD ==================*
G04 Layout Name:  C:/Users/Liber/Desktop/SmartRing-V1.03/version2/MainBoard.brd*
G04 Film Name:    DRILL*
G04 File Format:  Gerber RS274X*
G04 File Origin:  Cadence Allegro 16.3-p003*
G04 Origin Date:  Thu Mar 27 00:00:23 2014*
G04 *
G04 Layer:  MANUFACTURING/NCLEGEND-1-6*
G04 Layer:  BOARD GEOMETRY/OUTLINE*
G04 *
G04 Offset:    (0.00 0.00)*
G04 Mirror:    No*
G04 Mode:      Positive*
G04 Rotation:  0*
G04 FullContactRelief:  No*
G04 UndefLineWidth:     6.00*
G04 ================== end FILE IDENTIFICATION RECORD ====================*
%FSLAX35Y35*MOIN*%
%IR0*IPPOS*OFA0.00000B0.00000*MIA0B0*SFA1.00000B1.00000*%
%AMMACRO11*
1,1,.006,.006,0.0*
20,1,.006,.006,0.0,.005909,-.001042,0.0*
1,1,.006,.005909,-.001042*
20,1,.006,.005909,-.001042,.005638,-.002052,0.0*
1,1,.006,.005638,-.002052*
20,1,.006,.005638,-.002052,.005196,-.003,0.0*
1,1,.006,.005196,-.003*
20,1,.006,.005196,-.003,.004596,-.003857,0.0*
1,1,.006,.004596,-.003857*
20,1,.006,.004596,-.003857,.003857,-.004596,0.0*
1,1,.006,.003857,-.004596*
20,1,.006,.003857,-.004596,.003,-.005196,0.0*
1,1,.006,.003,-.005196*
20,1,.006,.003,-.005196,.002052,-.005638,0.0*
1,1,.006,.002052,-.005638*
20,1,.006,.002052,-.005638,.001042,-.005909,0.0*
1,1,.006,.001042,-.005909*
20,1,.006,.001042,-.005909,0.0,-.006,0.0*
1,1,.006,0.0,-.006*
20,1,.006,0.0,-.006,-.001042,-.005909,0.0*
1,1,.006,-.001042,-.005909*
20,1,.006,-.001042,-.005909,-.002052,-.005638,0.0*
1,1,.006,-.002052,-.005638*
20,1,.006,-.002052,-.005638,-.003,-.005196,0.0*
1,1,.006,-.003,-.005196*
20,1,.006,-.003,-.005196,-.003857,-.004596,0.0*
1,1,.006,-.003857,-.004596*
20,1,.006,-.003857,-.004596,-.004596,-.003857,0.0*
1,1,.006,-.004596,-.003857*
20,1,.006,-.004596,-.003857,-.005196,-.003,0.0*
1,1,.006,-.005196,-.003*
20,1,.006,-.005196,-.003,-.005638,-.002052,0.0*
1,1,.006,-.005638,-.002052*
20,1,.006,-.005638,-.002052,-.005909,-.001042,0.0*
1,1,.006,-.005909,-.001042*
20,1,.006,-.005909,-.001042,-.006,0.0,0.0*
1,1,.006,-.006,0.0*
20,1,.006,-.006,0.0,-.005909,.001042,0.0*
1,1,.006,-.005909,.001042*
20,1,.006,-.005909,.001042,-.005638,.002052,0.0*
1,1,.006,-.005638,.002052*
20,1,.006,-.005638,.002052,-.005196,.003,0.0*
1,1,.006,-.005196,.003*
20,1,.006,-.005196,.003,-.004596,.003857,0.0*
1,1,.006,-.004596,.003857*
20,1,.006,-.004596,.003857,-.003857,.004596,0.0*
1,1,.006,-.003857,.004596*
20,1,.006,-.003857,.004596,-.003,.005196,0.0*
1,1,.006,-.003,.005196*
20,1,.006,-.003,.005196,-.002052,.005638,0.0*
1,1,.006,-.002052,.005638*
20,1,.006,-.002052,.005638,-.001042,.005909,0.0*
1,1,.006,-.001042,.005909*
20,1,.006,-.001042,.005909,0.0,.006,0.0*
1,1,.006,0.0,.006*
20,1,.006,0.0,.006,.001042,.005909,0.0*
1,1,.006,.001042,.005909*
20,1,.006,.001042,.005909,.002052,.005638,0.0*
1,1,.006,.002052,.005638*
20,1,.006,.002052,.005638,.003,.005196,0.0*
1,1,.006,.003,.005196*
20,1,.006,.003,.005196,.003857,.004596,0.0*
1,1,.006,.003857,.004596*
20,1,.006,.003857,.004596,.004596,.003857,0.0*
1,1,.006,.004596,.003857*
20,1,.006,.004596,.003857,.005196,.003,0.0*
1,1,.006,.005196,.003*
20,1,.006,.005196,.003,.005638,.002052,0.0*
1,1,.006,.005638,.002052*
20,1,.006,.005638,.002052,.005909,.001042,0.0*
1,1,.006,.005909,.001042*
20,1,.006,.005909,.001042,.006,0.0,0.0*
1,1,.006,.006,0.0*
1,1,.006,.003,0.0*
20,1,.006,.003,0.0,-.003,0.0,0.0*
1,1,.006,-.003,0.0*
1,1,.006,0.0,.003*
20,1,.006,0.0,.003,0.0,-.003,0.0*
1,1,.006,0.0,-.003*
%
%ADD11MACRO11*%
%AMMACRO10*
1,1,.006,.025,0.0*
20,1,.006,.025,0.0,.02462,-.004341,0.0*
1,1,.006,.02462,-.004341*
20,1,.006,.02462,-.004341,.023492,-.008551,0.0*
1,1,.006,.023492,-.008551*
20,1,.006,.023492,-.008551,.021651,-.0125,0.0*
1,1,.006,.021651,-.0125*
20,1,.006,.021651,-.0125,.019151,-.01607,0.0*
1,1,.006,.019151,-.01607*
20,1,.006,.019151,-.01607,.01607,-.019151,0.0*
1,1,.006,.01607,-.019151*
20,1,.006,.01607,-.019151,.0125,-.021651,0.0*
1,1,.006,.0125,-.021651*
20,1,.006,.0125,-.021651,.008551,-.023492,0.0*
1,1,.006,.008551,-.023492*
20,1,.006,.008551,-.023492,.004341,-.02462,0.0*
1,1,.006,.004341,-.02462*
20,1,.006,.004341,-.02462,0.0,-.025,0.0*
1,1,.006,0.0,-.025*
20,1,.006,0.0,-.025,-.004341,-.02462,0.0*
1,1,.006,-.004341,-.02462*
20,1,.006,-.004341,-.02462,-.008551,-.023492,0.0*
1,1,.006,-.008551,-.023492*
20,1,.006,-.008551,-.023492,-.0125,-.021651,0.0*
1,1,.006,-.0125,-.021651*
20,1,.006,-.0125,-.021651,-.01607,-.019151,0.0*
1,1,.006,-.01607,-.019151*
20,1,.006,-.01607,-.019151,-.019151,-.01607,0.0*
1,1,.006,-.019151,-.01607*
20,1,.006,-.019151,-.01607,-.021651,-.0125,0.0*
1,1,.006,-.021651,-.0125*
20,1,.006,-.021651,-.0125,-.023492,-.008551,0.0*
1,1,.006,-.023492,-.008551*
20,1,.006,-.023492,-.008551,-.02462,-.004341,0.0*
1,1,.006,-.02462,-.004341*
20,1,.006,-.02462,-.004341,-.025,0.0,0.0*
1,1,.006,-.025,0.0*
20,1,.006,-.025,0.0,-.02462,.004341,0.0*
1,1,.006,-.02462,.004341*
20,1,.006,-.02462,.004341,-.023492,.008551,0.0*
1,1,.006,-.023492,.008551*
20,1,.006,-.023492,.008551,-.021651,.0125,0.0*
1,1,.006,-.021651,.0125*
20,1,.006,-.021651,.0125,-.019151,.01607,0.0*
1,1,.006,-.019151,.01607*
20,1,.006,-.019151,.01607,-.01607,.019151,0.0*
1,1,.006,-.01607,.019151*
20,1,.006,-.01607,.019151,-.0125,.021651,0.0*
1,1,.006,-.0125,.021651*
20,1,.006,-.0125,.021651,-.008551,.023492,0.0*
1,1,.006,-.008551,.023492*
20,1,.006,-.008551,.023492,-.004341,.02462,0.0*
1,1,.006,-.004341,.02462*
20,1,.006,-.004341,.02462,0.0,.025,0.0*
1,1,.006,0.0,.025*
20,1,.006,0.0,.025,.004341,.02462,0.0*
1,1,.006,.004341,.02462*
20,1,.006,.004341,.02462,.008551,.023492,0.0*
1,1,.006,.008551,.023492*
20,1,.006,.008551,.023492,.0125,.021651,0.0*
1,1,.006,.0125,.021651*
20,1,.006,.0125,.021651,.01607,.019151,0.0*
1,1,.006,.01607,.019151*
20,1,.006,.01607,.019151,.019151,.01607,0.0*
1,1,.006,.019151,.01607*
20,1,.006,.019151,.01607,.021651,.0125,0.0*
1,1,.006,.021651,.0125*
20,1,.006,.021651,.0125,.023492,.008551,0.0*
1,1,.006,.023492,.008551*
20,1,.006,.023492,.008551,.02462,.004341,0.0*
1,1,.006,.02462,.004341*
20,1,.006,.02462,.004341,.025,0.0,0.0*
1,1,.006,.025,0.0*
1,1,.006,.0125,0.0*
20,1,.006,.0125,0.0,-.0125,0.0,0.0*
1,1,.006,-.0125,0.0*
1,1,.006,0.0,.0125*
20,1,.006,0.0,.0125,0.0,-.0125,0.0*
1,1,.006,0.0,-.0125*
%
%ADD10MACRO10*%
%ADD12C,.006*%
G75*
%LPD*%
G75*
G54D10*
X-184050Y-193250D03*
X-31100Y-43794D03*
X-20600Y-3000D03*
G54D11*
X-184050Y-165150D03*
X-54500Y12000D03*
X-43500Y5400D03*
X-21511Y-21089D03*
X-31600Y-1400D03*
X-36900Y-5500D03*
X-31000Y-13500D03*
X-25700Y-1100D03*
X-35900Y5700D03*
X-22800Y20400D03*
X-30800Y12600D03*
X-21300Y12800D03*
Y9000D03*
X-22300Y25900D03*
X-25100Y23200D03*
X-33807Y36793D03*
X-2400Y-29600D03*
X-8943Y-25143D03*
X-13600Y-37600D03*
X-7300Y-20600D03*
X-11600Y-14000D03*
X-15800Y-7702D03*
X-5585Y-10315D03*
X-10800Y-17700D03*
X900Y1100D03*
X-4600Y1400D03*
X-10800D03*
X-7200Y-16200D03*
X-3100D03*
X-6900Y21800D03*
X-1646Y20246D03*
X450Y8350D03*
X-10700Y8800D03*
X-4600Y8600D03*
X-14000Y20300D03*
X-8100Y35800D03*
X-14600Y31700D03*
X-6800Y39700D03*
X-7500Y26803D03*
X-17199Y26100D03*
X-6000Y46200D03*
X6300Y-44700D03*
X11100Y-45300D03*
X5729Y-25229D03*
X20200Y-24000D03*
X21800Y-37700D03*
X10100Y-33900D03*
X7800Y-17300D03*
X11853Y1947D03*
X7113Y-6113D03*
X2292Y-9900D03*
X7279Y9821D03*
X5700Y16613D03*
X23800Y-20600D03*
X31400Y-37700D03*
X25500Y-35900D03*
X41700Y-4700D03*
X36300Y-9300D03*
X28415Y900D03*
X31400Y7800D03*
X28800Y4500D03*
X44100Y7000D03*
X43700Y2300D03*
G54D12*
G01X-229000Y-263500D02*
Y-69900D01*
X254600D01*
Y-263500D01*
X-229000D01*
G01Y-235400D02*
X254600D01*
G01X-229000Y-207300D02*
X254600D01*
G01X-229000Y-179200D02*
X254600D01*
G01X-229000Y-151100D02*
X254600D01*
G01X-229000Y-123000D02*
X254600D01*
G01X-229000Y-94900D02*
X254600D01*
G01X-217995Y-141750D02*
Y-129250D01*
X-212105D01*
G01X-214275Y-135292D02*
X-217995D01*
G01X-204510Y-129250D02*
X-200790D01*
G01X-202650D02*
Y-141750D01*
G01X-204510D02*
X-200790D01*
G01X-189320Y-135500D02*
X-186220D01*
Y-139250D01*
X-187150Y-140500D01*
X-188235Y-141333D01*
X-189785Y-141750D01*
X-191335Y-141333D01*
X-192420Y-140500D01*
X-193350Y-139250D01*
X-193970Y-137792D01*
X-194280Y-136125D01*
Y-134667D01*
X-193970Y-133417D01*
X-193350Y-131958D01*
X-192420Y-130708D01*
X-191490Y-129875D01*
X-190250Y-129250D01*
X-189165D01*
X-187925Y-129667D01*
X-186995Y-130500D01*
G01X-181260Y-129250D02*
Y-138208D01*
X-180640Y-140084D01*
X-179400Y-141333D01*
X-177850Y-141750D01*
X-176300Y-141333D01*
X-175060Y-140084D01*
X-174440Y-138208D01*
Y-129250D01*
G01X-168550Y-141750D02*
Y-129250D01*
X-164675D01*
X-163435Y-129875D01*
X-162660Y-130708D01*
X-162350Y-132375D01*
X-162660Y-134042D01*
X-163590Y-135083D01*
X-164675Y-135708D01*
X-168550D01*
G01X-164675D02*
X-162350Y-141750D01*
G01X-149950D02*
X-156150D01*
Y-129250D01*
X-149950D01*
G01X-152430Y-135292D02*
X-156150D01*
G01X-145610Y-88650D02*
Y-76150D01*
X-142510D01*
X-141270Y-76775D01*
X-140340Y-77608D01*
X-139565Y-78858D01*
X-138945Y-80317D01*
X-138790Y-82400D01*
X-138945Y-84483D01*
X-139565Y-85942D01*
X-140340Y-87192D01*
X-141270Y-88025D01*
X-142510Y-88650D01*
X-145610D01*
G01X-132900D02*
Y-76150D01*
X-129025D01*
X-127785Y-76775D01*
X-127010Y-77608D01*
X-126700Y-79275D01*
X-127010Y-80942D01*
X-127940Y-81983D01*
X-129025Y-82608D01*
X-132900D01*
G01X-129025D02*
X-126700Y-88650D01*
G01X-119260Y-76150D02*
X-115540D01*
G01X-117400D02*
Y-88650D01*
G01X-119260D02*
X-115540D01*
G01X-108100Y-76150D02*
Y-88650D01*
X-101900D01*
G01X-95700Y-76150D02*
Y-88650D01*
X-89500D01*
G01X-64390Y-77192D02*
X-65320Y-76567D01*
X-66405Y-76150D01*
X-67645D01*
X-69040Y-76775D01*
X-70125Y-77817D01*
X-70900Y-79067D01*
X-71520Y-81150D01*
X-71675Y-83025D01*
X-71365Y-84900D01*
X-70900Y-86150D01*
X-69970Y-87400D01*
X-68885Y-88233D01*
X-67800Y-88650D01*
X-66715D01*
X-65630Y-88233D01*
X-64700Y-87609D01*
X-63925Y-86775D01*
G01X-58655Y-88650D02*
Y-76150D01*
G01X-52145D02*
Y-88650D01*
G01Y-82400D02*
X-58655D01*
G01X-46875Y-88650D02*
X-43000Y-76150D01*
X-39125Y-88650D01*
G01X-40520Y-84275D02*
X-45480D01*
G01X-33700Y-88650D02*
Y-76150D01*
X-29825D01*
X-28585Y-76775D01*
X-27810Y-77608D01*
X-27500Y-79275D01*
X-27810Y-80942D01*
X-28740Y-81983D01*
X-29825Y-82608D01*
X-33700D01*
G01X-29825D02*
X-27500Y-88650D01*
G01X-18200Y-76150D02*
Y-88650D01*
G01X-21765Y-76150D02*
X-14635D01*
G01X-5800Y-89067D02*
X-6110Y-88858D01*
Y-88442D01*
X-5800Y-88233D01*
X-5490Y-88442D01*
Y-88858D01*
X-5800Y-89067D01*
G01Y-83442D02*
X-6110Y-83233D01*
Y-82817D01*
X-5800Y-82608D01*
X-5490Y-82817D01*
Y-83233D01*
X-5800Y-83442D01*
G01X19000Y-76150D02*
Y-88650D01*
G01X15435Y-76150D02*
X22565D01*
G01X31400Y-88650D02*
X30160Y-88442D01*
X29075Y-87609D01*
X28145Y-86358D01*
X27525Y-84900D01*
X27215Y-83233D01*
Y-81567D01*
X27525Y-79900D01*
X28145Y-78442D01*
X29075Y-77192D01*
X30160Y-76358D01*
X31400Y-76150D01*
X32640Y-76358D01*
X33725Y-77192D01*
X34655Y-78442D01*
X35275Y-79900D01*
X35585Y-81567D01*
Y-83233D01*
X35275Y-84900D01*
X34655Y-86358D01*
X33725Y-87609D01*
X32640Y-88442D01*
X31400Y-88650D01*
G01X40700D02*
Y-76150D01*
X44420D01*
X45660Y-76775D01*
X46590Y-78233D01*
X46900Y-79900D01*
X46590Y-81567D01*
X45815Y-82817D01*
X44420Y-83442D01*
X40700D01*
G01X68600Y-76150D02*
Y-88650D01*
G01X66430Y-80317D02*
X70770D01*
G01X81000Y-88650D02*
X80070Y-88442D01*
X79140Y-87609D01*
X78520Y-86150D01*
X78210Y-84483D01*
X78520Y-82817D01*
X79140Y-81358D01*
X80070Y-80525D01*
X81000Y-80317D01*
X81930Y-80525D01*
X82860Y-81358D01*
X83480Y-82817D01*
X83635Y-84483D01*
X83480Y-86150D01*
X82860Y-87609D01*
X81930Y-88442D01*
X81000Y-88650D01*
G01X107040Y-81983D02*
X107660Y-81358D01*
X108125Y-80317D01*
X108435Y-78858D01*
X108125Y-77608D01*
X107505Y-76775D01*
X106420Y-76150D01*
X102235D01*
Y-88650D01*
X107350D01*
X108435Y-87817D01*
X109055Y-86567D01*
X109365Y-85108D01*
X109055Y-83650D01*
X108125Y-82400D01*
X107040Y-81983D01*
X102235D01*
G01X118200Y-88650D02*
X116960Y-88442D01*
X115875Y-87609D01*
X114945Y-86358D01*
X114325Y-84900D01*
X114015Y-83233D01*
Y-81567D01*
X114325Y-79900D01*
X114945Y-78442D01*
X115875Y-77192D01*
X116960Y-76358D01*
X118200Y-76150D01*
X119440Y-76358D01*
X120525Y-77192D01*
X121455Y-78442D01*
X122075Y-79900D01*
X122385Y-81567D01*
Y-83233D01*
X122075Y-84900D01*
X121455Y-86358D01*
X120525Y-87609D01*
X119440Y-88442D01*
X118200Y-88650D01*
G01X130600Y-76150D02*
Y-88650D01*
G01X127035Y-76150D02*
X134165D01*
G01X143000D02*
Y-88650D01*
G01X139435Y-76150D02*
X146565D01*
G01X155400Y-88650D02*
X154160Y-88442D01*
X153075Y-87609D01*
X152145Y-86358D01*
X151525Y-84900D01*
X151215Y-83233D01*
Y-81567D01*
X151525Y-79900D01*
X152145Y-78442D01*
X153075Y-77192D01*
X154160Y-76358D01*
X155400Y-76150D01*
X156640Y-76358D01*
X157725Y-77192D01*
X158655Y-78442D01*
X159275Y-79900D01*
X159585Y-81567D01*
Y-83233D01*
X159275Y-84900D01*
X158655Y-86358D01*
X157725Y-87609D01*
X156640Y-88442D01*
X155400Y-88650D01*
G01X163770D02*
Y-76150D01*
X167800Y-86567D01*
X171830Y-76150D01*
Y-88650D01*
G01X-139100Y-123000D02*
Y-263500D01*
G01X-115075Y-113650D02*
X-111200Y-101150D01*
X-107325Y-113650D01*
G01X-108720Y-109275D02*
X-113680D01*
G01X-101900Y-101150D02*
Y-113650D01*
X-95700D01*
G01X-89500Y-101150D02*
Y-113650D01*
X-83300D01*
G01X-65010Y-101150D02*
Y-110108D01*
X-64390Y-111984D01*
X-63150Y-113233D01*
X-61600Y-113650D01*
X-60050Y-113233D01*
X-58810Y-111984D01*
X-58190Y-110108D01*
Y-101150D01*
G01X-52765Y-113650D02*
Y-101150D01*
X-45635Y-113650D01*
Y-101150D01*
G01X-38660D02*
X-34940D01*
G01X-36800D02*
Y-113650D01*
G01X-38660D02*
X-34940D01*
G01X-24400Y-101150D02*
Y-113650D01*
G01X-27965Y-101150D02*
X-20835D01*
G01X-15255Y-111984D02*
X-14015Y-113025D01*
X-12620Y-113650D01*
X-11380D01*
X-10140Y-113025D01*
X-9210Y-111984D01*
X-8745Y-110525D01*
X-9055Y-109067D01*
X-9830Y-107817D01*
X-11225Y-106983D01*
X-13085Y-106567D01*
X-14170Y-105733D01*
X-14635Y-104275D01*
X-14325Y-102817D01*
X-13550Y-101775D01*
X-12465Y-101150D01*
X-11380D01*
X-10295Y-101567D01*
X-9365Y-102608D01*
G01X8925Y-113650D02*
X12800Y-101150D01*
X16675Y-113650D01*
G01X15280Y-109275D02*
X10320D01*
G01X22100Y-113650D02*
Y-101150D01*
X25975D01*
X27215Y-101775D01*
X27990Y-102608D01*
X28300Y-104275D01*
X27990Y-105942D01*
X27060Y-106983D01*
X25975Y-107608D01*
X22100D01*
G01X25975D02*
X28300Y-113650D01*
G01X40700D02*
X34500D01*
Y-101150D01*
X40700D01*
G01X38220Y-107192D02*
X34500D01*
G01X60540Y-101150D02*
X64260D01*
G01X62400D02*
Y-113650D01*
G01X60540D02*
X64260D01*
G01X71235D02*
Y-101150D01*
X78365Y-113650D01*
Y-101150D01*
G01X95570Y-113650D02*
Y-101150D01*
X99600Y-111567D01*
X103630Y-101150D01*
Y-113650D01*
G01X110140Y-101150D02*
X113860D01*
G01X112000D02*
Y-113650D01*
G01X110140D02*
X113860D01*
G01X121300Y-101150D02*
Y-113650D01*
X127500D01*
G01X133545Y-111984D02*
X134785Y-113025D01*
X136180Y-113650D01*
X137420D01*
X138660Y-113025D01*
X139590Y-111984D01*
X140055Y-110525D01*
X139745Y-109067D01*
X138970Y-107817D01*
X137575Y-106983D01*
X135715Y-106567D01*
X134630Y-105733D01*
X134165Y-104275D01*
X134475Y-102817D01*
X135250Y-101775D01*
X136335Y-101150D01*
X137420D01*
X138505Y-101567D01*
X139435Y-102608D01*
G01X-72760Y-253200D02*
X-71830Y-254659D01*
X-70590Y-255492D01*
X-69195Y-255700D01*
X-67955Y-255492D01*
X-66715Y-254450D01*
X-65940Y-253200D01*
X-65785Y-251950D01*
X-66095Y-250492D01*
X-67180Y-249450D01*
X-68265Y-249033D01*
X-69660D01*
G01X-68265D02*
X-67335Y-248408D01*
X-66560Y-247367D01*
X-66250Y-246117D01*
X-66560Y-244867D01*
X-67335Y-243825D01*
X-68730Y-243200D01*
X-70125Y-243408D01*
X-71520Y-244242D01*
G01X-59585Y-254242D02*
X-58500Y-255283D01*
X-57260Y-255700D01*
X-56020Y-255283D01*
X-54935Y-254034D01*
X-54160Y-252158D01*
X-53850Y-250283D01*
Y-247992D01*
X-54160Y-246117D01*
X-54935Y-244450D01*
X-55865Y-243617D01*
X-56950Y-243200D01*
X-58190Y-243617D01*
X-59120Y-244450D01*
X-59740Y-245700D01*
X-60050Y-247367D01*
X-59740Y-248825D01*
X-58965Y-250283D01*
X-58035Y-251117D01*
X-56950Y-251325D01*
X-55710Y-250909D01*
X-54780Y-249867D01*
X-53850Y-247992D01*
G01X-44550Y-256117D02*
X-44860Y-255908D01*
Y-255492D01*
X-44550Y-255283D01*
X-44240Y-255492D01*
Y-255908D01*
X-44550Y-256117D01*
G01X-35560Y-253200D02*
X-34630Y-254659D01*
X-33390Y-255492D01*
X-31995Y-255700D01*
X-30755Y-255492D01*
X-29515Y-254450D01*
X-28740Y-253200D01*
X-28585Y-251950D01*
X-28895Y-250492D01*
X-29980Y-249450D01*
X-31065Y-249033D01*
X-32460D01*
G01X-31065D02*
X-30135Y-248408D01*
X-29360Y-247367D01*
X-29050Y-246117D01*
X-29360Y-244867D01*
X-30135Y-243825D01*
X-31530Y-243200D01*
X-32925Y-243408D01*
X-34320Y-244242D01*
G01X-20060Y-255700D02*
X-19750Y-252992D01*
X-19285Y-250700D01*
X-18665Y-248617D01*
X-17890Y-246325D01*
X-16650Y-243200D01*
X-22850D01*
G01X-72295Y-217183D02*
X-71365Y-215934D01*
X-70280Y-215308D01*
X-69040Y-215100D01*
X-67490Y-215517D01*
X-66405Y-216558D01*
X-66095Y-217808D01*
X-66250Y-219059D01*
X-66870Y-220100D01*
X-69970Y-222183D01*
X-71365Y-223642D01*
X-72295Y-225725D01*
X-72605Y-227600D01*
X-66095D01*
G01X-60360Y-225100D02*
X-59430Y-226559D01*
X-58190Y-227392D01*
X-56795Y-227600D01*
X-55555Y-227392D01*
X-54315Y-226350D01*
X-53540Y-225100D01*
X-53385Y-223850D01*
X-53695Y-222392D01*
X-54780Y-221350D01*
X-55865Y-220933D01*
X-57260D01*
G01X-55865D02*
X-54935Y-220308D01*
X-54160Y-219267D01*
X-53850Y-218017D01*
X-54160Y-216767D01*
X-54935Y-215725D01*
X-56330Y-215100D01*
X-57725Y-215308D01*
X-59120Y-216142D01*
G01X-44550Y-228017D02*
X-44860Y-227808D01*
Y-227392D01*
X-44550Y-227183D01*
X-44240Y-227392D01*
Y-227808D01*
X-44550Y-228017D01*
G01X-35095Y-222392D02*
X-34010Y-220933D01*
X-33080Y-220100D01*
X-31840Y-219683D01*
X-30755Y-220100D01*
X-29980Y-220933D01*
X-29360Y-222183D01*
X-29205Y-223642D01*
X-29360Y-224892D01*
X-29980Y-226142D01*
X-30910Y-227183D01*
X-31995Y-227600D01*
X-33235Y-227183D01*
X-34320Y-225934D01*
X-34940Y-224058D01*
X-35095Y-221975D01*
X-34785Y-219267D01*
X-34320Y-217808D01*
X-33545Y-216350D01*
X-32460Y-215308D01*
X-31375Y-215100D01*
X-30290Y-215517D01*
X-29515Y-216558D01*
G01X-22695Y-217183D02*
X-21765Y-215934D01*
X-20680Y-215308D01*
X-19440Y-215100D01*
X-17890Y-215517D01*
X-16805Y-216558D01*
X-16495Y-217808D01*
X-16650Y-219059D01*
X-17270Y-220100D01*
X-20370Y-222183D01*
X-21765Y-223642D01*
X-22695Y-225725D01*
X-23005Y-227600D01*
X-16495D01*
G01X-63150Y-199500D02*
Y-187000D01*
X-65010Y-189500D01*
G01Y-199500D02*
X-61290D01*
G01X-54160Y-197000D02*
X-53230Y-198459D01*
X-51990Y-199292D01*
X-50595Y-199500D01*
X-49355Y-199292D01*
X-48115Y-198250D01*
X-47340Y-197000D01*
X-47185Y-195750D01*
X-47495Y-194292D01*
X-48580Y-193250D01*
X-49665Y-192833D01*
X-51060D01*
G01X-49665D02*
X-48735Y-192208D01*
X-47960Y-191167D01*
X-47650Y-189917D01*
X-47960Y-188667D01*
X-48735Y-187625D01*
X-50130Y-187000D01*
X-51525Y-187208D01*
X-52920Y-188042D01*
G01X-38350Y-199917D02*
X-38660Y-199708D01*
Y-199292D01*
X-38350Y-199083D01*
X-38040Y-199292D01*
Y-199708D01*
X-38350Y-199917D01*
G01X-25950Y-187000D02*
X-27190Y-187417D01*
X-28120Y-188458D01*
X-28740Y-189708D01*
X-29205Y-191375D01*
X-29360Y-193250D01*
X-29205Y-195125D01*
X-28740Y-196792D01*
X-28120Y-198042D01*
X-27190Y-199083D01*
X-25950Y-199500D01*
X-24710Y-199083D01*
X-23780Y-198042D01*
X-23160Y-196792D01*
X-22695Y-195125D01*
X-22540Y-193250D01*
X-22695Y-191375D01*
X-23160Y-189708D01*
X-23780Y-188458D01*
X-24710Y-187417D01*
X-25950Y-187000D01*
G01X-63150Y-171400D02*
Y-158900D01*
X-65010Y-161400D01*
G01Y-171400D02*
X-61290D01*
G01X-53695Y-160983D02*
X-52765Y-159734D01*
X-51680Y-159108D01*
X-50440Y-158900D01*
X-48890Y-159317D01*
X-47805Y-160358D01*
X-47495Y-161608D01*
X-47650Y-162859D01*
X-48270Y-163900D01*
X-51370Y-165983D01*
X-52765Y-167442D01*
X-53695Y-169525D01*
X-54005Y-171400D01*
X-47495D01*
G01X-38350Y-171817D02*
X-38660Y-171608D01*
Y-171192D01*
X-38350Y-170983D01*
X-38040Y-171192D01*
Y-171608D01*
X-38350Y-171817D01*
G01X-25950Y-158900D02*
X-27190Y-159317D01*
X-28120Y-160358D01*
X-28740Y-161608D01*
X-29205Y-163275D01*
X-29360Y-165150D01*
X-29205Y-167025D01*
X-28740Y-168692D01*
X-28120Y-169942D01*
X-27190Y-170983D01*
X-25950Y-171400D01*
X-24710Y-170983D01*
X-23780Y-169942D01*
X-23160Y-168692D01*
X-22695Y-167025D01*
X-22540Y-165150D01*
X-22695Y-163275D01*
X-23160Y-161608D01*
X-23780Y-160358D01*
X-24710Y-159317D01*
X-25950Y-158900D01*
G01X-66405Y-140084D02*
X-65165Y-141125D01*
X-63770Y-141750D01*
X-62530D01*
X-61290Y-141125D01*
X-60360Y-140084D01*
X-59895Y-138625D01*
X-60205Y-137167D01*
X-60980Y-135917D01*
X-62375Y-135083D01*
X-64235Y-134667D01*
X-65320Y-133833D01*
X-65785Y-132375D01*
X-65475Y-130917D01*
X-64700Y-129875D01*
X-63615Y-129250D01*
X-62530D01*
X-61445Y-129667D01*
X-60515Y-130708D01*
G01X-52610Y-129250D02*
X-48890D01*
G01X-50750D02*
Y-141750D01*
G01X-52610D02*
X-48890D01*
G01X-41295Y-129250D02*
X-35405D01*
X-41295Y-141750D01*
X-35405D01*
G01X-22850D02*
X-29050D01*
Y-129250D01*
X-22850D01*
G01X-25330Y-135292D02*
X-29050D01*
G01X50000Y-123000D02*
Y-263500D01*
G01X79450Y-255700D02*
Y-243200D01*
X83170D01*
X84410Y-243825D01*
X85340Y-245283D01*
X85650Y-246950D01*
X85340Y-248617D01*
X84565Y-249867D01*
X83170Y-250492D01*
X79450D01*
G01X91850Y-243200D02*
Y-255700D01*
X98050D01*
G01X103475D02*
X107350Y-243200D01*
X111225Y-255700D01*
G01X109830Y-251325D02*
X104870D01*
G01X119750Y-243200D02*
Y-255700D01*
G01X116185Y-243200D02*
X123315D01*
G01X135250Y-255700D02*
X129050D01*
Y-243200D01*
X135250D01*
G01X132770Y-249242D02*
X129050D01*
G01X141140Y-255700D02*
Y-243200D01*
X144240D01*
X145480Y-243825D01*
X146410Y-244658D01*
X147185Y-245908D01*
X147805Y-247367D01*
X147960Y-249450D01*
X147805Y-251533D01*
X147185Y-252992D01*
X146410Y-254242D01*
X145480Y-255075D01*
X144240Y-255700D01*
X141140D01*
G01X79450Y-227600D02*
Y-215100D01*
X83170D01*
X84410Y-215725D01*
X85340Y-217183D01*
X85650Y-218850D01*
X85340Y-220517D01*
X84565Y-221767D01*
X83170Y-222392D01*
X79450D01*
G01X91850Y-215100D02*
Y-227600D01*
X98050D01*
G01X103475D02*
X107350Y-215100D01*
X111225Y-227600D01*
G01X109830Y-223225D02*
X104870D01*
G01X119750Y-215100D02*
Y-227600D01*
G01X116185Y-215100D02*
X123315D01*
G01X135250Y-227600D02*
X129050D01*
Y-215100D01*
X135250D01*
G01X132770Y-221142D02*
X129050D01*
G01X141140Y-227600D02*
Y-215100D01*
X144240D01*
X145480Y-215725D01*
X146410Y-216558D01*
X147185Y-217808D01*
X147805Y-219267D01*
X147960Y-221350D01*
X147805Y-223433D01*
X147185Y-224892D01*
X146410Y-226142D01*
X145480Y-226975D01*
X144240Y-227600D01*
X141140D01*
G01X79450Y-199500D02*
Y-187000D01*
X83170D01*
X84410Y-187625D01*
X85340Y-189083D01*
X85650Y-190750D01*
X85340Y-192417D01*
X84565Y-193667D01*
X83170Y-194292D01*
X79450D01*
G01X91850Y-187000D02*
Y-199500D01*
X98050D01*
G01X103475D02*
X107350Y-187000D01*
X111225Y-199500D01*
G01X109830Y-195125D02*
X104870D01*
G01X119750Y-187000D02*
Y-199500D01*
G01X116185Y-187000D02*
X123315D01*
G01X135250Y-199500D02*
X129050D01*
Y-187000D01*
X135250D01*
G01X132770Y-193042D02*
X129050D01*
G01X141140Y-199500D02*
Y-187000D01*
X144240D01*
X145480Y-187625D01*
X146410Y-188458D01*
X147185Y-189708D01*
X147805Y-191167D01*
X147960Y-193250D01*
X147805Y-195333D01*
X147185Y-196792D01*
X146410Y-198042D01*
X145480Y-198875D01*
X144240Y-199500D01*
X141140D01*
G01X79450Y-171400D02*
Y-158900D01*
X83170D01*
X84410Y-159525D01*
X85340Y-160983D01*
X85650Y-162650D01*
X85340Y-164317D01*
X84565Y-165567D01*
X83170Y-166192D01*
X79450D01*
G01X91850Y-158900D02*
Y-171400D01*
X98050D01*
G01X103475D02*
X107350Y-158900D01*
X111225Y-171400D01*
G01X109830Y-167025D02*
X104870D01*
G01X119750Y-158900D02*
Y-171400D01*
G01X116185Y-158900D02*
X123315D01*
G01X135250Y-171400D02*
X129050D01*
Y-158900D01*
X135250D01*
G01X132770Y-164942D02*
X129050D01*
G01X141140Y-171400D02*
Y-158900D01*
X144240D01*
X145480Y-159525D01*
X146410Y-160358D01*
X147185Y-161608D01*
X147805Y-163067D01*
X147960Y-165150D01*
X147805Y-167233D01*
X147185Y-168692D01*
X146410Y-169942D01*
X145480Y-170775D01*
X144240Y-171400D01*
X141140D01*
G01X79450Y-141750D02*
Y-129250D01*
X83170D01*
X84410Y-129875D01*
X85340Y-131333D01*
X85650Y-133000D01*
X85340Y-134667D01*
X84565Y-135917D01*
X83170Y-136542D01*
X79450D01*
G01X91850Y-129250D02*
Y-141750D01*
X98050D01*
G01X103475D02*
X107350Y-129250D01*
X111225Y-141750D01*
G01X109830Y-137375D02*
X104870D01*
G01X119750Y-129250D02*
Y-141750D01*
G01X116185Y-129250D02*
X123315D01*
G01X135250Y-141750D02*
X129050D01*
Y-129250D01*
X135250D01*
G01X132770Y-135292D02*
X129050D01*
G01X141140Y-141750D02*
Y-129250D01*
X144240D01*
X145480Y-129875D01*
X146410Y-130708D01*
X147185Y-131958D01*
X147805Y-133417D01*
X147960Y-135500D01*
X147805Y-137583D01*
X147185Y-139042D01*
X146410Y-140292D01*
X145480Y-141125D01*
X144240Y-141750D01*
X141140D01*
G01X177100Y-123000D02*
Y-263500D01*
G01X203450Y-141750D02*
X202210Y-141542D01*
X201125Y-140709D01*
X200195Y-139458D01*
X199575Y-138000D01*
X199265Y-136333D01*
Y-134667D01*
X199575Y-133000D01*
X200195Y-131542D01*
X201125Y-130292D01*
X202210Y-129458D01*
X203450Y-129250D01*
X204690Y-129458D01*
X205775Y-130292D01*
X206705Y-131542D01*
X207325Y-133000D01*
X207635Y-134667D01*
Y-136333D01*
X207325Y-138000D01*
X206705Y-139458D01*
X205775Y-140709D01*
X204690Y-141542D01*
X203450Y-141750D01*
G01X204690Y-138417D02*
X206550Y-141750D01*
G01X215850Y-129250D02*
Y-141750D01*
G01X212285Y-129250D02*
X219415D01*
G01X228250Y-141750D02*
Y-136125D01*
X225150Y-129250D01*
G01X231350D02*
X228250Y-136125D01*
G01X209650Y-255700D02*
Y-243200D01*
X207790Y-245700D01*
G01Y-255700D02*
X211510D01*
G01X218640Y-253200D02*
X219570Y-254659D01*
X220810Y-255492D01*
X222205Y-255700D01*
X223445Y-255492D01*
X224685Y-254450D01*
X225460Y-253200D01*
X225615Y-251950D01*
X225305Y-250492D01*
X224220Y-249450D01*
X223135Y-249033D01*
X221740D01*
G01X223135D02*
X224065Y-248408D01*
X224840Y-247367D01*
X225150Y-246117D01*
X224840Y-244867D01*
X224065Y-243825D01*
X222670Y-243200D01*
X221275Y-243408D01*
X219880Y-244242D01*
G01X212905Y-217183D02*
X213835Y-215934D01*
X214920Y-215308D01*
X216160Y-215100D01*
X217710Y-215517D01*
X218795Y-216558D01*
X219105Y-217808D01*
X218950Y-219059D01*
X218330Y-220100D01*
X215230Y-222183D01*
X213835Y-223642D01*
X212905Y-225725D01*
X212595Y-227600D01*
X219105D01*
G01X212905Y-189083D02*
X213835Y-187834D01*
X214920Y-187208D01*
X216160Y-187000D01*
X217710Y-187417D01*
X218795Y-188458D01*
X219105Y-189708D01*
X218950Y-190959D01*
X218330Y-192000D01*
X215230Y-194083D01*
X213835Y-195542D01*
X212905Y-197625D01*
X212595Y-199500D01*
X219105D01*
G01X206705Y-166192D02*
X207790Y-164733D01*
X208720Y-163900D01*
X209960Y-163483D01*
X211045Y-163900D01*
X211820Y-164733D01*
X212440Y-165983D01*
X212595Y-167442D01*
X212440Y-168692D01*
X211820Y-169942D01*
X210890Y-170983D01*
X209805Y-171400D01*
X208565Y-170983D01*
X207480Y-169734D01*
X206860Y-167858D01*
X206705Y-165775D01*
X207015Y-163067D01*
X207480Y-161608D01*
X208255Y-160150D01*
X209340Y-159108D01*
X210425Y-158900D01*
X211510Y-159317D01*
X212285Y-160358D01*
G01X219105Y-160983D02*
X220035Y-159734D01*
X221120Y-159108D01*
X222360Y-158900D01*
X223910Y-159317D01*
X224995Y-160358D01*
X225305Y-161608D01*
X225150Y-162859D01*
X224530Y-163900D01*
X221430Y-165983D01*
X220035Y-167442D01*
X219105Y-169525D01*
X218795Y-171400D01*
X225305D01*
G01X65000Y0D02*
G03I-65000J0D01*
M02*
