G04 ================== begin FILE IDENTIFICATION RECORD ==================*
G04 Layout Name:  C:/Users/Liber/Desktop/SmartRing-V1.03/version2/MainBoard.brd*
G04 Film Name:    PASTEMASK_TOP*
G04 File Format:  Gerber RS274X*
G04 File Origin:  Cadence Allegro 16.3-p003*
G04 Origin Date:  Thu Mar 27 00:00:23 2014*
G04 *
G04 Layer:  VIA CLASS/PASTEMASK_TOP*
G04 Layer:  PIN/PASTEMASK_TOP*
G04 Layer:  PACKAGE GEOMETRY/PASTEMASK_TOP*
G04 *
G04 Offset:    (0.00 0.00)*
G04 Mirror:    No*
G04 Mode:      Positive*
G04 Rotation:  0*
G04 FullContactRelief:  No*
G04 UndefLineWidth:     6.00*
G04 ================== end FILE IDENTIFICATION RECORD ====================*
%FSLAX35Y35*MOIN*%
%IR0*IPPOS*OFA0.00000B0.00000*MIA0B0*SFA1.00000B1.00000*%
%ADD13C,.024*%
%AMMACRO30*
21,1,.06102,.05118,0.0,0.0,150.*%
%ADD30MACRO30*%
%ADD27R,.01732X.0063*%
%AMMACRO11*
4,1,4,-.02654,.04031,
.02653,.04031,
.02653,-.04032,
-.02654,-.04032,
-.02654,.04031,
0.0*
%
%ADD11MACRO11*%
%AMMACRO26*
4,1,21,.01673,-.00886,
-.00787,-.00886,
-.009409,-.008725,
-.0109,-.008326,
-.0123,-.007673,
-.013565,-.006787,
-.014657,-.005695,
-.015543,-.00443,
-.016196,-.00303,
-.016595,-.001539,
-.01673,0.0,
-.016595,.001539,
-.016196,.00303,
-.015543,.00443,
-.014657,.005695,
-.013565,.006787,
-.0123,.007673,
-.0109,.008326,
-.009409,.008725,
-.00787,.00886,
.01673,.00886,
.01673,-.00886,
0.0*
%
%ADD26MACRO26*%
%ADD29R,.00984X.02559*%
%ADD21C,.001*%
%ADD24R,.01181X.0315*%
%ADD15R,.02441X.0252*%
%ADD19R,.0315X.01181*%
%ADD16R,.0252X.02441*%
%ADD14R,.02244X.0252*%
%ADD22R,.001X.001*%
%ADD17R,.0252X.02244*%
%AMMACRO25*
4,1,4,-.01518,.03289,
.01517,.03289,
.01517,-.0329,
-.01518,-.0329,
-.01518,.03289,
0.0*
%
%ADD25MACRO25*%
%ADD23R,.03346X.06102*%
%ADD28R,.02362X.03543*%
%AMMACRO20*
4,1,21,-.01673,.00886,
.00787,.00886,
.009409,.008725,
.0109,.008326,
.0123,.007673,
.013565,.006787,
.014657,.005695,
.015543,.00443,
.016196,.00303,
.016595,.001539,
.01673,0.0,
.016595,-.001539,
.016196,-.00303,
.015543,-.00443,
.014657,-.005695,
.013565,-.006787,
.0123,-.007673,
.0109,-.008326,
.009409,-.008725,
.00787,-.00886,
-.01673,-.00886,
-.01673,.00886,
0.0*
%
%ADD20MACRO20*%
%ADD12R,.03346X.01378*%
%ADD18R,.0689X.04528*%
%ADD10R,.06299X.04921*%
G75*
%LPD*%
G75*
G36*
G01X-46753Y14331D02*
X-41446D01*
Y6268D01*
X-46753D01*
Y14331D01*
G37*
G36*
G01X-13960Y-26070D02*
X-12980D01*
Y-24220D01*
X-13960D01*
Y-26070D01*
G37*
G36*
G01X-11990D02*
X-11010D01*
Y-24220D01*
X-11990D01*
Y-26070D01*
G37*
G36*
G01X-10020D02*
X-9040D01*
Y-24220D01*
X-10020D01*
Y-26070D01*
G37*
G36*
G01Y-28980D02*
X-9040D01*
Y-27130D01*
X-10020D01*
Y-28980D01*
G37*
G36*
G01X-11990D02*
X-11010D01*
Y-27130D01*
X-11990D01*
Y-28980D01*
G37*
G36*
G01X-13960D02*
X-12980D01*
Y-27010D01*
X-13960D01*
Y-28980D01*
G37*
G36*
G01X-550Y-1690D02*
X-1110Y-2250D01*
Y-3660D01*
X1210D01*
Y-2250D01*
X650Y-1690D01*
X-550D01*
G37*
G36*
G01Y1410D02*
X-1110Y850D01*
Y-350D01*
X-550Y-910D01*
X650D01*
X1210Y-350D01*
Y850D01*
X650Y1410D01*
X-550D01*
G37*
G36*
G01X-3650Y-1690D02*
X-4210Y-2250D01*
Y-3660D01*
X-1890D01*
Y-2250D01*
X-2450Y-1690D01*
X-3650D01*
G37*
G36*
G01Y1410D02*
X-4210Y850D01*
Y-350D01*
X-3650Y-910D01*
X-2450D01*
X-1890Y-350D01*
Y850D01*
X-2450Y1410D01*
X-3650D01*
G37*
G36*
G01X-6750Y-1690D02*
X-7310Y-2250D01*
Y-3660D01*
X-4990D01*
Y-2250D01*
X-5550Y-1690D01*
X-6750D01*
G37*
G36*
G01Y1410D02*
X-7310Y850D01*
Y-350D01*
X-6750Y-910D01*
X-5550D01*
X-4990Y-350D01*
Y850D01*
X-5550Y1410D01*
X-6750D01*
G37*
G36*
G01X-9850Y-1690D02*
X-10410Y-2250D01*
Y-3660D01*
X-8090D01*
Y-2250D01*
X-8650Y-1690D01*
X-9850D01*
G37*
G36*
G01Y1410D02*
X-10410Y850D01*
Y-350D01*
X-9850Y-910D01*
X-8650D01*
X-8090Y-350D01*
Y850D01*
X-8650Y1410D01*
X-9850D01*
G37*
G36*
G01X-13160Y-1690D02*
Y-3660D01*
X-11190D01*
Y-2250D01*
X-11750Y-1690D01*
X-13160D01*
G37*
G36*
G01Y1410D02*
Y-910D01*
X-11750D01*
X-11190Y-350D01*
Y850D01*
X-11750Y1410D01*
X-13160D01*
G37*
G36*
G01X-2100Y-5240D02*
Y-8390D01*
X-1190D01*
Y-5240D01*
X-2100D01*
G37*
G36*
G01X-4070D02*
Y-8390D01*
X-3160D01*
Y-5240D01*
X-4070D01*
G37*
G36*
G01X-6040D02*
Y-8390D01*
X-5130D01*
Y-5240D01*
X-6040D01*
G37*
G36*
G01X-8010D02*
Y-8390D01*
X-7100D01*
Y-5240D01*
X-8010D01*
G37*
G36*
G01X-9980D02*
Y-8390D01*
X-9070D01*
Y-5240D01*
X-9980D01*
G37*
G36*
G01X-11940D02*
Y-8390D01*
X-11040D01*
Y-5240D01*
X-11940D01*
G37*
G36*
G01X-13910D02*
Y-8390D01*
X-13010D01*
Y-5240D01*
X-13910D01*
G37*
G36*
G01X-17890Y-3510D02*
Y-4410D01*
X-14740D01*
Y-3510D01*
X-17890D01*
G37*
G36*
G01Y-1540D02*
Y-2440D01*
X-14740D01*
Y-1540D01*
X-17890D01*
G37*
G36*
G01Y430D02*
Y-470D01*
X-14740D01*
Y430D01*
X-17890D01*
G37*
G36*
G01X-550Y4510D02*
X-1110Y3950D01*
Y2750D01*
X-550Y2190D01*
X650D01*
X1210Y2750D01*
Y3950D01*
X650Y4510D01*
X-550D01*
G37*
G36*
G01Y7610D02*
X-1110Y7050D01*
Y5850D01*
X-550Y5290D01*
X650D01*
X1210Y5850D01*
Y7050D01*
X650Y7610D01*
X-550D01*
G37*
G36*
G01Y10710D02*
X-1110Y10150D01*
Y8950D01*
X-550Y8390D01*
X650D01*
X1210Y8950D01*
Y10150D01*
X650Y10710D01*
X-550D01*
G37*
G36*
G01X-1110Y13460D02*
Y12050D01*
X-550Y11490D01*
X650D01*
X1210Y12050D01*
Y13460D01*
X-1110D01*
G37*
G36*
G01X-3650Y4510D02*
X-4210Y3950D01*
Y2750D01*
X-3650Y2190D01*
X-2450D01*
X-1890Y2750D01*
Y3950D01*
X-2450Y4510D01*
X-3650D01*
G37*
G36*
G01Y7610D02*
X-4210Y7050D01*
Y5850D01*
X-3650Y5290D01*
X-2450D01*
X-1890Y5850D01*
Y7050D01*
X-2450Y7610D01*
X-3650D01*
G37*
G36*
G01Y10710D02*
X-4210Y10150D01*
Y8950D01*
X-3650Y8390D01*
X-2450D01*
X-1890Y8950D01*
Y10150D01*
X-2450Y10710D01*
X-3650D01*
G37*
G36*
G01X-4210Y13460D02*
Y12050D01*
X-3650Y11490D01*
X-2450D01*
X-1890Y12050D01*
Y13460D01*
X-4210D01*
G37*
G36*
G01X-6750Y4510D02*
X-7310Y3950D01*
Y2750D01*
X-6750Y2190D01*
X-5550D01*
X-4990Y2750D01*
Y3950D01*
X-5550Y4510D01*
X-6750D01*
G37*
G36*
G01Y7610D02*
X-7310Y7050D01*
Y5850D01*
X-6750Y5290D01*
X-5550D01*
X-4990Y5850D01*
Y7050D01*
X-5550Y7610D01*
X-6750D01*
G37*
G36*
G01Y10710D02*
X-7310Y10150D01*
Y8950D01*
X-6750Y8390D01*
X-5550D01*
X-4990Y8950D01*
Y10150D01*
X-5550Y10710D01*
X-6750D01*
G37*
G36*
G01X-7310Y13460D02*
Y12050D01*
X-6750Y11490D01*
X-5550D01*
X-4990Y12050D01*
Y13460D01*
X-7310D01*
G37*
G36*
G01X-9850Y4510D02*
X-10410Y3950D01*
Y2750D01*
X-9850Y2190D01*
X-8650D01*
X-8090Y2750D01*
Y3950D01*
X-8650Y4510D01*
X-9850D01*
G37*
G36*
G01Y7610D02*
X-10410Y7050D01*
Y5850D01*
X-9850Y5290D01*
X-8650D01*
X-8090Y5850D01*
Y7050D01*
X-8650Y7610D01*
X-9850D01*
G37*
G36*
G01Y10710D02*
X-10410Y10150D01*
Y8950D01*
X-9850Y8390D01*
X-8650D01*
X-8090Y8950D01*
Y10150D01*
X-8650Y10710D01*
X-9850D01*
G37*
G36*
G01X-10410Y13460D02*
Y12050D01*
X-9850Y11490D01*
X-8650D01*
X-8090Y12050D01*
Y13460D01*
X-10410D01*
G37*
G36*
G01X-13160Y4510D02*
Y2190D01*
X-11750D01*
X-11190Y2750D01*
Y3950D01*
X-11750Y4510D01*
X-13160D01*
G37*
G36*
G01Y7610D02*
Y5290D01*
X-11750D01*
X-11190Y5850D01*
Y7050D01*
X-11750Y7610D01*
X-13160D01*
G37*
G36*
G01Y10710D02*
Y8390D01*
X-11750D01*
X-11190Y8950D01*
Y10150D01*
X-11750Y10710D01*
X-13160D01*
G37*
G36*
G01Y13460D02*
Y11490D01*
X-11750D01*
X-11190Y12050D01*
Y13460D01*
X-13160D01*
G37*
G36*
G01X-13910Y18190D02*
Y15040D01*
X-13010D01*
Y18190D01*
X-13910D01*
G37*
G36*
G01X-11940D02*
Y15040D01*
X-11040D01*
Y18190D01*
X-11940D01*
G37*
G36*
G01X-9980D02*
Y15040D01*
X-9070D01*
Y18190D01*
X-9980D01*
G37*
G36*
G01X-8010D02*
Y15040D01*
X-7100D01*
Y18190D01*
X-8010D01*
G37*
G36*
G01X-6040D02*
Y15040D01*
X-5130D01*
Y18190D01*
X-6040D01*
G37*
G36*
G01X-4070D02*
Y15040D01*
X-3160D01*
Y18190D01*
X-4070D01*
G37*
G36*
G01X-2100D02*
Y15040D01*
X-1190D01*
Y18190D01*
X-2100D01*
G37*
G36*
G01X-17890Y2400D02*
Y1490D01*
X-14740D01*
Y2400D01*
X-17890D01*
G37*
G36*
G01Y4370D02*
Y3460D01*
X-14740D01*
Y4370D01*
X-17890D01*
G37*
G36*
G01Y6340D02*
Y5430D01*
X-14740D01*
Y6340D01*
X-17890D01*
G37*
G36*
G01Y8310D02*
Y7400D01*
X-14740D01*
Y8310D01*
X-17890D01*
G37*
G36*
G01Y10270D02*
Y9370D01*
X-14740D01*
Y10270D01*
X-17890D01*
G37*
G36*
G01Y12240D02*
Y11340D01*
X-14740D01*
Y12240D01*
X-17890D01*
G37*
G36*
G01Y14210D02*
Y13310D01*
X-14740D01*
Y14210D01*
X-17890D01*
G37*
G36*
G01X4783Y-41411D02*
X7818D01*
Y-47990D01*
X4783D01*
Y-41411D01*
G37*
G36*
G01X2550Y-1690D02*
X1990Y-2250D01*
Y-3660D01*
X3960D01*
Y-1690D01*
X2550D01*
G37*
G36*
G01Y1410D02*
X1990Y850D01*
Y-350D01*
X2550Y-910D01*
X3960D01*
Y1410D01*
X2550D01*
G37*
G36*
G01X5540Y430D02*
Y-470D01*
X8690D01*
Y430D01*
X5540D01*
G37*
G36*
G01Y-1540D02*
Y-2440D01*
X8690D01*
Y-1540D01*
X5540D01*
G37*
G36*
G01Y-3510D02*
Y-4410D01*
X8690D01*
Y-3510D01*
X5540D01*
G37*
G36*
G01X3810Y-5240D02*
Y-8390D01*
X4710D01*
Y-5240D01*
X3810D01*
G37*
G36*
G01X1840D02*
Y-8390D01*
X2740D01*
Y-5240D01*
X1840D01*
G37*
G36*
G01X-130D02*
Y-8390D01*
X780D01*
Y-5240D01*
X-130D01*
G37*
G36*
G01X2550Y4510D02*
X1990Y3950D01*
Y2750D01*
X2550Y2190D01*
X3960D01*
Y4510D01*
X2550D01*
G37*
G36*
G01Y7610D02*
X1990Y7050D01*
Y5850D01*
X2550Y5290D01*
X3960D01*
Y7610D01*
X2550D01*
G37*
G36*
G01Y10710D02*
X1990Y10150D01*
Y8950D01*
X2550Y8390D01*
X3960D01*
Y10710D01*
X2550D01*
G37*
G36*
G01X1990Y13460D02*
Y12050D01*
X2550Y11490D01*
X3960D01*
Y13460D01*
X1990D01*
G37*
G36*
G01X-130Y18190D02*
Y15040D01*
X780D01*
Y18190D01*
X-130D01*
G37*
G36*
G01X1840D02*
Y15040D01*
X2740D01*
Y18190D01*
X1840D01*
G37*
G36*
G01X3810D02*
Y15040D01*
X4710D01*
Y18190D01*
X3810D01*
G37*
G36*
G01X5540Y14210D02*
Y13310D01*
X8690D01*
Y14210D01*
X5540D01*
G37*
G36*
G01Y12240D02*
Y11340D01*
X8690D01*
Y12240D01*
X5540D01*
G37*
G36*
G01Y10270D02*
Y9370D01*
X8690D01*
Y10270D01*
X5540D01*
G37*
G36*
G01Y8310D02*
Y7400D01*
X8690D01*
Y8310D01*
X5540D01*
G37*
G36*
G01Y6340D02*
Y5430D01*
X8690D01*
Y6340D01*
X5540D01*
G37*
G36*
G01Y4370D02*
Y3460D01*
X8690D01*
Y4370D01*
X5540D01*
G37*
G36*
G01Y2400D02*
Y1490D01*
X8690D01*
Y2400D01*
X5540D01*
G37*
G54D10*
X-37188Y-5500D03*
X-48212D03*
G54D20*
X591Y-48637D03*
Y-44700D03*
Y-40763D03*
G54D11*
X-44099Y10300D03*
G54D12*
X-51777Y5576D03*
Y8725D03*
Y11875D03*
Y15024D03*
X-36423D03*
Y11875D03*
Y8725D03*
Y5576D03*
G54D21*
X-13468Y-25143D03*
X-11500D03*
X-9532D03*
Y-28057D03*
X-11500D03*
X-13468Y-27998D03*
X-1646Y-6813D03*
X-3615D03*
X-5585D03*
X-7554D03*
X-9522D03*
X-11492D03*
X-13460D03*
X-16313Y-3958D03*
Y-1990D03*
Y-21D03*
X-13460Y16613D03*
X-11492D03*
X-9522D03*
X-7554D03*
X-5585D03*
X-3615D03*
X-1646D03*
X-16313Y1947D03*
Y3916D03*
Y5884D03*
Y7853D03*
Y9821D03*
Y11790D03*
Y13758D03*
X7113Y-21D03*
Y-1990D03*
Y-3958D03*
X4260Y-6813D03*
X2292D03*
X322D03*
Y16613D03*
X2292D03*
X4260D03*
X7113Y13758D03*
Y11790D03*
Y9821D03*
Y7853D03*
Y5884D03*
Y3916D03*
Y1947D03*
G54D30*
X47249Y-32384D03*
X53351Y-21816D03*
G54D22*
X-4600Y4900D03*
G54D13*
X-54500Y12000D03*
X-43500Y5400D03*
X-21511Y-21089D03*
X-31600Y-1400D03*
X-36900Y-5500D03*
X-31000Y-13500D03*
X-25700Y-1100D03*
X-35900Y5700D03*
X-22800Y20400D03*
X-30800Y12600D03*
X-21300Y12800D03*
Y9000D03*
X-22300Y25900D03*
X-25100Y23200D03*
X-33807Y36793D03*
X-2400Y-29600D03*
X-8943Y-25143D03*
X-13600Y-37600D03*
X-7300Y-20600D03*
X-11600Y-14000D03*
X-15800Y-7702D03*
X-5585Y-10315D03*
X-10800Y-17700D03*
X900Y1100D03*
X-4600Y1400D03*
X-10800D03*
X-7200Y-16200D03*
X-3100D03*
X-6900Y21800D03*
X-1646Y20246D03*
X450Y8350D03*
X-10700Y8800D03*
X-4600Y8600D03*
X-14000Y20300D03*
X-8100Y35800D03*
X-14600Y31700D03*
X-6800Y39700D03*
X-7500Y26803D03*
X-17199Y26100D03*
X-6000Y46200D03*
X6300Y-44700D03*
X11100Y-45300D03*
X5729Y-25229D03*
X20200Y-24000D03*
X21800Y-37700D03*
X10100Y-33900D03*
X7800Y-17300D03*
X11853Y1947D03*
X7113Y-6113D03*
X2292Y-9900D03*
X7279Y9821D03*
X5700Y16613D03*
X23800Y-20600D03*
X31400Y-37700D03*
X25500Y-35900D03*
X41700Y-4700D03*
X36300Y-9300D03*
X28415Y900D03*
X31400Y7800D03*
X28800Y4500D03*
X44100Y7000D03*
X43700Y2300D03*
G54D23*
X-1053Y27300D03*
X4853D03*
G54D14*
X-21590Y-25500D03*
X-30329Y-29900D03*
Y-25900D03*
X-38229D03*
Y-22000D03*
Y-29800D03*
X-30329Y-22000D03*
X-38229Y-18100D03*
X-30329D03*
X-30429Y-13100D03*
X-26971Y8700D03*
Y12600D03*
X-20029Y46700D03*
X-129Y-54100D03*
X-9471Y-42000D03*
X-15890Y-32800D03*
X-12110D03*
X-17810Y-25500D03*
X-1829Y-33400D03*
X-13229Y-37600D03*
X-17771Y-21500D03*
X-1029Y33600D03*
X-6210Y46800D03*
X-9990D03*
X6171Y-33900D03*
X5729Y-25600D03*
X2029Y-29600D03*
X4271Y-17300D03*
Y-13400D03*
X15871Y4300D03*
G54D15*
X-26589Y-29900D03*
Y-25900D03*
X-34489D03*
X-21511Y-21500D03*
X-34489Y-22000D03*
Y-29800D03*
X-26589Y-22000D03*
X-34489Y-18100D03*
X-26589D03*
X-26689Y-13100D03*
X-30711Y8700D03*
Y12600D03*
X-13211Y-42000D03*
X-1711Y-29600D03*
X-9489Y-37600D03*
X-16289Y46700D03*
X3611Y-54100D03*
X9911Y-33900D03*
X1989Y-25600D03*
X1911Y-33400D03*
X8011Y-17300D03*
Y-13400D03*
X19611Y4300D03*
X2711Y33600D03*
G54D24*
X-15169Y38406D03*
X-13200D03*
X-11231D03*
Y26594D03*
X-13200D03*
X-15169D03*
G54D25*
X6301Y-44700D03*
G54D16*
X-22800Y16589D03*
X-6700Y-20211D03*
X-2600D03*
X17100Y20811D03*
X9900Y30911D03*
X23900Y-3711D03*
X30300Y15811D03*
G54D17*
X-22800Y20329D03*
X-6700Y-16471D03*
X-2600D03*
X17100Y17071D03*
X9900Y27171D03*
X23900Y29D03*
X35000Y12110D03*
Y15890D03*
X30300Y12071D03*
G54D26*
X12009Y-40763D03*
Y-44700D03*
Y-48637D03*
G54D18*
X-32900Y36793D03*
Y23407D03*
G54D27*
X9711Y-29900D03*
X6089Y-30609D03*
Y-29191D03*
G54D28*
X20065Y-338D03*
Y-5062D03*
X15735D03*
Y-338D03*
G54D19*
X-19106Y28563D03*
Y30531D03*
Y32500D03*
Y34469D03*
Y36437D03*
X-7294D03*
Y34469D03*
Y32500D03*
Y30531D03*
Y28563D03*
G54D29*
X25469Y12228D03*
X23500D03*
X21531D03*
Y15772D03*
X23500D03*
X25469D03*
M02*
