G04 ================== begin FILE IDENTIFICATION RECORD ==================*
G04 Layout Name:  C:/Users/Liber/Desktop/SmartRing-V1.03/version2/MainBoard.brd*
G04 Film Name:    SILKSCREEN_TOP*
G04 File Format:  Gerber RS274X*
G04 File Origin:  Cadence Allegro 16.3-p003*
G04 Origin Date:  Thu Mar 27 00:00:23 2014*
G04 *
G04 Layer:  PACKAGE GEOMETRY/SILKSCREEN_TOP*
G04 Layer:  MANUFACTURING/AUTOSILK_TOP*
G04 Layer:  BOARD GEOMETRY/SILKSCREEN_TOP*
G04 *
G04 Offset:    (0.00 0.00)*
G04 Mirror:    No*
G04 Mode:      Positive*
G04 Rotation:  0*
G04 FullContactRelief:  No*
G04 UndefLineWidth:     6.00*
G04 ================== end FILE IDENTIFICATION RECORD ====================*
%FSLAX35Y35*MOIN*%
%IR0*IPPOS*OFA0.00000B0.00000*MIA0B0*SFA1.00000B1.00000*%
%ADD10C,.006*%
G75*
%LPD*%
G75*
G36*
G01X-19990Y-3210D02*
Y-4710D01*
X-18990D01*
Y-3210D01*
X-19990D01*
G37*
G36*
G01X-14210Y19290D02*
Y20290D01*
X-12710D01*
Y19290D01*
X-14210D01*
G37*
G36*
G01X3510Y-9490D02*
Y-10490D01*
X5010D01*
Y-9490D01*
X3510D01*
G37*
G36*
G01X10790Y14510D02*
Y13010D01*
X9790D01*
Y14510D01*
X10790D01*
G37*
G54D10*
G01X-45013Y-17808D02*
X-45173Y-17683D01*
X-45360Y-17600D01*
X-45573D01*
X-45813Y-17725D01*
X-46000Y-17933D01*
X-46133Y-18183D01*
X-46240Y-18600D01*
X-46267Y-18975D01*
X-46213Y-19350D01*
X-46133Y-19600D01*
X-45973Y-19850D01*
X-45787Y-20017D01*
X-45600Y-20100D01*
X-45413D01*
X-45227Y-20017D01*
X-45067Y-19892D01*
X-44933Y-19725D01*
G01X-43400Y-20100D02*
Y-17600D01*
X-43720Y-18100D01*
G01Y-20100D02*
X-43080D01*
G01X-40880D02*
Y-17600D01*
X-41867Y-19392D01*
X-40533D01*
G01X-44913Y-24908D02*
X-45073Y-24783D01*
X-45260Y-24700D01*
X-45473D01*
X-45713Y-24825D01*
X-45900Y-25033D01*
X-46033Y-25283D01*
X-46140Y-25700D01*
X-46167Y-26075D01*
X-46113Y-26450D01*
X-46033Y-26700D01*
X-45873Y-26950D01*
X-45687Y-27117D01*
X-45500Y-27200D01*
X-45313D01*
X-45127Y-27117D01*
X-44967Y-26992D01*
X-44833Y-26825D01*
G01X-43300Y-27200D02*
Y-24700D01*
X-43620Y-25200D01*
G01Y-27200D02*
X-42980D01*
G01X-41687Y-26700D02*
X-41527Y-26992D01*
X-41313Y-27158D01*
X-41073Y-27200D01*
X-40860Y-27158D01*
X-40647Y-26950D01*
X-40513Y-26700D01*
X-40487Y-26450D01*
X-40540Y-26158D01*
X-40727Y-25950D01*
X-40913Y-25867D01*
X-41153D01*
G01X-40913D02*
X-40753Y-25742D01*
X-40620Y-25533D01*
X-40567Y-25283D01*
X-40620Y-25033D01*
X-40753Y-24825D01*
X-40993Y-24700D01*
X-41233Y-24742D01*
X-41473Y-24908D01*
G01X-44913Y-21408D02*
X-45073Y-21283D01*
X-45260Y-21200D01*
X-45473D01*
X-45713Y-21325D01*
X-45900Y-21533D01*
X-46033Y-21783D01*
X-46140Y-22200D01*
X-46167Y-22575D01*
X-46113Y-22950D01*
X-46033Y-23200D01*
X-45873Y-23450D01*
X-45687Y-23617D01*
X-45500Y-23700D01*
X-45313D01*
X-45127Y-23617D01*
X-44967Y-23492D01*
X-44833Y-23325D01*
G01X-43300Y-23700D02*
Y-21200D01*
X-43620Y-21700D01*
G01Y-23700D02*
X-42980D01*
G01X-41100D02*
Y-21200D01*
X-41420Y-21700D01*
G01Y-23700D02*
X-40780D01*
G01X-44913Y-29008D02*
X-45073Y-28883D01*
X-45260Y-28800D01*
X-45473D01*
X-45713Y-28925D01*
X-45900Y-29133D01*
X-46033Y-29383D01*
X-46140Y-29800D01*
X-46167Y-30175D01*
X-46113Y-30550D01*
X-46033Y-30800D01*
X-45873Y-31050D01*
X-45687Y-31217D01*
X-45500Y-31300D01*
X-45313D01*
X-45127Y-31217D01*
X-44967Y-31092D01*
X-44833Y-30925D01*
G01X-43300Y-31300D02*
Y-28800D01*
X-43620Y-29300D01*
G01Y-31300D02*
X-42980D01*
G01X-41607Y-29217D02*
X-41447Y-28967D01*
X-41260Y-28842D01*
X-41047Y-28800D01*
X-40780Y-28883D01*
X-40593Y-29092D01*
X-40540Y-29342D01*
X-40567Y-29592D01*
X-40673Y-29800D01*
X-41207Y-30217D01*
X-41447Y-30508D01*
X-41607Y-30925D01*
X-41660Y-31300D01*
X-40540D01*
G01X-49213Y-9308D02*
X-49373Y-9183D01*
X-49560Y-9100D01*
X-49773D01*
X-50013Y-9225D01*
X-50200Y-9433D01*
X-50333Y-9683D01*
X-50440Y-10100D01*
X-50467Y-10475D01*
X-50413Y-10850D01*
X-50333Y-11100D01*
X-50173Y-11350D01*
X-49987Y-11517D01*
X-49800Y-11600D01*
X-49613D01*
X-49427Y-11517D01*
X-49267Y-11392D01*
X-49133Y-11225D01*
G01X-47600Y-11600D02*
Y-9100D01*
X-47920Y-9600D01*
G01Y-11600D02*
X-47280D01*
G01X-45400D02*
X-45213Y-11558D01*
X-45000Y-11433D01*
X-44867Y-11225D01*
X-44813Y-10933D01*
X-44867Y-10642D01*
X-45027Y-10392D01*
X-45267Y-10267D01*
X-45533D01*
X-45693Y-10183D01*
X-45827Y-9975D01*
X-45880Y-9683D01*
X-45800Y-9392D01*
X-45613Y-9183D01*
X-45400Y-9100D01*
X-45187Y-9183D01*
X-45000Y-9392D01*
X-44920Y-9683D01*
X-44973Y-9975D01*
X-45107Y-10183D01*
X-45267Y-10267D01*
X-45533D01*
X-45773Y-10392D01*
X-45933Y-10642D01*
X-45987Y-10933D01*
X-45933Y-11225D01*
X-45800Y-11433D01*
X-45587Y-11558D01*
X-45400Y-11600D01*
G01X-50187Y21900D02*
Y20108D01*
X-50080Y19733D01*
X-49867Y19483D01*
X-49600Y19400D01*
X-49333Y19483D01*
X-49120Y19733D01*
X-49013Y20108D01*
Y21900D01*
G01X-47987Y19775D02*
X-47827Y19567D01*
X-47640Y19442D01*
X-47400Y19400D01*
X-47160Y19483D01*
X-46973Y19650D01*
X-46840Y19942D01*
X-46813Y20275D01*
X-46867Y20608D01*
X-47000Y20817D01*
X-47187Y20983D01*
X-47373Y21025D01*
X-47560Y20983D01*
X-47800Y20817D01*
X-47720Y21900D01*
X-47000D01*
G01X-38000Y35413D02*
X-40500D01*
Y35947D01*
X-40375Y36160D01*
X-40208Y36320D01*
X-39958Y36453D01*
X-39667Y36560D01*
X-39250Y36587D01*
X-38833Y36560D01*
X-38542Y36453D01*
X-38292Y36320D01*
X-38125Y36160D01*
X-38000Y35947D01*
Y35413D01*
G01Y38200D02*
X-40500D01*
X-40000Y37880D01*
G01X-38000D02*
Y38520D01*
G01X-20413Y-40708D02*
X-20573Y-40583D01*
X-20760Y-40500D01*
X-20973D01*
X-21213Y-40625D01*
X-21400Y-40833D01*
X-21533Y-41083D01*
X-21640Y-41500D01*
X-21667Y-41875D01*
X-21613Y-42250D01*
X-21533Y-42500D01*
X-21373Y-42750D01*
X-21187Y-42917D01*
X-21000Y-43000D01*
X-20813D01*
X-20627Y-42917D01*
X-20467Y-42792D01*
X-20333Y-42625D01*
G01X-18800Y-43000D02*
Y-40500D01*
X-19120Y-41000D01*
G01Y-43000D02*
X-18480D01*
G01X-17107Y-41958D02*
X-16920Y-41667D01*
X-16760Y-41500D01*
X-16547Y-41417D01*
X-16360Y-41500D01*
X-16227Y-41667D01*
X-16120Y-41917D01*
X-16093Y-42208D01*
X-16120Y-42458D01*
X-16227Y-42708D01*
X-16387Y-42917D01*
X-16573Y-43000D01*
X-16787Y-42917D01*
X-16973Y-42667D01*
X-17080Y-42292D01*
X-17107Y-41875D01*
X-17053Y-41333D01*
X-16973Y-41042D01*
X-16840Y-40750D01*
X-16653Y-40542D01*
X-16467Y-40500D01*
X-16280Y-40583D01*
X-16147Y-40792D01*
G01X-29533Y-53300D02*
X-29400Y-53550D01*
X-29240Y-53717D01*
X-29053Y-53800D01*
X-28840Y-53717D01*
X-28680Y-53550D01*
X-28520Y-53300D01*
X-28467Y-52967D01*
Y-51300D01*
G01X-27307Y-52758D02*
X-27120Y-52467D01*
X-26960Y-52300D01*
X-26747Y-52217D01*
X-26560Y-52300D01*
X-26427Y-52467D01*
X-26320Y-52717D01*
X-26293Y-53008D01*
X-26320Y-53258D01*
X-26427Y-53508D01*
X-26587Y-53717D01*
X-26773Y-53800D01*
X-26987Y-53717D01*
X-27173Y-53467D01*
X-27280Y-53092D01*
X-27307Y-52675D01*
X-27253Y-52133D01*
X-27173Y-51842D01*
X-27040Y-51550D01*
X-26853Y-51342D01*
X-26667Y-51300D01*
X-26480Y-51383D01*
X-26347Y-51592D01*
G01X-20133Y-28000D02*
Y-30500D01*
X-19067D01*
G01X-17987Y-30000D02*
X-17827Y-30292D01*
X-17613Y-30458D01*
X-17373Y-30500D01*
X-17160Y-30458D01*
X-16947Y-30250D01*
X-16813Y-30000D01*
X-16787Y-29750D01*
X-16840Y-29458D01*
X-17027Y-29250D01*
X-17213Y-29167D01*
X-17453D01*
G01X-17213D02*
X-17053Y-29042D01*
X-16920Y-28833D01*
X-16867Y-28583D01*
X-16920Y-28333D01*
X-17053Y-28125D01*
X-17293Y-28000D01*
X-17533Y-28042D01*
X-17773Y-28208D01*
G01X-27813Y-32708D02*
X-27973Y-32583D01*
X-28160Y-32500D01*
X-28373D01*
X-28613Y-32625D01*
X-28800Y-32833D01*
X-28933Y-33083D01*
X-29040Y-33500D01*
X-29067Y-33875D01*
X-29013Y-34250D01*
X-28933Y-34500D01*
X-28773Y-34750D01*
X-28587Y-34917D01*
X-28400Y-35000D01*
X-28213D01*
X-28027Y-34917D01*
X-27867Y-34792D01*
X-27733Y-34625D01*
G01X-26253Y-35000D02*
X-26200Y-34458D01*
X-26120Y-34000D01*
X-26013Y-33583D01*
X-25880Y-33125D01*
X-25667Y-32500D01*
X-26733D01*
G01X-25713Y-24808D02*
X-25873Y-24683D01*
X-26060Y-24600D01*
X-26273D01*
X-26513Y-24725D01*
X-26700Y-24933D01*
X-26833Y-25183D01*
X-26940Y-25600D01*
X-26967Y-25975D01*
X-26913Y-26350D01*
X-26833Y-26600D01*
X-26673Y-26850D01*
X-26487Y-27017D01*
X-26300Y-27100D01*
X-26113D01*
X-25927Y-27017D01*
X-25767Y-26892D01*
X-25633Y-26725D01*
G01X-24100Y-27100D02*
X-23913Y-27058D01*
X-23700Y-26933D01*
X-23567Y-26725D01*
X-23513Y-26433D01*
X-23567Y-26142D01*
X-23727Y-25892D01*
X-23967Y-25767D01*
X-24233D01*
X-24393Y-25683D01*
X-24527Y-25475D01*
X-24580Y-25183D01*
X-24500Y-24892D01*
X-24313Y-24683D01*
X-24100Y-24600D01*
X-23887Y-24683D01*
X-23700Y-24892D01*
X-23620Y-25183D01*
X-23673Y-25475D01*
X-23807Y-25683D01*
X-23967Y-25767D01*
X-24233D01*
X-24473Y-25892D01*
X-24633Y-26142D01*
X-24687Y-26433D01*
X-24633Y-26725D01*
X-24500Y-26933D01*
X-24287Y-27058D01*
X-24100Y-27100D01*
G01X-20313Y-36608D02*
X-20473Y-36483D01*
X-20660Y-36400D01*
X-20873D01*
X-21113Y-36525D01*
X-21300Y-36733D01*
X-21433Y-36983D01*
X-21540Y-37400D01*
X-21567Y-37775D01*
X-21513Y-38150D01*
X-21433Y-38400D01*
X-21273Y-38650D01*
X-21087Y-38817D01*
X-20900Y-38900D01*
X-20713D01*
X-20527Y-38817D01*
X-20367Y-38692D01*
X-20233Y-38525D01*
G01X-18700Y-38900D02*
Y-36400D01*
X-19020Y-36900D01*
G01Y-38900D02*
X-18380D01*
G01X-16553D02*
X-16500Y-38358D01*
X-16420Y-37900D01*
X-16313Y-37483D01*
X-16180Y-37025D01*
X-15967Y-36400D01*
X-17033D01*
G01X-25513Y-20808D02*
X-25673Y-20683D01*
X-25860Y-20600D01*
X-26073D01*
X-26313Y-20725D01*
X-26500Y-20933D01*
X-26633Y-21183D01*
X-26740Y-21600D01*
X-26767Y-21975D01*
X-26713Y-22350D01*
X-26633Y-22600D01*
X-26473Y-22850D01*
X-26287Y-23017D01*
X-26100Y-23100D01*
X-25913D01*
X-25727Y-23017D01*
X-25567Y-22892D01*
X-25433Y-22725D01*
G01X-24353Y-22808D02*
X-24167Y-23017D01*
X-23953Y-23100D01*
X-23740Y-23017D01*
X-23553Y-22767D01*
X-23420Y-22392D01*
X-23367Y-22017D01*
Y-21558D01*
X-23420Y-21183D01*
X-23553Y-20850D01*
X-23713Y-20683D01*
X-23900Y-20600D01*
X-24113Y-20683D01*
X-24273Y-20850D01*
X-24380Y-21100D01*
X-24433Y-21433D01*
X-24380Y-21725D01*
X-24247Y-22017D01*
X-24087Y-22183D01*
X-23900Y-22225D01*
X-23687Y-22142D01*
X-23527Y-21933D01*
X-23367Y-21558D01*
G01X-23413Y-16808D02*
X-23573Y-16683D01*
X-23760Y-16600D01*
X-23973D01*
X-24213Y-16725D01*
X-24400Y-16933D01*
X-24533Y-17183D01*
X-24640Y-17600D01*
X-24667Y-17975D01*
X-24613Y-18350D01*
X-24533Y-18600D01*
X-24373Y-18850D01*
X-24187Y-19017D01*
X-24000Y-19100D01*
X-23813D01*
X-23627Y-19017D01*
X-23467Y-18892D01*
X-23333Y-18725D01*
G01X-21800Y-19100D02*
Y-16600D01*
X-22120Y-17100D01*
G01Y-19100D02*
X-21480D01*
G01X-19600Y-16600D02*
X-19813Y-16683D01*
X-19973Y-16892D01*
X-20080Y-17142D01*
X-20160Y-17475D01*
X-20187Y-17850D01*
X-20160Y-18225D01*
X-20080Y-18558D01*
X-19973Y-18808D01*
X-19813Y-19017D01*
X-19600Y-19100D01*
X-19387Y-19017D01*
X-19227Y-18808D01*
X-19120Y-18558D01*
X-19040Y-18225D01*
X-19013Y-17850D01*
X-19040Y-17475D01*
X-19120Y-17142D01*
X-19227Y-16892D01*
X-19387Y-16683D01*
X-19600Y-16600D01*
G01X-23013Y-11708D02*
X-23173Y-11583D01*
X-23360Y-11500D01*
X-23573D01*
X-23813Y-11625D01*
X-24000Y-11833D01*
X-24133Y-12083D01*
X-24240Y-12500D01*
X-24267Y-12875D01*
X-24213Y-13250D01*
X-24133Y-13500D01*
X-23973Y-13750D01*
X-23787Y-13917D01*
X-23600Y-14000D01*
X-23413D01*
X-23227Y-13917D01*
X-23067Y-13792D01*
X-22933Y-13625D01*
G01X-21400Y-14000D02*
Y-11500D01*
X-21720Y-12000D01*
G01Y-14000D02*
X-21080D01*
G01X-19653Y-13708D02*
X-19467Y-13917D01*
X-19253Y-14000D01*
X-19040Y-13917D01*
X-18853Y-13667D01*
X-18720Y-13292D01*
X-18667Y-12917D01*
Y-12458D01*
X-18720Y-12083D01*
X-18853Y-11750D01*
X-19013Y-11583D01*
X-19200Y-11500D01*
X-19413Y-11583D01*
X-19573Y-11750D01*
X-19680Y-12000D01*
X-19733Y-12333D01*
X-19680Y-12625D01*
X-19547Y-12917D01*
X-19387Y-13083D01*
X-19200Y-13125D01*
X-18987Y-13042D01*
X-18827Y-12833D01*
X-18667Y-12458D01*
G01X-32133Y4000D02*
Y6500D01*
X-31467D01*
X-31253Y6375D01*
X-31120Y6208D01*
X-31067Y5875D01*
X-31120Y5542D01*
X-31280Y5333D01*
X-31467Y5208D01*
X-32133D01*
G01X-31467D02*
X-31067Y4000D01*
G01X-29080D02*
Y6500D01*
X-30067Y4708D01*
X-28733D01*
G01X-31533Y14700D02*
Y17200D01*
X-30867D01*
X-30653Y17075D01*
X-30520Y16908D01*
X-30467Y16575D01*
X-30520Y16242D01*
X-30680Y16033D01*
X-30867Y15908D01*
X-31533D01*
G01X-30867D02*
X-30467Y14700D01*
G01X-29387Y15200D02*
X-29227Y14908D01*
X-29013Y14742D01*
X-28773Y14700D01*
X-28560Y14742D01*
X-28347Y14950D01*
X-28213Y15200D01*
X-28187Y15450D01*
X-28240Y15742D01*
X-28427Y15950D01*
X-28613Y16033D01*
X-28853D01*
G01X-28613D02*
X-28453Y16158D01*
X-28320Y16367D01*
X-28267Y16617D01*
X-28320Y16867D01*
X-28453Y17075D01*
X-28693Y17200D01*
X-28933Y17158D01*
X-29173Y16992D01*
G01X-19713Y22692D02*
X-19873Y22817D01*
X-20060Y22900D01*
X-20273D01*
X-20513Y22775D01*
X-20700Y22567D01*
X-20833Y22317D01*
X-20940Y21900D01*
X-20967Y21525D01*
X-20913Y21150D01*
X-20833Y20900D01*
X-20673Y20650D01*
X-20487Y20483D01*
X-20300Y20400D01*
X-20113D01*
X-19927Y20483D01*
X-19767Y20608D01*
X-19633Y20775D01*
G01X-18687Y20900D02*
X-18527Y20608D01*
X-18313Y20442D01*
X-18073Y20400D01*
X-17860Y20442D01*
X-17647Y20650D01*
X-17513Y20900D01*
X-17487Y21150D01*
X-17540Y21442D01*
X-17727Y21650D01*
X-17913Y21733D01*
X-18153D01*
G01X-17913D02*
X-17753Y21858D01*
X-17620Y22067D01*
X-17567Y22317D01*
X-17620Y22567D01*
X-17753Y22775D01*
X-17993Y22900D01*
X-18233Y22858D01*
X-18473Y22692D01*
G01X-20987Y17800D02*
Y16008D01*
X-20880Y15633D01*
X-20667Y15383D01*
X-20400Y15300D01*
X-20133Y15383D01*
X-19920Y15633D01*
X-19813Y16008D01*
Y17800D01*
G01X-18200Y15300D02*
Y17800D01*
X-18520Y17300D01*
G01Y15300D02*
X-17880D01*
G01X-21647Y51400D02*
Y56400D01*
X-20000Y52233D01*
X-18353Y56400D01*
Y51400D01*
G01X-13760D02*
Y54733D01*
G01Y54150D02*
X-14013Y54483D01*
X-14393Y54650D01*
X-14837Y54733D01*
X-15280Y54567D01*
X-15660Y54233D01*
X-15913Y53733D01*
X-16040Y53067D01*
X-15913Y52400D01*
X-15660Y51900D01*
X-15280Y51567D01*
X-14837Y51400D01*
X-14393Y51483D01*
X-14013Y51733D01*
X-13760Y52067D01*
G01X-9800Y54733D02*
Y51400D01*
G01Y56067D02*
X-9927Y56150D01*
Y56317D01*
X-9800Y56400D01*
X-9673Y56317D01*
Y56150D01*
X-9800Y56067D01*
G01X-5777Y51400D02*
Y54733D01*
G01Y53900D02*
X-5523Y54317D01*
X-5143Y54650D01*
X-4637Y54733D01*
X-4193Y54650D01*
X-3813Y54317D01*
X-3623Y53733D01*
Y51400D01*
G01X907Y54067D02*
X1160Y54317D01*
X1350Y54733D01*
X1477Y55317D01*
X1350Y55817D01*
X1097Y56150D01*
X653Y56400D01*
X-1057D01*
Y51400D01*
X1033D01*
X1477Y51733D01*
X1730Y52233D01*
X1857Y52817D01*
X1730Y53400D01*
X1350Y53900D01*
X907Y54067D01*
X-1057D01*
G01X5500Y51400D02*
X5120Y51483D01*
X4740Y51817D01*
X4487Y52400D01*
X4360Y53067D01*
X4487Y53733D01*
X4740Y54317D01*
X5120Y54650D01*
X5500Y54733D01*
X5880Y54650D01*
X6260Y54317D01*
X6513Y53733D01*
X6577Y53067D01*
X6513Y52400D01*
X6260Y51817D01*
X5880Y51483D01*
X5500Y51400D01*
G01X11740D02*
Y54733D01*
G01Y54150D02*
X11487Y54483D01*
X11107Y54650D01*
X10663Y54733D01*
X10220Y54567D01*
X9840Y54233D01*
X9587Y53733D01*
X9460Y53067D01*
X9587Y52400D01*
X9840Y51900D01*
X10220Y51567D01*
X10663Y51400D01*
X11107Y51483D01*
X11487Y51733D01*
X11740Y52067D01*
G01X14813Y51400D02*
Y54733D01*
G01Y54067D02*
X15130Y54400D01*
X15447Y54650D01*
X15890Y54733D01*
X16207Y54650D01*
X16587Y54400D01*
G01X21940Y56400D02*
Y51400D01*
G01Y52150D02*
X21687Y51733D01*
X21307Y51483D01*
X20863Y51400D01*
X20357Y51567D01*
X19977Y51983D01*
X19723Y52483D01*
X19660Y53067D01*
X19723Y53650D01*
X19977Y54150D01*
X20357Y54567D01*
X20863Y54733D01*
X21307Y54650D01*
X21623Y54483D01*
X21940Y54150D01*
G01X-22833Y41700D02*
Y44200D01*
X-22167D01*
X-21953Y44075D01*
X-21820Y43908D01*
X-21767Y43575D01*
X-21820Y43242D01*
X-21980Y43033D01*
X-22167Y42908D01*
X-22833D01*
G01X-22167D02*
X-21767Y41700D01*
G01X-20100D02*
Y44200D01*
X-20420Y43700D01*
G01Y41700D02*
X-19780D01*
G01X-2513Y-56608D02*
X-2673Y-56483D01*
X-2860Y-56400D01*
X-3073D01*
X-3313Y-56525D01*
X-3500Y-56733D01*
X-3633Y-56983D01*
X-3740Y-57400D01*
X-3767Y-57775D01*
X-3713Y-58150D01*
X-3633Y-58400D01*
X-3473Y-58650D01*
X-3287Y-58817D01*
X-3100Y-58900D01*
X-2913D01*
X-2727Y-58817D01*
X-2567Y-58692D01*
X-2433Y-58525D01*
G01X-1407Y-56817D02*
X-1247Y-56567D01*
X-1060Y-56442D01*
X-847Y-56400D01*
X-580Y-56483D01*
X-393Y-56692D01*
X-340Y-56942D01*
X-367Y-57192D01*
X-473Y-57400D01*
X-1007Y-57817D01*
X-1247Y-58108D01*
X-1407Y-58525D01*
X-1460Y-58900D01*
X-340D01*
G01X1300Y-56400D02*
X1087Y-56483D01*
X927Y-56692D01*
X820Y-56942D01*
X740Y-57275D01*
X713Y-57650D01*
X740Y-58025D01*
X820Y-58358D01*
X927Y-58608D01*
X1087Y-58817D01*
X1300Y-58900D01*
X1513Y-58817D01*
X1673Y-58608D01*
X1780Y-58358D01*
X1860Y-58025D01*
X1887Y-57650D01*
X1860Y-57275D01*
X1780Y-56942D01*
X1673Y-56692D01*
X1513Y-56483D01*
X1300Y-56400D01*
G01X-5833Y-26500D02*
Y-24000D01*
X-5167D01*
X-4953Y-24125D01*
X-4820Y-24292D01*
X-4767Y-24625D01*
X-4820Y-24958D01*
X-4980Y-25167D01*
X-5167Y-25292D01*
X-5833D01*
G01X-5167D02*
X-4767Y-26500D01*
G01X-3100D02*
Y-24000D01*
X-3420Y-24500D01*
G01Y-26500D02*
X-2780D01*
G01X-900Y-24000D02*
X-1113Y-24083D01*
X-1273Y-24292D01*
X-1380Y-24542D01*
X-1460Y-24875D01*
X-1487Y-25250D01*
X-1460Y-25625D01*
X-1380Y-25958D01*
X-1273Y-26208D01*
X-1113Y-26417D01*
X-900Y-26500D01*
X-687Y-26417D01*
X-527Y-26208D01*
X-420Y-25958D01*
X-340Y-25625D01*
X-313Y-25250D01*
X-340Y-24875D01*
X-420Y-24542D01*
X-527Y-24292D01*
X-687Y-24083D01*
X-900Y-24000D01*
G01X-9533Y-32500D02*
Y-35000D01*
X-8467D01*
G01X-7307Y-32917D02*
X-7147Y-32667D01*
X-6960Y-32542D01*
X-6747Y-32500D01*
X-6480Y-32583D01*
X-6293Y-32792D01*
X-6240Y-33042D01*
X-6267Y-33292D01*
X-6373Y-33500D01*
X-6907Y-33917D01*
X-7147Y-34208D01*
X-7307Y-34625D01*
X-7360Y-35000D01*
X-6240D01*
G01X-1613Y-35608D02*
X-1773Y-35483D01*
X-1960Y-35400D01*
X-2173D01*
X-2413Y-35525D01*
X-2600Y-35733D01*
X-2733Y-35983D01*
X-2840Y-36400D01*
X-2867Y-36775D01*
X-2813Y-37150D01*
X-2733Y-37400D01*
X-2573Y-37650D01*
X-2387Y-37817D01*
X-2200Y-37900D01*
X-2013D01*
X-1827Y-37817D01*
X-1667Y-37692D01*
X-1533Y-37525D01*
G01X-507Y-35817D02*
X-347Y-35567D01*
X-160Y-35442D01*
X53Y-35400D01*
X320Y-35483D01*
X507Y-35692D01*
X560Y-35942D01*
X533Y-36192D01*
X427Y-36400D01*
X-107Y-36817D01*
X-347Y-37108D01*
X-507Y-37525D01*
X-560Y-37900D01*
X560D01*
G01X2200D02*
Y-35400D01*
X1880Y-35900D01*
G01Y-37900D02*
X2520D01*
G01X-14513Y-20608D02*
X-14673Y-20483D01*
X-14860Y-20400D01*
X-15073D01*
X-15313Y-20525D01*
X-15500Y-20733D01*
X-15633Y-20983D01*
X-15740Y-21400D01*
X-15767Y-21775D01*
X-15713Y-22150D01*
X-15633Y-22400D01*
X-15473Y-22650D01*
X-15287Y-22817D01*
X-15100Y-22900D01*
X-14913D01*
X-14727Y-22817D01*
X-14567Y-22692D01*
X-14433Y-22525D01*
G01X-12900Y-22900D02*
Y-20400D01*
X-13220Y-20900D01*
G01Y-22900D02*
X-12580D01*
G01X-11287Y-22525D02*
X-11127Y-22733D01*
X-10940Y-22858D01*
X-10700Y-22900D01*
X-10460Y-22817D01*
X-10273Y-22650D01*
X-10140Y-22358D01*
X-10113Y-22025D01*
X-10167Y-21692D01*
X-10300Y-21483D01*
X-10487Y-21317D01*
X-10673Y-21275D01*
X-10860Y-21317D01*
X-11100Y-21483D01*
X-11020Y-20400D01*
X-10300D01*
G01X-7987Y-29100D02*
Y-30892D01*
X-7880Y-31267D01*
X-7667Y-31517D01*
X-7400Y-31600D01*
X-7133Y-31517D01*
X-6920Y-31267D01*
X-6813Y-30892D01*
Y-29100D01*
G01X-5707Y-29517D02*
X-5547Y-29267D01*
X-5360Y-29142D01*
X-5147Y-29100D01*
X-4880Y-29183D01*
X-4693Y-29392D01*
X-4640Y-29642D01*
X-4667Y-29892D01*
X-4773Y-30100D01*
X-5307Y-30517D01*
X-5547Y-30808D01*
X-5707Y-31225D01*
X-5760Y-31600D01*
X-4640D01*
G01X-8233Y-15000D02*
Y-12500D01*
X-7567D01*
X-7353Y-12625D01*
X-7220Y-12792D01*
X-7167Y-13125D01*
X-7220Y-13458D01*
X-7380Y-13667D01*
X-7567Y-13792D01*
X-8233D01*
G01X-7567D02*
X-7167Y-15000D01*
G01X-5553D02*
X-5500Y-14458D01*
X-5420Y-14000D01*
X-5313Y-13583D01*
X-5180Y-13125D01*
X-4967Y-12500D01*
X-6033D01*
G01X-2233Y-14400D02*
Y-11900D01*
X-1567D01*
X-1353Y-12025D01*
X-1220Y-12192D01*
X-1167Y-12525D01*
X-1220Y-12858D01*
X-1380Y-13067D01*
X-1567Y-13192D01*
X-2233D01*
G01X-1567D02*
X-1167Y-14400D01*
G01X-7Y-13358D02*
X180Y-13067D01*
X340Y-12900D01*
X553Y-12817D01*
X740Y-12900D01*
X873Y-13067D01*
X980Y-13317D01*
X1007Y-13608D01*
X980Y-13858D01*
X873Y-14108D01*
X713Y-14317D01*
X527Y-14400D01*
X313Y-14317D01*
X127Y-14067D01*
X20Y-13692D01*
X-7Y-13275D01*
X47Y-12733D01*
X127Y-12442D01*
X260Y-12150D01*
X447Y-11942D01*
X633Y-11900D01*
X820Y-11983D01*
X953Y-12192D01*
G01X-16687Y14617D02*
X-15513Y16450D01*
G01X-16100Y16783D02*
Y14283D01*
G01X-15513Y14617D02*
X-16687Y16450D01*
G01X-16900Y15533D02*
X-15300D01*
G01X-19287Y13117D02*
X-18113Y14950D01*
G01X-18700Y15283D02*
Y12783D01*
G01X-18113Y13117D02*
X-19287Y14950D01*
G01X-19500Y14033D02*
X-17900D01*
G01X387Y38845D02*
X227Y38970D01*
X40Y39053D01*
X-173D01*
X-413Y38928D01*
X-600Y38720D01*
X-733Y38470D01*
X-840Y38053D01*
X-867Y37678D01*
X-813Y37303D01*
X-733Y37053D01*
X-573Y36803D01*
X-387Y36636D01*
X-200Y36553D01*
X-13D01*
X173Y36636D01*
X333Y36761D01*
X467Y36928D01*
G01X2000Y36553D02*
Y39053D01*
X1680Y38553D01*
G01Y36553D02*
X2320D01*
G01X-19387Y42300D02*
Y40508D01*
X-19280Y40133D01*
X-19067Y39883D01*
X-18800Y39800D01*
X-18533Y39883D01*
X-18320Y40133D01*
X-18213Y40508D01*
Y42300D01*
G01X-17187Y40300D02*
X-17027Y40008D01*
X-16813Y39842D01*
X-16573Y39800D01*
X-16360Y39842D01*
X-16147Y40050D01*
X-16013Y40300D01*
X-15987Y40550D01*
X-16040Y40842D01*
X-16227Y41050D01*
X-16413Y41133D01*
X-16653D01*
G01X-16413D02*
X-16253Y41258D01*
X-16120Y41467D01*
X-16067Y41717D01*
X-16120Y41967D01*
X-16253Y42175D01*
X-16493Y42300D01*
X-16733Y42258D01*
X-16973Y42092D01*
G01X-3833Y44500D02*
Y42000D01*
X-2767D01*
G01X-567D02*
X-1633D01*
Y44500D01*
X-567D01*
G01X-993Y43292D02*
X-1633D01*
G01X513Y42000D02*
Y44500D01*
X1047D01*
X1260Y44375D01*
X1420Y44208D01*
X1553Y43958D01*
X1660Y43667D01*
X1687Y43250D01*
X1660Y42833D01*
X1553Y42542D01*
X1420Y42292D01*
X1260Y42125D01*
X1047Y42000D01*
X513D01*
G01X3300D02*
Y44500D01*
X2980Y44000D01*
G01Y42000D02*
X3620D01*
G01X3900Y-60400D02*
Y-62900D01*
G01X3287Y-60400D02*
X4513D01*
G01X5567Y-62900D02*
Y-60400D01*
X6207D01*
X6420Y-60525D01*
X6580Y-60817D01*
X6633Y-61150D01*
X6580Y-61483D01*
X6447Y-61733D01*
X6207Y-61858D01*
X5567D01*
G01X8300Y-62900D02*
Y-60400D01*
X7980Y-60900D01*
G01Y-62900D02*
X8620D01*
G01X18700Y-55200D02*
Y-57700D01*
G01X18087Y-55200D02*
X19313D01*
G01X20367Y-57700D02*
Y-55200D01*
X21007D01*
X21220Y-55325D01*
X21380Y-55617D01*
X21433Y-55950D01*
X21380Y-56283D01*
X21247Y-56533D01*
X21007Y-56658D01*
X20367D01*
G01X22593Y-55617D02*
X22753Y-55367D01*
X22940Y-55242D01*
X23153Y-55200D01*
X23420Y-55283D01*
X23607Y-55492D01*
X23660Y-55742D01*
X23633Y-55992D01*
X23527Y-56200D01*
X22993Y-56617D01*
X22753Y-56908D01*
X22593Y-57325D01*
X22540Y-57700D01*
X23660D01*
G01X4613Y-39247D02*
Y-41039D01*
X4720Y-41414D01*
X4933Y-41664D01*
X5200Y-41747D01*
X5467Y-41664D01*
X5680Y-41414D01*
X5787Y-41039D01*
Y-39247D01*
G01X7720Y-41747D02*
Y-39247D01*
X6733Y-41039D01*
X8067D01*
G01X12000Y-31900D02*
X11787Y-31858D01*
X11600Y-31692D01*
X11440Y-31442D01*
X11333Y-31150D01*
X11280Y-30817D01*
Y-30483D01*
X11333Y-30150D01*
X11440Y-29858D01*
X11600Y-29608D01*
X11787Y-29442D01*
X12000Y-29400D01*
X12213Y-29442D01*
X12400Y-29608D01*
X12560Y-29858D01*
X12667Y-30150D01*
X12720Y-30483D01*
Y-30817D01*
X12667Y-31150D01*
X12560Y-31442D01*
X12400Y-31692D01*
X12213Y-31858D01*
X12000Y-31900D01*
G01X12213Y-31233D02*
X12533Y-31900D01*
G01X14200D02*
Y-29400D01*
X13880Y-29900D01*
G01Y-31900D02*
X14520D01*
G01X13433Y-34647D02*
X15933D01*
Y-35313D01*
X15808Y-35527D01*
X15641Y-35660D01*
X15308Y-35713D01*
X14975Y-35660D01*
X14766Y-35500D01*
X14641Y-35313D01*
Y-34647D01*
G01Y-35313D02*
X13433Y-35713D01*
G01X13725Y-36927D02*
X13516Y-37113D01*
X13433Y-37327D01*
X13516Y-37540D01*
X13766Y-37727D01*
X14141Y-37860D01*
X14516Y-37913D01*
X14975D01*
X15350Y-37860D01*
X15683Y-37727D01*
X15850Y-37567D01*
X15933Y-37380D01*
X15850Y-37167D01*
X15683Y-37007D01*
X15433Y-36900D01*
X15100Y-36847D01*
X14808Y-36900D01*
X14516Y-37033D01*
X14350Y-37193D01*
X14308Y-37380D01*
X14391Y-37593D01*
X14600Y-37753D01*
X14975Y-37913D01*
G01X3767Y-22000D02*
Y-19500D01*
X4433D01*
X4647Y-19625D01*
X4780Y-19792D01*
X4833Y-20125D01*
X4780Y-20458D01*
X4620Y-20667D01*
X4433Y-20792D01*
X3767D01*
G01X4433D02*
X4833Y-22000D01*
G01X6500D02*
X6687Y-21958D01*
X6900Y-21833D01*
X7033Y-21625D01*
X7087Y-21333D01*
X7033Y-21042D01*
X6873Y-20792D01*
X6633Y-20667D01*
X6367D01*
X6207Y-20583D01*
X6073Y-20375D01*
X6020Y-20083D01*
X6100Y-19792D01*
X6287Y-19583D01*
X6500Y-19500D01*
X6713Y-19583D01*
X6900Y-19792D01*
X6980Y-20083D01*
X6927Y-20375D01*
X6793Y-20583D01*
X6633Y-20667D01*
X6367D01*
X6127Y-20792D01*
X5967Y-21042D01*
X5913Y-21333D01*
X5967Y-21625D01*
X6100Y-21833D01*
X6313Y-21958D01*
X6500Y-22000D01*
G01X8367Y-26800D02*
Y-24300D01*
X9033D01*
X9247Y-24425D01*
X9380Y-24592D01*
X9433Y-24925D01*
X9380Y-25258D01*
X9220Y-25467D01*
X9033Y-25592D01*
X8367D01*
G01X9033D02*
X9433Y-26800D01*
G01X11100D02*
Y-24300D01*
X10780Y-24800D01*
G01Y-26800D02*
X11420D01*
G01X13300D02*
Y-24300D01*
X12980Y-24800D01*
G01Y-26800D02*
X13620D01*
G01X12687Y-15155D02*
X12527Y-15030D01*
X12340Y-14947D01*
X12127D01*
X11887Y-15072D01*
X11700Y-15280D01*
X11567Y-15530D01*
X11460Y-15947D01*
X11433Y-16322D01*
X11487Y-16697D01*
X11567Y-16947D01*
X11727Y-17197D01*
X11913Y-17364D01*
X12100Y-17447D01*
X12287D01*
X12473Y-17364D01*
X12633Y-17239D01*
X12767Y-17072D01*
G01X13793Y-16405D02*
X13980Y-16114D01*
X14140Y-15947D01*
X14353Y-15864D01*
X14540Y-15947D01*
X14673Y-16114D01*
X14780Y-16364D01*
X14807Y-16655D01*
X14780Y-16905D01*
X14673Y-17155D01*
X14513Y-17364D01*
X14327Y-17447D01*
X14113Y-17364D01*
X13927Y-17114D01*
X13820Y-16739D01*
X13793Y-16322D01*
X13847Y-15780D01*
X13927Y-15489D01*
X14060Y-15197D01*
X14247Y-14989D01*
X14433Y-14947D01*
X14620Y-15030D01*
X14753Y-15239D01*
G01X14700Y-10400D02*
Y-9275D01*
X14167Y-7900D01*
G01X15233D02*
X14700Y-9275D01*
G01X16393Y-8317D02*
X16553Y-8067D01*
X16740Y-7942D01*
X16953Y-7900D01*
X17220Y-7983D01*
X17407Y-8192D01*
X17460Y-8442D01*
X17433Y-8692D01*
X17327Y-8900D01*
X16793Y-9317D01*
X16553Y-9608D01*
X16393Y-10025D01*
X16340Y-10400D01*
X17460D01*
G01X14500Y16167D02*
X12000D01*
Y16833D01*
X12125Y17047D01*
X12292Y17180D01*
X12625Y17233D01*
X12958Y17180D01*
X13167Y17020D01*
X13292Y16833D01*
Y16167D01*
G01Y16833D02*
X14500Y17233D01*
G01X14125Y18313D02*
X14333Y18473D01*
X14458Y18660D01*
X14500Y18900D01*
X14417Y19140D01*
X14250Y19327D01*
X13958Y19460D01*
X13625Y19487D01*
X13292Y19433D01*
X13083Y19300D01*
X12917Y19113D01*
X12875Y18927D01*
X12917Y18740D01*
X13083Y18500D01*
X12000Y18580D01*
Y19300D01*
G01X14487Y8992D02*
X14327Y9117D01*
X14140Y9200D01*
X13927D01*
X13687Y9075D01*
X13500Y8867D01*
X13367Y8617D01*
X13260Y8200D01*
X13233Y7825D01*
X13287Y7450D01*
X13367Y7200D01*
X13527Y6950D01*
X13713Y6783D01*
X13900Y6700D01*
X14087D01*
X14273Y6783D01*
X14433Y6908D01*
X14567Y7075D01*
G01X15513D02*
X15673Y6867D01*
X15860Y6742D01*
X16100Y6700D01*
X16340Y6783D01*
X16527Y6950D01*
X16660Y7242D01*
X16687Y7575D01*
X16633Y7908D01*
X16500Y8117D01*
X16313Y8283D01*
X16127Y8325D01*
X15940Y8283D01*
X15700Y8117D01*
X15780Y9200D01*
X16500D01*
G01X4800Y20800D02*
Y21925D01*
X4267Y23300D01*
G01X5333D02*
X4800Y21925D01*
G01X7000Y20800D02*
Y23300D01*
X6680Y22800D01*
G01Y20800D02*
X7320D01*
G01X12208Y28587D02*
X12083Y28427D01*
X12000Y28240D01*
Y28027D01*
X12125Y27787D01*
X12333Y27600D01*
X12583Y27467D01*
X13000Y27360D01*
X13375Y27333D01*
X13750Y27387D01*
X14000Y27467D01*
X14250Y27627D01*
X14417Y27813D01*
X14500Y28000D01*
Y28187D01*
X14417Y28373D01*
X14292Y28533D01*
X14125Y28667D01*
G01X12417Y29693D02*
X12167Y29853D01*
X12042Y30040D01*
X12000Y30253D01*
X12083Y30520D01*
X12292Y30707D01*
X12542Y30760D01*
X12792Y30733D01*
X13000Y30627D01*
X13417Y30093D01*
X13708Y29853D01*
X14125Y29693D01*
X14500Y29640D01*
Y30760D01*
G01X10092Y49000D02*
X11050Y45900D01*
X12008Y49000D01*
G01X13422Y48483D02*
X13652Y48793D01*
X13920Y48948D01*
X14227Y49000D01*
X14610Y48897D01*
X14878Y48638D01*
X14955Y48328D01*
X14917Y48018D01*
X14763Y47760D01*
X13997Y47243D01*
X13652Y46882D01*
X13422Y46365D01*
X13345Y45900D01*
X14955D01*
G01X17250Y45797D02*
X17173Y45848D01*
Y45952D01*
X17250Y46003D01*
X17327Y45952D01*
Y45848D01*
X17250Y45797D01*
G01X20350Y49000D02*
X20043Y48897D01*
X19813Y48638D01*
X19660Y48328D01*
X19545Y47915D01*
X19507Y47450D01*
X19545Y46985D01*
X19660Y46572D01*
X19813Y46262D01*
X20043Y46003D01*
X20350Y45900D01*
X20657Y46003D01*
X20887Y46262D01*
X21040Y46572D01*
X21155Y46985D01*
X21193Y47450D01*
X21155Y47915D01*
X21040Y48328D01*
X20887Y48638D01*
X20657Y48897D01*
X20350Y49000D01*
G01X40100Y15333D02*
X37600D01*
Y14267D01*
G01Y12600D02*
X40100D01*
X39600Y12920D01*
G01X37600D02*
Y12280D01*
G01X29687Y20592D02*
X29527Y20717D01*
X29340Y20800D01*
X29127D01*
X28887Y20675D01*
X28700Y20467D01*
X28567Y20217D01*
X28460Y19800D01*
X28433Y19425D01*
X28487Y19050D01*
X28567Y18800D01*
X28727Y18550D01*
X28913Y18383D01*
X29100Y18300D01*
X29287D01*
X29473Y18383D01*
X29633Y18508D01*
X29767Y18675D01*
G01X31620Y18300D02*
Y20800D01*
X30633Y19008D01*
X31967D01*
G01X23087Y4392D02*
X22927Y4517D01*
X22740Y4600D01*
X22527D01*
X22287Y4475D01*
X22100Y4267D01*
X21967Y4017D01*
X21860Y3600D01*
X21833Y3225D01*
X21887Y2850D01*
X21967Y2600D01*
X22127Y2350D01*
X22313Y2183D01*
X22500Y2100D01*
X22687D01*
X22873Y2183D01*
X23033Y2308D01*
X23167Y2475D01*
G01X25020Y2100D02*
Y4600D01*
X24033Y2808D01*
X25367D01*
G01X21013Y19133D02*
X21120Y19258D01*
X21200Y19467D01*
X21253Y19758D01*
X21200Y20008D01*
X21093Y20175D01*
X20907Y20300D01*
X20187D01*
Y17800D01*
X21067D01*
X21253Y17967D01*
X21360Y18217D01*
X21413Y18508D01*
X21360Y18800D01*
X21200Y19050D01*
X21013Y19133D01*
X20187D01*
G01X23000Y17800D02*
Y20300D01*
X22680Y19800D01*
G01Y17800D02*
X23320D01*
G01X43033Y-25600D02*
X43700Y-23100D01*
X44367Y-25600D01*
G01X44127Y-24725D02*
X43273D01*
G01X45900Y-25600D02*
Y-23100D01*
X45580Y-23600D01*
G01Y-25600D02*
X46220D01*
G01X-52838Y-5500D02*
G03I-492J0D01*
G01X-43684Y-2350D02*
X-41716D01*
G01X-43684Y-8650D02*
X-41716D01*
G01X-43684D02*
X-41716D01*
G01X-43684Y-2350D02*
X-41716D01*
G01X-52838Y-5500D02*
G03I-492J0D01*
G01X-54828Y15024D02*
G03I-492J0D01*
G01X-51974Y3410D02*
Y2426D01*
X-36226D01*
Y3410D01*
G01X-51974Y17190D02*
Y18174D01*
X-36226D01*
Y17190D01*
G01X-51974D02*
Y18174D01*
X-36226D01*
Y17190D01*
G01X-51974Y3410D02*
Y2426D01*
X-36226D01*
Y3410D01*
G01X-54828Y15024D02*
G03I-492J0D01*
G01X-3659Y-51552D02*
X-6206Y-61057D01*
X-25601Y-55861D01*
X-23053Y-46354D01*
X-3659Y-51552D01*
G01D02*
X-6206Y-61057D01*
X-25601Y-55861D01*
X-23053Y-46354D01*
X-3659Y-51552D01*
G01X-32408Y19076D02*
G03I-492J0D01*
G01D02*
G03I-492J0D01*
G01X-29947Y28722D02*
X-35853D01*
G01X-29947Y27935D02*
X-35853Y27934D01*
G01X-29947Y33053D02*
Y27147D01*
X-35853D01*
Y33053D01*
G01X-29947D02*
Y27147D01*
X-35853D01*
Y33053D01*
G01X-29947Y27935D02*
X-35853Y27934D01*
G01X-29947Y28722D02*
X-35853D01*
G01X-22550Y36437D02*
G03I-493J0D01*
G01D02*
G03I-493J0D01*
G01X-2460Y-40763D02*
G03I-492J0D01*
G01D02*
G03I-492J0D01*
G01X-2253Y-56890D02*
G03I-493J0D01*
G01D02*
G03I-493J0D01*
G01X-15450Y-23530D02*
Y-29670D01*
G01X-7550D02*
Y-23530D01*
G01Y-29670D02*
Y-25697D01*
G01Y-24589D02*
Y-23530D01*
G01X-15450D02*
Y-29670D01*
G01X-17710Y-5820D02*
Y-8210D01*
X-15320D01*
G01X-17710Y-5820D02*
Y-8210D01*
X-17210D01*
G01X-15320Y18010D02*
X-17710D01*
Y15620D01*
G01X-15320Y18010D02*
X-17710D01*
Y15620D01*
G01X-4202Y27300D02*
G03I-492J0D01*
G01D02*
G03X-4694Y27792I-492J0D01*
G01D02*
G03X-5187Y27300I0J-493D01*
G01D02*
G03X-4694Y26808I492J0D01*
G01D02*
G03X-4202Y27300I0J492D01*
G01X-7294Y26594D02*
X-9263D01*
G01X-19106D02*
X-17137D01*
G01X-7294Y38406D02*
X-9263D01*
G01X-19106D02*
X-17137D01*
G01X-19106D02*
X-17137D01*
G01X-7557D02*
X-9263D01*
G01X-19106Y26594D02*
X-18614D01*
G01X-8984D02*
X-9263D01*
G01X-12608Y46800D02*
G03I-492J0D01*
G01D02*
G03X-13100Y47292I-492J0D01*
G01D02*
G03X-13592Y46800I0J-492D01*
G01D02*
G03X-13100Y46308I492J0D01*
G01D02*
G03X-12608Y46800I0J492D01*
G01X15892Y-53068D02*
G03I-492J0D01*
G01X17369Y-55331D02*
X13431D01*
Y-59269D01*
X17369D01*
Y-55331D01*
G01D02*
X16882D01*
G01X13918D02*
X13431D01*
Y-55818D01*
G01Y-58782D02*
Y-59269D01*
X13918D01*
G01X16882D02*
X17369D01*
Y-58782D01*
G01Y-55818D02*
Y-55331D01*
G01X15892Y-53068D02*
G03I-492J0D01*
G01X9192Y-52968D02*
G03I-492J0D01*
G01X10669Y-55231D02*
X6731D01*
Y-59169D01*
X10669D01*
Y-55231D01*
G01D02*
X10182D01*
G01X7218D02*
X6731D01*
Y-55718D01*
G01Y-58682D02*
Y-59169D01*
X7218D01*
G01X10182D02*
X10669D01*
Y-58682D01*
G01Y-55718D02*
Y-55231D01*
G01X9192Y-52968D02*
G03I-492J0D01*
G01X3741Y-50606D02*
X8859D01*
G01X3741D02*
X8859D01*
G01X4849Y-26908D02*
G03I-492J0D01*
G01X4308Y-26418D02*
G03X3864Y-26908I48J-490D01*
G01D02*
G03X4357Y-27400I492J0D01*
G01D02*
G03X4780Y-27159I0J492D01*
G01X3741Y-38794D02*
X8859D01*
G01X3741D02*
X8859D01*
G01X13077Y-338D02*
G03I-492J0D01*
G01D02*
G03X12585Y154I-492J0D01*
G01D02*
G03X12093Y-338I0J-492D01*
G01D02*
G03X12585Y-830I492J0D01*
G01D02*
G03X13077Y-338I0J492D01*
G01X6120Y-8210D02*
X8510D01*
Y-5820D01*
G01X6120Y-8210D02*
X8510D01*
Y-6656D01*
G01Y15620D02*
Y18010D01*
X6120D01*
G01X8510Y15620D02*
Y18010D01*
X6243D01*
G01X1900Y24938D02*
Y29662D01*
G01Y24938D02*
Y29662D01*
G01X25469Y18429D02*
G03I0J492D01*
G01D02*
G03I0J492D01*
G01X54111Y-26800D02*
X51946Y-30550D01*
G01X48654Y-23650D02*
X46489Y-27400D01*
G01X48654Y-23650D02*
X46489Y-27400D01*
G01X54111Y-26800D02*
X51946Y-30550D01*
M02*
