G04 ================== begin FILE IDENTIFICATION RECORD ==================*
G04 Layout Name:  C:/Users/Liber/Desktop/SmartRing-V1.03/version2/MainBoard.brd*
G04 Film Name:    TOP*
G04 File Format:  Gerber RS274X*
G04 File Origin:  Cadence Allegro 16.3-p003*
G04 Origin Date:  Thu Mar 27 00:00:23 2014*
G04 *
G04 Layer:  ETCH/TOP*
G04 Layer:  PIN/TOP*
G04 Layer:  VIA CLASS/TOP*
G04 *
G04 Offset:    (0.00 0.00)*
G04 Mirror:    No*
G04 Mode:      Positive*
G04 Rotation:  0*
G04 FullContactRelief:  No*
G04 UndefLineWidth:     6.00*
G04 ================== end FILE IDENTIFICATION RECORD ====================*
%FSLAX35Y35*MOIN*%
%IR0*IPPOS*OFA0.00000B0.00000*MIA0B0*SFA1.00000B1.00000*%
%ADD13C,.024*%
%AMMACRO37*
21,1,.06102,.05118,0.0,0.0,150.*%
%ADD37MACRO37*%
%ADD30C,.04331*%
%ADD14C,.04134*%
%ADD33R,.01732X.0063*%
%ADD36R,.04134X.04134*%
%AMMACRO32*
4,1,21,.01673,-.00886,
-.00787,-.00886,
-.009409,-.008725,
-.0109,-.008326,
-.0123,-.007673,
-.013565,-.006787,
-.014657,-.005695,
-.015543,-.00443,
-.016196,-.00303,
-.016595,-.001539,
-.01673,0.0,
-.016595,.001539,
-.016196,.00303,
-.015543,.00443,
-.014657,.005695,
-.013565,.006787,
-.0123,.007673,
-.0109,.008326,
-.009409,.008725,
-.00787,.00886,
.01673,.00886,
.01673,-.00886,
0.0*
%
%ADD32MACRO32*%
%AMMACRO22*
21,1,.04134,.04134,0.0,0.0,75.*%
%ADD22MACRO22*%
%ADD35R,.00984X.02559*%
%AMMACRO31*
4,1,35,-.02756,.0374,
-.01969,.04528,
.02559,.04528,
.025931,.045251,
.026262,.045163,
.026573,.04502,
.026854,.044824,
.027097,.044583,
.027294,.044303,
.02744,.043993,
.027529,.043662,
.02756,.043321,
.02756,.04331,
.02756,-.04331,
.027531,-.043651,
.027443,-.043982,
.0273,-.044293,
.027104,-.044574,
.026863,-.044817,
.026583,-.045014,
.026273,-.04516,
.025942,-.045249,
.025601,-.04528,
.02559,-.04528,
-.02559,-.04528,
-.025931,-.045251,
-.026262,-.045163,
-.026573,-.04502,
-.026854,-.044824,
-.027097,-.044583,
-.027294,-.044303,
-.02744,-.043993,
-.027529,-.043662,
-.02756,-.043321,
-.02756,-.04331,
-.02756,.0374,
0.0*
%
%ADD31MACRO31*%
%ADD29R,.01181X.0315*%
%ADD27R,.03346X.01102*%
%ADD16R,.02441X.0252*%
%ADD26R,.01102X.03346*%
%ADD20R,.0315X.01181*%
%ADD17R,.0252X.02441*%
%ADD15R,.02244X.0252*%
%ADD18R,.0252X.02244*%
%ADD23R,.01181X.02047*%
%ADD28R,.03346X.06102*%
%ADD24R,.01181X.02165*%
%ADD34R,.02362X.03543*%
%AMMACRO11*
4,1,32,-.04528,.04724,
-.03346,.05906,
.04134,.05906,
.042024,.059,
.042688,.058822,
.043311,.058531,
.043873,.058137,
.044359,.057651,
.044753,.057088,
.045043,.056465,
.04522,.055801,
.04528,.05512,
.04528,-.05512,
.04522,-.055804,
.045042,-.056468,
.044751,-.057091,
.044357,-.057653,
.043871,-.058139,
.043308,-.058533,
.042685,-.058823,
.042021,-.059,
.04134,-.05906,
-.04134,-.05906,
-.042024,-.059,
-.042688,-.058822,
-.043311,-.058531,
-.043873,-.058137,
-.044359,-.057651,
-.044753,-.057088,
-.045043,-.056465,
-.04522,-.055801,
-.04528,-.05512,
-.04528,.04724,
0.0*
%
%ADD11MACRO11*%
%AMMACRO21*
4,1,21,-.01673,.00886,
.00787,.00886,
.009409,.008725,
.0109,.008326,
.0123,.007673,
.013565,.006787,
.014657,.005695,
.015543,.00443,
.016196,.00303,
.016595,.001539,
.01673,0.0,
.016595,-.001539,
.016196,-.00303,
.015543,-.00443,
.014657,-.005695,
.013565,-.006787,
.0123,-.007673,
.0109,-.008326,
.009409,-.008725,
.00787,-.00886,
-.01673,-.00886,
-.01673,.00886,
0.0*
%
%ADD21MACRO21*%
%ADD12R,.03346X.01378*%
%ADD25R,.17717X.17717*%
%ADD19R,.0689X.04528*%
%ADD10R,.06299X.04921*%
%ADD38C,.006*%
G75*
%LPD*%
G75*
G54D10*
X-37188Y-5500D03*
X-48212D03*
G54D11*
X-44100Y10300D03*
G54D20*
X-19106Y28563D03*
Y30531D03*
Y32500D03*
Y34469D03*
Y36437D03*
X-7294D03*
Y34469D03*
Y32500D03*
Y30531D03*
Y28563D03*
G54D12*
X-51777Y5576D03*
Y8725D03*
Y11875D03*
Y15024D03*
X-36423D03*
Y11875D03*
Y8725D03*
Y5576D03*
G54D21*
X591Y-48637D03*
Y-44700D03*
Y-40763D03*
G54D30*
X15400Y-57300D03*
X8700Y-57200D03*
G54D31*
X6300Y-44700D03*
G54D22*
X-9800Y-55000D03*
G54D13*
X-54500Y12000D03*
X-43500Y5400D03*
X-31100Y-43794D03*
X-21511Y-21089D03*
X-31600Y-1400D03*
X-36900Y-5500D03*
X-31000Y-13500D03*
X-20600Y-3000D03*
X-25700Y-1100D03*
X-35900Y5700D03*
X-22800Y20400D03*
X-30800Y12600D03*
X-21300Y12800D03*
Y9000D03*
X-22300Y25900D03*
X-25100Y23200D03*
X-33807Y36793D03*
X-2400Y-29600D03*
X-8943Y-25143D03*
X-13600Y-37600D03*
X-7300Y-20600D03*
X-11600Y-14000D03*
X-15800Y-7702D03*
X-5585Y-10315D03*
X-10800Y-17700D03*
X900Y1100D03*
X-4600Y1400D03*
X-10800D03*
X-7200Y-16200D03*
X-3100D03*
X-6900Y21800D03*
X-1646Y20246D03*
X450Y8350D03*
X-10700Y8800D03*
X-4600Y8600D03*
X-14000Y20300D03*
X-8100Y35800D03*
X-14600Y31700D03*
X-6800Y39700D03*
X-7500Y26803D03*
X-17199Y26100D03*
X-6000Y46200D03*
X6300Y-44700D03*
X11100Y-45300D03*
X5729Y-25229D03*
X20200Y-24000D03*
X21800Y-37700D03*
X10100Y-33900D03*
X7800Y-17300D03*
X11853Y1947D03*
X7113Y-6113D03*
X2292Y-9900D03*
X7279Y9821D03*
X5700Y16613D03*
X23800Y-20600D03*
X31400Y-37700D03*
X25500Y-35900D03*
X41700Y-4700D03*
X36300Y-9300D03*
X28415Y900D03*
X31400Y7800D03*
X28800Y4500D03*
X44100Y7000D03*
X43700Y2300D03*
G54D23*
X-13468Y-25143D03*
X-11500D03*
X-9532D03*
Y-28057D03*
X-11500D03*
G54D32*
X12009Y-40763D03*
Y-44700D03*
Y-48637D03*
G54D14*
X-19459Y-52412D03*
X-14630Y-53706D03*
X21500Y34900D03*
Y29900D03*
X26500Y34900D03*
Y29900D03*
X31500Y34900D03*
Y29900D03*
X36500Y34900D03*
Y29900D03*
X41500Y34900D03*
G54D24*
X-13468Y-27998D03*
G54D15*
X-21590Y-25500D03*
X-30329Y-29900D03*
Y-25900D03*
X-38229D03*
Y-22000D03*
Y-29800D03*
X-30329Y-22000D03*
X-38229Y-18100D03*
X-30329D03*
X-30429Y-13100D03*
X-26971Y8700D03*
Y12600D03*
X-20029Y46700D03*
X-129Y-54100D03*
X-9471Y-42000D03*
X-15890Y-32800D03*
X-12110D03*
X-17810Y-25500D03*
X-1829Y-33400D03*
X-13229Y-37600D03*
X-17771Y-21500D03*
X-1029Y33600D03*
X-6210Y46800D03*
X-9990D03*
X6171Y-33900D03*
X5729Y-25600D03*
X2029Y-29600D03*
X4271Y-17300D03*
Y-13400D03*
X15871Y4300D03*
G54D33*
X9711Y-29900D03*
X6089Y-30609D03*
Y-29191D03*
G54D25*
X-4600Y4900D03*
G54D34*
X20065Y-338D03*
Y-5062D03*
X15735D03*
Y-338D03*
G54D16*
X-26589Y-29900D03*
Y-25900D03*
X-34489D03*
X-21511Y-21500D03*
X-34489Y-22000D03*
Y-29800D03*
X-26589Y-22000D03*
X-34489Y-18100D03*
X-26589D03*
X-26689Y-13100D03*
X-30711Y8700D03*
Y12600D03*
X-13211Y-42000D03*
X-1711Y-29600D03*
X-9489Y-37600D03*
X-16289Y46700D03*
X3611Y-54100D03*
X9911Y-33900D03*
X1989Y-25600D03*
X1911Y-33400D03*
X8011Y-17300D03*
Y-13400D03*
X19611Y4300D03*
X2711Y33600D03*
G54D17*
X-22800Y16589D03*
X-6700Y-20211D03*
X-2600D03*
X17100Y20811D03*
X9900Y30911D03*
X23900Y-3711D03*
X30300Y15811D03*
G54D26*
X-1646Y-6813D03*
X-3615D03*
X-5585D03*
X-7554D03*
X-9522D03*
X-11492D03*
X-13460D03*
Y16613D03*
X-11492D03*
X-9522D03*
X-7554D03*
X-5585D03*
X-3615D03*
X-1646D03*
X4260Y-6813D03*
X2292D03*
X322D03*
Y16613D03*
X2292D03*
X4260D03*
G54D35*
X25469Y12228D03*
X23500D03*
X21531D03*
Y15772D03*
X23500D03*
X25469D03*
G54D18*
X-22800Y20329D03*
X-6700Y-16471D03*
X-2600D03*
X17100Y17071D03*
X9900Y27171D03*
X23900Y29D03*
X35000Y12110D03*
Y15890D03*
X30300Y12071D03*
G54D27*
X-16313Y-3958D03*
Y-1990D03*
Y-21D03*
Y1947D03*
Y3916D03*
Y5884D03*
Y7853D03*
Y9821D03*
Y11790D03*
Y13758D03*
X7113Y-21D03*
Y-1990D03*
Y-3958D03*
Y13758D03*
Y11790D03*
Y9821D03*
Y7853D03*
Y5884D03*
Y3916D03*
Y1947D03*
G54D36*
X41500Y29900D03*
G54D19*
X-32900Y36793D03*
Y23407D03*
G54D28*
X-1053Y27300D03*
X4853D03*
G54D37*
X47249Y-32384D03*
X53351Y-21816D03*
G54D38*
G01X-48212Y-5500D02*
X-47523D01*
X-38229Y-14794D01*
Y-18100D01*
G01X-51777Y15024D02*
X-55376D01*
X-56600Y13800D01*
Y6764D01*
X-53136Y3300D01*
X-19802D01*
X-19186Y3916D01*
X-16313D01*
G01X-54500Y12000D02*
X-51902D01*
X-51777Y11875D01*
G01Y8725D02*
Y5576D01*
G01Y8725D02*
X-45675D01*
X-44100Y10300D01*
G01D02*
X-41802Y8002D01*
Y7098D01*
X-43500Y5400D01*
G01X-31100Y-43794D02*
X-30734Y-44160D01*
X-10631D01*
X-9471Y-43000D01*
Y-42000D01*
G01X-34489Y-22000D02*
Y-18100D01*
G01Y-25900D02*
Y-22000D01*
G01Y-29800D02*
Y-25900D01*
G01X-26589Y-22000D02*
Y-18100D01*
G01Y-25900D02*
Y-22000D01*
G01Y-29900D02*
Y-25900D01*
G01X-21511Y-21500D02*
Y-21089D01*
G01X-16313Y-3958D02*
X-17435D01*
X-23632Y-10155D01*
Y-23320D01*
X-21590Y-25362D01*
Y-25500D01*
G01X-30329Y-22000D02*
Y-18100D01*
G01Y-25900D02*
Y-22000D01*
G01Y-29900D02*
Y-25900D01*
G01X-38229D02*
Y-29800D01*
G01Y-22000D02*
Y-25900D01*
G01Y-18100D02*
Y-22000D01*
G01X-30329Y-29900D02*
Y-30038D01*
G01D02*
X-32251Y-31960D01*
X-36207D01*
X-38229Y-29938D01*
Y-29800D01*
G01X-30329Y-30038D02*
X-28307Y-32060D01*
X-23317D01*
X-21590Y-30333D01*
Y-25500D01*
G01X-16313Y1947D02*
X-28253D01*
X-31600Y-1400D01*
G01X-37188Y-5500D02*
X-36900D01*
G01X-26589Y-18100D02*
Y-13200D01*
X-26689Y-13100D01*
G01X-37188Y-5500D02*
Y-7912D01*
X-34800Y-10300D01*
G01D02*
X-27029D01*
X-26689Y-10640D01*
Y-13100D01*
G01X-34800Y-10300D02*
Y-15629D01*
X-34489Y-15940D01*
Y-18100D01*
G01X-30329D02*
Y-13200D01*
X-30429Y-13100D01*
G01D02*
X-30600D01*
X-31000Y-13500D01*
G01X-20600Y-3000D02*
X-19590Y-1990D01*
X-16313D01*
G01Y-21D02*
X-24621D01*
X-25700Y-1100D01*
G01X-16313Y5884D02*
X-32598D01*
X-35439Y8725D01*
X-36423D01*
G01X-30711Y8700D02*
Y12600D01*
G01D02*
X-30800D01*
G01X-32900Y23407D02*
Y15674D01*
X-33550Y15024D01*
X-36423D01*
G01X-13460Y16613D02*
X-14911D01*
X-14935Y16589D01*
X-22800D01*
G01X-21300Y12800D02*
X-20290Y11790D01*
X-16313D01*
G01X-26971Y12600D02*
X-21500D01*
X-21300Y12800D01*
G01X-19106Y30531D02*
X-21881D01*
X-27200Y25212D01*
Y14989D01*
X-26971Y14760D01*
Y12600D01*
G01X-16313Y9821D02*
X-20479D01*
X-21300Y9000D01*
G01X-26971Y8700D02*
X-21600D01*
X-21300Y9000D01*
G01X-7554Y16613D02*
Y19454D01*
X-11750Y23650D01*
X-20050D01*
X-22300Y25900D01*
G01X-25100Y23200D02*
X-22630D01*
X-21830Y22400D01*
X-12736D01*
X-9522Y19186D01*
Y16613D01*
G01X-22800Y20329D02*
Y20400D01*
G01X-32900Y36793D02*
X-21937D01*
X-21581Y36437D01*
X-19106D01*
G01X-20029Y46700D02*
Y39150D01*
X-19106Y38227D01*
Y36437D01*
G01X-32900Y36793D02*
X-33807D01*
G01X-13211Y-42000D02*
Y-39778D01*
X-13229Y-39760D01*
Y-37600D01*
G01X-129Y-54100D02*
Y-53962D01*
X-2452Y-51639D01*
Y-47743D01*
X591Y-44700D01*
G01X-9471Y-42000D02*
Y-37618D01*
X-9489Y-37600D01*
G01X-1829Y-33400D02*
Y-29718D01*
X-1711Y-29600D01*
G01X-9532Y-25143D02*
X-8943D01*
G01X-13229Y-37600D02*
X-13600D01*
G01X-6700Y-20211D02*
X-2600D01*
G01X-6700D02*
X-6911D01*
X-7300Y-20600D01*
G01X322Y-6813D02*
Y-8758D01*
X92Y-8988D01*
Y-22608D01*
X-5357Y-28057D01*
X-9532D01*
G01X-9489Y-37600D02*
Y-37561D01*
X-8660Y-36732D01*
Y-29362D01*
X-9532Y-28490D01*
Y-28057D01*
G01X-11492Y-6813D02*
Y-9686D01*
X-13700Y-11894D01*
Y-20535D01*
X-11500Y-22735D01*
Y-25143D01*
G01X-17810Y-25500D02*
Y-25362D01*
X-16571Y-24123D01*
X-14055D01*
X-13468Y-24710D01*
Y-25143D01*
G01X-17810Y-25500D02*
Y-28420D01*
X-15890Y-30340D01*
Y-32800D01*
G01X-17771Y-21500D02*
Y-25461D01*
X-17810Y-25500D01*
G01X-11500Y-28057D02*
Y-32190D01*
X-12110Y-32800D01*
G01X-11600Y-14000D02*
Y-11830D01*
X-9522Y-9752D01*
Y-6813D01*
G01X-13460D02*
X-14911D01*
X-15800Y-7702D01*
G01X-5585Y-6813D02*
Y-10315D01*
G01X-10800Y-17700D02*
X-9500Y-16400D01*
Y-12700D01*
X-7685Y-10885D01*
Y-9517D01*
X-7554Y-9386D01*
Y-6813D01*
G01X-3615D02*
Y-9315D01*
X-3485Y-9445D01*
Y-13256D01*
X-6700Y-16471D01*
G01D02*
X-6929D01*
X-7200Y-16200D01*
G01X-1646Y-6813D02*
Y-13195D01*
X-2600Y-14149D01*
Y-16471D01*
G01D02*
X-2829D01*
X-3100Y-16200D01*
G01X-6900Y21800D02*
X-5585Y20485D01*
Y16613D01*
G01X-3615D02*
Y19245D01*
X-3746Y19376D01*
Y30604D01*
X-3615Y30735D01*
Y34669D01*
X-417Y37867D01*
X33533D01*
X36500Y34900D01*
G01X-1646Y16613D02*
Y20246D01*
G01X-4600Y4900D02*
Y8600D01*
G01Y4900D02*
X-13458Y13758D01*
X-16313D01*
G01X-4600Y4900D02*
X-7300D01*
G01X-4600D02*
Y1400D01*
G01Y4900D02*
X-2599D01*
G01D02*
Y5301D01*
X450Y8350D01*
G01X-7300Y4900D02*
X-10800Y1400D01*
G01X-2599Y4900D02*
Y4599D01*
X900Y1100D01*
G01X-7300Y4900D02*
Y5400D01*
X-10700Y8800D01*
G01X-11492Y16613D02*
Y18142D01*
X-13650Y20300D01*
X-14000D01*
G01X41500Y29900D02*
X44768Y33168D01*
Y35828D01*
X38796Y41800D01*
X-14550D01*
X-15169Y41181D01*
Y38406D01*
G01X-7294Y34469D02*
X-7772Y33991D01*
X-9242D01*
X-9769Y33464D01*
Y31536D01*
X-9242Y31009D01*
X-7772D01*
X-7294Y30531D01*
G01Y34469D02*
Y36437D01*
G01D02*
X-7463D01*
X-8100Y35800D01*
G01X-13200Y26594D02*
X-13678Y27072D01*
Y28542D01*
X-14205Y29069D01*
X-16133D01*
X-16639Y28563D01*
X-19106D01*
G01X-13200Y26594D02*
Y30300D01*
X-14600Y31700D01*
G01X-19106Y36437D02*
X-17635D01*
X-17129Y35931D01*
X-14200D01*
X-13200Y36931D01*
Y38406D01*
G01X-11231Y26594D02*
Y38406D01*
G01X-13200D02*
X-11231D01*
G01X-1029Y33600D02*
Y31275D01*
X-1053Y31251D01*
Y27300D01*
G01D02*
Y23049D01*
X454Y21542D01*
Y19376D01*
X322Y19244D01*
Y16613D01*
G01X-6800Y39700D02*
X-4819Y37719D01*
Y33381D01*
X-5700Y32500D01*
X-7294D01*
G01X-7500Y26803D02*
Y28357D01*
X-7294Y28563D01*
G01X-17199Y26100D02*
X-15663D01*
X-15169Y26594D01*
G01X-9990Y46800D02*
Y46938D01*
X-16090D01*
X-16289Y46739D01*
Y46700D01*
G01X6300Y-44700D02*
X591D01*
G01X12009D02*
X11700D01*
X11100Y-45300D01*
G01X3611Y-54100D02*
Y-56560D01*
X4251Y-57200D01*
X8700D01*
G01X36300Y-9300D02*
Y-18300D01*
X16900Y-37700D01*
Y-43641D01*
X12009Y-48532D01*
Y-48637D01*
G01X28415Y900D02*
Y-19150D01*
X8556Y-39009D01*
X2345D01*
X591Y-40763D01*
G01X1989Y-25600D02*
Y-29560D01*
X2029Y-29600D01*
G01X6089Y-29191D02*
X2438D01*
X2029Y-29600D01*
G01X1911Y-33400D02*
Y-29718D01*
X2029Y-29600D01*
G01X23800Y-20600D02*
X16557D01*
X7945Y-29212D01*
Y-30509D01*
X7845Y-30609D01*
X6089D01*
G01X6171Y-33900D02*
Y-30691D01*
X6089Y-30609D01*
G01X20200Y-24000D02*
X14300Y-29900D01*
X9711D01*
G01X5729Y-25462D02*
Y-25229D01*
G01Y-25462D02*
X10132Y-21059D01*
Y-15560D01*
X8011Y-13439D01*
Y-13400D01*
G01X5729Y-25600D02*
Y-25462D01*
G01X9911Y-33900D02*
X10100D01*
G01X7113Y-21D02*
X7430Y-338D01*
X15735D01*
G01D02*
X15871Y-202D01*
Y4300D01*
G01X7113Y-1990D02*
X9986D01*
Y-3539D01*
X14181Y-7734D01*
X17983D01*
X20065Y-5652D01*
Y-5062D01*
G01X4260Y-6813D02*
Y-7935D01*
X5048Y-8723D01*
Y-12485D01*
X4271Y-13262D01*
Y-13400D01*
G01Y-17300D02*
Y-13400D01*
G01X8011Y-17300D02*
X7800D01*
G01X19611Y4300D02*
Y116D01*
X20065Y-338D01*
G01X15735Y-5062D02*
Y-4668D01*
X20065Y-338D01*
G01X7113Y-3958D02*
Y-6113D01*
G01X2292Y-6813D02*
Y-9900D01*
G01X4853Y27300D02*
Y23049D01*
X2292Y20488D01*
Y16613D01*
G01X7113Y3916D02*
X10816D01*
X19128Y12228D01*
X21531D01*
G01X7113Y5884D02*
X10251D01*
X20139Y15772D01*
X21531D01*
G01X23500Y12228D02*
Y8228D01*
X19611Y4339D01*
Y4300D01*
G01X7113Y9821D02*
Y7853D01*
G01Y11790D02*
Y9821D01*
G01D02*
X7279D01*
G01X4260Y16613D02*
X5700D01*
G01X7113Y1947D02*
X11853D01*
G01X7113Y13758D02*
X13649D01*
X16962Y17071D01*
X17100D01*
G01X9900Y27171D02*
X7740D01*
X7611Y27300D01*
X4853D01*
G01X2711Y33600D02*
X7172D01*
X9861Y30911D01*
X9900D01*
G01D02*
X12360D01*
X17100Y26171D01*
Y20811D01*
G01X23500Y17952D02*
X20641Y20811D01*
X17100D01*
G01X20065Y-5062D02*
X22549D01*
X23900Y-3711D01*
G01X20065Y-338D02*
X23533D01*
X23900Y29D01*
G01X25469Y15772D02*
X28101D01*
X28140Y15811D01*
X30300D01*
G01X53351Y-21816D02*
X51729Y-20374D01*
Y2871D01*
X42490Y12110D01*
X35000D01*
G01X30300Y12071D02*
X32801D01*
X32840Y12110D01*
X35000D01*
G01Y15890D02*
X34862D01*
X32800Y17952D01*
X23500D01*
G01Y12228D02*
X25469D01*
G01X23500Y15772D02*
Y12228D01*
G01X35000Y15890D02*
X37460D01*
X41500Y19930D01*
Y29900D01*
G01X23500Y17952D02*
Y15772D01*
G54D29*
X-15169Y38406D03*
X-13200D03*
X-11231D03*
Y26594D03*
X-13200D03*
X-15169D03*
M02*
