G04 ================== begin FILE IDENTIFICATION RECORD ==================*
G04 Layout Name:  C:/Users/Liber/Desktop/SmartRing-V1.03/version2/MainBoard.brd*
G04 Film Name:    BOTTOM*
G04 File Format:  Gerber RS274X*
G04 File Origin:  Cadence Allegro 16.3-p003*
G04 Origin Date:  Thu Mar 27 00:00:23 2014*
G04 *
G04 Layer:  ETCH/BOTTOM*
G04 Layer:  PIN/BOTTOM*
G04 Layer:  VIA CLASS/BOTTOM*
G04 *
G04 Offset:    (0.00 0.00)*
G04 Mirror:    No*
G04 Mode:      Positive*
G04 Rotation:  0*
G04 FullContactRelief:  No*
G04 UndefLineWidth:     6.00*
G04 ================== end FILE IDENTIFICATION RECORD ====================*
%FSLAX35Y35*MOIN*%
%IR0*IPPOS*OFA0.00000B0.00000*MIA0B0*SFA1.00000B1.00000*%
%ADD12R,.07874X.09843*%
%ADD11C,.024*%
%ADD15C,.04331*%
%AMMACRO17*
21,1,.04921,.01181,0.0,0.0,125.*%
%ADD17MACRO17*%
%ADD13C,.04134*%
%ADD20R,.11024X.07283*%
%ADD19R,.04134X.04134*%
%AMMACRO14*
21,1,.04134,.04134,0.0,0.0,75.*%
%ADD14MACRO14*%
%ADD10C,.11811*%
%AMMACRO16*
21,1,.11024,.07283,0.0,0.0,125.*%
%ADD16MACRO16*%
%ADD18R,.04921X.01181*%
%ADD21C,.006*%
G75*
%LPD*%
G75*
G54D10*
X-43000Y100D03*
G54D20*
X46400Y-11500D03*
Y14100D03*
G54D11*
X-54500Y12000D03*
X-43500Y5400D03*
X-31100Y-43794D03*
X-21511Y-21089D03*
X-31600Y-1400D03*
X-36900Y-5500D03*
X-31000Y-13500D03*
X-20600Y-3000D03*
X-25700Y-1100D03*
X-35900Y5700D03*
X-22800Y20400D03*
X-30800Y12600D03*
X-21300Y12800D03*
Y9000D03*
X-22300Y25900D03*
X-25100Y23200D03*
X-33807Y36793D03*
X-2400Y-29600D03*
X-8943Y-25143D03*
X-13600Y-37600D03*
X-7300Y-20600D03*
X-11600Y-14000D03*
X-15800Y-7702D03*
X-5585Y-10315D03*
X-10800Y-17700D03*
X900Y1100D03*
X-4600Y1400D03*
X-10800D03*
X-7200Y-16200D03*
X-3100D03*
X-6900Y21800D03*
X-1646Y20246D03*
X450Y8350D03*
X-10700Y8800D03*
X-4600Y8600D03*
X-14000Y20300D03*
X-8100Y35800D03*
X-14600Y31700D03*
X-6800Y39700D03*
X-7500Y26803D03*
X-17199Y26100D03*
X-6000Y46200D03*
X6300Y-44700D03*
X11100Y-45300D03*
X5729Y-25229D03*
X20200Y-24000D03*
X21800Y-37700D03*
X10100Y-33900D03*
X7800Y-17300D03*
X11853Y1947D03*
X7113Y-6113D03*
X2292Y-9900D03*
X7279Y9821D03*
X5700Y16613D03*
X23800Y-20600D03*
X31400Y-37700D03*
X25500Y-35900D03*
X41700Y-4700D03*
X36300Y-9300D03*
X28415Y900D03*
X31400Y7800D03*
X28800Y4500D03*
X44100Y7000D03*
X43700Y2300D03*
G54D21*
G01X-43500Y5400D02*
Y600D01*
X-43000Y100D01*
G01X-54500Y12000D02*
X-40600Y25900D01*
X-22300D01*
G01X-31100Y-43794D02*
X3496D01*
X17755Y-33809D01*
G01X-31600Y-1400D02*
X-10200Y-22800D01*
X15200D01*
X18939Y-26539D01*
X21453D01*
X24206Y-29292D01*
G01X-35900Y5700D02*
X-34730D01*
X-25100Y15330D01*
Y23200D01*
G01X33787Y-3621D02*
X33666Y-3500D01*
X29100D01*
X12800Y12800D01*
X-21300D01*
G01X-6900Y21800D02*
X-4700Y24000D01*
Y44900D01*
X-6000Y46200D01*
G01X-1646Y20246D02*
X26846D01*
X36500Y29900D01*
G01X21800Y-37700D02*
Y-35111D01*
X19368Y-32679D01*
G01X31400Y-37700D02*
Y-33745D01*
X25818Y-28163D01*
G01X20200Y-24000D02*
X25222D01*
X27431Y-27034D01*
G01X25500Y-35900D02*
X25329D01*
X20980Y-31551D01*
G01X37148Y-5590D02*
X40810D01*
X41700Y-4700D01*
G01X37148Y-3621D02*
X33787D01*
G01X36300Y-9300D02*
X33787Y-6787D01*
Y-3621D01*
G01X28415Y900D02*
X30968Y-1653D01*
X37148D01*
G01X31400Y7800D02*
X32979Y6221D01*
X37148D01*
G01X44100Y7000D02*
X41353Y4253D01*
X37148D01*
G01X43700Y2300D02*
X43684Y2284D01*
X37148D01*
G01Y8190D02*
Y25548D01*
X41500Y29900D01*
G01X28800Y4500D02*
X32984Y316D01*
X37148D01*
G54D12*
X-31100Y-43794D03*
Y44394D03*
G54D13*
X-19459Y-52412D03*
X-14630Y-53706D03*
X21500Y34900D03*
Y29900D03*
X26500Y34900D03*
Y29900D03*
X31500Y34900D03*
Y29900D03*
X36500Y34900D03*
Y29900D03*
X41500Y34900D03*
G54D14*
X-9800Y-55000D03*
G54D15*
X15400Y-57300D03*
X8700Y-57200D03*
G54D16*
X18234Y-44768D03*
X37566Y-31232D03*
G54D17*
X20980Y-31551D03*
X19368Y-32679D03*
X17755Y-33809D03*
X27431Y-27034D03*
X25818Y-28163D03*
X24206Y-29292D03*
X22593Y-30421D03*
G54D18*
X37148Y316D03*
Y-1653D03*
Y-3621D03*
Y-5590D03*
Y8190D03*
Y6221D03*
Y4253D03*
Y2284D03*
G54D19*
X41500Y29900D03*
M02*
