G04 ================== begin FILE IDENTIFICATION RECORD ==================*
G04 Layout Name:  C:/Users/Liber/Desktop/SmartRing-V1.03/version2/MainBoard.brd*
G04 Film Name:    POWER*
G04 File Format:  Gerber RS274X*
G04 File Origin:  Cadence Allegro 16.3-p003*
G04 Origin Date:  Thu Mar 27 00:00:23 2014*
G04 *
G04 Layer:  ETCH/POWER*
G04 Layer:  PIN/POWER*
G04 Layer:  VIA CLASS/POWER*
G04 *
G04 Offset:    (0.00 0.00)*
G04 Mirror:    No*
G04 Mode:      Positive*
G04 Rotation:  0*
G04 FullContactRelief:  No*
G04 UndefLineWidth:     6.00*
G04 ================== end FILE IDENTIFICATION RECORD ====================*
%FSLAX35Y35*MOIN*%
%IR0*IPPOS*OFA0.00000B0.00000*MIA0B0*SFA1.00000B1.00000*%
%ADD10C,.024*%
%ADD13C,.04331*%
%ADD11C,.04528*%
%ADD14R,.04528X.04528*%
%AMMACRO12*
21,1,.04528,.04528,0.0,0.0,75.*%
%ADD12MACRO12*%
%ADD15C,.006*%
%ADD16C,.03604*%
%ADD17C,.05534*%
G75*
%LPD*%
G75*
G36*
G01X62900Y0D02*
G02I-62900J0D01*
G37*
%LPC*%
G75*
G36*
G01X24306Y28056D02*
G03X23694I-306J-258D01*
G02X19656Y32094I-2194J1844D01*
G03Y32706I-258J306D01*
G02X23694Y36744I1844J2194D01*
G03X24306I306J258D01*
G02X28694I2194J-1844D01*
G03X29306I306J258D01*
G02X33694I2194J-1844D01*
G03X34306I306J258D01*
G02X38694I2194J-1844D01*
G03X39306I306J258D01*
G02X43929Y33378I2195J-1843D01*
G03X44268Y32766I339J-212D01*
G01X44366D01*
Y27034D01*
X38634D01*
Y27132D01*
G03X38022Y27471I-400J0D01*
G02X34306Y28056I-1522J2429D01*
G03X33694I-306J-258D01*
G02X29306I-2194J1844D01*
G03X28694I-306J-258D01*
G02X24306I-2194J1844D01*
G37*
G36*
G01X-6290Y-52973D02*
X-7773Y-58510D01*
X-13310Y-57027D01*
X-13285Y-56932D01*
G03X-13788Y-56446I-386J104D01*
G02X-17226Y-54920I-842J2740D01*
G03X-17818Y-54761I-363J-169D01*
G02X-16863Y-51198I-1641J2349D01*
G03X-16271Y-51357I363J169D01*
G02X-12531Y-51754I1642J-2349D01*
G03X-11852Y-51585I293J272D01*
G01X-11827Y-51490D01*
X-6290Y-52973D01*
G37*
G36*
G01X-22950Y22196D02*
G02X-24533Y20896I150J-1796D01*
G03X-24950Y21404I-384J110D01*
G02X-24541Y24913I-150J1796D01*
G03X-24032Y25404I124J380D01*
G02X-22859Y24187I1732J496D01*
G03X-23368Y23696I-124J-380D01*
G02X-23367Y22704I-1732J-498D01*
G03X-22950Y22196I384J-110D01*
G37*
G36*
G01X-20389Y10555D02*
G02X-22211I-911J-1555D01*
G03Y11245I-202J345D01*
G02X-20389I911J1555D01*
G03Y10555I202J-345D01*
G37*
G36*
G01X29593Y2264D02*
G02X27552Y2482I-1178J-1364D01*
G03X27622Y3136I-191J351D01*
G02X29663Y2918I1178J1364D01*
G03X29593Y2264I191J-351D01*
G37*
G36*
G01X-9005Y-17859D02*
G02X-12027Y-16381I-1795J159D01*
G03X-12173Y-15709I-273J293D01*
G02X-10373Y-15319I572J1709D01*
G03X-10227Y-15991I273J-293D01*
G02X-9649Y-16314I-575J-1708D01*
G03X-8995Y-16041I255J308D01*
G02X-8351Y-17586I1795J-159D01*
G03X-9005Y-17859I-255J-308D01*
G37*
G54D16*
X-54500Y12000D03*
X-43500Y5400D03*
X-31100Y-43794D03*
X-21511Y-21089D03*
X-31600Y-1400D03*
X-36900Y-5500D03*
X-20600Y-3000D03*
X-25700Y-1100D03*
X-35900Y5700D03*
X-2400Y-29600D03*
X-8943Y-25143D03*
X-13600Y-37600D03*
X-15800Y-7702D03*
X-5585Y-10315D03*
X900Y1100D03*
X-4600Y1400D03*
X-10800D03*
X-3100Y-16200D03*
X-6900Y21800D03*
X-1646Y20246D03*
X450Y8350D03*
X-10700Y8800D03*
X-4600Y8600D03*
X-8100Y35800D03*
X-14600Y31700D03*
X-6800Y39700D03*
X-7500Y26803D03*
X-17199Y26100D03*
X-6000Y46200D03*
X6300Y-44700D03*
X5729Y-25229D03*
X20200Y-24000D03*
X21800Y-37700D03*
X7800Y-17300D03*
X2292Y-9900D03*
X23800Y-20600D03*
X31400Y-37700D03*
X25500Y-35900D03*
X36300Y-9300D03*
X31400Y7800D03*
X44100Y7000D03*
X43700Y2300D03*
G54D17*
X15400Y-57300D03*
X8700Y-57200D03*
%LPD*%
G75*
G54D10*
X-54500Y12000D03*
X-43500Y5400D03*
X-31100Y-43794D03*
X-21511Y-21089D03*
X-31600Y-1400D03*
X-36900Y-5500D03*
X-31000Y-13500D03*
X-20600Y-3000D03*
X-25700Y-1100D03*
X-35900Y5700D03*
X-22800Y20400D03*
X-30800Y12600D03*
X-21300Y12800D03*
Y9000D03*
X-22300Y25900D03*
X-25100Y23200D03*
X-33807Y36793D03*
X-2400Y-29600D03*
X-8943Y-25143D03*
X-13600Y-37600D03*
X-7300Y-20600D03*
X-11600Y-14000D03*
X-15800Y-7702D03*
X-5585Y-10315D03*
X-10800Y-17700D03*
X900Y1100D03*
X-4600Y1400D03*
X-10800D03*
X-7200Y-16200D03*
X-3100D03*
X-6900Y21800D03*
X-1646Y20246D03*
X450Y8350D03*
X-10700Y8800D03*
X-4600Y8600D03*
X-14000Y20300D03*
X-8100Y35800D03*
X-14600Y31700D03*
X-6800Y39700D03*
X-7500Y26803D03*
X-17199Y26100D03*
X-6000Y46200D03*
X6300Y-44700D03*
X11100Y-45300D03*
X5729Y-25229D03*
X20200Y-24000D03*
X21800Y-37700D03*
X10100Y-33900D03*
X7800Y-17300D03*
X11853Y1947D03*
X7113Y-6113D03*
X2292Y-9900D03*
X7279Y9821D03*
X5700Y16613D03*
X23800Y-20600D03*
X31400Y-37700D03*
X25500Y-35900D03*
X41700Y-4700D03*
X36300Y-9300D03*
X28415Y900D03*
X31400Y7800D03*
X28800Y4500D03*
X44100Y7000D03*
X43700Y2300D03*
G54D11*
X-19459Y-52412D03*
X-14630Y-53706D03*
X21500Y34900D03*
Y29900D03*
X26500Y34900D03*
Y29900D03*
X31500Y34900D03*
Y29900D03*
X36500Y34900D03*
Y29900D03*
X41500Y34900D03*
G54D12*
X-9800Y-55000D03*
G54D13*
X15400Y-57300D03*
X8700Y-57200D03*
G54D14*
X41500Y29900D03*
G54D15*
G01X8700Y-60168D02*
Y-57200D01*
G01D02*
Y-54232D01*
G01X5732Y-57200D02*
X8700D01*
G01D02*
X11668D01*
G01X41500Y34900D02*
Y37966D01*
G01Y34900D02*
X44566D01*
M02*
