G04 ================== begin FILE IDENTIFICATION RECORD ==================*
G04 Layout Name:  C:/Users/Liber/Desktop/SmartRing-V1.03/version2/MainBoard.brd*
G04 Film Name:    SIGNAL2*
G04 File Format:  Gerber RS274X*
G04 File Origin:  Cadence Allegro 16.3-p003*
G04 Origin Date:  Thu Mar 27 00:00:23 2014*
G04 *
G04 Layer:  ETCH/SIGNAL2*
G04 Layer:  PIN/SIGNAL2*
G04 Layer:  VIA CLASS/SIGNAL2*
G04 *
G04 Offset:    (0.00 0.00)*
G04 Mirror:    No*
G04 Mode:      Positive*
G04 Rotation:  0*
G04 FullContactRelief:  No*
G04 UndefLineWidth:     6.00*
G04 ================== end FILE IDENTIFICATION RECORD ====================*
%FSLAX35Y35*MOIN*%
%IR0*IPPOS*OFA0.00000B0.00000*MIA0B0*SFA1.00000B1.00000*%
%ADD10C,.024*%
%ADD13C,.04331*%
%ADD11C,.04528*%
%ADD14R,.04528X.04528*%
%AMMACRO12*
21,1,.04528,.04528,0.0,0.0,75.*%
%ADD12MACRO12*%
%ADD15C,.006*%
G75*
%LPD*%
G75*
G54D10*
X-54500Y12000D03*
X-43500Y5400D03*
X-31100Y-43794D03*
X-21511Y-21089D03*
X-31600Y-1400D03*
X-36900Y-5500D03*
X-31000Y-13500D03*
X-20600Y-3000D03*
X-25700Y-1100D03*
X-35900Y5700D03*
X-22800Y20400D03*
X-30800Y12600D03*
X-21300Y12800D03*
Y9000D03*
X-22300Y25900D03*
X-25100Y23200D03*
X-33807Y36793D03*
X-2400Y-29600D03*
X-8943Y-25143D03*
X-13600Y-37600D03*
X-7300Y-20600D03*
X-11600Y-14000D03*
X-15800Y-7702D03*
X-5585Y-10315D03*
X-10800Y-17700D03*
X900Y1100D03*
X-4600Y1400D03*
X-10800D03*
X-7200Y-16200D03*
X-3100D03*
X-6900Y21800D03*
X-1646Y20246D03*
X450Y8350D03*
X-10700Y8800D03*
X-4600Y8600D03*
X-14000Y20300D03*
X-8100Y35800D03*
X-14600Y31700D03*
X-6800Y39700D03*
X-7500Y26803D03*
X-17199Y26100D03*
X-6000Y46200D03*
X6300Y-44700D03*
X11100Y-45300D03*
X5729Y-25229D03*
X20200Y-24000D03*
X21800Y-37700D03*
X10100Y-33900D03*
X7800Y-17300D03*
X11853Y1947D03*
X7113Y-6113D03*
X2292Y-9900D03*
X7279Y9821D03*
X5700Y16613D03*
X23800Y-20600D03*
X31400Y-37700D03*
X25500Y-35900D03*
X41700Y-4700D03*
X36300Y-9300D03*
X28415Y900D03*
X31400Y7800D03*
X28800Y4500D03*
X44100Y7000D03*
X43700Y2300D03*
G54D11*
X-19459Y-52412D03*
X-14630Y-53706D03*
X21500Y34900D03*
Y29900D03*
X26500Y34900D03*
Y29900D03*
X31500Y34900D03*
Y29900D03*
X36500Y34900D03*
Y29900D03*
X41500Y34900D03*
G54D12*
X-9800Y-55000D03*
G54D13*
X15400Y-57300D03*
X8700Y-57200D03*
G54D14*
X41500Y29900D03*
G54D15*
G01X-20600Y-3000D02*
Y5115D01*
X-4800Y20915D01*
Y37700D01*
X-6800Y39700D01*
G01X-25700Y-1100D02*
Y11570D01*
X-10467Y26803D01*
X-7500D01*
G01X-10800Y-17700D02*
X-11043Y-17943D01*
Y-26013D01*
X2744Y-39800D01*
X29300D01*
X31400Y-37700D01*
G01X21800D02*
X12700Y-28600D01*
X5200D01*
X-7200Y-16200D01*
G01X31400Y7800D02*
X14736D01*
X9753Y2817D01*
Y2053D01*
X-6300Y-14000D01*
X-11600D01*
G01X25500Y-35900D02*
X10400Y-20800D01*
X1500D01*
X-3100Y-16200D01*
G01X26500Y29900D02*
X33500Y22900D01*
Y3015D01*
X13185Y-17300D01*
X7800D01*
G01X2292Y-9900D02*
X14400D01*
X28800Y4500D01*
G01X43700Y2300D02*
X43800Y2200D01*
Y-5570D01*
X28770Y-20600D01*
X23800D01*
M02*
