G04 ================== begin FILE IDENTIFICATION RECORD ==================*
G04 Layout Name:  C:/Users/Liber/Desktop/SmartRing-V1.03/version2/MainBoard.brd*
G04 Film Name:    SILKSCREEN_BOTTOM*
G04 File Format:  Gerber RS274X*
G04 File Origin:  Cadence Allegro 16.3-p003*
G04 Origin Date:  Thu Mar 27 00:00:23 2014*
G04 *
G04 Layer:  PACKAGE GEOMETRY/SILKSCREEN_BOTTOM*
G04 Layer:  MANUFACTURING/AUTOSILK_BOTTOM*
G04 Layer:  BOARD GEOMETRY/SILKSCREEN_BOTTOM*
G04 *
G04 Offset:    (0.00 0.00)*
G04 Mirror:    No*
G04 Mode:      Positive*
G04 Rotation:  0*
G04 FullContactRelief:  No*
G04 UndefLineWidth:     6.00*
G04 ================== end FILE IDENTIFICATION RECORD ====================*
%FSLAX35Y35*MOIN*%
%IR0*IPPOS*OFA0.00000B0.00000*MIA0B0*SFA1.00000B1.00000*%
%ADD10C,.006*%
G75*
%LPD*%
G75*
G54D10*
G01X-38233Y-41913D02*
X-38358Y-42020D01*
X-38567Y-42100D01*
X-38858Y-42153D01*
X-39108Y-42100D01*
X-39275Y-41993D01*
X-39400Y-41807D01*
Y-41087D01*
X-36900D01*
Y-41967D01*
X-37067Y-42153D01*
X-37317Y-42260D01*
X-37608Y-42313D01*
X-37900Y-42260D01*
X-38150Y-42100D01*
X-38233Y-41913D01*
Y-41087D01*
G01X-39400Y-43900D02*
X-36900D01*
G01X-39400Y-43287D02*
Y-44513D01*
G01X-36900Y-46100D02*
X-39400D01*
X-38900Y-45780D01*
G01X-36900D02*
Y-46420D01*
G01X25307Y-43462D02*
X25057Y-43329D01*
X24890Y-43169D01*
X24807Y-42982D01*
X24890Y-42769D01*
X25057Y-42609D01*
X25307Y-42449D01*
X25640Y-42396D01*
X27307D01*
G01X25182Y-41316D02*
X24974Y-41156D01*
X24849Y-40969D01*
X24807Y-40729D01*
X24890Y-40489D01*
X25057Y-40302D01*
X25349Y-40169D01*
X25682Y-40142D01*
X26015Y-40196D01*
X26224Y-40329D01*
X26390Y-40516D01*
X26432Y-40702D01*
X26390Y-40889D01*
X26224Y-41129D01*
X27307Y-41049D01*
Y-40329D01*
G01X56833Y-900D02*
X56700Y-1150D01*
X56540Y-1317D01*
X56353Y-1400D01*
X56140Y-1317D01*
X55980Y-1150D01*
X55820Y-900D01*
X55767Y-567D01*
Y1100D01*
G01X54687Y-900D02*
X54527Y-1192D01*
X54313Y-1358D01*
X54073Y-1400D01*
X53860Y-1358D01*
X53647Y-1150D01*
X53513Y-900D01*
X53487Y-650D01*
X53540Y-358D01*
X53727Y-150D01*
X53913Y-67D01*
X54153D01*
G01X53913D02*
X53753Y58D01*
X53620Y267D01*
X53567Y517D01*
X53620Y767D01*
X53753Y975D01*
X53993Y1100D01*
X54233Y1058D01*
X54473Y892D01*
G01X50633Y30300D02*
X50500Y30050D01*
X50340Y29883D01*
X50153Y29800D01*
X49940Y29883D01*
X49780Y30050D01*
X49620Y30300D01*
X49567Y30633D01*
Y32300D01*
G01X47580Y29800D02*
Y32300D01*
X48567Y30508D01*
X47233D01*
G01X-50900Y34300D02*
G02Y-33600I20030J-33950D01*
G01Y34300D02*
Y-33600D01*
G01Y34300D02*
Y-33600D01*
G01D02*
G03X-35336Y-38815I20031J33950D01*
G01Y39515D02*
G03X-50900Y34300I4467J-39166D01*
G01X-26864Y-38864D02*
G03X7767Y-7462I-4005J39214D01*
G01X4573Y17601D02*
G03X-26864Y39564I-35444J-17252D01*
G01X10282Y-41325D02*
G02I-282J404D01*
G01X27321Y-50901D02*
X22323Y-54401D01*
X17581Y-47629D01*
G01X15579Y-34132D02*
X10580Y-37631D01*
X15322Y-44403D01*
G01X10492Y-40921D02*
G03X10000Y-40429I-492J0D01*
G01D02*
G03X9507Y-40921I-1J-492D01*
G01D02*
G03X10000Y-41414I492J-1D01*
G01D02*
G03X10492Y-40921I0J492D01*
G01X15561Y-34145D02*
X10580Y-37631D01*
X11790Y-39360D01*
G01X8176Y-5056D02*
G03X7720Y8388I-39045J5405D01*
G01X6999Y11294D02*
G03X5679Y15114I-37867J-10947D01*
G01X46461Y24920D02*
Y39880D01*
X16539D01*
Y24920D01*
X46461D01*
G01D02*
Y39880D01*
X16539D01*
Y24920D01*
X46461D01*
G01X27321Y-50901D02*
X22323Y-54401D01*
X20411Y-51671D01*
G01X28479Y-25099D02*
X33477Y-21599D01*
X38219Y-28371D01*
G01X28479Y-25099D02*
X33477Y-21599D01*
X35389Y-24329D01*
G01X39018Y-16023D02*
G02I-492J0D01*
G01X36164Y-7558D02*
Y-13661D01*
X44431D01*
G01X36164Y-7558D02*
Y-7807D01*
G01Y-10793D02*
Y-13661D01*
X40589D01*
G01X39018Y-16023D02*
G03I-492J0D01*
G01X36164Y10158D02*
Y16261D01*
X44431D01*
G01X36164Y10158D02*
Y16261D01*
X40589D01*
G01X40221Y-41868D02*
X45220Y-38369D01*
X40478Y-31597D01*
G01X40221Y-41868D02*
X45220Y-38369D01*
X44010Y-36640D01*
G01X56636Y-7558D02*
Y-13661D01*
X48369D01*
G01X56636Y-7558D02*
Y-13661D01*
X52211D01*
G01X56636Y10158D02*
Y16261D01*
X48369D01*
G01X56636Y10158D02*
Y16261D01*
X52211D01*
G01X49217Y29900D02*
G03I-493J0D01*
G01D02*
G03I-493J0D01*
M02*
