G04 ================== begin FILE IDENTIFICATION RECORD ==================*
G04 Layout Name:  C:/Users/Liber/Desktop/SmartRing-V1.03/version2/MainBoard.brd*
G04 Film Name:    SOLDERMASK_TOP*
G04 File Format:  Gerber RS274X*
G04 File Origin:  Cadence Allegro 16.3-p003*
G04 Origin Date:  Thu Mar 27 00:00:23 2014*
G04 *
G04 Layer:  PIN/SOLDERMASK_TOP*
G04 Layer:  PACKAGE GEOMETRY/SOLDERMASK_TOP*
G04 Layer:  BOARD GEOMETRY/SOLDERMASK_TOP*
G04 *
G04 Offset:    (0.00 0.00)*
G04 Mirror:    No*
G04 Mode:      Positive*
G04 Rotation:  0*
G04 FullContactRelief:  No*
G04 UndefLineWidth:     6.00*
G04 ================== end FILE IDENTIFICATION RECORD ====================*
%FSLAX35Y35*MOIN*%
%IR0*IPPOS*OFA0.00000B0.00000*MIA0B0*SFA1.00000B1.00000*%
%ADD29C,.05118*%
%ADD13C,.04528*%
%ADD32R,.01732X.00709*%
%AMMACRO36*
21,1,.0689,.05906,0.0,0.0,150.*%
%ADD36MACRO36*%
%ADD35R,.04528X.04528*%
%AMMACRO21*
21,1,.04528,.04528,0.0,0.0,75.*%
%ADD21MACRO21*%
%AMMACRO20*
4,1,21,-.02067,.0128,
.00787,.0128,
.010093,.012606,
.012248,.012028,
.01427,.011085,
.016098,.009805,
.017675,.008228,
.018955,.0064,
.019898,.004378,
.020476,.002223,
.02067,0.0,
.020476,-.002223,
.019898,-.004378,
.018955,-.0064,
.017675,-.008228,
.016098,-.009805,
.01427,-.011085,
.012248,-.012028,
.010093,-.012606,
.00787,-.0128,
-.02067,-.0128,
-.02067,.0128,
0.0*
%
%ADD20MACRO20*%
%ADD33R,.0315X.04331*%
%AMMACRO30*
4,1,35,-.02756,.0374,
-.01969,.04528,
.02559,.04528,
.025931,.045251,
.026262,.045163,
.026573,.04502,
.026854,.044824,
.027097,.044583,
.027294,.044303,
.02744,.043993,
.027529,.043662,
.02756,.043321,
.02756,.04331,
.02756,-.04331,
.027531,-.043651,
.027443,-.043982,
.0273,-.044293,
.027104,-.044574,
.026863,-.044817,
.026583,-.045014,
.026273,-.04516,
.025942,-.045249,
.025601,-.04528,
.02559,-.04528,
-.02559,-.04528,
-.025931,-.045251,
-.026262,-.045163,
-.026573,-.04502,
-.026854,-.044824,
-.027097,-.044583,
-.027294,-.044303,
-.02744,-.043993,
-.027529,-.043662,
-.02756,-.043321,
-.02756,-.04331,
-.02756,.0374,
0.0*
%
%ADD30MACRO30*%
%ADD26R,.03346X.01102*%
%ADD14R,.03031X.03307*%
%ADD25R,.01102X.03346*%
%ADD17R,.03307X.03031*%
%ADD24R,.001X.001*%
%ADD22R,.01181X.02047*%
%ADD23R,.01181X.02165*%
%ADD12R,.04134X.02165*%
%ADD15R,.03228X.03307*%
%ADD16R,.03307X.03228*%
%AMMACRO11*
4,1,32,-.04528,.04724,
-.03346,.05906,
.04134,.05906,
.042024,.059,
.042688,.058822,
.043311,.058531,
.043873,.058137,
.044359,.057651,
.044753,.057088,
.045043,.056465,
.04522,.055801,
.04528,.05512,
.04528,-.05512,
.04522,-.055804,
.045042,-.056468,
.044751,-.057091,
.044357,-.057653,
.043871,-.058139,
.043308,-.058533,
.042685,-.058823,
.042021,-.059,
.04134,-.05906,
-.04134,-.05906,
-.042024,-.059,
-.042688,-.058822,
-.043311,-.058531,
-.043873,-.058137,
-.044359,-.057651,
-.044753,-.057088,
-.045043,-.056465,
-.04522,-.055801,
-.04528,-.05512,
-.04528,.04724,
0.0*
%
%ADD11MACRO11*%
%ADD27R,.04134X.0689*%
%AMMACRO31*
4,1,21,.02067,-.0128,
-.00787,-.0128,
-.010093,-.012606,
-.012248,-.012028,
-.01427,-.011085,
-.016098,-.009805,
-.017675,-.008228,
-.018955,-.0064,
-.019898,-.004378,
-.020476,-.002223,
-.02067,0.0,
-.020476,.002223,
-.019898,.004378,
-.018955,.0064,
-.017675,.008228,
-.016098,.009805,
-.01427,.011085,
-.012248,.012028,
-.010093,.012606,
-.00787,.0128,
.02067,.0128,
.02067,-.0128,
0.0*
%
%ADD31MACRO31*%
%ADD34R,.01969X.03346*%
%ADD18R,.07677X.05315*%
%ADD10R,.07087X.05709*%
%ADD28R,.01969X.03937*%
%ADD19R,.03937X.01969*%
G75*
%LPD*%
G75*
G36*
G01X-14330Y-26440D02*
X-12600D01*
Y-23840D01*
X-14330D01*
Y-26440D01*
G37*
G36*
G01X-12370D02*
X-10630D01*
Y-23840D01*
X-12370D01*
Y-26440D01*
G37*
G36*
G01X-10400D02*
X-8670D01*
Y-23840D01*
X-10400D01*
Y-26440D01*
G37*
G36*
G01Y-29360D02*
X-8670D01*
Y-26760D01*
X-10400D01*
Y-29360D01*
G37*
G36*
G01X-12370D02*
X-10630D01*
Y-26760D01*
X-12370D01*
Y-29360D01*
G37*
G36*
G01X-14330D02*
X-12600D01*
Y-26760D01*
X-14330D01*
Y-29360D01*
G37*
G36*
G01X810Y14010D02*
X-710D01*
Y-4210D01*
X810D01*
Y14010D01*
G37*
G36*
G01X-2290D02*
X-3810D01*
Y-4210D01*
X-2290D01*
Y14010D01*
G37*
G36*
G01X-5390D02*
X-6910D01*
Y-4210D01*
X-5390D01*
Y14010D01*
G37*
G36*
G01X-8490D02*
X-10010D01*
Y-4210D01*
X-8490D01*
Y14010D01*
G37*
G36*
G01X-13710D02*
X-11590D01*
Y-4210D01*
X-13710D01*
Y14010D01*
G37*
G36*
G01Y-2090D02*
X4510D01*
Y-4210D01*
X-13710D01*
Y-2090D01*
G37*
G36*
G01Y1010D02*
X4510D01*
Y-510D01*
X-13710D01*
Y1010D01*
G37*
G36*
G01X-500Y-4870D02*
Y-8760D01*
X1150D01*
Y-4870D01*
X-500D01*
G37*
G36*
G01X-2470D02*
Y-8760D01*
X-820D01*
Y-4870D01*
X-2470D01*
G37*
G36*
G01X-4440D02*
Y-8760D01*
X-2790D01*
Y-4870D01*
X-4440D01*
G37*
G36*
G01X-6410D02*
Y-8760D01*
X-4760D01*
Y-4870D01*
X-6410D01*
G37*
G36*
G01X-8380D02*
Y-8760D01*
X-6730D01*
Y-4870D01*
X-8380D01*
G37*
G36*
G01X-10350D02*
Y-8760D01*
X-8700D01*
Y-4870D01*
X-10350D01*
G37*
G36*
G01X-12320D02*
Y-8760D01*
X-10670D01*
Y-4870D01*
X-12320D01*
G37*
G36*
G01X-14290D02*
Y-8760D01*
X-12640D01*
Y-4870D01*
X-14290D01*
G37*
G36*
G01X-18260Y-3130D02*
Y-4780D01*
X-14370D01*
Y-3130D01*
X-18260D01*
G37*
G36*
G01Y-1160D02*
Y-2810D01*
X-14370D01*
Y-1160D01*
X-18260D01*
G37*
G36*
G01Y800D02*
Y-850D01*
X-14370D01*
Y800D01*
X-18260D01*
G37*
G36*
G01X-13710Y4110D02*
X4510D01*
Y2590D01*
X-13710D01*
Y4110D01*
G37*
G36*
G01Y7210D02*
X4510D01*
Y5690D01*
X-13710D01*
Y7210D01*
G37*
G36*
G01Y10310D02*
X4510D01*
Y8790D01*
X-13710D01*
Y10310D01*
G37*
G36*
G01Y14010D02*
X4510D01*
Y11890D01*
X-13710D01*
Y14010D01*
G37*
G36*
G01X-14290Y18560D02*
Y14670D01*
X-12640D01*
Y18560D01*
X-14290D01*
G37*
G36*
G01X-12320D02*
Y14670D01*
X-10670D01*
Y18560D01*
X-12320D01*
G37*
G36*
G01X-10350D02*
Y14670D01*
X-8700D01*
Y18560D01*
X-10350D01*
G37*
G36*
G01X-8380D02*
Y14670D01*
X-6730D01*
Y18560D01*
X-8380D01*
G37*
G36*
G01X-6410D02*
Y14670D01*
X-4760D01*
Y18560D01*
X-6410D01*
G37*
G36*
G01X-4440D02*
Y14670D01*
X-2790D01*
Y18560D01*
X-4440D01*
G37*
G36*
G01X-2470D02*
Y14670D01*
X-820D01*
Y18560D01*
X-2470D01*
G37*
G36*
G01X-500D02*
Y14670D01*
X1150D01*
Y18560D01*
X-500D01*
G37*
G36*
G01X-18260Y2770D02*
Y1120D01*
X-14370D01*
Y2770D01*
X-18260D01*
G37*
G36*
G01Y4740D02*
Y3090D01*
X-14370D01*
Y4740D01*
X-18260D01*
G37*
G36*
G01Y6710D02*
Y5060D01*
X-14370D01*
Y6710D01*
X-18260D01*
G37*
G36*
G01Y8680D02*
Y7030D01*
X-14370D01*
Y8680D01*
X-18260D01*
G37*
G36*
G01Y10650D02*
Y9000D01*
X-14370D01*
Y10650D01*
X-18260D01*
G37*
G36*
G01Y12610D02*
Y10960D01*
X-14370D01*
Y12610D01*
X-18260D01*
G37*
G36*
G01Y14580D02*
Y12930D01*
X-14370D01*
Y14580D01*
X-18260D01*
G37*
G36*
G01X2390Y14010D02*
X4510D01*
Y-4210D01*
X2390D01*
Y14010D01*
G37*
G36*
G01X5170Y800D02*
Y-850D01*
X9060D01*
Y800D01*
X5170D01*
G37*
G36*
G01Y-1160D02*
Y-2810D01*
X9060D01*
Y-1160D01*
X5170D01*
G37*
G36*
G01Y-3130D02*
Y-4780D01*
X9060D01*
Y-3130D01*
X5170D01*
G37*
G36*
G01X3440Y-4870D02*
Y-8760D01*
X5090D01*
Y-4870D01*
X3440D01*
G37*
G36*
G01X1470D02*
Y-8760D01*
X3120D01*
Y-4870D01*
X1470D01*
G37*
G36*
G01Y18560D02*
Y14670D01*
X3120D01*
Y18560D01*
X1470D01*
G37*
G36*
G01X3440D02*
Y14670D01*
X5090D01*
Y18560D01*
X3440D01*
G37*
G36*
G01X5170Y14580D02*
Y12930D01*
X9060D01*
Y14580D01*
X5170D01*
G37*
G36*
G01Y12610D02*
Y10960D01*
X9060D01*
Y12610D01*
X5170D01*
G37*
G36*
G01Y10650D02*
Y9000D01*
X9060D01*
Y10650D01*
X5170D01*
G37*
G36*
G01Y8680D02*
Y7030D01*
X9060D01*
Y8680D01*
X5170D01*
G37*
G36*
G01Y6710D02*
Y5060D01*
X9060D01*
Y6710D01*
X5170D01*
G37*
G36*
G01Y4740D02*
Y3090D01*
X9060D01*
Y4740D01*
X5170D01*
G37*
G36*
G01Y2770D02*
Y1120D01*
X9060D01*
Y2770D01*
X5170D01*
G37*
G54D10*
X-37188Y-5500D03*
X-48212D03*
G54D11*
X-44100Y10300D03*
G54D20*
X591Y-48637D03*
Y-44700D03*
Y-40763D03*
G54D12*
X-51777Y5576D03*
Y8725D03*
Y11875D03*
Y15024D03*
X-36423D03*
Y11875D03*
Y8725D03*
Y5576D03*
G54D30*
X6300Y-44700D03*
G54D21*
X-9800Y-55000D03*
G54D31*
X12009Y-40763D03*
Y-44700D03*
Y-48637D03*
G54D22*
X-13468Y-25143D03*
X-11500D03*
X-9532D03*
Y-28057D03*
X-11500D03*
G54D13*
X-19459Y-52412D03*
X-14630Y-53706D03*
X21500Y34900D03*
Y29900D03*
X26500Y34900D03*
Y29900D03*
X31500Y34900D03*
Y29900D03*
X36500Y34900D03*
Y29900D03*
X41500Y34900D03*
G54D23*
X-13468Y-27998D03*
G54D14*
X-21590Y-25500D03*
X-30329Y-29900D03*
Y-25900D03*
X-38229D03*
Y-22000D03*
Y-29800D03*
X-30329Y-22000D03*
X-38229Y-18100D03*
X-30329D03*
X-30429Y-13100D03*
X-26971Y8700D03*
Y12600D03*
X-20029Y46700D03*
X-129Y-54100D03*
X-9471Y-42000D03*
X-15890Y-32800D03*
X-12110D03*
X-17810Y-25500D03*
X-1829Y-33400D03*
X-13229Y-37600D03*
X-17771Y-21500D03*
X-1029Y33600D03*
X-6210Y46800D03*
X-9990D03*
X6171Y-33900D03*
X5729Y-25600D03*
X2029Y-29600D03*
X4271Y-17300D03*
Y-13400D03*
X15871Y4300D03*
G54D32*
X9711Y-29900D03*
X6089Y-30609D03*
Y-29191D03*
G54D15*
X-26589Y-29900D03*
Y-25900D03*
X-34489D03*
X-21511Y-21500D03*
X-34489Y-22000D03*
Y-29800D03*
X-26589Y-22000D03*
X-34489Y-18100D03*
X-26589D03*
X-26689Y-13100D03*
X-30711Y8700D03*
Y12600D03*
X-13211Y-42000D03*
X-1711Y-29600D03*
X-9489Y-37600D03*
X-16289Y46700D03*
X3611Y-54100D03*
X9911Y-33900D03*
X1989Y-25600D03*
X1911Y-33400D03*
X8011Y-17300D03*
Y-13400D03*
X19611Y4300D03*
X2711Y33600D03*
G54D24*
X-4600Y4900D03*
G54D33*
X20065Y-338D03*
Y-5062D03*
X15735D03*
Y-338D03*
G54D34*
X25469Y12228D03*
X23500D03*
X21531D03*
Y15772D03*
X23500D03*
X25469D03*
G54D16*
X-22800Y16589D03*
X-6700Y-20211D03*
X-2600D03*
X17100Y20811D03*
X9900Y30911D03*
X23900Y-3711D03*
X30300Y15811D03*
G54D25*
X-1646Y-6813D03*
X-3615D03*
X-5585D03*
X-7554D03*
X-9522D03*
X-11492D03*
X-13460D03*
Y16613D03*
X-11492D03*
X-9522D03*
X-7554D03*
X-5585D03*
X-3615D03*
X-1646D03*
X4260Y-6813D03*
X2292D03*
X322D03*
Y16613D03*
X2292D03*
X4260D03*
G54D17*
X-22800Y20329D03*
X-6700Y-16471D03*
X-2600D03*
X17100Y17071D03*
X9900Y27171D03*
X23900Y29D03*
X35000Y12110D03*
Y15890D03*
X30300Y12071D03*
G54D26*
X-16313Y-3958D03*
Y-1990D03*
Y-21D03*
Y1947D03*
Y3916D03*
Y5884D03*
Y7853D03*
Y9821D03*
Y11790D03*
Y13758D03*
X7113Y-21D03*
Y-1990D03*
Y-3958D03*
Y13758D03*
Y11790D03*
Y9821D03*
Y7853D03*
Y5884D03*
Y3916D03*
Y1947D03*
G54D35*
X41500Y29900D03*
G54D18*
X-32900Y36793D03*
Y23407D03*
G54D27*
X-1053Y27300D03*
X4853D03*
G54D36*
X47249Y-32384D03*
X53351Y-21816D03*
G54D19*
X-19106Y28563D03*
Y30531D03*
Y32500D03*
Y34469D03*
Y36437D03*
X-7294D03*
Y34469D03*
Y32500D03*
Y30531D03*
Y28563D03*
G54D28*
X-15169Y38406D03*
X-13200D03*
X-11231D03*
Y26594D03*
X-13200D03*
X-15169D03*
G54D29*
X15400Y-57300D03*
X8700Y-57200D03*
M02*
