G04 ================== begin FILE IDENTIFICATION RECORD ==================*
G04 Layout Name:  C:/Users/Liber/Desktop/SmartRing-V1.02/PCB/SmartRing.brd*
G04 Film Name:    DRILL_DRAWIMG*
G04 File Format:  Gerber RS274X*
G04 File Origin:  Cadence Allegro 16.3-p003*
G04 Origin Date:  Mon Feb 10 17:13:57 2014*
G04 *
G04 Layer:  MANUFACTURING/NCLEGEND-1-4*
G04 Layer:  BOARD GEOMETRY/OUTLINE*
G04 *
G04 Offset:    (0.000 0.000)*
G04 Mirror:    No*
G04 Mode:      Positive*
G04 Rotation:  0*
G04 FullContactRelief:  No*
G04 UndefLineWidth:     6.000*
G04 ================== end FILE IDENTIFICATION RECORD ====================*
%FSLAX55Y55*MOIN*%
%IR0*IPPOS*OFA0.00000B0.00000*MIA0B0*SFA1.00000B1.00000*%
%AMMACRO10*
1,1,.006,.006,0.0*
20,1,.006,.006,0.0,.005909,-.001042,0.0*
1,1,.006,.005909,-.001042*
20,1,.006,.005909,-.001042,.005638,-.002052,0.0*
1,1,.006,.005638,-.002052*
20,1,.006,.005638,-.002052,.005196,-.003,0.0*
1,1,.006,.005196,-.003*
20,1,.006,.005196,-.003,.004596,-.003857,0.0*
1,1,.006,.004596,-.003857*
20,1,.006,.004596,-.003857,.003857,-.004596,0.0*
1,1,.006,.003857,-.004596*
20,1,.006,.003857,-.004596,.003,-.005196,0.0*
1,1,.006,.003,-.005196*
20,1,.006,.003,-.005196,.002052,-.005638,0.0*
1,1,.006,.002052,-.005638*
20,1,.006,.002052,-.005638,.001042,-.005909,0.0*
1,1,.006,.001042,-.005909*
20,1,.006,.001042,-.005909,0.0,-.006,0.0*
1,1,.006,0.0,-.006*
20,1,.006,0.0,-.006,-.001042,-.005909,0.0*
1,1,.006,-.001042,-.005909*
20,1,.006,-.001042,-.005909,-.002052,-.005638,0.0*
1,1,.006,-.002052,-.005638*
20,1,.006,-.002052,-.005638,-.003,-.005196,0.0*
1,1,.006,-.003,-.005196*
20,1,.006,-.003,-.005196,-.003857,-.004596,0.0*
1,1,.006,-.003857,-.004596*
20,1,.006,-.003857,-.004596,-.004596,-.003857,0.0*
1,1,.006,-.004596,-.003857*
20,1,.006,-.004596,-.003857,-.005196,-.003,0.0*
1,1,.006,-.005196,-.003*
20,1,.006,-.005196,-.003,-.005638,-.002052,0.0*
1,1,.006,-.005638,-.002052*
20,1,.006,-.005638,-.002052,-.005909,-.001042,0.0*
1,1,.006,-.005909,-.001042*
20,1,.006,-.005909,-.001042,-.006,0.0,0.0*
1,1,.006,-.006,0.0*
20,1,.006,-.006,0.0,-.005909,.001042,0.0*
1,1,.006,-.005909,.001042*
20,1,.006,-.005909,.001042,-.005638,.002052,0.0*
1,1,.006,-.005638,.002052*
20,1,.006,-.005638,.002052,-.005196,.003,0.0*
1,1,.006,-.005196,.003*
20,1,.006,-.005196,.003,-.004596,.003857,0.0*
1,1,.006,-.004596,.003857*
20,1,.006,-.004596,.003857,-.003857,.004596,0.0*
1,1,.006,-.003857,.004596*
20,1,.006,-.003857,.004596,-.003,.005196,0.0*
1,1,.006,-.003,.005196*
20,1,.006,-.003,.005196,-.002052,.005638,0.0*
1,1,.006,-.002052,.005638*
20,1,.006,-.002052,.005638,-.001042,.005909,0.0*
1,1,.006,-.001042,.005909*
20,1,.006,-.001042,.005909,0.0,.006,0.0*
1,1,.006,0.0,.006*
20,1,.006,0.0,.006,.001042,.005909,0.0*
1,1,.006,.001042,.005909*
20,1,.006,.001042,.005909,.002052,.005638,0.0*
1,1,.006,.002052,.005638*
20,1,.006,.002052,.005638,.003,.005196,0.0*
1,1,.006,.003,.005196*
20,1,.006,.003,.005196,.003857,.004596,0.0*
1,1,.006,.003857,.004596*
20,1,.006,.003857,.004596,.004596,.003857,0.0*
1,1,.006,.004596,.003857*
20,1,.006,.004596,.003857,.005196,.003,0.0*
1,1,.006,.005196,.003*
20,1,.006,.005196,.003,.005638,.002052,0.0*
1,1,.006,.005638,.002052*
20,1,.006,.005638,.002052,.005909,.001042,0.0*
1,1,.006,.005909,.001042*
20,1,.006,.005909,.001042,.006,0.0,0.0*
1,1,.006,.006,0.0*
1,1,.006,.003,0.0*
20,1,.006,.003,0.0,-.003,0.0,0.0*
1,1,.006,-.003,0.0*
1,1,.006,0.0,.003*
20,1,.006,0.0,.003,0.0,-.003,0.0*
1,1,.006,0.0,-.003*
%
%ADD10MACRO10*%
%ADD11C,.006*%
G75*
%LPD*%
G75*
G54D10*
X-136100Y44000D03*
X-135700Y47400D03*
X-132900Y-47300D03*
X-127000Y-47000D03*
X-131550Y-39500D03*
X-130200Y-22900D03*
X-126855Y-27625D03*
X-129900Y-29875D03*
X-127038Y27168D03*
X-131100Y21146D03*
X-126528Y35591D03*
X-114600Y-43100D03*
X-120950Y-47550D03*
X-120938Y-40700D03*
X-115006Y-5006D03*
X-117472Y31328D03*
X-114995Y38740D03*
X-103100Y-38300D03*
X-109200Y14500D03*
X-101600Y37981D03*
X-97600Y-43600D03*
X-96118Y-5082D03*
X-95600Y14400D03*
X-90567Y26518D03*
X-98100Y30100D03*
X-86600Y14400D03*
X-79279Y39300D03*
X-78200Y28768D03*
X-82600Y30350D03*
X-86300Y32300D03*
X-88500Y42350D03*
X-83940D03*
X-88440Y46410D03*
X-72700Y-43600D03*
X-74220Y-38718D03*
X-70287Y-37318D03*
X-72818Y-23088D03*
X-68000Y1300D03*
X-69133Y-5600D03*
X-66100Y6300D03*
X-69559Y26518D03*
X-72585Y44160D03*
X-72232Y48745D03*
X-76235Y39610D03*
X-54450Y-40092D03*
X-59263Y-37318D03*
X-55145Y-30154D03*
X-54845Y-21542D03*
X-55145Y-16030D03*
X-59110Y590D03*
X-63450Y9850D03*
X-59110Y11529D03*
X-57200Y25600D03*
X-61000Y27700D03*
X-64928Y27968D03*
X-58450Y44160D03*
X-61200Y47400D03*
X-47700Y-49900D03*
X-43150Y-37465D03*
X-46700Y-32600D03*
X-51495Y-25654D03*
X-49245Y-27904D03*
X-47900Y-15800D03*
X-44000Y-14000D03*
X-51800Y6300D03*
X-53300Y11400D03*
X-52400Y20440D03*
X-49800Y25800D03*
X-50987Y37300D03*
X-43300Y36200D03*
X-44085Y40614D03*
X-47840Y40395D03*
X-43657Y48232D03*
X-41750Y-48200D03*
X-32736Y-37817D03*
X-40100Y-25600D03*
X-30634Y-11160D03*
X-40900Y-10300D03*
X-41500Y-17400D03*
X-41232Y515D03*
X-30651Y-2490D03*
X-38982Y10254D03*
X-32080Y10260D03*
X-30800Y14200D03*
X-34330Y12611D03*
X-41800Y33000D03*
X-38800Y43000D03*
X-22800Y-33500D03*
X-21350Y-37350D03*
X-27759Y-24973D03*
X-22250Y-29400D03*
X-25509Y-28623D03*
X-26909Y-20500D03*
X-29909Y-21100D03*
X-26909Y-16760D03*
X-22800Y5600D03*
X-19800D03*
X-29500Y23500D03*
X-27800Y27900D03*
X-19800Y28700D03*
X-19700Y42000D03*
X-12700Y-38100D03*
X-15219Y-21657D03*
X-10000Y-28800D03*
X-17800Y900D03*
X-15493Y3865D03*
X-17500Y12800D03*
X-10223Y6477D03*
X-11505Y25460D03*
X-14500Y28000D03*
X-2800Y-35750D03*
X-6500Y-27378D03*
X-2100Y-17762D03*
X-5639Y-17700D03*
X-4000Y-900D03*
X2288Y250D03*
X1707Y11809D03*
X2807Y14809D03*
X2032Y27600D03*
X962Y21200D03*
X-6639Y38300D03*
X100Y38800D03*
X3500Y46300D03*
X8638Y-8436D03*
X7800Y-13800D03*
X12561Y-2180D03*
X14362Y9100D03*
X13612Y17666D03*
X8900Y39300D03*
X14000Y49900D03*
X9989Y43475D03*
X6600Y49800D03*
X22882Y-33500D03*
X21422Y-6919D03*
X26737Y13100D03*
X25950Y28800D03*
X25999Y41225D03*
X36599Y-21850D03*
X34349Y-13059D03*
Y4982D03*
X36599Y13267D03*
X32911Y9100D03*
X31132Y17600D03*
X38849Y21800D03*
X33382Y19910D03*
X36599Y34656D03*
X31181Y34260D03*
X36478Y41225D03*
X40953Y-38750D03*
X43990Y2732D03*
X40600Y14600D03*
X47140Y4900D03*
X48516Y17959D03*
X40600Y45463D03*
X55092Y-35800D03*
X61262Y-32209D03*
X58650Y-29959D03*
X57342Y-23706D03*
X51442Y-21005D03*
Y-27510D03*
X62500Y-22500D03*
X61500Y-11900D03*
X55050Y-5350D03*
X59800Y-1168D03*
X62660Y6604D03*
X57454Y15400D03*
X52689Y5711D03*
X58479Y22700D03*
X59312Y25700D03*
X68700Y-22100D03*
X63600Y-16300D03*
X68353Y-9870D03*
X71000Y-13800D03*
X62750Y2482D03*
X65900Y-3200D03*
X71200Y-600D03*
X66650Y10250D03*
X73100Y15300D03*
X68805Y15400D03*
X68500Y22900D03*
X73446Y19600D03*
X63700Y29000D03*
X72300Y31600D03*
X76442Y-34508D03*
X83392Y-25286D03*
X83860Y-20786D03*
X75753Y-7992D03*
X76700Y-12900D03*
X75000Y-17200D03*
X76314Y3542D03*
X76700Y26800D03*
X91734Y-20786D03*
X88360D03*
X93832Y-23886D03*
X93000Y-10800D03*
X86700Y-10300D03*
X86200Y-5600D03*
X93000Y-300D03*
X88300D03*
X94200Y10700D03*
X91200Y11900D03*
X88800Y5600D03*
X94200Y17868D03*
X93000Y43200D03*
X105900Y-33400D03*
X102140Y-20786D03*
X99150Y-10350D03*
X99200Y-5600D03*
X107800Y5200D03*
X103700Y13400D03*
X98300D03*
X105300Y7500D03*
X108832Y20032D03*
X100450Y26832D03*
X101500Y34800D03*
X108000Y29900D03*
X118100Y-50800D03*
X117650Y-35650D03*
X114655Y-22000D03*
X117968D03*
X118149Y-17500D03*
X115089Y-12760D03*
X112968Y-15010D03*
X111086Y-9585D03*
X116090Y951D03*
X111086Y-6585D03*
X114650Y9812D03*
X110500Y7800D03*
X114650Y25100D03*
X109351Y23968D03*
X127055Y-33200D03*
X122800Y-36900D03*
X127732Y-13600D03*
X121935Y3701D03*
X121000Y-1849D03*
X132232Y7338D03*
X126600Y12600D03*
X132232Y25900D03*
X125532Y20000D03*
X125512Y23800D03*
X129982Y30500D03*
X126400Y34100D03*
X133427Y-23950D03*
X137996Y-21700D03*
X132800Y-17500D03*
X135100Y4100D03*
Y23300D03*
X145000Y6100D03*
X144700Y39500D03*
X164400Y25000D03*
X175300Y-10651D03*
X178592Y11100D03*
X185568Y19808D03*
X181500Y41400D03*
X187300Y41100D03*
X196244Y-10544D03*
X268950Y-42650D03*
G54D11*
G01X-137795Y55118D02*
X200787D01*
G02X204724Y51181I0J-3937D01*
G01Y-51181D01*
G02X200787Y-55118I-3937J0D01*
G01X-137795D01*
G02X-141732Y-51181I0J3937D01*
G01Y51181D01*
G02X-137795Y55118I3937J0D01*
G01X224000Y-141000D02*
Y52600D01*
X707600D01*
Y-141000D01*
X224000D01*
G01Y-112900D02*
X707600D01*
G01X224000Y-84800D02*
X707600D01*
G01X224000Y-56700D02*
X707600D01*
G01X235005Y-19250D02*
Y-6750D01*
X240895D01*
G01X238725Y-12792D02*
X235005D01*
G01X248490Y-6750D02*
X252210D01*
G01X250350D02*
Y-19250D01*
G01X248490D02*
X252210D01*
G01X263680Y-13000D02*
X266780D01*
Y-16750D01*
X265850Y-18000D01*
X264765Y-18833D01*
X263215Y-19250D01*
X261665Y-18833D01*
X260580Y-18000D01*
X259650Y-16750D01*
X259030Y-15292D01*
X258720Y-13625D01*
Y-12167D01*
X259030Y-10917D01*
X259650Y-9458D01*
X260580Y-8208D01*
X261510Y-7375D01*
X262750Y-6750D01*
X263835D01*
X265075Y-7167D01*
X266005Y-8000D01*
G01X271740Y-6750D02*
Y-15708D01*
X272360Y-17584D01*
X273600Y-18833D01*
X275150Y-19250D01*
X276700Y-18833D01*
X277940Y-17584D01*
X278560Y-15708D01*
Y-6750D01*
G01X284450Y-19250D02*
Y-6750D01*
X288325D01*
X289565Y-7375D01*
X290340Y-8208D01*
X290650Y-9875D01*
X290340Y-11542D01*
X289410Y-12583D01*
X288325Y-13208D01*
X284450D01*
G01X288325D02*
X290650Y-19250D01*
G01X303050D02*
X296850D01*
Y-6750D01*
X303050D01*
G01X300570Y-12792D02*
X296850D01*
G01X224000Y-28600D02*
X707600D01*
G01X224000Y-500D02*
X707600D01*
G01X224000Y27600D02*
X707600D01*
G01X313900Y-500D02*
Y-141000D01*
G01X307390Y33850D02*
Y46350D01*
X310490D01*
X311730Y45725D01*
X312660Y44892D01*
X313435Y43642D01*
X314055Y42183D01*
X314210Y40100D01*
X314055Y38016D01*
X313435Y36558D01*
X312660Y35308D01*
X311730Y34475D01*
X310490Y33850D01*
X307390D01*
G01X320100D02*
Y46350D01*
X323975D01*
X325215Y45725D01*
X325990Y44892D01*
X326300Y43225D01*
X325990Y41558D01*
X325060Y40517D01*
X323975Y39892D01*
X320100D01*
G01X323975D02*
X326300Y33850D01*
G01X333740Y46350D02*
X337460D01*
G01X335600D02*
Y33850D01*
G01X333740D02*
X337460D01*
G01X344900Y46350D02*
Y33850D01*
X351100D01*
G01X357300Y46350D02*
Y33850D01*
X363500D01*
G01X388610Y45308D02*
X387680Y45933D01*
X386595Y46350D01*
X385355D01*
X383960Y45725D01*
X382875Y44683D01*
X382100Y43433D01*
X381480Y41350D01*
X381325Y39475D01*
X381635Y37600D01*
X382100Y36350D01*
X383030Y35100D01*
X384115Y34267D01*
X385200Y33850D01*
X386285D01*
X387370Y34267D01*
X388300Y34891D01*
X389075Y35725D01*
G01X394345Y33850D02*
Y46350D01*
G01X400855D02*
Y33850D01*
G01Y40100D02*
X394345D01*
G01X406125Y33850D02*
X410000Y46350D01*
X413875Y33850D01*
G01X412480Y38225D02*
X407520D01*
G01X419300Y33850D02*
Y46350D01*
X423175D01*
X424415Y45725D01*
X425190Y44892D01*
X425500Y43225D01*
X425190Y41558D01*
X424260Y40517D01*
X423175Y39892D01*
X419300D01*
G01X423175D02*
X425500Y33850D01*
G01X434800Y46350D02*
Y33850D01*
G01X431235Y46350D02*
X438365D01*
G01X447200Y33433D02*
X446890Y33642D01*
Y34058D01*
X447200Y34267D01*
X447510Y34058D01*
Y33642D01*
X447200Y33433D01*
G01Y39058D02*
X446890Y39267D01*
Y39683D01*
X447200Y39892D01*
X447510Y39683D01*
Y39267D01*
X447200Y39058D01*
G01X472000Y46350D02*
Y33850D01*
G01X468435Y46350D02*
X475565D01*
G01X484400Y33850D02*
X483160Y34058D01*
X482075Y34891D01*
X481145Y36142D01*
X480525Y37600D01*
X480215Y39267D01*
Y40933D01*
X480525Y42600D01*
X481145Y44058D01*
X482075Y45308D01*
X483160Y46142D01*
X484400Y46350D01*
X485640Y46142D01*
X486725Y45308D01*
X487655Y44058D01*
X488275Y42600D01*
X488585Y40933D01*
Y39267D01*
X488275Y37600D01*
X487655Y36142D01*
X486725Y34891D01*
X485640Y34058D01*
X484400Y33850D01*
G01X493700D02*
Y46350D01*
X497420D01*
X498660Y45725D01*
X499590Y44267D01*
X499900Y42600D01*
X499590Y40933D01*
X498815Y39683D01*
X497420Y39058D01*
X493700D01*
G01X521600Y46350D02*
Y33850D01*
G01X519430Y42183D02*
X523770D01*
G01X534000Y33850D02*
X533070Y34058D01*
X532140Y34891D01*
X531520Y36350D01*
X531210Y38016D01*
X531520Y39683D01*
X532140Y41142D01*
X533070Y41975D01*
X534000Y42183D01*
X534930Y41975D01*
X535860Y41142D01*
X536480Y39683D01*
X536635Y38016D01*
X536480Y36350D01*
X535860Y34891D01*
X534930Y34058D01*
X534000Y33850D01*
G01X560040Y40517D02*
X560660Y41142D01*
X561125Y42183D01*
X561435Y43642D01*
X561125Y44892D01*
X560505Y45725D01*
X559420Y46350D01*
X555235D01*
Y33850D01*
X560350D01*
X561435Y34683D01*
X562055Y35933D01*
X562365Y37392D01*
X562055Y38850D01*
X561125Y40100D01*
X560040Y40517D01*
X555235D01*
G01X571200Y33850D02*
X569960Y34058D01*
X568875Y34891D01*
X567945Y36142D01*
X567325Y37600D01*
X567015Y39267D01*
Y40933D01*
X567325Y42600D01*
X567945Y44058D01*
X568875Y45308D01*
X569960Y46142D01*
X571200Y46350D01*
X572440Y46142D01*
X573525Y45308D01*
X574455Y44058D01*
X575075Y42600D01*
X575385Y40933D01*
Y39267D01*
X575075Y37600D01*
X574455Y36142D01*
X573525Y34891D01*
X572440Y34058D01*
X571200Y33850D01*
G01X583600Y46350D02*
Y33850D01*
G01X580035Y46350D02*
X587165D01*
G01X596000D02*
Y33850D01*
G01X592435Y46350D02*
X599565D01*
G01X608400Y33850D02*
X607160Y34058D01*
X606075Y34891D01*
X605145Y36142D01*
X604525Y37600D01*
X604215Y39267D01*
Y40933D01*
X604525Y42600D01*
X605145Y44058D01*
X606075Y45308D01*
X607160Y46142D01*
X608400Y46350D01*
X609640Y46142D01*
X610725Y45308D01*
X611655Y44058D01*
X612275Y42600D01*
X612585Y40933D01*
Y39267D01*
X612275Y37600D01*
X611655Y36142D01*
X610725Y34891D01*
X609640Y34058D01*
X608400Y33850D01*
G01X616770D02*
Y46350D01*
X620800Y35933D01*
X624830Y46350D01*
Y33850D01*
G01X337925Y8850D02*
X341800Y21350D01*
X345675Y8850D01*
G01X344280Y13225D02*
X339320D01*
G01X351100Y21350D02*
Y8850D01*
X357300D01*
G01X363500Y21350D02*
Y8850D01*
X369700D01*
G01X387990Y21350D02*
Y12392D01*
X388610Y10516D01*
X389850Y9267D01*
X391400Y8850D01*
X392950Y9267D01*
X394190Y10516D01*
X394810Y12392D01*
Y21350D01*
G01X400235Y8850D02*
Y21350D01*
X407365Y8850D01*
Y21350D01*
G01X414340D02*
X418060D01*
G01X416200D02*
Y8850D01*
G01X414340D02*
X418060D01*
G01X428600Y21350D02*
Y8850D01*
G01X425035Y21350D02*
X432165D01*
G01X437745Y10516D02*
X438985Y9475D01*
X440380Y8850D01*
X441620D01*
X442860Y9475D01*
X443790Y10516D01*
X444255Y11975D01*
X443945Y13433D01*
X443170Y14683D01*
X441775Y15517D01*
X439915Y15933D01*
X438830Y16766D01*
X438365Y18225D01*
X438675Y19683D01*
X439450Y20725D01*
X440535Y21350D01*
X441620D01*
X442705Y20933D01*
X443635Y19892D01*
G01X461925Y8850D02*
X465800Y21350D01*
X469675Y8850D01*
G01X468280Y13225D02*
X463320D01*
G01X475100Y8850D02*
Y21350D01*
X478975D01*
X480215Y20725D01*
X480990Y19892D01*
X481300Y18225D01*
X480990Y16558D01*
X480060Y15517D01*
X478975Y14892D01*
X475100D01*
G01X478975D02*
X481300Y8850D01*
G01X493700D02*
X487500D01*
Y21350D01*
X493700D01*
G01X491220Y15308D02*
X487500D01*
G01X513540Y21350D02*
X517260D01*
G01X515400D02*
Y8850D01*
G01X513540D02*
X517260D01*
G01X524235D02*
Y21350D01*
X531365Y8850D01*
Y21350D01*
G01X548570Y8850D02*
Y21350D01*
X552600Y10933D01*
X556630Y21350D01*
Y8850D01*
G01X563140Y21350D02*
X566860D01*
G01X565000D02*
Y8850D01*
G01X563140D02*
X566860D01*
G01X574300Y21350D02*
Y8850D01*
X580500D01*
G01X586545Y10516D02*
X587785Y9475D01*
X589180Y8850D01*
X590420D01*
X591660Y9475D01*
X592590Y10516D01*
X593055Y11975D01*
X592745Y13433D01*
X591970Y14683D01*
X590575Y15517D01*
X588715Y15933D01*
X587630Y16766D01*
X587165Y18225D01*
X587475Y19683D01*
X588250Y20725D01*
X589335Y21350D01*
X590420D01*
X591505Y20933D01*
X592435Y19892D01*
G01X379310Y-133200D02*
Y-120700D01*
X373575Y-129658D01*
X381325D01*
G01X389850Y-133200D02*
Y-120700D01*
X387990Y-123200D01*
G01Y-133200D02*
X391710D01*
G01X402250Y-133617D02*
X401940Y-133408D01*
Y-132992D01*
X402250Y-132783D01*
X402560Y-132992D01*
Y-133408D01*
X402250Y-133617D01*
G01X411240Y-130700D02*
X412170Y-132159D01*
X413410Y-132992D01*
X414805Y-133200D01*
X416045Y-132992D01*
X417285Y-131950D01*
X418060Y-130700D01*
X418215Y-129450D01*
X417905Y-127992D01*
X416820Y-126950D01*
X415735Y-126533D01*
X414340D01*
G01X415735D02*
X416665Y-125908D01*
X417440Y-124867D01*
X417750Y-123617D01*
X417440Y-122367D01*
X416665Y-121325D01*
X415270Y-120700D01*
X413875Y-120908D01*
X412480Y-121742D01*
G01X423640Y-130700D02*
X424570Y-132159D01*
X425810Y-132992D01*
X427205Y-133200D01*
X428445Y-132992D01*
X429685Y-131950D01*
X430460Y-130700D01*
X430615Y-129450D01*
X430305Y-127992D01*
X429220Y-126950D01*
X428135Y-126533D01*
X426740D01*
G01X428135D02*
X429065Y-125908D01*
X429840Y-124867D01*
X430150Y-123617D01*
X429840Y-122367D01*
X429065Y-121325D01*
X427670Y-120700D01*
X426275Y-120908D01*
X424880Y-121742D01*
G01X436815Y-131742D02*
X437900Y-132783D01*
X439140Y-133200D01*
X440380Y-132783D01*
X441465Y-131534D01*
X442240Y-129658D01*
X442550Y-127783D01*
Y-125492D01*
X442240Y-123617D01*
X441465Y-121950D01*
X440535Y-121117D01*
X439450Y-120700D01*
X438210Y-121117D01*
X437280Y-121950D01*
X436660Y-123200D01*
X436350Y-124867D01*
X436660Y-126325D01*
X437435Y-127783D01*
X438365Y-128617D01*
X439450Y-128825D01*
X440690Y-128409D01*
X441620Y-127367D01*
X442550Y-125492D01*
G01X374040Y-102600D02*
X374970Y-104059D01*
X376210Y-104892D01*
X377605Y-105100D01*
X378845Y-104892D01*
X380085Y-103850D01*
X380860Y-102600D01*
X381015Y-101350D01*
X380705Y-99892D01*
X379620Y-98850D01*
X378535Y-98433D01*
X377140D01*
G01X378535D02*
X379465Y-97808D01*
X380240Y-96767D01*
X380550Y-95517D01*
X380240Y-94267D01*
X379465Y-93225D01*
X378070Y-92600D01*
X376675Y-92808D01*
X375280Y-93642D01*
G01X386440Y-102600D02*
X387370Y-104059D01*
X388610Y-104892D01*
X390005Y-105100D01*
X391245Y-104892D01*
X392485Y-103850D01*
X393260Y-102600D01*
X393415Y-101350D01*
X393105Y-99892D01*
X392020Y-98850D01*
X390935Y-98433D01*
X389540D01*
G01X390935D02*
X391865Y-97808D01*
X392640Y-96767D01*
X392950Y-95517D01*
X392640Y-94267D01*
X391865Y-93225D01*
X390470Y-92600D01*
X389075Y-92808D01*
X387680Y-93642D01*
G01X402250Y-105517D02*
X401940Y-105308D01*
Y-104892D01*
X402250Y-104683D01*
X402560Y-104892D01*
Y-105308D01*
X402250Y-105517D01*
G01X416510Y-105100D02*
Y-92600D01*
X410775Y-101558D01*
X418525D01*
G01X424105Y-99892D02*
X425190Y-98433D01*
X426120Y-97600D01*
X427360Y-97184D01*
X428445Y-97600D01*
X429220Y-98433D01*
X429840Y-99683D01*
X429995Y-101142D01*
X429840Y-102392D01*
X429220Y-103642D01*
X428290Y-104683D01*
X427205Y-105100D01*
X425965Y-104683D01*
X424880Y-103434D01*
X424260Y-101558D01*
X424105Y-99475D01*
X424415Y-96767D01*
X424880Y-95308D01*
X425655Y-93850D01*
X426740Y-92808D01*
X427825Y-92600D01*
X428910Y-93017D01*
X429685Y-94058D01*
G01X436040Y-103225D02*
X436970Y-104267D01*
X438055Y-104892D01*
X439450Y-105100D01*
X440845Y-104683D01*
X441930Y-103850D01*
X442705Y-102392D01*
X442860Y-100725D01*
X442550Y-99058D01*
X441775Y-98017D01*
X440690Y-97184D01*
X439605Y-96975D01*
X438520Y-97184D01*
X437125Y-98017D01*
X437590Y-92600D01*
X441775D01*
G01X374505Y-66583D02*
X375435Y-65334D01*
X376520Y-64708D01*
X377760Y-64500D01*
X379310Y-64917D01*
X380395Y-65958D01*
X380705Y-67208D01*
X380550Y-68459D01*
X379930Y-69500D01*
X376830Y-71583D01*
X375435Y-73042D01*
X374505Y-75125D01*
X374195Y-77000D01*
X380705D01*
G01X386440Y-74500D02*
X387370Y-75959D01*
X388610Y-76792D01*
X390005Y-77000D01*
X391245Y-76792D01*
X392485Y-75750D01*
X393260Y-74500D01*
X393415Y-73250D01*
X393105Y-71792D01*
X392020Y-70750D01*
X390935Y-70333D01*
X389540D01*
G01X390935D02*
X391865Y-69708D01*
X392640Y-68667D01*
X392950Y-67417D01*
X392640Y-66167D01*
X391865Y-65125D01*
X390470Y-64500D01*
X389075Y-64708D01*
X387680Y-65542D01*
G01X402250Y-77417D02*
X401940Y-77208D01*
Y-76792D01*
X402250Y-76583D01*
X402560Y-76792D01*
Y-77208D01*
X402250Y-77417D01*
G01X411705Y-71792D02*
X412790Y-70333D01*
X413720Y-69500D01*
X414960Y-69084D01*
X416045Y-69500D01*
X416820Y-70333D01*
X417440Y-71583D01*
X417595Y-73042D01*
X417440Y-74292D01*
X416820Y-75542D01*
X415890Y-76583D01*
X414805Y-77000D01*
X413565Y-76583D01*
X412480Y-75334D01*
X411860Y-73458D01*
X411705Y-71375D01*
X412015Y-68667D01*
X412480Y-67208D01*
X413255Y-65750D01*
X414340Y-64708D01*
X415425Y-64500D01*
X416510Y-64917D01*
X417285Y-65958D01*
G01X424105Y-66583D02*
X425035Y-65334D01*
X426120Y-64708D01*
X427360Y-64500D01*
X428910Y-64917D01*
X429995Y-65958D01*
X430305Y-67208D01*
X430150Y-68459D01*
X429530Y-69500D01*
X426430Y-71583D01*
X425035Y-73042D01*
X424105Y-75125D01*
X423795Y-77000D01*
X430305D01*
G01X436505Y-66583D02*
X437435Y-65334D01*
X438520Y-64708D01*
X439760Y-64500D01*
X441310Y-64917D01*
X442395Y-65958D01*
X442705Y-67208D01*
X442550Y-68459D01*
X441930Y-69500D01*
X438830Y-71583D01*
X437435Y-73042D01*
X436505Y-75125D01*
X436195Y-77000D01*
X442705D01*
G01X389850Y-48900D02*
Y-36400D01*
X387990Y-38900D01*
G01Y-48900D02*
X391710D01*
G01X399305Y-38483D02*
X400235Y-37234D01*
X401320Y-36608D01*
X402560Y-36400D01*
X404110Y-36817D01*
X405195Y-37858D01*
X405505Y-39108D01*
X405350Y-40359D01*
X404730Y-41400D01*
X401630Y-43483D01*
X400235Y-44942D01*
X399305Y-47025D01*
X398995Y-48900D01*
X405505D01*
G01X414650Y-49317D02*
X414340Y-49108D01*
Y-48692D01*
X414650Y-48483D01*
X414960Y-48692D01*
Y-49108D01*
X414650Y-49317D01*
G01X427050Y-36400D02*
X425810Y-36817D01*
X424880Y-37858D01*
X424260Y-39108D01*
X423795Y-40775D01*
X423640Y-42650D01*
X423795Y-44525D01*
X424260Y-46192D01*
X424880Y-47442D01*
X425810Y-48483D01*
X427050Y-48900D01*
X428290Y-48483D01*
X429220Y-47442D01*
X429840Y-46192D01*
X430305Y-44525D01*
X430460Y-42650D01*
X430305Y-40775D01*
X429840Y-39108D01*
X429220Y-37858D01*
X428290Y-36817D01*
X427050Y-36400D01*
G01X386595Y-17584D02*
X387835Y-18625D01*
X389230Y-19250D01*
X390470D01*
X391710Y-18625D01*
X392640Y-17584D01*
X393105Y-16125D01*
X392795Y-14667D01*
X392020Y-13417D01*
X390625Y-12583D01*
X388765Y-12167D01*
X387680Y-11334D01*
X387215Y-9875D01*
X387525Y-8417D01*
X388300Y-7375D01*
X389385Y-6750D01*
X390470D01*
X391555Y-7167D01*
X392485Y-8208D01*
G01X400390Y-6750D02*
X404110D01*
G01X402250D02*
Y-19250D01*
G01X400390D02*
X404110D01*
G01X411705Y-6750D02*
X417595D01*
X411705Y-19250D01*
X417595D01*
G01X430150D02*
X423950D01*
Y-6750D01*
X430150D01*
G01X427670Y-12792D02*
X423950D01*
G01X503000Y-500D02*
Y-141000D01*
G01X532450Y-133200D02*
Y-120700D01*
X536170D01*
X537410Y-121325D01*
X538340Y-122783D01*
X538650Y-124450D01*
X538340Y-126117D01*
X537565Y-127367D01*
X536170Y-127992D01*
X532450D01*
G01X544850Y-120700D02*
Y-133200D01*
X551050D01*
G01X556475D02*
X560350Y-120700D01*
X564225Y-133200D01*
G01X562830Y-128825D02*
X557870D01*
G01X572750Y-120700D02*
Y-133200D01*
G01X569185Y-120700D02*
X576315D01*
G01X588250Y-133200D02*
X582050D01*
Y-120700D01*
X588250D01*
G01X585770Y-126742D02*
X582050D01*
G01X594140Y-133200D02*
Y-120700D01*
X597240D01*
X598480Y-121325D01*
X599410Y-122158D01*
X600185Y-123408D01*
X600805Y-124867D01*
X600960Y-126950D01*
X600805Y-129034D01*
X600185Y-130492D01*
X599410Y-131742D01*
X598480Y-132575D01*
X597240Y-133200D01*
X594140D01*
G01X532450Y-105100D02*
Y-92600D01*
X536170D01*
X537410Y-93225D01*
X538340Y-94683D01*
X538650Y-96350D01*
X538340Y-98017D01*
X537565Y-99267D01*
X536170Y-99892D01*
X532450D01*
G01X544850Y-92600D02*
Y-105100D01*
X551050D01*
G01X556475D02*
X560350Y-92600D01*
X564225Y-105100D01*
G01X562830Y-100725D02*
X557870D01*
G01X572750Y-92600D02*
Y-105100D01*
G01X569185Y-92600D02*
X576315D01*
G01X588250Y-105100D02*
X582050D01*
Y-92600D01*
X588250D01*
G01X585770Y-98642D02*
X582050D01*
G01X594140Y-105100D02*
Y-92600D01*
X597240D01*
X598480Y-93225D01*
X599410Y-94058D01*
X600185Y-95308D01*
X600805Y-96767D01*
X600960Y-98850D01*
X600805Y-100934D01*
X600185Y-102392D01*
X599410Y-103642D01*
X598480Y-104475D01*
X597240Y-105100D01*
X594140D01*
G01X532450Y-77000D02*
Y-64500D01*
X536170D01*
X537410Y-65125D01*
X538340Y-66583D01*
X538650Y-68250D01*
X538340Y-69917D01*
X537565Y-71167D01*
X536170Y-71792D01*
X532450D01*
G01X544850Y-64500D02*
Y-77000D01*
X551050D01*
G01X556475D02*
X560350Y-64500D01*
X564225Y-77000D01*
G01X562830Y-72625D02*
X557870D01*
G01X572750Y-64500D02*
Y-77000D01*
G01X569185Y-64500D02*
X576315D01*
G01X588250Y-77000D02*
X582050D01*
Y-64500D01*
X588250D01*
G01X585770Y-70542D02*
X582050D01*
G01X594140Y-77000D02*
Y-64500D01*
X597240D01*
X598480Y-65125D01*
X599410Y-65958D01*
X600185Y-67208D01*
X600805Y-68667D01*
X600960Y-70750D01*
X600805Y-72834D01*
X600185Y-74292D01*
X599410Y-75542D01*
X598480Y-76375D01*
X597240Y-77000D01*
X594140D01*
G01X532450Y-48900D02*
Y-36400D01*
X536170D01*
X537410Y-37025D01*
X538340Y-38483D01*
X538650Y-40150D01*
X538340Y-41817D01*
X537565Y-43067D01*
X536170Y-43692D01*
X532450D01*
G01X544850Y-36400D02*
Y-48900D01*
X551050D01*
G01X556475D02*
X560350Y-36400D01*
X564225Y-48900D01*
G01X562830Y-44525D02*
X557870D01*
G01X572750Y-36400D02*
Y-48900D01*
G01X569185Y-36400D02*
X576315D01*
G01X588250Y-48900D02*
X582050D01*
Y-36400D01*
X588250D01*
G01X585770Y-42442D02*
X582050D01*
G01X594140Y-48900D02*
Y-36400D01*
X597240D01*
X598480Y-37025D01*
X599410Y-37858D01*
X600185Y-39108D01*
X600805Y-40567D01*
X600960Y-42650D01*
X600805Y-44734D01*
X600185Y-46192D01*
X599410Y-47442D01*
X598480Y-48275D01*
X597240Y-48900D01*
X594140D01*
G01X532450Y-19250D02*
Y-6750D01*
X536170D01*
X537410Y-7375D01*
X538340Y-8833D01*
X538650Y-10500D01*
X538340Y-12167D01*
X537565Y-13417D01*
X536170Y-14042D01*
X532450D01*
G01X544850Y-6750D02*
Y-19250D01*
X551050D01*
G01X556475D02*
X560350Y-6750D01*
X564225Y-19250D01*
G01X562830Y-14875D02*
X557870D01*
G01X572750Y-6750D02*
Y-19250D01*
G01X569185Y-6750D02*
X576315D01*
G01X588250Y-19250D02*
X582050D01*
Y-6750D01*
X588250D01*
G01X585770Y-12792D02*
X582050D01*
G01X594140Y-19250D02*
Y-6750D01*
X597240D01*
X598480Y-7375D01*
X599410Y-8208D01*
X600185Y-9458D01*
X600805Y-10917D01*
X600960Y-13000D01*
X600805Y-15084D01*
X600185Y-16542D01*
X599410Y-17792D01*
X598480Y-18625D01*
X597240Y-19250D01*
X594140D01*
G01X630100Y-500D02*
Y-141000D01*
G01X653505Y-38483D02*
X654435Y-37234D01*
X655520Y-36608D01*
X656760Y-36400D01*
X658310Y-36817D01*
X659395Y-37858D01*
X659705Y-39108D01*
X659550Y-40359D01*
X658930Y-41400D01*
X655830Y-43483D01*
X654435Y-44942D01*
X653505Y-47025D01*
X653195Y-48900D01*
X659705D01*
G01X665440Y-47025D02*
X666370Y-48067D01*
X667455Y-48692D01*
X668850Y-48900D01*
X670245Y-48483D01*
X671330Y-47650D01*
X672105Y-46192D01*
X672260Y-44525D01*
X671950Y-42858D01*
X671175Y-41817D01*
X670090Y-40984D01*
X669005Y-40775D01*
X667920Y-40984D01*
X666525Y-41817D01*
X666990Y-36400D01*
X671175D01*
G01X678305Y-43692D02*
X679390Y-42233D01*
X680320Y-41400D01*
X681560Y-40984D01*
X682645Y-41400D01*
X683420Y-42233D01*
X684040Y-43483D01*
X684195Y-44942D01*
X684040Y-46192D01*
X683420Y-47442D01*
X682490Y-48483D01*
X681405Y-48900D01*
X680165Y-48483D01*
X679080Y-47234D01*
X678460Y-45358D01*
X678305Y-43275D01*
X678615Y-40567D01*
X679080Y-39108D01*
X679855Y-37650D01*
X680940Y-36608D01*
X682025Y-36400D01*
X683110Y-36817D01*
X683885Y-37858D01*
G01X656450Y-19250D02*
X655210Y-19042D01*
X654125Y-18209D01*
X653195Y-16958D01*
X652575Y-15500D01*
X652265Y-13833D01*
Y-12167D01*
X652575Y-10500D01*
X653195Y-9042D01*
X654125Y-7792D01*
X655210Y-6958D01*
X656450Y-6750D01*
X657690Y-6958D01*
X658775Y-7792D01*
X659705Y-9042D01*
X660325Y-10500D01*
X660635Y-12167D01*
Y-13833D01*
X660325Y-15500D01*
X659705Y-16958D01*
X658775Y-18209D01*
X657690Y-19042D01*
X656450Y-19250D01*
G01X657690Y-15917D02*
X659550Y-19250D01*
G01X668850Y-6750D02*
Y-19250D01*
G01X665285Y-6750D02*
X672415D01*
G01X681250Y-19250D02*
Y-13625D01*
X678150Y-6750D01*
G01X684350D02*
X681250Y-13625D01*
G01X659240Y-130700D02*
X660170Y-132159D01*
X661410Y-132992D01*
X662805Y-133200D01*
X664045Y-132992D01*
X665285Y-131950D01*
X666060Y-130700D01*
X666215Y-129450D01*
X665905Y-127992D01*
X664820Y-126950D01*
X663735Y-126533D01*
X662340D01*
G01X663735D02*
X664665Y-125908D01*
X665440Y-124867D01*
X665750Y-123617D01*
X665440Y-122367D01*
X664665Y-121325D01*
X663270Y-120700D01*
X661875Y-120908D01*
X660480Y-121742D01*
G01X676910Y-133200D02*
Y-120700D01*
X671175Y-129658D01*
X678925D01*
G01X659705Y-94683D02*
X660635Y-93434D01*
X661720Y-92808D01*
X662960Y-92600D01*
X664510Y-93017D01*
X665595Y-94058D01*
X665905Y-95308D01*
X665750Y-96559D01*
X665130Y-97600D01*
X662030Y-99683D01*
X660635Y-101142D01*
X659705Y-103225D01*
X659395Y-105100D01*
X665905D01*
G01X675050Y-92600D02*
X673810Y-93017D01*
X672880Y-94058D01*
X672260Y-95308D01*
X671795Y-96975D01*
X671640Y-98850D01*
X671795Y-100725D01*
X672260Y-102392D01*
X672880Y-103642D01*
X673810Y-104683D01*
X675050Y-105100D01*
X676290Y-104683D01*
X677220Y-103642D01*
X677840Y-102392D01*
X678305Y-100725D01*
X678460Y-98850D01*
X678305Y-96975D01*
X677840Y-95308D01*
X677220Y-94058D01*
X676290Y-93017D01*
X675050Y-92600D01*
G01X668540Y-77000D02*
X668850Y-74292D01*
X669315Y-72000D01*
X669935Y-69917D01*
X670710Y-67625D01*
X671950Y-64500D01*
X665750D01*
M02*
