G04 ================== begin FILE IDENTIFICATION RECORD ==================*
G04 Layout Name:  C:/Users/Liber/Desktop/SmartRing-V1.02/PCB/SmartRing.brd*
G04 Film Name:    PASTEMASK_TOP*
G04 File Format:  Gerber RS274X*
G04 File Origin:  Cadence Allegro 16.3-p003*
G04 Origin Date:  Mon Feb 10 17:13:57 2014*
G04 *
G04 Layer:  VIA CLASS/PASTEMASK_TOP*
G04 Layer:  PIN/PASTEMASK_TOP*
G04 Layer:  PACKAGE GEOMETRY/PASTEMASK_TOP*
G04 *
G04 Offset:    (0.000 0.000)*
G04 Mirror:    No*
G04 Mode:      Positive*
G04 Rotation:  0*
G04 FullContactRelief:  No*
G04 UndefLineWidth:     6.000*
G04 ================== end FILE IDENTIFICATION RECORD ====================*
%FSLAX55Y55*MOIN*%
%IR0*IPPOS*OFA0.00000B0.00000*MIA0B0*SFA1.00000B1.00000*%
%ADD23C,.001*%
%ADD24R,.001X.001*%
%AMMACRO17*
4,1,5,.045276,-.012598,
.004724,-.05315,
-.045276,-.05315,
-.045276,.05315,
.045276,.05315,
.045276,-.012598,
0.0*
%
%ADD17MACRO17*%
%ADD14R,.090551X.106299*%
%ADD30R,.025591X.009843*%
%ADD25R,.034X.012*%
%ADD10C,.024*%
%ADD32R,.061024X.051181*%
%ADD31R,.023622X.035433*%
%ADD29R,.033465X.061024*%
%ADD12R,.035433X.043307*%
%ADD13R,.043307X.035433*%
%ADD11R,.041339X.023622*%
%ADD22O,.047244X.021654*%
%ADD16R,.022441X.025197*%
%ADD19R,.025197X.022441*%
%ADD21R,.047244X.021654*%
%ADD15R,.024409X.025197*%
%ADD18R,.025197X.024409*%
%ADD20R,.049213X.062992*%
%ADD27R,.062992X.049213*%
%ADD26R,.059055X.07874*%
%ADD28R,.07874X.059055*%
G75*
%LPD*%
G75*
G36*
G01X-22740Y2970D02*
Y-180D01*
X-21830D01*
Y2970D01*
X-22740D01*
G37*
G36*
G01X-24710D02*
Y-180D01*
X-23800D01*
Y2970D01*
X-24710D01*
G37*
G36*
G01Y14580D02*
Y11430D01*
X-23800D01*
Y14580D01*
X-24710D01*
G37*
G36*
G01X-22740D02*
Y11430D01*
X-21830D01*
Y14580D01*
X-22740D01*
G37*
G36*
G01X-28680Y4700D02*
Y3790D01*
X-25530D01*
Y4700D01*
X-28680D01*
G37*
G36*
G01Y6670D02*
Y5760D01*
X-25530D01*
Y6670D01*
X-28680D01*
G37*
G36*
G01Y8640D02*
Y7730D01*
X-25530D01*
Y8640D01*
X-28680D01*
G37*
G36*
G01Y10610D02*
Y9700D01*
X-25530D01*
Y10610D01*
X-28680D01*
G37*
G36*
G01X-18800Y2970D02*
Y-180D01*
X-17890D01*
Y2970D01*
X-18800D01*
G37*
G36*
G01X-20770D02*
Y-180D01*
X-19860D01*
Y2970D01*
X-20770D01*
G37*
G36*
G01Y14580D02*
Y11430D01*
X-19860D01*
Y14580D01*
X-20770D01*
G37*
G36*
G01X-18800D02*
Y11430D01*
X-17890D01*
Y14580D01*
X-18800D01*
G37*
G36*
G01X-17070Y10610D02*
Y9700D01*
X-13920D01*
Y10610D01*
X-17070D01*
G37*
G36*
G01Y8640D02*
Y7730D01*
X-13920D01*
Y8640D01*
X-17070D01*
G37*
G36*
G01Y6670D02*
Y5760D01*
X-13920D01*
Y6670D01*
X-17070D01*
G37*
G36*
G01Y4700D02*
Y3790D01*
X-13920D01*
Y4700D01*
X-17070D01*
G37*
G36*
G01X79710Y-14910D02*
X82860D01*
Y-14010D01*
X79710D01*
Y-14910D01*
G37*
G36*
G01Y-12940D02*
X82860D01*
Y-12040D01*
X79710D01*
Y-12940D01*
G37*
G36*
G01Y-10980D02*
X82860D01*
Y-10070D01*
X79710D01*
Y-10980D01*
G37*
G36*
G01X83690Y-18890D02*
X84590D01*
Y-15740D01*
X83690D01*
Y-18890D01*
G37*
G36*
G01X79710Y-9010D02*
X82860D01*
Y-8100D01*
X79710D01*
Y-9010D01*
G37*
G36*
G01Y-7040D02*
X82860D01*
Y-6130D01*
X79710D01*
Y-7040D01*
G37*
G36*
G01Y-5070D02*
X82860D01*
Y-4160D01*
X79710D01*
Y-5070D01*
G37*
G36*
G01Y-3100D02*
X82860D01*
Y-2190D01*
X79710D01*
Y-3100D01*
G37*
G36*
G01Y-1130D02*
X82860D01*
Y-220D01*
X79710D01*
Y-1130D01*
G37*
G36*
G01Y840D02*
X82860D01*
Y1740D01*
X79710D01*
Y840D01*
G37*
G36*
G01Y2810D02*
X82860D01*
Y3710D01*
X79710D01*
Y2810D01*
G37*
G36*
G01X83690Y4540D02*
X84590D01*
Y7690D01*
X83690D01*
Y4540D01*
G37*
G36*
G01X93530Y-18890D02*
X94440D01*
Y-15740D01*
X93530D01*
Y-18890D01*
G37*
G36*
G01X91560D02*
X92470D01*
Y-15740D01*
X91560D01*
Y-18890D01*
G37*
G36*
G01X89590D02*
X90500D01*
Y-15740D01*
X89590D01*
Y-18890D01*
G37*
G36*
G01X87630D02*
X88530D01*
Y-15740D01*
X87630D01*
Y-18890D01*
G37*
G36*
G01X85660D02*
X86560D01*
Y-15740D01*
X85660D01*
Y-18890D01*
G37*
G36*
G01Y4540D02*
X86560D01*
Y7690D01*
X85660D01*
Y4540D01*
G37*
G36*
G01X87630D02*
X88530D01*
Y7690D01*
X87630D01*
Y4540D01*
G37*
G36*
G01X89590D02*
X90500D01*
Y7690D01*
X89590D01*
Y4540D01*
G37*
G36*
G01X91560D02*
X92470D01*
Y7690D01*
X91560D01*
Y4540D01*
G37*
G36*
G01X93530D02*
X94440D01*
Y7690D01*
X93530D01*
Y4540D01*
G37*
G36*
G01X103140Y-10980D02*
X106290D01*
Y-10070D01*
X103140D01*
Y-10980D01*
G37*
G36*
G01Y-12940D02*
X106290D01*
Y-12040D01*
X103140D01*
Y-12940D01*
G37*
G36*
G01Y-14910D02*
X106290D01*
Y-14010D01*
X103140D01*
Y-14910D01*
G37*
G36*
G01X101410Y-18890D02*
X102310D01*
Y-15740D01*
X101410D01*
Y-18890D01*
G37*
G36*
G01X99440D02*
X100340D01*
Y-15740D01*
X99440D01*
Y-18890D01*
G37*
G36*
G01X97470D02*
X98370D01*
Y-15740D01*
X97470D01*
Y-18890D01*
G37*
G36*
G01X95500D02*
X96410D01*
Y-15740D01*
X95500D01*
Y-18890D01*
G37*
G36*
G01X103140Y840D02*
X106290D01*
Y1740D01*
X103140D01*
Y840D01*
G37*
G36*
G01Y-1130D02*
X106290D01*
Y-220D01*
X103140D01*
Y-1130D01*
G37*
G36*
G01Y-3100D02*
X106290D01*
Y-2190D01*
X103140D01*
Y-3100D01*
G37*
G36*
G01Y-5070D02*
X106290D01*
Y-4160D01*
X103140D01*
Y-5070D01*
G37*
G36*
G01Y-7040D02*
X106290D01*
Y-6130D01*
X103140D01*
Y-7040D01*
G37*
G36*
G01Y-9010D02*
X106290D01*
Y-8100D01*
X103140D01*
Y-9010D01*
G37*
G36*
G01X95500Y4540D02*
X96410D01*
Y7690D01*
X95500D01*
Y4540D01*
G37*
G36*
G01X97470D02*
X98370D01*
Y7690D01*
X97470D01*
Y4540D01*
G37*
G36*
G01X99440D02*
X100340D01*
Y7690D01*
X99440D01*
Y4540D01*
G37*
G36*
G01X101410D02*
X102310D01*
Y7690D01*
X101410D01*
Y4540D01*
G37*
G36*
G01X103140Y2810D02*
X106290D01*
Y3710D01*
X103140D01*
Y2810D01*
G37*
G54D10*
X-136100Y44000D03*
X-135700Y47400D03*
X-132900Y-47300D03*
X-127000Y-47000D03*
X-131550Y-39500D03*
X-130200Y-22900D03*
X-126855Y-27625D03*
X-129900Y-29875D03*
X-127038Y27168D03*
X-131100Y21146D03*
X-126528Y35591D03*
X-114600Y-43100D03*
X-120950Y-47550D03*
X-120938Y-40700D03*
X-115006Y-5006D03*
X-117472Y31328D03*
X-114995Y38740D03*
X-103100Y-38300D03*
X-109200Y14500D03*
X-101600Y37981D03*
X-97600Y-43600D03*
X-96118Y-5082D03*
X-95600Y14400D03*
X-90567Y26518D03*
X-98100Y30100D03*
X-86600Y14400D03*
X-79279Y39300D03*
X-78200Y28768D03*
X-82600Y30350D03*
X-86300Y32300D03*
X-88500Y42350D03*
X-83940D03*
X-88440Y46410D03*
X-72700Y-43600D03*
X-74220Y-38718D03*
X-70287Y-37318D03*
X-72818Y-23088D03*
X-68000Y1300D03*
X-69133Y-5600D03*
X-66100Y6300D03*
X-69559Y26518D03*
X-72585Y44160D03*
X-72232Y48745D03*
X-76235Y39610D03*
X-54450Y-40092D03*
X-59263Y-37318D03*
X-55145Y-30154D03*
X-54845Y-21542D03*
X-55145Y-16030D03*
X-59110Y590D03*
X-63450Y9850D03*
X-59110Y11529D03*
X-57200Y25600D03*
X-61000Y27700D03*
X-64928Y27968D03*
X-58450Y44160D03*
X-61200Y47400D03*
X-47700Y-49900D03*
X-43150Y-37465D03*
X-46700Y-32600D03*
X-51495Y-25654D03*
X-49245Y-27904D03*
X-47900Y-15800D03*
X-44000Y-14000D03*
X-51800Y6300D03*
X-53300Y11400D03*
X-52400Y20440D03*
X-49800Y25800D03*
X-50987Y37300D03*
X-43300Y36200D03*
X-44085Y40614D03*
X-47840Y40395D03*
X-43657Y48232D03*
X-41750Y-48200D03*
X-32736Y-37817D03*
X-40100Y-25600D03*
X-30634Y-11160D03*
X-40900Y-10300D03*
X-41500Y-17400D03*
X-41232Y515D03*
X-30651Y-2490D03*
X-38982Y10254D03*
X-32080Y10260D03*
X-30800Y14200D03*
X-34330Y12611D03*
X-41800Y33000D03*
X-38800Y43000D03*
X-22800Y-33500D03*
X-21350Y-37350D03*
X-27759Y-24973D03*
X-22250Y-29400D03*
X-25509Y-28623D03*
X-26909Y-20500D03*
X-29909Y-21100D03*
X-26909Y-16760D03*
X-22800Y5600D03*
X-19800D03*
X-29500Y23500D03*
X-27800Y27900D03*
X-19800Y28700D03*
X-19700Y42000D03*
X-12700Y-38100D03*
X-15219Y-21657D03*
X-10000Y-28800D03*
X-17800Y900D03*
X-15493Y3865D03*
X-17500Y12800D03*
X-10223Y6477D03*
X-11505Y25460D03*
X-14500Y28000D03*
X-2800Y-35750D03*
X-6500Y-27378D03*
X-2100Y-17762D03*
X-5639Y-17700D03*
X-4000Y-900D03*
X2288Y250D03*
X1707Y11809D03*
X2807Y14809D03*
X2032Y27600D03*
X962Y21200D03*
X-6639Y38300D03*
X100Y38800D03*
X3500Y46300D03*
X8638Y-8436D03*
X7800Y-13800D03*
X12561Y-2180D03*
X14362Y9100D03*
X13612Y17666D03*
X8900Y39300D03*
X14000Y49900D03*
X9989Y43475D03*
X6600Y49800D03*
X22882Y-33500D03*
X21422Y-6919D03*
X26737Y13100D03*
X25950Y28800D03*
X25999Y41225D03*
X36599Y-21850D03*
X34349Y-13059D03*
Y4982D03*
X36599Y13267D03*
X32911Y9100D03*
X31132Y17600D03*
X38849Y21800D03*
X33382Y19910D03*
X36599Y34656D03*
X31181Y34260D03*
X36478Y41225D03*
X40953Y-38750D03*
X43990Y2732D03*
X40600Y14600D03*
X47140Y4900D03*
X48516Y17959D03*
X40600Y45463D03*
X55092Y-35800D03*
X61262Y-32209D03*
X58650Y-29959D03*
X57342Y-23706D03*
X51442Y-21005D03*
Y-27510D03*
X62500Y-22500D03*
X61500Y-11900D03*
X55050Y-5350D03*
X59800Y-1168D03*
X62660Y6604D03*
X57454Y15400D03*
X52689Y5711D03*
X58479Y22700D03*
X59312Y25700D03*
X68700Y-22100D03*
X63600Y-16300D03*
X68353Y-9870D03*
X71000Y-13800D03*
X62750Y2482D03*
X65900Y-3200D03*
X71200Y-600D03*
X66650Y10250D03*
X73100Y15300D03*
X68805Y15400D03*
X68500Y22900D03*
X73446Y19600D03*
X63700Y29000D03*
X72300Y31600D03*
X76442Y-34508D03*
X83392Y-25286D03*
X83860Y-20786D03*
X75753Y-7992D03*
X76700Y-12900D03*
X75000Y-17200D03*
X76314Y3542D03*
X76700Y26800D03*
X91734Y-20786D03*
X88360D03*
X93832Y-23886D03*
X93000Y-10800D03*
X86700Y-10300D03*
X86200Y-5600D03*
X93000Y-300D03*
X88300D03*
X94200Y10700D03*
X91200Y11900D03*
X88800Y5600D03*
X94200Y17868D03*
X93000Y43200D03*
X105900Y-33400D03*
X102140Y-20786D03*
X99150Y-10350D03*
X99200Y-5600D03*
X107800Y5200D03*
X103700Y13400D03*
X98300D03*
X105300Y7500D03*
X108832Y20032D03*
X100450Y26832D03*
X101500Y34800D03*
X108000Y29900D03*
X118100Y-50800D03*
X117650Y-35650D03*
X114655Y-22000D03*
X117968D03*
X118149Y-17500D03*
X115089Y-12760D03*
X112968Y-15010D03*
X111086Y-9585D03*
X116090Y951D03*
X111086Y-6585D03*
X114650Y9812D03*
X110500Y7800D03*
X114650Y25100D03*
X109351Y23968D03*
X127055Y-33200D03*
X122800Y-36900D03*
X127732Y-13600D03*
X121935Y3701D03*
X121000Y-1849D03*
X132232Y7338D03*
X126600Y12600D03*
X132232Y25900D03*
X125532Y20000D03*
X125512Y23800D03*
X129982Y30500D03*
X126400Y34100D03*
X133427Y-23950D03*
X137996Y-21700D03*
X132800Y-17500D03*
X135100Y4100D03*
Y23300D03*
X145000Y6100D03*
X144700Y39500D03*
X164400Y25000D03*
X175300Y-10651D03*
X178592Y11100D03*
X185568Y19808D03*
X181500Y41400D03*
X187300Y41100D03*
X196244Y-10544D03*
G54D20*
X-48200Y5212D03*
Y-5812D03*
G54D11*
X-126528Y31260D03*
Y38740D03*
X-117472Y35000D03*
X-102072D03*
X-111128Y31260D03*
Y38740D03*
G54D21*
X-22446Y-24240D03*
Y-20500D03*
X-15754Y-24240D03*
Y-16760D03*
G54D12*
X-121315Y-33353D03*
X-115803D03*
X-121315Y22553D03*
X-115803D03*
X-110291Y-33353D03*
X-104780D03*
X-110291Y-27054D03*
X-104780D03*
X-110291Y16254D03*
X-104780D03*
X-110291Y22553D03*
X-104780D03*
X-99268Y-33353D03*
X-93756D03*
X-99268Y-27054D03*
X-93756D03*
X-99268Y16254D03*
X-93756D03*
X-99268Y22553D03*
X-93756D03*
X-88244Y-33353D03*
X-82732D03*
X-88244Y-27054D03*
X-82732D03*
X-88244Y16254D03*
X-82732D03*
X-88244Y22553D03*
X-82732D03*
X-77220Y-33353D03*
X-71709D03*
X-66197D03*
X-77220Y-27054D03*
X-71709D03*
X-77220Y16254D03*
X-71709D03*
X-77220Y22553D03*
X-71709D03*
X-66197D03*
X-60685Y-33353D03*
Y22553D03*
G54D30*
X106272Y23968D03*
Y22000D03*
Y20032D03*
X102728D03*
Y22000D03*
Y23968D03*
G54D22*
X-22446Y-16760D03*
G54D13*
X-116394Y-21542D03*
X-122890D03*
X-116394Y-27054D03*
X-122890D03*
X-116394Y-10518D03*
X-122890D03*
X-116394Y-16030D03*
X-122890D03*
X-116394Y505D03*
X-122890D03*
X-116394Y-5006D03*
X-122890D03*
X-116394Y11529D03*
X-122890D03*
X-116394Y6017D03*
X-122890D03*
X-116394Y17041D03*
X-122890D03*
X-65606Y-21542D03*
Y-27054D03*
Y-10518D03*
Y-16030D03*
Y505D03*
Y-5006D03*
Y11529D03*
Y6017D03*
Y17041D03*
X-59110Y-21542D03*
Y-27054D03*
Y-10518D03*
Y-16030D03*
Y505D03*
Y-5006D03*
Y11529D03*
Y6017D03*
Y17041D03*
G54D31*
X126265Y12062D03*
Y7338D03*
X121935D03*
Y12062D03*
G54D32*
X172000Y25998D03*
Y38202D03*
G54D14*
X-106354Y-17211D03*
Y-5400D03*
Y6411D03*
X-96118Y-17211D03*
Y-5400D03*
Y6411D03*
X-85882Y-17211D03*
Y-5400D03*
X-75646D03*
X-85882Y6411D03*
X-75646D03*
G54D23*
X-22285Y1393D03*
X-24254D03*
Y13007D03*
X-22285D03*
X-27107Y4247D03*
Y6216D03*
Y8184D03*
Y10153D03*
X-18346Y1393D03*
X-20315D03*
Y13007D03*
X-18346D03*
X-15493Y10153D03*
Y8184D03*
Y6216D03*
Y4247D03*
X81287Y-14460D03*
Y-12492D03*
Y-10522D03*
X84142Y-17313D03*
X81287Y-8554D03*
Y-6585D03*
Y-4615D03*
Y-2646D03*
Y-678D03*
Y1292D03*
Y3260D03*
X84142Y6113D03*
X95953Y-17313D03*
X93984D03*
X92016D03*
X90047D03*
X88079D03*
X86110D03*
Y6113D03*
X88079D03*
X90047D03*
X92016D03*
X93984D03*
X95953D03*
X104713Y-10522D03*
Y-12492D03*
Y-14460D03*
X101858Y-17313D03*
X99890D03*
X97921D03*
X104713Y1292D03*
Y-678D03*
Y-2646D03*
Y-4615D03*
Y-6585D03*
Y-8554D03*
X97921Y6113D03*
X99890D03*
X101858D03*
X104713Y3260D03*
G54D15*
X-93389Y30000D03*
X-93289Y33900D03*
X-81411Y36200D03*
X-85889Y30000D03*
X-67289Y32600D03*
X-72211Y41100D03*
X-59911Y36300D03*
X-31989Y17300D03*
X-20189Y-13100D03*
X-21989Y-7200D03*
X-22289Y25800D03*
X-21589Y22000D03*
X-25211Y18200D03*
X-13389Y-38200D03*
X-15811Y-3400D03*
Y-7200D03*
X-12989Y18400D03*
X-989Y27600D03*
X45511Y25700D03*
Y21800D03*
Y29600D03*
X120989Y-21700D03*
X124811Y-17500D03*
X124711Y-13600D03*
X122511Y20000D03*
X125811Y16100D03*
X165311Y-20300D03*
G54D24*
X-21400Y7200D03*
X93000Y-5600D03*
G54D16*
X-97129Y30000D03*
X-97029Y33900D03*
X-89629Y30000D03*
X-93210Y37800D03*
X-96990D03*
X-71029Y32600D03*
X-77671Y36200D03*
X-68471Y41100D03*
X-56171Y36300D03*
X-35729Y17300D03*
X-23929Y-13100D03*
X-25729Y-7200D03*
X-26029Y25800D03*
X-25329Y22000D03*
X-21471Y18200D03*
X-17129Y-38200D03*
X-15890Y-11100D03*
X-12110D03*
X-12071Y-3400D03*
Y-7200D03*
X-16729Y18400D03*
X-12810Y22300D03*
X-16590D03*
X-2710Y-23800D03*
X-6490D03*
X-4729Y27600D03*
X41771Y25700D03*
Y21800D03*
X49910D03*
Y25700D03*
X41771Y29600D03*
X49910Y29700D03*
X53690Y21800D03*
Y25700D03*
Y29700D03*
X118771Y20000D03*
X118810Y23800D03*
X124729Y-21700D03*
X121071Y-17500D03*
X120971Y-13600D03*
X122590Y23800D03*
X122071Y16100D03*
X161571Y-20300D03*
G54D25*
X-10050Y-34159D03*
X-17350D03*
X-10050Y-29041D03*
Y-31600D03*
X-17350D03*
Y-29041D03*
G54D26*
X-4591Y-11811D03*
Y11811D03*
X46591Y-11811D03*
Y11811D03*
G54D17*
X-75646Y-17211D03*
G54D27*
X-4812Y21200D03*
X6212D03*
G54D18*
X-88500Y34089D03*
X-50200Y12489D03*
X-50900Y40711D03*
X-10400Y-23811D03*
X12500Y24289D03*
X59800Y-4489D03*
X59600Y2089D03*
X55800Y5711D03*
X94200Y20289D03*
X90300Y23811D03*
X98200D03*
X117000Y-5711D03*
X118300Y16211D03*
X121000Y-9711D03*
X124900D03*
X175300Y-3989D03*
G54D28*
X21000Y-11811D03*
Y11811D03*
G54D19*
X-88500Y37829D03*
X-50200Y16229D03*
X-50900Y36971D03*
X-10400Y-20071D03*
X12500Y28029D03*
X59800Y-8229D03*
X55800Y1971D03*
X59600Y5829D03*
X94200Y24029D03*
X90300Y20071D03*
X98200D03*
X117000Y-1971D03*
X118300Y12471D03*
X121000Y-5971D03*
X124900D03*
X175300Y-7729D03*
G54D29*
X85453Y22000D03*
X79547D03*
M02*
