G04 ================== begin FILE IDENTIFICATION RECORD ==================*
G04 Layout Name:  C:/Users/Liber/Desktop/SmartRing-V1.02/PCB/SmartRing.brd*
G04 Film Name:    SILKSCREEN_BOTTOM*
G04 File Format:  Gerber RS274X*
G04 File Origin:  Cadence Allegro 16.3-p003*
G04 Origin Date:  Mon Feb 10 17:13:57 2014*
G04 *
G04 Layer:  PACKAGE GEOMETRY/SILKSCREEN_BOTTOM*
G04 Layer:  MANUFACTURING/AUTOSILK_BOTTOM*
G04 Layer:  BOARD GEOMETRY/SILKSCREEN_BOTTOM*
G04 *
G04 Offset:    (0.000 0.000)*
G04 Mirror:    No*
G04 Mode:      Positive*
G04 Rotation:  0*
G04 FullContactRelief:  No*
G04 UndefLineWidth:     6.000*
G04 ================== end FILE IDENTIFICATION RECORD ====================*
%FSLAX55Y55*MOIN*%
%IR0*IPPOS*OFA0.00000B0.00000*MIA0B0*SFA1.00000B1.00000*%
%ADD10C,.003937*%
%ADD11C,.009843*%
%ADD12C,.007874*%
%ADD13C,.006*%
G75*
%LPD*%
G75*
G54D10*
G01X-13838Y8905D02*
Y9811D01*
X-14054Y10027D01*
X-14497D01*
X-14665Y9860D01*
Y9033D01*
X-14537Y8905D01*
X-13838D01*
Y8866D01*
X-14182Y8521D01*
X-14369D01*
X-14694Y8846D01*
X-14635Y8905D01*
X-13838D01*
Y9043D01*
X-14537Y9742D01*
Y9830D01*
X-14212D01*
X-14094Y9712D01*
Y9417D01*
X-14409Y9102D01*
G01X-13838Y8905D02*
Y9811D01*
X-14054Y10027D01*
X-14497D01*
X-14665Y9860D01*
Y9033D01*
X-14537Y8905D01*
X-13838D01*
Y8866D01*
X-14182Y8521D01*
X-14369D01*
X-14694Y8846D01*
X-14635Y8905D01*
X-13838D01*
Y9043D01*
X-14537Y9742D01*
Y9830D01*
X-14212D01*
X-14094Y9712D01*
Y9417D01*
X-14409Y9102D01*
G54D11*
G01X-75220Y20103D02*
G02I-492J0D01*
G01D02*
G03X-75712Y20595I-492J0D01*
G01D02*
G03X-76204Y20103I0J-492D01*
G01D02*
G03X-75712Y19611I492J0D01*
G01D02*
G03X-75220Y20103I0J492D01*
G01X-54361Y42812D02*
G02I492J0D01*
G01X-53377D02*
G03X-53869Y43304I-492J0D01*
G01D02*
G03X-54361Y42812I0J-492D01*
G01D02*
G03X-53869Y42320I492J0D01*
G01D02*
G03X-53377Y42812I0J492D01*
G01X-27238Y37100D02*
G03I-492J0D01*
G01D02*
G03I-492J0D01*
G01X-4978Y-18100D02*
G03I-492J0D01*
G01X-1608Y-6870D02*
G03I-492J0D01*
G01D02*
G03X-2100Y-6378I-492J0D01*
G01D02*
G03X-2592Y-6870I0J-492D01*
G01D02*
G03X-2100Y-7362I492J0D01*
G01D02*
G03X-1608Y-6870I0J492D01*
G01X13222Y0D02*
G03I-492J0D01*
G01D02*
G03X12730Y492I-492J0D01*
G01D02*
G03X12238Y0I0J-492D01*
G01D02*
G03X12730Y-492I492J0D01*
G01D02*
G03X13222Y0I0J492D01*
G01X23208Y13100D02*
G03I-492J0D01*
G01D02*
G03X22716Y13592I-492J0D01*
G01D02*
G03X22224Y13100I0J-492D01*
G01D02*
G03X22716Y12608I492J0D01*
G01D02*
G03X23208Y13100I0J492D01*
G01Y9100D02*
G03I-492J0D01*
G01D02*
G03X22716Y9592I-492J0D01*
G01D02*
G03X22224Y9100I0J-492D01*
G01D02*
G03X22716Y8608I492J0D01*
G01D02*
G03X23208Y9100I0J492D01*
G01X67344Y20518D02*
G02I-492J0D01*
G01D02*
G03X66852Y21010I-492J0D01*
G01D02*
G03X66360Y20518I0J-492D01*
G01D02*
G03X66852Y20026I492J0D01*
G01D02*
G03X67344Y20518I0J492D01*
G54D12*
G01X-62100Y28500D02*
X-61800Y28800D01*
X-71300D01*
X-72600Y27500D01*
Y15600D01*
X-116200D01*
X-117000Y16400D01*
Y26700D01*
X-125700D01*
X-126300Y26100D01*
Y-33600D01*
X-115400D01*
Y-28600D01*
X-114800Y-28000D01*
X-74000D01*
Y-34100D01*
X-62100D01*
X-62000Y-34000D01*
Y28900D01*
G01X-126300Y-29119D02*
Y-33600D01*
X-115400D01*
Y-28600D01*
X-114800Y-28000D01*
X-103956D01*
G01X-126300Y-11901D02*
Y-26131D01*
G01Y25756D02*
Y501D01*
G01Y-4027D02*
Y-7373D01*
G01X-110353Y15600D02*
X-116200D01*
X-117000Y16400D01*
Y26700D01*
X-125514D01*
G01X-103956Y15600D02*
X-108047D01*
G01X-98444Y-28000D02*
X-93956D01*
G01Y15600D02*
X-94551D01*
G01X-96649D02*
X-98444D01*
G01X-88444Y-28000D02*
X-83956D01*
G01Y15600D02*
X-85551D01*
G01X-87649D02*
X-88444D01*
G01X-78444Y-28000D02*
X-74000D01*
Y-34100D01*
X-62100D01*
X-62000Y-34000D01*
Y9189D01*
G01X-66287Y28800D02*
X-71300D01*
X-72600Y27500D01*
Y15600D01*
X-78444D01*
G01X-62000Y10511D02*
Y26459D01*
G01X-58200Y33363D02*
Y41237D01*
G01Y33363D02*
Y41237D01*
G01X-62153Y28800D02*
X-63568D01*
G01X-15116Y-21250D02*
X-17084D01*
G01X-16759D02*
X-17084D01*
G01X-15116Y-14950D02*
X-17084D01*
G01X-15116D02*
X-17084D01*
G01X-18084Y33950D02*
X-16116D01*
G01X-18084D02*
X-16116D01*
G01X-18084Y40250D02*
X-16116D01*
G01X-18084D02*
X-16116D01*
G01X-5250Y-16516D02*
Y-18484D01*
G01X1050Y-16516D02*
Y-18484D01*
G01X3084Y-3150D02*
X1116D01*
G01X3084D02*
X1116D01*
G01X3084Y3150D02*
X1116D01*
G01X3084D02*
X1116D01*
G01X59667Y9494D02*
Y21306D01*
X55533D01*
Y9494D01*
X59667D01*
G01D02*
Y21306D01*
X59251D01*
G01X57708D02*
X55533D01*
Y9494D01*
X59667D01*
G01X55730Y21306D02*
X59667Y17368D01*
G01X56517Y21306D02*
X59667Y18156D01*
G01X57305Y21306D02*
X59667Y18943D01*
G01X58092Y21306D02*
X59667Y19731D01*
G01X58879Y21306D02*
X59667Y20518D01*
G01X58993Y21192D02*
X59667Y20518D01*
G01X58278Y21119D02*
X59667Y19731D01*
G01X57305Y21306D02*
X59667Y18943D01*
G01X56517Y21306D02*
X59667Y18156D01*
G01X55730Y21306D02*
X59667Y17368D01*
G01X168239Y-17961D02*
Y-38039D01*
X198161D01*
Y-17961D01*
X168239D01*
G01D02*
Y-38039D01*
X198161D01*
Y-17961D01*
X168239D01*
G54D13*
G01X-93587Y-700D02*
Y1092D01*
X-93480Y1467D01*
X-93267Y1717D01*
X-93000Y1800D01*
X-92733Y1717D01*
X-92520Y1467D01*
X-92413Y1092D01*
Y-700D01*
G01X-90853Y1800D02*
X-90800Y1258D01*
X-90720Y800D01*
X-90613Y383D01*
X-90480Y-75D01*
X-90267Y-700D01*
X-91333D01*
G01X-78033Y37100D02*
Y34600D01*
X-77367D01*
X-77153Y34725D01*
X-77020Y34892D01*
X-76967Y35225D01*
X-77020Y35558D01*
X-77180Y35767D01*
X-77367Y35892D01*
X-78033D01*
G01X-77367D02*
X-76967Y37100D01*
G01X-74980D02*
Y34600D01*
X-75967Y36392D01*
X-74633D01*
G01X-73607Y35017D02*
X-73447Y34767D01*
X-73260Y34642D01*
X-73047Y34600D01*
X-72780Y34683D01*
X-72593Y34892D01*
X-72540Y35142D01*
X-72567Y35392D01*
X-72673Y35600D01*
X-73207Y36017D01*
X-73447Y36308D01*
X-73607Y36725D01*
X-73660Y37100D01*
X-72540D01*
G01X-68687Y42892D02*
X-68527Y43017D01*
X-68340Y43100D01*
X-68127D01*
X-67887Y42975D01*
X-67700Y42767D01*
X-67567Y42517D01*
X-67460Y42100D01*
X-67433Y41725D01*
X-67487Y41350D01*
X-67567Y41100D01*
X-67727Y40850D01*
X-67913Y40683D01*
X-68100Y40600D01*
X-68287D01*
X-68473Y40683D01*
X-68633Y40808D01*
X-68767Y40975D01*
G01X-69713Y41100D02*
X-69873Y40808D01*
X-70087Y40642D01*
X-70327Y40600D01*
X-70540Y40642D01*
X-70753Y40850D01*
X-70887Y41100D01*
X-70913Y41350D01*
X-70860Y41642D01*
X-70673Y41850D01*
X-70487Y41933D01*
X-70247D01*
G01X-70487D02*
X-70647Y42058D01*
X-70780Y42267D01*
X-70833Y42517D01*
X-70780Y42767D01*
X-70647Y42975D01*
X-70407Y43100D01*
X-70167Y43058D01*
X-69927Y42892D01*
G01X-72500Y40600D02*
Y43100D01*
X-72180Y42600D01*
G01Y40600D02*
X-72820D01*
G01X-61013Y44100D02*
Y42308D01*
X-61120Y41933D01*
X-61333Y41683D01*
X-61600Y41600D01*
X-61867Y41683D01*
X-62080Y41933D01*
X-62187Y42308D01*
Y44100D01*
G01X-63800Y41600D02*
X-63987Y41642D01*
X-64200Y41767D01*
X-64333Y41975D01*
X-64387Y42267D01*
X-64333Y42558D01*
X-64173Y42808D01*
X-63933Y42933D01*
X-63667D01*
X-63507Y43017D01*
X-63373Y43225D01*
X-63320Y43517D01*
X-63400Y43808D01*
X-63587Y44017D01*
X-63800Y44100D01*
X-64013Y44017D01*
X-64200Y43808D01*
X-64280Y43517D01*
X-64227Y43225D01*
X-64093Y43017D01*
X-63933Y42933D01*
X-63667D01*
X-63427Y42808D01*
X-63267Y42558D01*
X-63213Y42267D01*
X-63267Y41975D01*
X-63400Y41767D01*
X-63613Y41642D01*
X-63800Y41600D01*
G01X-47633Y9500D02*
Y7000D01*
X-46967D01*
X-46753Y7125D01*
X-46620Y7292D01*
X-46567Y7625D01*
X-46620Y7958D01*
X-46780Y8167D01*
X-46967Y8292D01*
X-47633D01*
G01X-46967D02*
X-46567Y9500D01*
G01X-45487Y9000D02*
X-45327Y9292D01*
X-45113Y9458D01*
X-44873Y9500D01*
X-44660Y9458D01*
X-44447Y9250D01*
X-44313Y9000D01*
X-44287Y8750D01*
X-44340Y8458D01*
X-44527Y8250D01*
X-44713Y8167D01*
X-44953D01*
G01X-44713D02*
X-44553Y8042D01*
X-44420Y7833D01*
X-44367Y7583D01*
X-44420Y7333D01*
X-44553Y7125D01*
X-44793Y7000D01*
X-45033Y7042D01*
X-45273Y7208D01*
G01X-43153Y9208D02*
X-42967Y9417D01*
X-42753Y9500D01*
X-42540Y9417D01*
X-42353Y9167D01*
X-42220Y8792D01*
X-42167Y8417D01*
Y7958D01*
X-42220Y7583D01*
X-42353Y7250D01*
X-42513Y7083D01*
X-42700Y7000D01*
X-42913Y7083D01*
X-43073Y7250D01*
X-43180Y7500D01*
X-43233Y7833D01*
X-43180Y8125D01*
X-43047Y8417D01*
X-42887Y8583D01*
X-42700Y8625D01*
X-42487Y8542D01*
X-42327Y8333D01*
X-42167Y7958D01*
G01X-47400Y25267D02*
X-44900D01*
Y25933D01*
X-45025Y26147D01*
X-45192Y26280D01*
X-45525Y26333D01*
X-45858Y26280D01*
X-46067Y26120D01*
X-46192Y25933D01*
Y25267D01*
G01Y25933D02*
X-47400Y26333D01*
G01Y28320D02*
X-44900D01*
X-46692Y27333D01*
Y28667D01*
G01X-47400Y30200D02*
X-44900D01*
X-45400Y29880D01*
G01X-47400D02*
Y30520D01*
G01X-37433Y0D02*
Y-2500D01*
X-36767D01*
X-36553Y-2375D01*
X-36420Y-2208D01*
X-36367Y-1875D01*
X-36420Y-1542D01*
X-36580Y-1333D01*
X-36767Y-1208D01*
X-37433D01*
G01X-36767D02*
X-36367Y0D01*
G01X-35287Y-500D02*
X-35127Y-208D01*
X-34913Y-42D01*
X-34673Y0D01*
X-34460Y-42D01*
X-34247Y-250D01*
X-34113Y-500D01*
X-34087Y-750D01*
X-34140Y-1042D01*
X-34327Y-1250D01*
X-34513Y-1333D01*
X-34753D01*
G01X-34513D02*
X-34353Y-1458D01*
X-34220Y-1667D01*
X-34167Y-1917D01*
X-34220Y-2167D01*
X-34353Y-2375D01*
X-34593Y-2500D01*
X-34833Y-2458D01*
X-35073Y-2292D01*
G01X-32180Y0D02*
Y-2500D01*
X-33167Y-708D01*
X-31833D01*
G01X-39500Y32167D02*
X-37000D01*
Y32833D01*
X-37125Y33047D01*
X-37292Y33180D01*
X-37625Y33233D01*
X-37958Y33180D01*
X-38167Y33020D01*
X-38292Y32833D01*
Y32167D01*
G01Y32833D02*
X-39500Y33233D01*
G01Y35220D02*
X-37000D01*
X-38792Y34233D01*
Y35567D01*
G01X-37000Y37100D02*
X-37083Y36887D01*
X-37292Y36727D01*
X-37542Y36620D01*
X-37875Y36540D01*
X-38250Y36513D01*
X-38625Y36540D01*
X-38958Y36620D01*
X-39208Y36727D01*
X-39417Y36887D01*
X-39500Y37100D01*
X-39417Y37313D01*
X-39208Y37473D01*
X-38958Y37580D01*
X-38625Y37660D01*
X-38250Y37687D01*
X-37875Y37660D01*
X-37542Y37580D01*
X-37292Y37473D01*
X-37083Y37313D01*
X-37000Y37100D01*
G01X-26992Y-32087D02*
X-27117Y-31927D01*
X-27200Y-31740D01*
Y-31527D01*
X-27075Y-31287D01*
X-26867Y-31100D01*
X-26617Y-30967D01*
X-26200Y-30860D01*
X-25825Y-30833D01*
X-25450Y-30887D01*
X-25200Y-30967D01*
X-24950Y-31127D01*
X-24783Y-31313D01*
X-24700Y-31500D01*
Y-31687D01*
X-24783Y-31873D01*
X-24908Y-32033D01*
X-25075Y-32167D01*
G01X-26783Y-33193D02*
X-27033Y-33353D01*
X-27158Y-33540D01*
X-27200Y-33753D01*
X-27117Y-34020D01*
X-26908Y-34207D01*
X-26658Y-34260D01*
X-26408Y-34233D01*
X-26200Y-34127D01*
X-25783Y-33593D01*
X-25492Y-33353D01*
X-25075Y-33193D01*
X-24700Y-33140D01*
Y-34260D01*
G01X-27200Y-35900D02*
X-27117Y-35687D01*
X-26908Y-35527D01*
X-26658Y-35420D01*
X-26325Y-35340D01*
X-25950Y-35313D01*
X-25575Y-35340D01*
X-25242Y-35420D01*
X-24992Y-35527D01*
X-24783Y-35687D01*
X-24700Y-35900D01*
X-24783Y-36113D01*
X-24992Y-36273D01*
X-25242Y-36380D01*
X-25575Y-36460D01*
X-25950Y-36487D01*
X-26325Y-36460D01*
X-26658Y-36380D01*
X-26908Y-36273D01*
X-27117Y-36113D01*
X-27200Y-35900D01*
G01X-24233Y-25600D02*
Y-28100D01*
X-23567D01*
X-23353Y-27975D01*
X-23220Y-27808D01*
X-23167Y-27475D01*
X-23220Y-27142D01*
X-23380Y-26933D01*
X-23567Y-26808D01*
X-24233D01*
G01X-23567D02*
X-23167Y-25600D01*
G01X-22007Y-27683D02*
X-21847Y-27933D01*
X-21660Y-28058D01*
X-21447Y-28100D01*
X-21180Y-28017D01*
X-20993Y-27808D01*
X-20940Y-27558D01*
X-20967Y-27308D01*
X-21073Y-27100D01*
X-21607Y-26683D01*
X-21847Y-26392D01*
X-22007Y-25975D01*
X-22060Y-25600D01*
X-20940D01*
G01X-19887Y-26100D02*
X-19727Y-25808D01*
X-19513Y-25642D01*
X-19273Y-25600D01*
X-19060Y-25642D01*
X-18847Y-25850D01*
X-18713Y-26100D01*
X-18687Y-26350D01*
X-18740Y-26642D01*
X-18927Y-26850D01*
X-19113Y-26933D01*
X-19353D01*
G01X-19113D02*
X-18953Y-27058D01*
X-18820Y-27267D01*
X-18767Y-27517D01*
X-18820Y-27767D01*
X-18953Y-27975D01*
X-19193Y-28100D01*
X-19433Y-28058D01*
X-19673Y-27892D01*
G01X-28733Y-5400D02*
Y-7900D01*
X-28067D01*
X-27853Y-7775D01*
X-27720Y-7608D01*
X-27667Y-7275D01*
X-27720Y-6942D01*
X-27880Y-6733D01*
X-28067Y-6608D01*
X-28733D01*
G01X-28067D02*
X-27667Y-5400D01*
G01X-26000D02*
Y-7900D01*
X-26320Y-7400D01*
G01Y-5400D02*
X-25680D01*
G01X-24387Y-5775D02*
X-24227Y-5567D01*
X-24040Y-5442D01*
X-23800Y-5400D01*
X-23560Y-5483D01*
X-23373Y-5650D01*
X-23240Y-5942D01*
X-23213Y-6275D01*
X-23267Y-6608D01*
X-23400Y-6817D01*
X-23587Y-6983D01*
X-23773Y-7025D01*
X-23960Y-6983D01*
X-24200Y-6817D01*
X-24120Y-7900D01*
X-23400D01*
G01X-31333Y7300D02*
Y4800D01*
X-30667D01*
X-30453Y4925D01*
X-30320Y5092D01*
X-30267Y5425D01*
X-30320Y5758D01*
X-30480Y5967D01*
X-30667Y6092D01*
X-31333D01*
G01X-30667D02*
X-30267Y7300D01*
G01X-29187Y6800D02*
X-29027Y7092D01*
X-28813Y7258D01*
X-28573Y7300D01*
X-28360Y7258D01*
X-28147Y7050D01*
X-28013Y6800D01*
X-27987Y6550D01*
X-28040Y6258D01*
X-28227Y6050D01*
X-28413Y5967D01*
X-28653D01*
G01X-28413D02*
X-28253Y5842D01*
X-28120Y5633D01*
X-28067Y5383D01*
X-28120Y5133D01*
X-28253Y4925D01*
X-28493Y4800D01*
X-28733Y4842D01*
X-28973Y5008D01*
G01X-26400Y7300D02*
X-26213Y7258D01*
X-26000Y7133D01*
X-25867Y6925D01*
X-25813Y6633D01*
X-25867Y6342D01*
X-26027Y6092D01*
X-26267Y5967D01*
X-26533D01*
X-26693Y5883D01*
X-26827Y5675D01*
X-26880Y5383D01*
X-26800Y5092D01*
X-26613Y4883D01*
X-26400Y4800D01*
X-26187Y4883D01*
X-26000Y5092D01*
X-25920Y5383D01*
X-25973Y5675D01*
X-26107Y5883D01*
X-26267Y5967D01*
X-26533D01*
X-26773Y6092D01*
X-26933Y6342D01*
X-26987Y6633D01*
X-26933Y6925D01*
X-26800Y7133D01*
X-26587Y7258D01*
X-26400Y7300D01*
G01X-11233Y-34400D02*
Y-36900D01*
X-10567D01*
X-10353Y-36775D01*
X-10220Y-36608D01*
X-10167Y-36275D01*
X-10220Y-35942D01*
X-10380Y-35733D01*
X-10567Y-35608D01*
X-11233D01*
G01X-10567D02*
X-10167Y-34400D01*
G01X-9007Y-36483D02*
X-8847Y-36733D01*
X-8660Y-36858D01*
X-8447Y-36900D01*
X-8180Y-36817D01*
X-7993Y-36608D01*
X-7940Y-36358D01*
X-7967Y-36108D01*
X-8073Y-35900D01*
X-8607Y-35483D01*
X-8847Y-35192D01*
X-9007Y-34775D01*
X-9060Y-34400D01*
X-7940D01*
G01X-5980D02*
Y-36900D01*
X-6967Y-35108D01*
X-5633D01*
G01X-12433Y-26800D02*
Y-24300D01*
X-11367D01*
G01X-10207Y-26383D02*
X-10047Y-26633D01*
X-9860Y-26758D01*
X-9647Y-26800D01*
X-9380Y-26717D01*
X-9193Y-26508D01*
X-9140Y-26258D01*
X-9167Y-26008D01*
X-9273Y-25800D01*
X-9807Y-25383D01*
X-10047Y-25092D01*
X-10207Y-24675D01*
X-10260Y-24300D01*
X-9140D01*
G01X-9887Y-12608D02*
X-9727Y-12483D01*
X-9540Y-12400D01*
X-9327D01*
X-9087Y-12525D01*
X-8900Y-12733D01*
X-8767Y-12983D01*
X-8660Y-13400D01*
X-8633Y-13775D01*
X-8687Y-14150D01*
X-8767Y-14400D01*
X-8927Y-14650D01*
X-9113Y-14817D01*
X-9300Y-14900D01*
X-9487D01*
X-9673Y-14817D01*
X-9833Y-14692D01*
X-9967Y-14525D01*
G01X-10993Y-12817D02*
X-11153Y-12567D01*
X-11340Y-12442D01*
X-11553Y-12400D01*
X-11820Y-12483D01*
X-12007Y-12692D01*
X-12060Y-12942D01*
X-12033Y-13192D01*
X-11927Y-13400D01*
X-11393Y-13817D01*
X-11153Y-14108D01*
X-10993Y-14525D01*
X-10940Y-14900D01*
X-12060D01*
G01X-13700D02*
Y-12400D01*
X-13380Y-12900D01*
G01Y-14900D02*
X-14020D01*
G01X-17733Y-1300D02*
Y-3800D01*
X-17067D01*
X-16853Y-3675D01*
X-16720Y-3508D01*
X-16667Y-3175D01*
X-16720Y-2842D01*
X-16880Y-2633D01*
X-17067Y-2508D01*
X-17733D01*
G01X-17067D02*
X-16667Y-1300D01*
G01X-15000D02*
Y-3800D01*
X-15320Y-3300D01*
G01Y-1300D02*
X-14680D01*
G01X-13387Y-1800D02*
X-13227Y-1508D01*
X-13013Y-1342D01*
X-12773Y-1300D01*
X-12560Y-1342D01*
X-12347Y-1550D01*
X-12213Y-1800D01*
X-12187Y-2050D01*
X-12240Y-2342D01*
X-12427Y-2550D01*
X-12613Y-2633D01*
X-12853D01*
G01X-12613D02*
X-12453Y-2758D01*
X-12320Y-2967D01*
X-12267Y-3217D01*
X-12320Y-3467D01*
X-12453Y-3675D01*
X-12693Y-3800D01*
X-12933Y-3758D01*
X-13173Y-3592D01*
G01X-18392Y38813D02*
X-18517Y38973D01*
X-18600Y39160D01*
Y39373D01*
X-18475Y39613D01*
X-18267Y39800D01*
X-18017Y39933D01*
X-17600Y40040D01*
X-17225Y40067D01*
X-16850Y40013D01*
X-16600Y39933D01*
X-16350Y39773D01*
X-16183Y39587D01*
X-16100Y39400D01*
Y39213D01*
X-16183Y39027D01*
X-16308Y38867D01*
X-16475Y38733D01*
G01X-16100Y37200D02*
X-18600D01*
X-18100Y37520D01*
G01X-16100D02*
Y36880D01*
G01X-16392Y35453D02*
X-16183Y35267D01*
X-16100Y35053D01*
X-16183Y34840D01*
X-16433Y34653D01*
X-16808Y34520D01*
X-17183Y34467D01*
X-17642D01*
X-18017Y34520D01*
X-18350Y34653D01*
X-18517Y34813D01*
X-18600Y35000D01*
X-18517Y35213D01*
X-18350Y35373D01*
X-18100Y35480D01*
X-17767Y35533D01*
X-17475Y35480D01*
X-17183Y35347D01*
X-17017Y35187D01*
X-16975Y35000D01*
X-17058Y34787D01*
X-17267Y34627D01*
X-17642Y34467D01*
G01X1308Y-11187D02*
X1183Y-11027D01*
X1100Y-10840D01*
Y-10627D01*
X1225Y-10387D01*
X1433Y-10200D01*
X1683Y-10067D01*
X2100Y-9960D01*
X2475Y-9933D01*
X2850Y-9987D01*
X3100Y-10067D01*
X3350Y-10227D01*
X3517Y-10413D01*
X3600Y-10600D01*
Y-10787D01*
X3517Y-10973D01*
X3392Y-11133D01*
X3225Y-11267D01*
G01X1517Y-12293D02*
X1267Y-12453D01*
X1142Y-12640D01*
X1100Y-12853D01*
X1183Y-13120D01*
X1392Y-13307D01*
X1642Y-13360D01*
X1892Y-13333D01*
X2100Y-13227D01*
X2517Y-12693D01*
X2808Y-12453D01*
X3225Y-12293D01*
X3600Y-12240D01*
Y-13360D01*
G01X1517Y-14493D02*
X1267Y-14653D01*
X1142Y-14840D01*
X1100Y-15053D01*
X1183Y-15320D01*
X1392Y-15507D01*
X1642Y-15560D01*
X1892Y-15533D01*
X2100Y-15427D01*
X2517Y-14893D01*
X2808Y-14653D01*
X3225Y-14493D01*
X3600Y-14440D01*
Y-15560D01*
G01X-2080Y23567D02*
X-1830Y23433D01*
X-1664Y23273D01*
X-1580Y23087D01*
X-1664Y22873D01*
X-1830Y22713D01*
X-2080Y22553D01*
X-2414Y22500D01*
X-4080D01*
G01X-3664Y21340D02*
X-3914Y21180D01*
X-4039Y20993D01*
X-4080Y20780D01*
X-3997Y20513D01*
X-3789Y20327D01*
X-3539Y20273D01*
X-3289Y20300D01*
X-3080Y20407D01*
X-2664Y20940D01*
X-2372Y21180D01*
X-1955Y21340D01*
X-1580Y21393D01*
Y20273D01*
G01X9013Y5692D02*
X9173Y5817D01*
X9360Y5900D01*
X9573D01*
X9813Y5775D01*
X10000Y5567D01*
X10133Y5317D01*
X10240Y4900D01*
X10267Y4525D01*
X10213Y4150D01*
X10133Y3900D01*
X9973Y3650D01*
X9787Y3483D01*
X9600Y3400D01*
X9413D01*
X9227Y3483D01*
X9067Y3608D01*
X8933Y3775D01*
G01X7400Y3400D02*
Y5900D01*
X7720Y5400D01*
G01Y3400D02*
X7080D01*
G01X5200D02*
X5013Y3442D01*
X4800Y3567D01*
X4667Y3775D01*
X4613Y4067D01*
X4667Y4358D01*
X4827Y4608D01*
X5067Y4733D01*
X5333D01*
X5493Y4817D01*
X5627Y5025D01*
X5680Y5317D01*
X5600Y5608D01*
X5413Y5817D01*
X5200Y5900D01*
X4987Y5817D01*
X4800Y5608D01*
X4720Y5317D01*
X4773Y5025D01*
X4907Y4817D01*
X5067Y4733D01*
X5333D01*
X5573Y4608D01*
X5733Y4358D01*
X5787Y4067D01*
X5733Y3775D01*
X5600Y3567D01*
X5387Y3442D01*
X5200Y3400D01*
G01X24387Y10300D02*
Y12800D01*
X23853D01*
X23640Y12675D01*
X23480Y12508D01*
X23347Y12258D01*
X23240Y11967D01*
X23213Y11550D01*
X23240Y11133D01*
X23347Y10842D01*
X23480Y10592D01*
X23640Y10425D01*
X23853Y10300D01*
X24387D01*
G01X21600D02*
Y12800D01*
X21920Y12300D01*
G01Y10300D02*
X21280D01*
G01X20387Y12053D02*
Y14553D01*
X19853D01*
X19640Y14428D01*
X19480Y14261D01*
X19347Y14011D01*
X19240Y13719D01*
X19213Y13303D01*
X19240Y12886D01*
X19347Y12594D01*
X19480Y12344D01*
X19640Y12178D01*
X19853Y12053D01*
X20387D01*
G01X18107Y14136D02*
X17947Y14386D01*
X17760Y14511D01*
X17547Y14553D01*
X17280Y14469D01*
X17093Y14261D01*
X17040Y14011D01*
X17067Y13761D01*
X17173Y13553D01*
X17707Y13136D01*
X17947Y12844D01*
X18107Y12428D01*
X18160Y12053D01*
X17040D01*
G01X24587Y20208D02*
X24427Y20083D01*
X24240Y20000D01*
X24027D01*
X23787Y20125D01*
X23600Y20333D01*
X23467Y20583D01*
X23360Y21000D01*
X23333Y21375D01*
X23387Y21750D01*
X23467Y22000D01*
X23627Y22250D01*
X23813Y22417D01*
X24000Y22500D01*
X24187D01*
X24373Y22417D01*
X24533Y22292D01*
X24667Y22125D01*
G01X25693Y20417D02*
X25853Y20167D01*
X26040Y20042D01*
X26253Y20000D01*
X26520Y20083D01*
X26707Y20292D01*
X26760Y20542D01*
X26733Y20792D01*
X26627Y21000D01*
X26093Y21417D01*
X25853Y21708D01*
X25693Y22125D01*
X25640Y22500D01*
X26760D01*
G01X27813Y22000D02*
X27973Y22292D01*
X28187Y22458D01*
X28427Y22500D01*
X28640Y22458D01*
X28853Y22250D01*
X28987Y22000D01*
X29013Y21750D01*
X28960Y21458D01*
X28773Y21250D01*
X28587Y21167D01*
X28347D01*
G01X28587D02*
X28747Y21042D01*
X28880Y20833D01*
X28933Y20583D01*
X28880Y20333D01*
X28747Y20125D01*
X28507Y20000D01*
X28267Y20042D01*
X28027Y20208D01*
G01X41400Y-4933D02*
X43900D01*
Y-4267D01*
X43775Y-4053D01*
X43608Y-3920D01*
X43275Y-3867D01*
X42942Y-3920D01*
X42733Y-4080D01*
X42608Y-4267D01*
Y-4933D01*
G01Y-4267D02*
X41400Y-3867D01*
G01X43483Y-2707D02*
X43733Y-2547D01*
X43858Y-2360D01*
X43900Y-2147D01*
X43817Y-1880D01*
X43608Y-1693D01*
X43358Y-1640D01*
X43108Y-1667D01*
X42900Y-1773D01*
X42483Y-2307D01*
X42192Y-2547D01*
X41775Y-2707D01*
X41400Y-2760D01*
Y-1640D01*
G01X41692Y-453D02*
X41483Y-267D01*
X41400Y-53D01*
X41483Y160D01*
X41733Y347D01*
X42108Y480D01*
X42483Y533D01*
X42942D01*
X43317Y480D01*
X43650Y347D01*
X43817Y187D01*
X43900Y0D01*
X43817Y-213D01*
X43650Y-373D01*
X43400Y-480D01*
X43067Y-533D01*
X42775Y-480D01*
X42483Y-347D01*
X42317Y-187D01*
X42275Y0D01*
X42358Y213D01*
X42567Y373D01*
X42942Y533D01*
G01X52300Y-2733D02*
X54800D01*
Y-2067D01*
X54675Y-1853D01*
X54508Y-1720D01*
X54175Y-1667D01*
X53842Y-1720D01*
X53633Y-1880D01*
X53508Y-2067D01*
Y-2733D01*
G01Y-2067D02*
X52300Y-1667D01*
G01X54383Y-507D02*
X54633Y-347D01*
X54758Y-160D01*
X54800Y53D01*
X54717Y320D01*
X54508Y507D01*
X54258Y560D01*
X54008Y533D01*
X53800Y427D01*
X53383Y-107D01*
X53092Y-347D01*
X52675Y-507D01*
X52300Y-560D01*
Y560D01*
G01Y2200D02*
X52342Y2387D01*
X52467Y2600D01*
X52675Y2733D01*
X52967Y2787D01*
X53258Y2733D01*
X53508Y2573D01*
X53633Y2333D01*
Y2067D01*
X53717Y1907D01*
X53925Y1773D01*
X54217Y1720D01*
X54508Y1800D01*
X54717Y1987D01*
X54800Y2200D01*
X54717Y2413D01*
X54508Y2600D01*
X54217Y2680D01*
X53925Y2627D01*
X53717Y2493D01*
X53633Y2333D01*
Y2067D01*
X53508Y1827D01*
X53258Y1667D01*
X52967Y1613D01*
X52675Y1667D01*
X52467Y1800D01*
X52342Y2013D01*
X52300Y2200D01*
G01X55787Y27853D02*
Y26061D01*
X55680Y25686D01*
X55467Y25436D01*
X55200Y25353D01*
X54933Y25436D01*
X54720Y25686D01*
X54613Y26061D01*
Y27853D01*
G01X53587Y25728D02*
X53427Y25519D01*
X53240Y25394D01*
X53000Y25353D01*
X52760Y25436D01*
X52573Y25603D01*
X52440Y25894D01*
X52413Y26228D01*
X52467Y26561D01*
X52600Y26770D01*
X52787Y26936D01*
X52973Y26978D01*
X53160Y26936D01*
X53400Y26770D01*
X53320Y27853D01*
X52600D01*
G01X84957Y3717D02*
X84933Y3515D01*
X84860Y3324D01*
X84709Y3173D01*
X84451Y3092D01*
X84171Y3107D01*
X83900Y3190D01*
X83530Y3409D01*
X83246Y3655D01*
X83019Y3958D01*
X82899Y4192D01*
X82835Y4482D01*
X82849Y4731D01*
X82922Y4922D01*
X83054Y5054D01*
X83245Y5127D01*
X83447Y5152D01*
X83659Y5128D01*
G01X84416Y5709D02*
X84323Y6029D01*
X84356Y6298D01*
X84497Y6497D01*
X84677Y6618D01*
X84975Y6622D01*
X85246Y6539D01*
X85442Y6381D01*
X85610Y6137D01*
X85626Y5858D01*
X85553Y5667D01*
X85383Y5497D01*
G01X85553Y5667D02*
X85754Y5692D01*
X85996Y5639D01*
X86210Y5500D01*
X86349Y5285D01*
X86402Y5044D01*
X86321Y4785D01*
X86122Y4645D01*
X85834Y4593D01*
G01X116813Y-5708D02*
X116973Y-5583D01*
X117160Y-5500D01*
X117373D01*
X117613Y-5625D01*
X117800Y-5833D01*
X117933Y-6083D01*
X118040Y-6500D01*
X118067Y-6875D01*
X118013Y-7250D01*
X117933Y-7500D01*
X117773Y-7750D01*
X117587Y-7917D01*
X117400Y-8000D01*
X117213D01*
X117027Y-7917D01*
X116867Y-7792D01*
X116733Y-7625D01*
G01X115253Y-8000D02*
X115200Y-7458D01*
X115120Y-7000D01*
X115013Y-6583D01*
X114880Y-6125D01*
X114667Y-5500D01*
X115733D01*
G01X144013Y25992D02*
X144173Y26117D01*
X144360Y26200D01*
X144573D01*
X144813Y26075D01*
X145000Y25867D01*
X145133Y25617D01*
X145240Y25200D01*
X145267Y24825D01*
X145213Y24450D01*
X145133Y24200D01*
X144973Y23950D01*
X144787Y23783D01*
X144600Y23700D01*
X144413D01*
X144227Y23783D01*
X144067Y23908D01*
X143933Y24075D01*
G01X142400Y23700D02*
Y26200D01*
X142720Y25700D01*
G01Y23700D02*
X142080D01*
G01X140787Y24075D02*
X140627Y23867D01*
X140440Y23742D01*
X140200Y23700D01*
X139960Y23783D01*
X139773Y23950D01*
X139640Y24242D01*
X139613Y24575D01*
X139667Y24908D01*
X139800Y25117D01*
X139987Y25283D01*
X140173Y25325D01*
X140360Y25283D01*
X140600Y25117D01*
X140520Y26200D01*
X139800D01*
G01X144113Y37592D02*
X144273Y37717D01*
X144460Y37800D01*
X144673D01*
X144913Y37675D01*
X145100Y37467D01*
X145233Y37217D01*
X145340Y36800D01*
X145367Y36425D01*
X145313Y36050D01*
X145233Y35800D01*
X145073Y35550D01*
X144887Y35383D01*
X144700Y35300D01*
X144513D01*
X144327Y35383D01*
X144167Y35508D01*
X144033Y35675D01*
G01X142500Y35300D02*
Y37800D01*
X142820Y37300D01*
G01Y35300D02*
X142180D01*
G01X140807Y37383D02*
X140647Y37633D01*
X140460Y37758D01*
X140247Y37800D01*
X139980Y37717D01*
X139793Y37508D01*
X139740Y37258D01*
X139767Y37008D01*
X139873Y36800D01*
X140407Y36383D01*
X140647Y36092D01*
X140807Y35675D01*
X140860Y35300D01*
X139740D01*
G01X144013Y34192D02*
X144173Y34317D01*
X144360Y34400D01*
X144573D01*
X144813Y34275D01*
X145000Y34067D01*
X145133Y33817D01*
X145240Y33400D01*
X145267Y33025D01*
X145213Y32650D01*
X145133Y32400D01*
X144973Y32150D01*
X144787Y31983D01*
X144600Y31900D01*
X144413D01*
X144227Y31983D01*
X144067Y32108D01*
X143933Y32275D01*
G01X142400Y31900D02*
Y34400D01*
X142720Y33900D01*
G01Y31900D02*
X142080D01*
G01X140787Y32400D02*
X140627Y32108D01*
X140413Y31942D01*
X140173Y31900D01*
X139960Y31942D01*
X139747Y32150D01*
X139613Y32400D01*
X139587Y32650D01*
X139640Y32942D01*
X139827Y33150D01*
X140013Y33233D01*
X140253D01*
G01X140013D02*
X139853Y33358D01*
X139720Y33567D01*
X139667Y33817D01*
X139720Y34067D01*
X139853Y34275D01*
X140093Y34400D01*
X140333Y34358D01*
X140573Y34192D01*
G01X144113Y29592D02*
X144273Y29717D01*
X144460Y29800D01*
X144673D01*
X144913Y29675D01*
X145100Y29467D01*
X145233Y29217D01*
X145340Y28800D01*
X145367Y28425D01*
X145313Y28050D01*
X145233Y27800D01*
X145073Y27550D01*
X144887Y27383D01*
X144700Y27300D01*
X144513D01*
X144327Y27383D01*
X144167Y27508D01*
X144033Y27675D01*
G01X142500Y27300D02*
Y29800D01*
X142820Y29300D01*
G01Y27300D02*
X142180D01*
G01X139980D02*
Y29800D01*
X140967Y28008D01*
X139633D01*
G01X161713Y22792D02*
X161873Y22917D01*
X162060Y23000D01*
X162273D01*
X162513Y22875D01*
X162700Y22667D01*
X162833Y22417D01*
X162940Y22000D01*
X162967Y21625D01*
X162913Y21250D01*
X162833Y21000D01*
X162673Y20750D01*
X162487Y20583D01*
X162300Y20500D01*
X162113D01*
X161927Y20583D01*
X161767Y20708D01*
X161633Y20875D01*
G01X160100Y20500D02*
X159913Y20542D01*
X159700Y20667D01*
X159567Y20875D01*
X159513Y21167D01*
X159567Y21458D01*
X159727Y21708D01*
X159967Y21833D01*
X160233D01*
X160393Y21917D01*
X160527Y22125D01*
X160580Y22417D01*
X160500Y22708D01*
X160313Y22917D01*
X160100Y23000D01*
X159887Y22917D01*
X159700Y22708D01*
X159620Y22417D01*
X159673Y22125D01*
X159807Y21917D01*
X159967Y21833D01*
X160233D01*
X160473Y21708D01*
X160633Y21458D01*
X160687Y21167D01*
X160633Y20875D01*
X160500Y20667D01*
X160287Y20542D01*
X160100Y20500D01*
G01X165013Y30192D02*
X165173Y30317D01*
X165360Y30400D01*
X165573D01*
X165813Y30275D01*
X166000Y30067D01*
X166133Y29817D01*
X166240Y29400D01*
X166267Y29025D01*
X166213Y28650D01*
X166133Y28400D01*
X165973Y28150D01*
X165787Y27983D01*
X165600Y27900D01*
X165413D01*
X165227Y27983D01*
X165067Y28108D01*
X164933Y28275D01*
G01X163853Y28192D02*
X163667Y27983D01*
X163453Y27900D01*
X163240Y27983D01*
X163053Y28233D01*
X162920Y28608D01*
X162867Y28983D01*
Y29442D01*
X162920Y29817D01*
X163053Y30150D01*
X163213Y30317D01*
X163400Y30400D01*
X163613Y30317D01*
X163773Y30150D01*
X163880Y29900D01*
X163933Y29567D01*
X163880Y29275D01*
X163747Y28983D01*
X163587Y28817D01*
X163400Y28775D01*
X163187Y28858D01*
X163027Y29067D01*
X162867Y29442D01*
G01X166813Y33992D02*
X166973Y34117D01*
X167160Y34200D01*
X167373D01*
X167613Y34075D01*
X167800Y33867D01*
X167933Y33617D01*
X168040Y33200D01*
X168067Y32825D01*
X168013Y32450D01*
X167933Y32200D01*
X167773Y31950D01*
X167587Y31783D01*
X167400Y31700D01*
X167213D01*
X167027Y31783D01*
X166867Y31908D01*
X166733Y32075D01*
G01X165200Y31700D02*
Y34200D01*
X165520Y33700D01*
G01Y31700D02*
X164880D01*
G01X163000Y34200D02*
X163213Y34117D01*
X163373Y33908D01*
X163480Y33658D01*
X163560Y33325D01*
X163587Y32950D01*
X163560Y32575D01*
X163480Y32242D01*
X163373Y31992D01*
X163213Y31783D01*
X163000Y31700D01*
X162787Y31783D01*
X162627Y31992D01*
X162520Y32242D01*
X162440Y32575D01*
X162413Y32950D01*
X162440Y33325D01*
X162520Y33658D01*
X162627Y33908D01*
X162787Y34117D01*
X163000Y34200D01*
G01X166813Y37692D02*
X166973Y37817D01*
X167160Y37900D01*
X167373D01*
X167613Y37775D01*
X167800Y37567D01*
X167933Y37317D01*
X168040Y36900D01*
X168067Y36525D01*
X168013Y36150D01*
X167933Y35900D01*
X167773Y35650D01*
X167587Y35483D01*
X167400Y35400D01*
X167213D01*
X167027Y35483D01*
X166867Y35608D01*
X166733Y35775D01*
G01X165200Y35400D02*
Y37900D01*
X165520Y37400D01*
G01Y35400D02*
X164880D01*
G01X163000D02*
Y37900D01*
X163320Y37400D01*
G01Y35400D02*
X162680D01*
G01X168740Y-39800D02*
Y-42300D01*
G01X169860D02*
Y-39800D01*
G01Y-41050D02*
X168740D01*
G01X172033Y-39800D02*
X170967D01*
Y-42300D01*
X172033D01*
G01X171607Y-41092D02*
X170967D01*
G01X173033Y-39800D02*
X173700Y-42300D01*
X174367Y-39800D01*
G01X174127Y-40675D02*
X173273D01*
G01X175313Y-39800D02*
Y-42300D01*
X175847D01*
X176060Y-42175D01*
X176220Y-42008D01*
X176353Y-41758D01*
X176460Y-41467D01*
X176487Y-41050D01*
X176460Y-40633D01*
X176353Y-40342D01*
X176220Y-40092D01*
X176060Y-39925D01*
X175847Y-39800D01*
X175313D01*
G01X178633D02*
X177567D01*
Y-42300D01*
X178633D01*
G01X178207Y-41092D02*
X177567D01*
G01X179767Y-39800D02*
Y-42300D01*
X180433D01*
X180647Y-42175D01*
X180780Y-42008D01*
X180833Y-41675D01*
X180780Y-41342D01*
X180620Y-41133D01*
X180433Y-41008D01*
X179767D01*
G01X180433D02*
X180833Y-39800D01*
G01X181993Y-41883D02*
X182153Y-42133D01*
X182340Y-42258D01*
X182553Y-42300D01*
X182820Y-42217D01*
X183007Y-42008D01*
X183060Y-41758D01*
X183033Y-41508D01*
X182927Y-41300D01*
X182393Y-40883D01*
X182153Y-40592D01*
X181993Y-40175D01*
X181940Y-39800D01*
X183060D01*
G01X181045Y30945D02*
X182813Y29177D01*
X183284Y29649D01*
X183347Y29888D01*
X183323Y30100D01*
X183125Y30374D01*
X182852Y30571D01*
X182591Y30606D01*
X182371Y30562D01*
X181900Y30091D01*
G01X182371Y30562D02*
X181799Y31699D01*
G01X182978Y32878D02*
X183139Y32980D01*
X183378Y33043D01*
X183620Y32990D01*
X183864Y32821D01*
X184032Y32577D01*
X184096Y32287D01*
X184015Y32029D01*
X183826Y31841D01*
X183772Y31669D01*
X183825Y31427D01*
X183994Y31183D01*
X184256Y31033D01*
X184536Y31018D01*
X184746Y31110D01*
X184838Y31320D01*
X184822Y31599D01*
X184672Y31862D01*
X184429Y32030D01*
X184187Y32083D01*
X184015Y32029D01*
X183826Y31841D01*
X183568Y31759D01*
X183278Y31823D01*
X183034Y31992D01*
X182866Y32236D01*
X182813Y32477D01*
X182875Y32716D01*
X182978Y32878D01*
M02*
