G04 ================== begin FILE IDENTIFICATION RECORD ==================*
G04 Layout Name:  C:/Users/Liber/Desktop/SmartRing-V1.03/GPRS/GPRS.brd*
G04 Film Name:    GND*
G04 File Format:  Gerber RS274X*
G04 File Origin:  Cadence Allegro 16.3-p003*
G04 Origin Date:  Wed Apr 02 01:23:31 2014*
G04 *
G04 Layer:  ETCH/GND*
G04 Layer:  PIN/GND*
G04 Layer:  VIA CLASS/GND*
G04 *
G04 Offset:    (0.000 0.000)*
G04 Mirror:    No*
G04 Mode:      Positive*
G04 Rotation:  0*
G04 FullContactRelief:  No*
G04 UndefLineWidth:     6.000*
G04 ================== end FILE IDENTIFICATION RECORD ====================*
%FSLAX35Y35*MOIN*%
%IR0*IPPOS*OFA0.00000B0.00000*MIA0B0*SFA1.00000B1.00000*%
%ADD10C,.024*%
%ADD11C,.016*%
%ADD12C,.034004*%
%ADD13C,.026004*%
G75*
%LPD*%
G75*
G36*
G01X47900Y-47500D02*
G02X47500Y-47900I-400J0D01*
G01X-47500D01*
G02X-47900Y-47500I0J400D01*
G01Y47500D01*
G02X-47500Y47900I400J0D01*
G01X47500D01*
G02X47900Y47500I0J-400D01*
G01Y-47500D01*
G37*
%LPC*%
G75*
G54D12*
X-40876Y-18800D03*
X-38353Y42053D03*
X-25448Y-31248D03*
X-12200Y-7400D03*
X-10200Y-13500D03*
X-16300Y-14500D03*
X-6000Y-11500D03*
X35871Y2371D03*
X38200Y-4800D03*
X31000Y14300D03*
X45200Y-9600D03*
G54D13*
X-30600Y-24400D03*
X-29900Y-3100D03*
X-29500Y16700D03*
Y9000D03*
X-27760Y-36200D03*
X-24400Y-20600D03*
X-18600Y-23700D03*
X-23350Y45550D03*
X-2700Y-4342D03*
X7700Y-33400D03*
X16729Y41671D03*
X22553Y42053D03*
X44600Y24368D03*
X45900Y20400D03*
X45111Y29511D03*
%LPD*%
G75*
G54D10*
X-40000Y-33000D03*
X-40876Y-18800D03*
X-42100Y10200D03*
X-37400Y3500D03*
X-38353Y42053D03*
X-25448Y-31248D03*
X-23354Y25911D03*
X-26811Y35300D03*
X-16300Y-14500D03*
X-12200Y-7400D03*
X-13118Y25911D03*
X-10200Y-13500D03*
X-6000Y-11500D03*
X-5900Y3600D03*
X-2882Y25911D03*
X11311Y-33500D03*
X3900Y-20100D03*
X6800Y-6700D03*
X17839Y-31939D03*
X33200Y-45300D03*
X31000Y14300D03*
X28300Y16989D03*
X45200Y-9600D03*
X38200Y-4800D03*
X35871Y2371D03*
X41500Y25000D03*
X37000Y26200D03*
G54D11*
X-27760Y-36200D03*
X-30600Y-24400D03*
X-24400Y-20600D03*
X-29900Y-3100D03*
X-29500Y9000D03*
Y16700D03*
X-23350Y45550D03*
X-18600Y-23700D03*
X-2700Y-4342D03*
X7700Y-33400D03*
X16729Y41671D03*
X22553Y42053D03*
X45900Y20400D03*
X41400Y12800D03*
X45111Y29511D03*
X44600Y24368D03*
M02*
