G04 ================== begin FILE IDENTIFICATION RECORD ==================*
G04 Layout Name:  C:/Users/Liber/Desktop/SmartRing-V1.03/GPRS/GPRS.brd*
G04 Film Name:    PASTEMASK_TOP*
G04 File Format:  Gerber RS274X*
G04 File Origin:  Cadence Allegro 16.3-p003*
G04 Origin Date:  Wed Apr 02 01:26:05 2014*
G04 *
G04 Layer:  VIA CLASS/PASTEMASK_TOP*
G04 Layer:  PIN/PASTEMASK_TOP*
G04 Layer:  PACKAGE GEOMETRY/PASTEMASK_TOP*
G04 *
G04 Offset:    (0.000 0.000)*
G04 Mirror:    No*
G04 Mode:      Positive*
G04 Rotation:  0*
G04 FullContactRelief:  No*
G04 UndefLineWidth:     0.000*
G04 ================== end FILE IDENTIFICATION RECORD ====================*
%FSLAX35Y35*MOIN*%
%IR0*IPPOS*OFA0.00000B0.00000*MIA0B0*SFA1.00000B1.00000*%
%ADD10R,.072835X.110236*%
%ADD21R,.017323X.006299*%
%ADD18R,.090551X.106299*%
%ADD11C,.024*%
%ADD15C,.016*%
%ADD12R,.011811X.049213*%
%AMMACRO19*
4,1,5,-.045276,.012598,
-.004724,.05315,
.045276,.05315,
.045276,-.05315,
-.045276,-.05315,
-.045276,.012598,
0.0*
%
%ADD19MACRO19*%
%ADD25R,.024803X.014173*%
%ADD17R,.035433X.043307*%
%ADD16R,.043307X.035433*%
%ADD26R,.031496X.05315*%
%ADD14R,.022441X.025197*%
%ADD23R,.025197X.022441*%
%ADD22R,.03937X.03937*%
%ADD13R,.024409X.025197*%
%ADD24R,.025197X.024409*%
%ADD20R,.062992X.049213*%
%LPD*%
G75*
G54D10*
X-43000Y-40400D03*
X-21200Y-40500D03*
G54D20*
X-8212Y-24200D03*
X2812D03*
G54D11*
X-42100Y10200D03*
X-40000Y-33000D03*
X-40876Y-18800D03*
X-37400Y3500D03*
X-38353Y42053D03*
X-25448Y-31248D03*
X-23354Y25911D03*
X-26811Y35300D03*
X-12200Y-7400D03*
X-10200Y-13500D03*
X-16300Y-14500D03*
X-13118Y25911D03*
X3900Y-20100D03*
X-6000Y-11500D03*
X-5900Y3600D03*
X-2882Y25911D03*
X11311Y-33500D03*
X6800Y-6700D03*
X17839Y-31939D03*
X33200Y-45300D03*
X38200Y-4800D03*
X35871Y2371D03*
X31000Y14300D03*
X28300Y16989D03*
X37000Y26200D03*
X45200Y-9600D03*
X41500Y25000D03*
G54D12*
X-36937Y-31248D03*
X-34968D03*
X-33000D03*
X-31032D03*
X-29063D03*
X-27094D03*
G54D21*
X12711Y-38000D03*
X9089Y-38709D03*
Y-37291D03*
G54D13*
X-31189Y-24900D03*
X9089Y-27800D03*
X11311Y-33500D03*
X36611Y18600D03*
X35911Y10500D03*
X36711Y22500D03*
X45311Y16200D03*
Y12200D03*
Y25000D03*
X41789Y20200D03*
X45111Y30200D03*
X41489Y34200D03*
G54D22*
X10000Y-21900D03*
G54D23*
X17000Y-39229D03*
X36800Y2371D03*
G54D14*
X-34929Y-24900D03*
X12829Y-27800D03*
X7571Y-33500D03*
X32871Y18600D03*
X35990Y14300D03*
X32210D03*
X32171Y10500D03*
X32971Y22500D03*
X41571Y16200D03*
Y12200D03*
Y25000D03*
X45529Y20200D03*
X41371Y30200D03*
X45229Y34200D03*
G54D24*
X17000Y-35489D03*
X36800Y6111D03*
G54D15*
X-30600Y-24400D03*
X-27760Y-36200D03*
X-24400Y-20600D03*
X-18600Y-23700D03*
X-29900Y-3100D03*
X-29500Y16700D03*
Y9000D03*
X-23350Y45550D03*
X-2700Y-4342D03*
X7700Y-33400D03*
X16729Y41671D03*
X22553Y42053D03*
X41400Y12800D03*
X45111Y29511D03*
X44600Y24368D03*
X45900Y20400D03*
G54D16*
X-33394Y-8341D03*
X-39890D03*
X-33394Y-2829D03*
X-39890D03*
X-33394Y2683D03*
X-39890D03*
X-33394Y8194D03*
X-39890D03*
X-33394Y13706D03*
X-39890D03*
X-33394Y19218D03*
X-39890D03*
X-33394Y24730D03*
X-39890D03*
X-33394Y30242D03*
X-39890D03*
X-33394Y35754D03*
X-39890D03*
X17394Y-8341D03*
X23890D03*
X17394Y-2829D03*
X23890D03*
X17394Y2683D03*
X23890D03*
X17394Y8194D03*
X23890D03*
X17394Y13706D03*
X23890D03*
X17394Y19218D03*
X23890D03*
X17394Y24730D03*
X23890D03*
X17394Y30242D03*
X23890D03*
X17394Y35754D03*
X23890D03*
G54D25*
X17000Y-31939D03*
Y-29261D03*
G54D26*
X39600Y-43964D03*
Y-14436D03*
G54D17*
X-32803Y-13853D03*
X-38315D03*
X-32803Y42053D03*
X-38315D03*
X-21780Y-7554D03*
X-27291D03*
X-21780Y-13853D03*
X-27291D03*
X-21780Y35754D03*
X-27291D03*
X-21780Y42053D03*
X-27291D03*
X-10756Y-7554D03*
X-16268D03*
X-10756Y-13853D03*
X-16268D03*
X-10756Y35754D03*
X-16268D03*
X-10756Y42053D03*
X-16268D03*
X268Y-7554D03*
X-5244D03*
X268Y-13853D03*
X-5244D03*
X268Y35754D03*
X-5244D03*
X268Y42053D03*
X-5244D03*
X11291Y-7554D03*
X5780D03*
X11291Y-13853D03*
X5780D03*
X11291Y35754D03*
X5780D03*
X11291Y42053D03*
X5780D03*
X22315Y-13853D03*
X16803D03*
X22315Y42053D03*
X16803D03*
G54D18*
X-23354Y2289D03*
Y14100D03*
X-13118Y2289D03*
Y14100D03*
Y25911D03*
X-2882Y2289D03*
Y14100D03*
Y25911D03*
X7354Y2289D03*
Y14100D03*
Y25911D03*
G54D19*
X-23354D03*
M02*
