G04 ================== begin FILE IDENTIFICATION RECORD ==================*
G04 Layout Name:  C:/Users/Liber/Desktop/SmartRing-V1.03/GPRS/GPRS.brd*
G04 Film Name:    PASTEMASK_BOTTOM*
G04 File Format:  Gerber RS274X*
G04 File Origin:  Cadence Allegro 16.3-p003*
G04 Origin Date:  Wed Apr 02 01:26:05 2014*
G04 *
G04 Layer:  VIA CLASS/PASTEMASK_BOTTOM*
G04 Layer:  PIN/PASTEMASK_BOTTOM*
G04 Layer:  PACKAGE GEOMETRY/PASTEMASK_BOTTOM*
G04 *
G04 Offset:    (0.000 0.000)*
G04 Mirror:    No*
G04 Mode:      Positive*
G04 Rotation:  0*
G04 FullContactRelief:  No*
G04 UndefLineWidth:     0.000*
G04 ================== end FILE IDENTIFICATION RECORD ====================*
%FSLAX35Y35*MOIN*%
%IR0*IPPOS*OFA0.00000B0.00000*MIA0B0*SFA1.00000B1.00000*%
%AMMACRO20*
4,1,4,-.018583,-.032362,
.018583,-.032362,
.018583,.032362,
-.018583,.032362,
-.018583,-.032362,
0.0*
%
%ADD20MACRO20*%
%AMMACRO21*
4,1,21,-.014764,-.005906,
.008858,-.005906,
.009884,-.005816,
.010878,-.00555,
.011811,-.005115,
.012654,-.004524,
.013382,-.003796,
.013973,-.002953,
.014408,-.00202,
.014674,-.001026,
.014764,0.0,
.014674,.001026,
.014408,.00202,
.013973,.002953,
.013382,.003796,
.012654,.004524,
.011811,.005115,
.010878,.00555,
.009884,.005816,
.008858,.005906,
-.014764,.005906,
-.014764,-.005906,
0.0*
%
%ADD21MACRO21*%
%AMMACRO10*
4,1,21,-.054134,-.024606,
.029528,-.024606,
.033801,-.024232,
.037944,-.023122,
.041831,-.021309,
.045344,-.018849,
.048377,-.015816,
.050837,-.012303,
.05265,-.008416,
.05376,-.004273,
.054134,0.0,
.05376,.004273,
.05265,.008416,
.050837,.012303,
.048377,.015816,
.045344,.018849,
.041831,.021309,
.037944,.023122,
.033801,.024232,
.029528,.024606,
-.054134,.024606,
-.054134,-.024606,
0.0*
%
%ADD10MACRO10*%
%ADD22R,.037402X.137795*%
%ADD11C,.024*%
%ADD13R,.022441X.025197*%
%ADD15R,.025197X.022441*%
%AMMACRO23*
4,1,21,.014764,.005906,
-.008858,.005906,
-.009884,.005816,
-.010878,.00555,
-.011811,.005115,
-.012654,.004524,
-.013382,.003796,
-.013973,.002953,
-.014408,.00202,
-.014674,.001026,
-.014764,0.0,
-.014674,-.001026,
-.014408,-.00202,
-.013973,-.002953,
-.013382,-.003796,
-.012654,-.004524,
-.011811,-.005115,
-.010878,-.00555,
-.009884,-.005816,
-.008858,-.005906,
.014764,-.005906,
.014764,.005906,
0.0*
%
%ADD23MACRO23*%
%ADD14R,.037402X.017717*%
%ADD12R,.024409X.025197*%
%ADD16R,.025197X.024409*%
%AMMACRO17*
4,1,21,.054134,.024606,
-.029528,.024606,
-.033801,.024232,
-.037944,.023122,
-.041831,.021309,
-.045344,.018849,
-.048377,.015816,
-.050837,.012303,
-.05265,.008416,
-.05376,.004273,
-.054134,0.0,
-.05376,-.004273,
-.05265,-.008416,
-.050837,-.012303,
-.048377,-.015816,
-.045344,-.018849,
-.041831,-.021309,
-.037944,-.023122,
-.033801,-.024232,
-.029528,-.024606,
.054134,-.024606,
.054134,.024606,
0.0*
%
%ADD17MACRO17*%
%ADD19R,.059055X.07874*%
%ADD18R,.07874X.059055*%
G75*
%LPD*%
G75*
G36*
G01X36842Y19165D02*
X40559D01*
Y25637D01*
X36842D01*
Y19165D01*
G37*
G54D10*
X-40876Y-38800D03*
Y-28800D03*
Y-18800D03*
G54D11*
X-42100Y10200D03*
X-40000Y-33000D03*
X-30600Y-24400D03*
X-40876Y-18800D03*
X-37400Y3500D03*
X-38353Y42053D03*
X-25448Y-31248D03*
X-27760Y-36200D03*
X-24400Y-20600D03*
X-18600Y-23700D03*
X-29900Y-3100D03*
X-29500Y16700D03*
Y9000D03*
X-23354Y25911D03*
X-26811Y35300D03*
X-23350Y45550D03*
X-12200Y-7400D03*
X-10200Y-13500D03*
X-16300Y-14500D03*
X-13118Y25911D03*
X3900Y-20100D03*
X-2700Y-4342D03*
X-6000Y-11500D03*
X-5900Y3600D03*
X-2882Y25911D03*
X7700Y-33400D03*
X11311Y-33500D03*
X6800Y-6700D03*
X17839Y-31939D03*
X16729Y41671D03*
X22553Y42053D03*
X33200Y-45300D03*
X38200Y-4800D03*
X35871Y2371D03*
X31000Y14300D03*
X28300Y16989D03*
X37000Y26200D03*
X45200Y-9600D03*
X41400Y12800D03*
X45111Y29511D03*
X44600Y24368D03*
X45900Y20400D03*
X41500Y25000D03*
G54D20*
X38701Y22401D03*
G54D12*
X-34811Y4800D03*
X-31289Y800D03*
X-31389Y-3100D03*
X-26811Y41100D03*
Y45100D03*
X-13211Y4800D03*
X-13111Y-1000D03*
X26811Y42100D03*
G54D21*
X32794Y26337D03*
Y24368D03*
Y22400D03*
Y20432D03*
Y18463D03*
G54D13*
X-31071Y4800D03*
X-35029Y800D03*
X-35129Y-3100D03*
X-23071Y41100D03*
Y45100D03*
X-9471Y4800D03*
X-9371Y-1000D03*
X23071Y42100D03*
G54D22*
X34176Y38900D03*
X43624D03*
G54D14*
X-25943Y4259D03*
Y1700D03*
Y-859D03*
X-18857D03*
Y1700D03*
Y4259D03*
G54D23*
X44606Y18463D03*
Y20432D03*
Y22400D03*
Y24368D03*
Y26337D03*
G54D15*
X-19200Y41571D03*
X14200Y40071D03*
X28300Y20729D03*
G54D16*
X-19200Y45311D03*
X14200Y43811D03*
X28300Y16989D03*
G54D17*
X-324Y-38800D03*
Y-28800D03*
Y-18800D03*
G54D18*
X17389Y-42691D03*
Y8491D03*
X41011Y-42691D03*
Y8491D03*
G54D19*
X17389Y-17100D03*
X41011D03*
M02*
