G04 ================== begin FILE IDENTIFICATION RECORD ==================*
G04 Layout Name:  C:/Users/Liber/Desktop/SmartRing-V1.03/GPRS/GPRS.brd*
G04 Film Name:    SILKSCREEN_TOP*
G04 File Format:  Gerber RS274X*
G04 File Origin:  Cadence Allegro 16.3-p003*
G04 Origin Date:  Wed Apr 02 01:26:05 2014*
G04 *
G04 Layer:  PACKAGE GEOMETRY/SILKSCREEN_TOP*
G04 Layer:  MANUFACTURING/AUTOSILK_TOP*
G04 Layer:  BOARD GEOMETRY/SILKSCREEN_TOP*
G04 *
G04 Offset:    (0.000 0.000)*
G04 Mirror:    No*
G04 Mode:      Positive*
G04 Rotation:  0*
G04 FullContactRelief:  No*
G04 UndefLineWidth:     0.000*
G04 ================== end FILE IDENTIFICATION RECORD ====================*
%FSLAX35Y35*MOIN*%
%IR0*IPPOS*OFA0.00000B0.00000*MIA0B0*SFA1.00000B1.00000*%
%ADD10C,.003937*%
%ADD11C,.009843*%
%ADD12C,.007874*%
G75*
%LPD*%
G75*
G54D10*
G01X-41600Y39300D02*
X-39600D01*
X-39500Y39400D01*
Y39300D01*
X-40800Y38000D01*
X-42100Y39300D01*
X-39500D01*
G01X-41600D02*
X-39600D01*
X-39500Y39400D01*
Y39300D01*
X-40800Y38000D01*
X-42100Y39300D01*
X-39500D01*
G01X-40200Y45200D02*
Y45100D01*
X-43000Y42300D01*
G01X-40200Y45200D02*
Y45100D01*
X-43000Y42300D01*
G54D11*
G01X-16169Y-32626D02*
G03I-492J0D01*
G01D02*
G03I-492J0D01*
G01X-12838Y-24200D02*
G03I-492J0D01*
G01D02*
G03I-492J0D01*
G01X7849Y-35008D02*
G03I-492J0D01*
G01X6929Y-35252D02*
G03X7357Y-35500I427J244D01*
G01D02*
G03X7784Y-35252I0J492D01*
G01X10492Y-17668D02*
G03I-492J0D01*
G01D02*
G03X10000Y-17176I-492J0D01*
G01D02*
G03X9508Y-17668I0J-492D01*
G01D02*
G03X10000Y-18160I492J0D01*
G01D02*
G03X10492Y-17668I0J492D01*
G01X17492Y-26584D02*
G03I-492J0D01*
G01D02*
G03X17000Y-26092I-492J0D01*
G01D02*
G03X16508Y-26584I0J-492D01*
G01D02*
G03X17000Y-27076I492J0D01*
G01D02*
G03X17492Y-26584I0J492D01*
G01X29592Y14300D02*
G03I-492J0D01*
G01X29360Y14718D02*
G03X29100Y14792I-260J-417D01*
G01D02*
G03X28608Y14300I0J-492D01*
G01D02*
G03X29100Y13808I492J0D01*
G01D02*
G03X29360Y13882I0J492D01*
G54D12*
G01X-40874Y-50736D02*
X-46976D01*
Y-42468D01*
G01X-40874Y-50736D02*
X-46976D01*
Y-46305D01*
G01X-40874Y-30264D02*
X-46976D01*
Y-38532D01*
G01X-40874Y-30264D02*
X-46976D01*
Y-34495D01*
G01X-43039Y45202D02*
X27039D01*
Y-17002D01*
X-43039D01*
Y45202D01*
G01X27039Y16014D02*
Y-17002D01*
X-43039D01*
Y8913D01*
G01Y11487D02*
Y45202D01*
G01D02*
X-24492D01*
G01X-25126Y-50736D02*
X-19024D01*
Y-42468D01*
G01X-25126Y-50736D02*
X-19024D01*
Y-46405D01*
G01X-25126Y-30264D02*
X-19024D01*
Y-38532D01*
G01X-24195Y-30264D02*
X-19024D01*
Y-34595D01*
G01X-22209Y45202D02*
X27039D01*
Y17964D01*
G01X-3684Y-21050D02*
X-1716D01*
G01X-3684Y-27350D02*
X-1716D01*
G01X-3684D02*
X-1716D01*
G01X-3684Y-21050D02*
X-1716D01*
G01X11968Y-19932D02*
X8032D01*
Y-23868D01*
X11968D01*
Y-19932D01*
G01X36647Y-17389D02*
X32513D01*
Y-41011D01*
X36647D01*
G01Y-17389D02*
X32513D01*
Y-41011D01*
X36647D01*
G01X42553Y-17389D02*
X46687D01*
Y-41011D01*
X42553D01*
G01Y-17389D02*
X46687D01*
Y-41011D01*
X42553D01*
M02*
