G04 ================== begin FILE IDENTIFICATION RECORD ==================*
G04 Layout Name:  C:/Users/Liber/Desktop/SmartRing-V1.03/GPRS/GPRS.brd*
G04 Film Name:    SOLDERMASK_BOTTOM*
G04 File Format:  Gerber RS274X*
G04 File Origin:  Cadence Allegro 16.3-p003*
G04 Origin Date:  Wed Apr 02 01:23:31 2014*
G04 *
G04 Layer:  PIN/SOLDERMASK_BOTTOM*
G04 Layer:  PACKAGE GEOMETRY/SOLDERMASK_BOTTOM*
G04 Layer:  BOARD GEOMETRY/SOLDERMASK_BOTTOM*
G04 *
G04 Offset:    (0.000 0.000)*
G04 Mirror:    No*
G04 Mode:      Positive*
G04 Rotation:  0*
G04 FullContactRelief:  No*
G04 UndefLineWidth:     0.000*
G04 ================== end FILE IDENTIFICATION RECORD ====================*
%FSLAX35Y35*MOIN*%
%IR0*IPPOS*OFA0.00000B0.00000*MIA0B0*SFA1.00000B1.00000*%
%ADD18R,.066929X.086614*%
%ADD17R,.086614X.066929*%
%AMMACRO21*
4,1,35,-.03248,-.034449,
-.020669,-.04626,
.032087,-.04626,
.032155,-.046255,
.032221,-.046238,
.032282,-.046209,
.032338,-.046171,
.032387,-.046123,
.032426,-.046068,
.032455,-.046007,
.032474,-.045941,
.03248,-.045873,
.03248,-.045866,
.03248,.045866,
.032475,.045934,
.032458,.046,
.03243,.046061,
.032391,.046118,
.032344,.046166,
.032289,.046206,
.032227,.046235,
.032162,.046253,
.032094,.04626,
.032087,.04626,
-.032087,.04626,
-.032155,.046255,
-.032221,.046238,
-.032282,.046209,
-.032338,.046171,
-.032387,.046123,
-.032426,.046068,
-.032455,.046007,
-.032474,.045941,
-.03248,.045873,
-.03248,.045866,
-.03248,-.034449,
0.0*
%
%ADD21MACRO21*%
%AMMACRO10*
4,1,21,-.054134,-.024606,
.029528,-.024606,
.033801,-.024232,
.037944,-.023122,
.041831,-.021309,
.045344,-.018849,
.048377,-.015816,
.050837,-.012303,
.05265,-.008416,
.05376,-.004273,
.054134,0.0,
.05376,.004273,
.05265,.008416,
.050837,.012303,
.048377,.015816,
.045344,.018849,
.041831,.021309,
.037944,.023122,
.033801,.024232,
.029528,.024606,
-.054134,.024606,
-.054134,-.024606,
0.0*
%
%ADD10MACRO10*%
%AMMACRO22*
4,1,21,.018701,.009843,
-.008858,.009843,
-.010567,.009693,
-.012225,.009249,
-.013779,.008524,
-.015185,.00754,
-.016398,.006327,
-.017382,.004922,
-.018107,.003367,
-.018551,.001709,
-.018701,0.0,
-.018551,-.001709,
-.018107,-.003367,
-.017382,-.004921,
-.016398,-.006327,
-.015185,-.00754,
-.01378,-.008524,
-.012225,-.009249,
-.010567,-.009693,
-.008858,-.009843,
.018701,-.009843,
.018701,.009843,
0.0*
%
%ADD22MACRO22*%
%ADD20R,.037402X.137795*%
%ADD13R,.030315X.033071*%
%ADD15R,.033071X.030315*%
%ADD12R,.032283X.033071*%
%ADD14R,.033071X.032283*%
%AMMACRO19*
4,1,21,-.018701,-.009843,
.008858,-.009843,
.010567,-.009693,
.012225,-.009249,
.013779,-.008524,
.015185,-.00754,
.016398,-.006327,
.017382,-.004922,
.018107,-.003367,
.018551,-.001709,
.018701,0.0,
.018551,.001709,
.018107,.003367,
.017382,.004921,
.016398,.006327,
.015185,.00754,
.01378,.008524,
.012225,.009249,
.010567,.009693,
.008858,.009843,
-.018701,.009843,
-.018701,-.009843,
0.0*
%
%ADD19MACRO19*%
%AMMACRO16*
4,1,21,.054134,.024606,
-.029528,.024606,
-.033801,.024232,
-.037944,.023122,
-.041831,.021309,
-.045344,.018849,
-.048377,.015816,
-.050837,.012303,
-.05265,.008416,
-.05376,.004273,
-.054134,0.0,
-.05376,-.004273,
-.05265,-.008416,
-.050837,-.012303,
-.048377,-.015816,
-.045344,-.018849,
-.041831,-.021309,
-.037944,-.023122,
-.033801,-.024232,
-.029528,-.024606,
.054134,-.024606,
.054134,.024606,
0.0*
%
%ADD16MACRO16*%
%ADD11R,.045276X.025591*%
%LPD*%
G75*
G54D10*
X-40876Y-38800D03*
Y-28800D03*
Y-18800D03*
G54D11*
X-25943Y-859D03*
Y4259D03*
Y1700D03*
X-18857Y-859D03*
Y1700D03*
Y4259D03*
G54D20*
X34176Y38900D03*
X43624D03*
G54D12*
X-31389Y-3100D03*
X-34811Y4800D03*
X-31289Y800D03*
X-26811Y45100D03*
Y41100D03*
X-13111Y-1000D03*
X-13211Y4800D03*
X26811Y42100D03*
G54D21*
X38700Y22400D03*
G54D13*
X-35129Y-3100D03*
X-31071Y4800D03*
X-35029Y800D03*
X-23071Y45100D03*
Y41100D03*
X-9371Y-1000D03*
X-9471Y4800D03*
X23071Y42100D03*
G54D22*
X44606Y18463D03*
Y20432D03*
Y22400D03*
Y24368D03*
Y26337D03*
G54D14*
X-19200Y45311D03*
X14200Y43811D03*
X28300Y16989D03*
G54D15*
X-19200Y41571D03*
X14200Y40071D03*
X28300Y20729D03*
G54D16*
X-324Y-38800D03*
Y-28800D03*
Y-18800D03*
G54D17*
X17389Y-42691D03*
Y8491D03*
X41011Y-42691D03*
Y8491D03*
G54D18*
X17389Y-17100D03*
X41011D03*
G54D19*
X32794Y20432D03*
Y18463D03*
Y26337D03*
Y24368D03*
Y22400D03*
M02*
