G04 ================== begin FILE IDENTIFICATION RECORD ==================*
G04 Layout Name:  C:/Users/Liber/Desktop/SmartRing-V1.03/GPRS/GPRS.brd*
G04 Film Name:    TOP*
G04 File Format:  Gerber RS274X*
G04 File Origin:  Cadence Allegro 16.3-p003*
G04 Origin Date:  Wed Apr 02 01:23:31 2014*
G04 *
G04 Layer:  ETCH/TOP*
G04 Layer:  PIN/TOP*
G04 Layer:  VIA CLASS/TOP*
G04 *
G04 Offset:    (0.000 0.000)*
G04 Mirror:    No*
G04 Mode:      Positive*
G04 Rotation:  0*
G04 FullContactRelief:  No*
G04 UndefLineWidth:     6.000*
G04 ================== end FILE IDENTIFICATION RECORD ====================*
%FSLAX35Y35*MOIN*%
%IR0*IPPOS*OFA0.00000B0.00000*MIA0B0*SFA1.00000B1.00000*%
%ADD10R,.072835X.110236*%
%ADD21R,.017323X.006299*%
%ADD18R,.090551X.106299*%
%ADD12C,.024*%
%ADD15C,.016*%
%ADD11R,.011811X.049213*%
%AMMACRO19*
4,1,5,-.045276,.012598,
-.004724,.05315,
.045276,.05315,
.045276,-.05315,
-.045276,-.05315,
-.045276,.012598,
0.0*
%
%ADD19MACRO19*%
%ADD25R,.024803X.014173*%
%ADD13R,.035433X.043307*%
%ADD14R,.043307X.035433*%
%ADD26R,.031496X.05315*%
%ADD17R,.022441X.025197*%
%ADD24R,.025197X.022441*%
%ADD22R,.03937X.03937*%
%ADD16R,.024409X.025197*%
%ADD23R,.025197X.024409*%
%ADD20R,.062992X.049213*%
%ADD27C,.006*%
%ADD28C,.01*%
G75*
%LPD*%
G75*
G54D10*
X-43000Y-40400D03*
X-21200Y-40500D03*
G54D20*
X-8212Y-24200D03*
X2812D03*
G54D11*
X-36937Y-31248D03*
X-34968D03*
X-33000D03*
X-31032D03*
X-29063D03*
X-27094D03*
G54D12*
X-40000Y-33000D03*
X-40876Y-18800D03*
X-42100Y10200D03*
X-37400Y3500D03*
X-38353Y42053D03*
X-25448Y-31248D03*
X-23354Y25911D03*
X-26811Y35300D03*
X-16300Y-14500D03*
X-12200Y-7400D03*
X-13118Y25911D03*
X-10200Y-13500D03*
X-6000Y-11500D03*
X-5900Y3600D03*
X-2882Y25911D03*
X11311Y-33500D03*
X3900Y-20100D03*
X6800Y-6700D03*
X17839Y-31939D03*
X33200Y-45300D03*
X31000Y14300D03*
X28300Y16989D03*
X45200Y-9600D03*
X38200Y-4800D03*
X35871Y2371D03*
X41500Y25000D03*
X37000Y26200D03*
G54D21*
X9089Y-38709D03*
Y-37291D03*
X12711Y-38000D03*
G54D22*
X10000Y-21900D03*
G54D13*
X-38315Y-13853D03*
Y42053D03*
X-27291Y-13853D03*
X-32803D03*
X-27291Y-7554D03*
Y35754D03*
Y42053D03*
X-32803D03*
X-16268Y-13853D03*
X-21780D03*
X-16268Y-7554D03*
X-21780D03*
X-16268Y35754D03*
X-21780D03*
X-16268Y42053D03*
X-21780D03*
X-5244Y-13853D03*
X-10756D03*
X-5244Y-7554D03*
X-10756D03*
X-5244Y35754D03*
X-10756D03*
X-5244Y42053D03*
X-10756D03*
X11291Y-13853D03*
X5780D03*
X268D03*
X11291Y-7554D03*
X5780D03*
X268D03*
X11291Y35754D03*
X5780D03*
X268D03*
X11291Y42053D03*
X5780D03*
X268D03*
X22315Y-13853D03*
X16803D03*
X22315Y42053D03*
X16803D03*
G54D23*
X17000Y-35489D03*
X36800Y6111D03*
G54D14*
X-39890Y-8341D03*
Y-2829D03*
Y2683D03*
Y8194D03*
Y13706D03*
Y19218D03*
Y24730D03*
Y30242D03*
Y35754D03*
X-33394Y-8341D03*
Y-2829D03*
Y2683D03*
Y8194D03*
Y13706D03*
Y19218D03*
Y24730D03*
Y30242D03*
Y35754D03*
X17394Y-8341D03*
Y-2829D03*
Y2683D03*
Y8194D03*
Y13706D03*
Y19218D03*
Y24730D03*
Y30242D03*
Y35754D03*
X23890Y-8341D03*
Y-2829D03*
Y2683D03*
Y8194D03*
Y13706D03*
Y19218D03*
Y24730D03*
Y30242D03*
Y35754D03*
G54D24*
X17000Y-39229D03*
X36800Y2371D03*
G54D15*
X-27760Y-36200D03*
X-30600Y-24400D03*
X-24400Y-20600D03*
X-29900Y-3100D03*
X-29500Y9000D03*
Y16700D03*
X-23350Y45550D03*
X-18600Y-23700D03*
X-2700Y-4342D03*
X7700Y-33400D03*
X16729Y41671D03*
X22553Y42053D03*
X45900Y20400D03*
X41400Y12800D03*
X45111Y29511D03*
X44600Y24368D03*
G54D16*
X-31189Y-24900D03*
X9089Y-27800D03*
X11311Y-33500D03*
X35911Y10500D03*
X45311Y16200D03*
X36611Y18600D03*
X41789Y20200D03*
X36711Y22500D03*
X45311Y12200D03*
Y25000D03*
X45111Y30200D03*
X41489Y34200D03*
G54D25*
X17000Y-31939D03*
Y-29261D03*
G54D17*
X-34929Y-24900D03*
X7571Y-33500D03*
X12829Y-27800D03*
X32171Y10500D03*
X32871Y18600D03*
X32971Y22500D03*
X32210Y14300D03*
X41571Y16200D03*
X35990Y14300D03*
X41571Y12200D03*
Y25000D03*
X41371Y30200D03*
X45229Y34200D03*
X45529Y20200D03*
G54D26*
X39600Y-43964D03*
Y-14436D03*
G54D27*
G01X-40000Y-33000D02*
X-38248Y-31248D01*
X-36937D01*
G01X-40876Y-18800D02*
X-7226D01*
X-5244Y-16818D01*
Y-13853D01*
G01X-33394Y2683D02*
X-33787D01*
X-35400Y4295D01*
Y4329D01*
X-36571Y5500D01*
X-36605D01*
X-36727Y5623D01*
X-42386D01*
X-42855Y6092D01*
Y6378D01*
X-44300Y7823D01*
Y31343D01*
X-42621Y33022D01*
Y33416D01*
X-40284Y35754D01*
X-39890D01*
G01D02*
Y40478D01*
X-38315Y42053D01*
G01D02*
X-38353D01*
G01X-31189Y-24900D02*
X-31100D01*
X-30600Y-24400D01*
G01X-27094Y-31248D02*
X-25448D01*
G01X-27760Y-36200D02*
X-31309D01*
X-33000Y-34509D01*
Y-31248D01*
G01X-24400Y-20600D02*
X-29169Y-25368D01*
Y-26491D01*
X-31032Y-28354D01*
Y-31248D01*
G01X-34968D02*
Y-26999D01*
X-34929Y-26960D01*
Y-24900D01*
G01X-18600Y-23700D02*
X-19731Y-24831D01*
X-25907D01*
X-29063Y-27987D01*
Y-31248D01*
G01X-29500Y9000D02*
Y7400D01*
X-29900Y7000D01*
Y-3100D01*
G01X-29500Y16700D02*
Y11694D01*
X-33000Y8194D01*
X-33394D01*
G01X-23350Y45550D02*
X-24117Y44784D01*
X-24954D01*
X-27291Y42446D01*
Y42053D01*
G01X-5244Y-7554D02*
Y-7947D01*
X-2304Y-10887D01*
Y-16350D01*
X-2200Y-16454D01*
Y-18877D01*
X-7523Y-24200D01*
X-8212D01*
G01X-6000Y-11500D02*
X-6100Y-11600D01*
Y-12997D01*
X-5244Y-13853D01*
G01X9089Y-27800D02*
Y-25740D01*
X10161Y-24668D01*
X12300D01*
X13700Y-23268D01*
Y-16512D01*
X13863Y-16350D01*
Y-5057D01*
X13106Y-4300D01*
X-1058D01*
X-1100Y-4342D01*
X-2700D01*
G01X7571Y-33500D02*
Y-35773D01*
X7657Y-35859D01*
Y-36411D01*
X8538Y-37291D01*
X9089D01*
G01X17000Y-39229D02*
X13321D01*
X13250Y-39300D01*
X11698D01*
X11107Y-38709D01*
X9089D01*
G01X17000Y-35489D02*
X14940D01*
X13331Y-33880D01*
Y-31909D01*
X12863Y-31440D01*
X12690D01*
X9089Y-27839D01*
Y-27800D01*
G01X3900Y-20100D02*
Y-23112D01*
X2812Y-24200D01*
G01X5780Y-13853D02*
Y-16818D01*
X5900Y-16939D01*
Y-17800D01*
X7000Y-18900D01*
X8700D01*
X10000Y-20200D01*
Y-21900D01*
G01X17000Y-29261D02*
X14290D01*
X12829Y-27800D01*
G01X17000Y-29261D02*
X25858D01*
X39600Y-15519D01*
Y-14436D01*
G01X32171Y10500D02*
X26653D01*
X26386Y10766D01*
X20728D01*
X17787Y13706D01*
X17394D01*
G01X32210Y14300D02*
Y14438D01*
X33898Y16126D01*
X34176D01*
X36611Y18561D01*
Y18600D01*
G01X32210Y14300D02*
X31000D01*
G01X22315Y42053D02*
X22553D01*
G01X36800Y2371D02*
X35871D01*
G01X36800Y6111D02*
X36839D01*
X38626Y7897D01*
Y13117D01*
X41571Y16062D01*
Y16200D01*
G01X36611Y18600D02*
Y22400D01*
X36711Y22500D01*
G01X35911Y10500D02*
Y14221D01*
X35990Y14300D01*
G01X41789Y20200D02*
Y20239D01*
X39649Y22380D01*
Y24023D01*
X39500Y24171D01*
Y25829D01*
X39649Y25977D01*
Y26591D01*
X39683Y26626D01*
Y28374D01*
X41371Y30062D01*
Y30200D01*
G01X41571Y12200D02*
X41400D01*
X41000Y12600D01*
X41971D01*
X41571Y12200D01*
G01D02*
Y12629D01*
X41400Y12800D01*
G01X45111Y30200D02*
Y30239D01*
X43325Y32026D01*
X43285D01*
X41489Y33822D01*
Y34200D01*
G01X45229D02*
Y34062D01*
X47332Y31960D01*
Y22002D01*
X45729Y20400D01*
G01X45311Y16200D02*
Y12200D01*
G01X45900Y20400D02*
X45729D01*
G01X45311Y16200D02*
Y19982D01*
X45529Y20200D01*
G01X45729Y20400D02*
X45529Y20200D01*
G01X45111Y30200D02*
Y29511D01*
G01X44600Y24368D02*
X46000D01*
X45368Y25000D01*
X45311D01*
G54D18*
X-23354Y2289D03*
Y14100D03*
X-13118Y2289D03*
Y14100D03*
Y25911D03*
X-2882Y2289D03*
Y14100D03*
Y25911D03*
X7354Y2289D03*
Y14100D03*
Y25911D03*
G54D28*
G01X-39890Y2683D02*
Y-2829D01*
G01Y8194D02*
X-40094D01*
X-42100Y10200D01*
G01X-37400Y3500D02*
X-38400Y3500D01*
X-39217Y2683D01*
X-39890D01*
G01Y30242D02*
X-33394D01*
G01Y35754D02*
Y30242D01*
G01Y24730D02*
Y30242D01*
G01Y24730D02*
X-24535D01*
X-23354Y25911D01*
G01X-32803Y42053D02*
Y25320D01*
X-33394Y24730D01*
G01Y35754D02*
X-27291D01*
G01X-23354Y14100D02*
Y2289D01*
G01D02*
X-13118D01*
G01X-23354Y14100D02*
X-13118D01*
G01X-23354Y25911D02*
Y14100D01*
G01Y25911D02*
X-13118D01*
G01X-10756Y35754D02*
Y28273D01*
X-13118Y25911D01*
G01X-16268Y42053D02*
X-10756D01*
G01X-21780D02*
X-16268D01*
G01X-2882Y2289D02*
X7354D01*
G01X-13118D02*
X-2882D01*
G01X-13118Y14100D02*
Y2289D01*
G01X-2882Y14100D02*
Y2289D01*
G01Y14100D02*
X7354D01*
G01X-13118D02*
X-2882D01*
G01X-13118Y25911D02*
Y14100D01*
G01X-2882Y25911D02*
Y14100D01*
G01Y25911D02*
X7354D01*
G01X-13118D02*
X-2882D01*
G01X268Y35754D02*
Y29061D01*
X-2882Y25911D01*
G01X-5244Y35754D02*
X268D01*
G01X-10756D02*
X-5244D01*
G01X-10756Y42053D02*
Y35754D01*
G01X6800Y-6700D02*
X6300Y-6700D01*
X5780Y-7221D01*
Y-7554D01*
G01X7354Y14100D02*
Y2289D01*
G01Y25911D02*
Y14100D01*
G01X17394Y30242D02*
X11685D01*
X7354Y25911D01*
G01X268Y42053D02*
Y35754D01*
G01X11311Y-33500D02*
X11300Y-33511D01*
Y-36100D01*
X12711Y-37511D01*
Y-38000D01*
G01X17000Y-31939D02*
X17839D01*
G01X32871Y18600D02*
Y22400D01*
X32971Y22500D01*
G01D02*
Y24760D01*
X34411Y26200D01*
X37000D01*
G01X39600Y-43964D02*
X34536D01*
X33200Y-45300D01*
G01X38200Y-4800D02*
X43000Y-9600D01*
X45200D01*
G54D19*
X-23354Y25911D03*
M02*
